<?xml version="1.0" encoding="utf-8"?>
<!-- Generator: Adobe Illustrator 26.0.1, SVG Export Plug-In . SVG Version: 6.00 Build 0)  -->
<svg version="1.1" id="Layer_1" xmlns="http://www.w3.org/2000/svg" xmlns:xlink="http://www.w3.org/1999/xlink" x="0px" y="0px"
	 width="416px" height="257.715px" viewBox="0 0 416 257.715" style="enable-background:new 0 0 416 257.715;" xml:space="preserve"
	>
<style type="text/css">
	.st0{opacity:0.2;}
	.st1{fill:#FFFFFF;}
</style>
<path d="M416,7.927v241.86c0,4.38-3.55,7.93-7.93,7.93H7.93c-4.38,0-7.93-3.55-7.93-7.93V7.927c0-4.38,3.55-7.93,7.93-7.93h400.14
	C412.45-0.003,416,3.547,416,7.927z"/>
<g class="st0">
	<g>
		<path class="st1" d="M335.84,257.717h1c0.03-43.63,35.53-79.11,79.16-79.11v-1C371.82,177.607,335.87,213.537,335.84,257.717z"/>
	</g>
	<g>
		<path class="st1" d="M348.43,257.717h1c0.03-36.68,29.88-66.52,66.57-66.52v-1C378.76,190.197,348.46,220.477,348.43,257.717z"/>
	</g>
	<g>
		<path class="st1" d="M312.56,257.717h1c0.03-56.46,45.97-102.39,102.44-102.39v-1C358.98,154.327,312.59,200.697,312.56,257.717z"
			/>
	</g>
	<g>
		<path class="st1" d="M324.03,257.717h1c0.03-50.14,40.83-90.91,90.97-90.91v-1C365.31,165.807,324.06,207.027,324.03,257.717z"/>
	</g>
</g>
<g>
	<g>
		<path class="st1" d="M37.867,118.308c0,5.354,4.334,9.685,9.683,9.685h10.259v-10.837H37.867V118.308z"/>
	</g>
	<g>
		<rect x="37.867" y="102.662" class="st1" width="19.941" height="11.056"/>
	</g>
	<g>
		<path class="st1" d="M37.867,83.574v1.158h19.941V73.888H47.55C42.201,73.888,37.867,78.225,37.867,83.574z"/>
	</g>
	<g>
		<path class="st1" d="M88.296,73.888H78.44h-3.438H61.247v10.844v3.438v11.056v3.438v11.056v3.438v10.837h13.755v-10.837v-3.438
			v-11.056v-3.438V88.169v-3.438h3.438h19.542v-1.158C97.982,78.225,93.645,73.888,88.296,73.888z"/>
	</g>
	<g>
		<rect x="37.867" y="88.169" class="st1" width="19.941" height="11.056"/>
	</g>
	<g>
		<rect x="78.44" y="88.169" class="st1" width="19.542" height="11.056"/>
	</g>
	<g>
		<rect x="78.44" y="102.662" class="st1" width="19.542" height="11.056"/>
	</g>
	<g>
		<path class="st1" d="M78.44,127.993h9.856c5.348,0,9.686-4.331,9.686-9.685v-1.152H78.44V127.993z"/>
	</g>
</g>
<g>
	<path class="st1" d="M313.448,163.573h-8.386c-0.682,0-1.222-0.581-1.222-1.216v-6.242c0-0.629,0.54-1.217,1.222-1.217h9.603
		c0.682,0,1.216,0.588,1.216,1.217v16.527c0,0.658-0.487,1.216-1.216,1.216h-1.217c-0.734,0-1.222-0.558-1.222-1.216
		c0-0.729,0.512-1.217,1.222-1.217V163.573z M313.448,161.134v-3.797h-7.17v3.797H313.448z"/>
	<path class="st1" d="M323.828,157.337c0,0.535-0.441,1.216-1.222,1.216c-0.776,0-1.216-0.681-1.216-1.216v-1.222
		c0-0.535,0.441-1.217,1.216-1.217h10.826v7.065c0,0.858,0.024,0.952-0.658,1.539l-3.409,2.95c-0.635,0.559-0.688,0.611-0.688,1.458
		v4.732c0,0.781-0.341,1.216-1.216,1.216c-0.876,0-1.217-0.435-1.217-1.216v-5.871c0-0.805,0.023-0.882,0.629-1.417l3.362-2.903
		c0.811-0.705,0.758-0.682,0.758-1.751v-3.362H323.828z"/>
	<path class="st1" d="M348.541,163.573h-8.387c-0.681,0-1.216-0.581-1.216-1.216v-6.242c0-0.629,0.535-1.217,1.216-1.217h9.609
		c0.676,0,1.217,0.588,1.217,1.217v16.527c0,0.658-0.488,1.216-1.217,1.216h-1.222c-0.729,0-1.217-0.558-1.217-1.216
		c0-0.729,0.512-1.217,1.217-1.217V163.573z M348.541,161.134v-3.797h-7.164v3.797H348.541z"/>
	<path class="st1" d="M357.704,157.337c-0.635,0-1.217-0.347-1.217-1.222s0.582-1.217,1.217-1.217h8.386
		c1.387,0,2.439,1.047,2.439,2.439v4.678c0,0.976-0.194,1.681-0.952,2.363c0.758,0.682,0.952,1.393,0.952,2.363v4.684
		c0,1.387-1.052,2.433-2.439,2.433h-8.386c-0.635,0-1.217-0.335-1.217-1.216c0-0.876,0.582-1.217,1.217-1.217h8.386v-4.049
		c0-1.364-0.535-1.775-1.222-1.775h-4.772c-0.635,0-1.222-0.347-1.222-1.222s0.587-1.216,1.222-1.216h4.772
		c0.687,0,1.222-0.418,1.222-1.781v-4.044H357.704z"/>
	<g>
		<path class="st1" d="M47.531,158.025l-0.396,5.255l4.248-3.203l1.08,1.835l-4.967,2.412l4.931,2.52l-1.044,1.8l-4.283-3.275
			l0.468,5.363H45.48l0.432-5.363l-4.248,3.275l-1.008-1.8l4.931-2.483l-4.967-2.448l1.044-1.764l4.211,3.132l-0.36-5.255H47.531z"
			/>
	</g>
	<g>
		<path class="st1" d="M65.145,158.025l-0.396,5.255l4.248-3.203l1.08,1.835l-4.967,2.412l4.931,2.52l-1.044,1.8l-4.283-3.275
			l0.468,5.363h-2.088l0.432-5.363l-4.248,3.275l-1.008-1.8l4.931-2.483l-4.967-2.448l1.044-1.764l4.211,3.132l-0.36-5.255H65.145z"
			/>
	</g>
	<g>
		<path class="st1" d="M82.759,158.025l-0.396,5.255l4.248-3.203l1.08,1.835l-4.967,2.412l4.931,2.52l-1.044,1.8l-4.283-3.275
			l0.468,5.363h-2.088l0.432-5.363l-4.248,3.275l-1.008-1.8l4.931-2.483l-4.967-2.448l1.044-1.764l4.211,3.132l-0.36-5.255H82.759z"
			/>
	</g>
	<g>
		<path class="st1" d="M100.373,158.025l-0.396,5.255l4.248-3.203l1.08,1.835l-4.967,2.412l4.931,2.52l-1.044,1.8l-4.283-3.275
			l0.468,5.363h-2.088l0.432-5.363l-4.248,3.275l-1.008-1.8l4.931-2.483l-4.967-2.448l1.044-1.764l4.211,3.132l-0.36-5.255H100.373z
			"/>
	</g>
	<g>
		<path class="st1" d="M138.026,158.025l-0.396,5.255l4.248-3.203l1.08,1.835l-4.967,2.412l4.931,2.52l-1.044,1.8l-4.283-3.275
			l0.468,5.363h-2.088l0.432-5.363l-4.248,3.275l-1.008-1.8l4.931-2.483l-4.967-2.448l1.044-1.764l4.211,3.132l-0.36-5.255H138.026z
			"/>
	</g>
	<g>
		<path class="st1" d="M155.64,158.025l-0.396,5.255l4.248-3.203l1.08,1.835l-4.967,2.412l4.931,2.52l-1.044,1.8l-4.283-3.275
			l0.468,5.363h-2.088l0.432-5.363l-4.248,3.275l-1.008-1.8l4.931-2.483l-4.967-2.448l1.044-1.764l4.211,3.132l-0.36-5.255H155.64z"
			/>
	</g>
	<g>
		<path class="st1" d="M173.254,158.025l-0.396,5.255l4.248-3.203l1.08,1.835l-4.967,2.412l4.931,2.52l-1.044,1.8l-4.283-3.275
			l0.468,5.363h-2.088l0.432-5.363l-4.248,3.275l-1.008-1.8l4.931-2.483l-4.967-2.448l1.044-1.764l4.211,3.132l-0.36-5.255H173.254z
			"/>
	</g>
	<g>
		<path class="st1" d="M190.868,158.025l-0.396,5.255l4.248-3.203l1.08,1.835l-4.967,2.412l4.931,2.52l-1.044,1.8l-4.283-3.275
			l0.468,5.363h-2.088l0.432-5.363L185,168.643l-1.008-1.8l4.931-2.483l-4.967-2.448l1.044-1.764l4.211,3.132l-0.36-5.255H190.868z"
			/>
	</g>
	<g>
		<path class="st1" d="M223.01,158.025l-0.396,5.255l4.248-3.203l1.08,1.835l-4.967,2.412l4.931,2.52l-1.044,1.8l-4.283-3.275
			l0.468,5.363h-2.088l0.432-5.363l-4.248,3.275l-1.008-1.8l4.931-2.483l-4.967-2.448l1.044-1.764l4.211,3.132l-0.36-5.255H223.01z"
			/>
	</g>
	<g>
		<path class="st1" d="M240.624,158.025l-0.396,5.255l4.248-3.203l1.08,1.835l-4.967,2.412l4.931,2.52l-1.044,1.8l-4.283-3.275
			l0.468,5.363h-2.088l0.432-5.363l-4.248,3.275l-1.008-1.8l4.931-2.483l-4.967-2.448l1.044-1.764l4.211,3.132l-0.36-5.255H240.624z
			"/>
	</g>
	<g>
		<path class="st1" d="M258.238,158.025l-0.396,5.255l4.248-3.203l1.08,1.835l-4.967,2.412l4.931,2.52l-1.044,1.8l-4.283-3.275
			l0.468,5.363h-2.088l0.432-5.363l-4.248,3.275l-1.008-1.8l4.931-2.483l-4.967-2.448l1.044-1.764l4.211,3.132l-0.36-5.255H258.238z
			"/>
	</g>
	<g>
		<path class="st1" d="M275.852,158.025l-0.396,5.255l4.248-3.203l1.08,1.835l-4.967,2.412l4.931,2.52l-1.044,1.8l-4.283-3.275
			l0.468,5.363H273.8l0.432-5.363l-4.248,3.275l-1.008-1.8l4.931-2.483l-4.967-2.448l1.044-1.764l4.211,3.132l-0.36-5.255H275.852z"
			/>
	</g>
</g>
<g>
	<path class="st1" d="M55.278,46.494c-0.87,0.435-2.824,0.9-5.372,0.9c-7.232,0-10.955-4.502-10.955-10.462
		c0-7.135,5.09-11.108,11.422-11.108c2.454,0,4.314,0.493,5.152,0.934l-0.961,3.75c-0.964-0.4-2.298-0.776-3.973-0.776
		c-3.758,0-6.674,2.268-6.674,6.923c0,4.191,2.483,6.829,6.703,6.829c1.428,0,3.012-0.311,3.943-0.681L55.278,46.494z"/>
	<path class="st1" d="M58.091,36.903c0-2.233-0.062-3.691-0.123-4.996h4.064l0.155,2.792h0.126c0.773-2.204,2.636-3.132,4.094-3.132
		c0.435,0,0.652,0,0.993,0.058v4.443c-0.341-0.064-0.743-0.123-1.269-0.123c-1.74,0-2.918,0.929-3.229,2.386
		c-0.062,0.312-0.094,0.682-0.094,1.058v7.693h-4.717V36.903z"/>
	<path class="st1" d="M73.263,41.005c0.153,1.951,2.077,2.88,4.281,2.88c1.616,0,2.918-0.217,4.191-0.617l0.62,3.197
		c-1.552,0.617-3.444,0.929-5.495,0.929c-5.148,0-8.099-2.98-8.099-7.729c0-3.85,2.389-8.099,7.667-8.099
		c4.905,0,6.765,3.814,6.765,7.57c0,0.811-0.091,1.522-0.156,1.869H73.263z M78.816,37.772c0-1.146-0.496-3.074-2.668-3.074
		c-1.987,0-2.795,1.798-2.918,3.074H78.816z"/>
	<path class="st1" d="M100.721,25.049v17.502c0,1.71,0.064,3.509,0.123,4.531h-4.187l-0.22-2.233h-0.059
		c-0.964,1.704-2.795,2.574-4.752,2.574c-3.6,0-6.485-3.068-6.485-7.787c-0.029-5.119,3.165-8.069,6.797-8.069
		c1.863,0,3.321,0.652,4.002,1.704h0.065v-8.222H100.721z M96.004,38.331c0-0.253-0.032-0.588-0.065-0.835
		c-0.276-1.275-1.302-2.333-2.762-2.333c-2.139,0-3.259,1.928-3.259,4.32c0,2.574,1.276,4.184,3.23,4.184
		c1.363,0,2.451-0.929,2.73-2.263c0.094-0.341,0.126-0.681,0.126-1.087V38.331z"/>
	<path class="st1" d="M109.369,27.687c0,1.305-0.994,2.357-2.545,2.357c-1.49,0-2.483-1.052-2.451-2.357
		c-0.033-1.369,0.961-2.392,2.483-2.392C108.375,25.295,109.34,26.318,109.369,27.687z M104.497,47.082V31.907h4.716v15.175H104.497
		z"/>
	<path class="st1" d="M118.27,27.564v4.343h3.385v3.474h-3.385v5.495c0,1.834,0.435,2.668,1.863,2.668
		c0.593,0,1.057-0.059,1.396-0.123l0.035,3.568c-0.623,0.253-1.739,0.406-3.074,0.406c-1.522,0-2.795-0.524-3.538-1.305
		c-0.87-0.9-1.305-2.357-1.305-4.502v-6.206h-2.016v-3.474h2.016v-3.291L118.27,27.564z"/>
	<path class="st1" d="M137.912,46.4c-1.178,0.529-3.071,0.994-5.431,0.994c-5.277,0-8.475-3.321-8.475-8.657
		c0-3.944,1.584-7.699,4.47-10.091c2.142-1.828,4.813-2.821,7.884-2.821c2.328,0,3.973,0.587,4.532,1.023l-0.838,2.081
		c-0.776-0.465-2.268-0.87-4.129-0.87c-2.172,0-4.376,0.84-5.992,2.357c-1.951,1.834-3.194,4.778-3.194,7.946
		c0,3.755,1.707,6.829,6.362,6.829c1.581,0,3.321-0.305,4.47-0.899L137.912,46.4z"/>
	<path class="st1" d="M150.286,47.082c0-0.899,0.156-2.327,0.344-3.879h-0.061c-1.648,3.103-3.697,4.219-5.839,4.219
		c-2.636,0-4.311-2.109-4.311-4.966c0-5.213,3.846-10.737,10.397-10.737c1.428,0,3.009,0.253,4.035,0.587l-1.522,7.823
		c-0.497,2.61-0.711,5.278-0.652,6.953H150.286z M151.964,33.987c-0.373-0.094-0.932-0.217-1.801-0.217
		c-3.879,0-7.044,4.067-7.076,8.222c0,1.675,0.591,3.321,2.577,3.321c2.139,0,4.688-2.792,5.431-6.795L151.964,33.987z"/>
	<path class="st1" d="M156.516,47.082l1.831-9.68c0.37-1.957,0.623-3.944,0.776-5.342h2.265c-0.123,1.058-0.25,2.11-0.403,3.262
		h0.092c0.964-2.051,2.577-3.603,4.596-3.603c0.218,0,0.527,0.029,0.714,0.064l-0.497,2.545c-0.156-0.036-0.406-0.065-0.685-0.065
		c-2.233,0-4.22,2.703-4.872,6.212l-1.243,6.606H156.516z"/>
	<path class="st1" d="M182.178,25.049l-3.291,17.284c-0.308,1.552-0.558,3.291-0.652,4.749h-2.357l0.403-2.98h-0.058
		c-1.367,2.145-3.262,3.32-5.404,3.32c-2.918,0-4.502-2.392-4.502-5.46c0-5.336,3.976-10.244,9.283-10.244
		c0.961,0,2.016,0.217,2.668,0.529l1.334-7.2H182.178z M177.865,34.423c-0.529-0.347-1.399-0.623-2.486-0.623
		c-3.597,0-6.391,3.82-6.391,7.823c0,1.798,0.62,3.691,2.827,3.691c1.983,0,4.372-2.263,5.025-5.648L177.865,34.423z"/>
</g>
<g>
	<path class="st1" d="M314.924,33.259c0.887-0.17,2.68-0.294,4.361-0.294c2.062,0,3.326,0.188,4.408,0.788
		c1.04,0.523,1.798,1.48,1.798,2.744c0,1.246-0.776,2.416-2.463,2.998v0.041c1.704,0.441,2.968,1.645,2.968,3.45
		c0,1.27-0.617,2.269-1.552,2.974c-1.081,0.811-2.898,1.269-5.865,1.269c-1.657,0-2.903-0.106-3.655-0.211V33.259z M318.268,38.618
		h1.111c1.769,0,2.721-0.681,2.721-1.722c0-1.063-0.864-1.622-2.392-1.622c-0.729,0-1.152,0.041-1.44,0.082V38.618z M318.268,44.837
		c0.329,0.042,0.735,0.042,1.311,0.042c1.528,0,2.874-0.541,2.874-2.016c0-1.416-1.346-1.975-3.033-1.975h-1.152V44.837z"/>
	<path class="st1" d="M331.698,43.491l-1.064,3.591h-3.503l4.567-14.011h4.425l4.631,14.011h-3.632l-1.152-3.591H331.698z
		 M335.482,41.117l-0.929-2.974c-0.265-0.829-0.529-1.869-0.752-2.703h-0.047c-0.223,0.835-0.441,1.893-0.682,2.703l-0.894,2.974
		H335.482z"/>
	<path class="st1" d="M342.753,47.082V33.071h3.944l3.097,5.137c0.888,1.475,1.775,3.22,2.439,4.801h0.064
		c-0.223-1.851-0.288-3.743-0.288-5.847v-4.091h3.103v14.011h-3.544l-3.191-5.407c-0.881-1.493-1.857-3.303-2.591-4.943
		l-0.065,0.017c0.088,1.851,0.135,3.826,0.135,6.112v4.22H342.753z"/>
	<path class="st1" d="M358.039,33.071h3.35v6.195h0.064c0.329-0.541,0.688-1.041,1.016-1.54l3.391-4.655h4.138l-4.937,5.965
		l5.207,8.046h-3.943l-3.656-6.048l-1.281,1.475v4.573h-3.35V33.071z"/>
</g>
<g>
	<path class="st1" d="M48.628,223.598c0,2.368,0.4,7.57-4.12,7.57c-4.517,0-4.116-5.025-4.116-7.57c0-3.48-0.179-7.599,4.116-7.599
		C49.204,215.999,48.628,221.934,48.628,223.598z M41.94,223.598c0,5.8,1.063,6.177,2.568,6.177c1.704,0,2.572-0.687,2.572-6.177
		c0-5.713-0.999-6.207-2.572-6.207C41.72,217.391,41.94,220.653,41.94,223.598z"/>
	<path class="st1" d="M60.506,218.502c-0.687-0.599-1.419-1.111-2.371-1.111c-2.68,0-2.856,3.415-2.921,5.384
		c0.885-0.752,1.772-1.193,2.945-1.193c2.792,0,3.808,2.298,3.808,4.737c0,2.639-1.419,4.849-4.252,4.849
		c-3.808,0-4.053-4.608-4.053-7.417c0-3.009,0.376-7.752,4.408-7.752c1.216,0,2.389,0.464,3.276,1.287L60.506,218.502z
		 M57.826,229.774c1.816,0,2.592-1.598,2.592-3.391c0-1.681-0.512-3.409-2.48-3.409c-1.064,0-1.972,0.729-2.724,1.44
		C55.234,229.046,56.474,229.774,57.826,229.774z"/>
	<path class="st1" d="M67.312,231.567l6.553-17.138h1.019l-6.556,17.138H67.312z"/>
	<path class="st1" d="M83.926,217.991l-2.7,1.041l-0.464-1.352l4.648-1.769v13.729h3.168v1.328h-8.372v-1.328h3.72V217.991z"/>
	<path class="st1" d="M94.077,216.198h7.573v1.328H95.56v4.543c0.732-0.271,1.417-0.465,2.192-0.465
		c2.169,0,4.005,1.458,4.005,3.914c0,1.928-1.016,3.526-2.61,4.543c-1.152,0.729-2.656,1.105-5.539,1.105v-1.393
		c1.843,0,3.324-0.111,4.32-0.64c1.328-0.711,2.283-2.063,2.283-3.615c0-1.569-1.064-2.521-2.616-2.521
		c-0.929,0-1.66,0.353-2.46,0.776h-1.06V216.198z"/>
</g>
</svg>
