<?xml version="1.0" encoding="utf-8"?>
<!-- Generator: Adobe Illustrator 26.0.1, SVG Export Plug-In . SVG Version: 6.00 Build 0)  -->
<svg version="1.1" id="Layer_1" xmlns="http://www.w3.org/2000/svg" xmlns:xlink="http://www.w3.org/1999/xlink" x="0px" y="0px"
	 width="42.855px" height="30px" viewBox="0 0 42.855 30" style="enable-background:new 0 0 42.855 30;" xml:space="preserve">
<style type="text/css">
	.st0{fill:#666666;}
</style>
<g transform="translate(-546.66 -563.46)">
	<g>
		<path class="st0" d="M547.18,588.03c-0.287,0-0.52-0.233-0.52-0.52v-16.653c0-0.287,0.233-0.52,0.52-0.52s0.52,0.233,0.52,0.52
			v16.653C547.699,587.798,547.467,588.03,547.18,588.03z"/>
	</g>
	<g>
		<path class="st0" d="M588.995,588.03c-0.287,0-0.52-0.233-0.52-0.52v-16.653c0-0.287,0.233-0.52,0.52-0.52s0.52,0.233,0.52,0.52
			v16.653C589.515,587.798,589.282,588.03,588.995,588.03z"/>
	</g>
	<g>
		<path class="st0" d="M555.251,593.46c-0.043,0-0.086-0.005-0.129-0.016c-5.377-1.377-8.462-3.539-8.462-5.933
			c0-0.287,0.233-0.52,0.52-0.52s0.52,0.233,0.52,0.52c0,1.853,2.871,3.695,7.68,4.926c0.278,0.071,0.446,0.354,0.375,0.632
			C555.694,593.304,555.483,593.46,555.251,593.46z"/>
	</g>
	<g>
		<path class="st0" d="M580.925,582.604c-0.038,0-0.077-0.004-0.116-0.013c-8.301-1.901-17.078-1.907-25.381-0.015
			c-0.278,0.064-0.559-0.112-0.622-0.392c-0.064-0.28,0.111-0.558,0.391-0.622c8.454-1.925,17.391-1.92,25.844,0.016
			c0.28,0.064,0.455,0.343,0.391,0.623C581.376,582.441,581.162,582.604,580.925,582.604z"/>
	</g>
	<g>
		<path class="st0" d="M580.924,593.46c-0.232,0-0.443-0.156-0.503-0.391c-0.071-0.278,0.096-0.561,0.375-0.632
			c4.809-1.231,7.68-3.073,7.68-4.926c0-0.287,0.233-0.52,0.52-0.52s0.52,0.233,0.52,0.52c0,2.394-3.084,4.556-8.462,5.933
			C581.01,593.455,580.967,593.46,580.924,593.46z"/>
	</g>
	<g>
		<path class="st0" d="M555.251,576.807c-0.043,0-0.086-0.005-0.129-0.016c-5.377-1.377-8.462-3.54-8.462-5.933
			c0-2.395,3.084-4.556,8.462-5.93c8.487-1.945,17.444-1.945,25.919-0.003c5.39,1.376,8.475,3.538,8.475,5.933
			c0,2.393-3.084,4.556-8.462,5.933c-0.279,0.07-0.561-0.097-0.632-0.375c-0.071-0.278,0.096-0.561,0.375-0.632
			c4.809-1.232,7.68-3.073,7.68-4.926c0-1.854-2.871-3.694-7.68-4.923c-8.309-1.904-17.107-1.904-25.429,0.003
			c-4.796,1.225-7.667,3.065-7.667,4.92c0,1.853,2.871,3.695,7.68,4.926c0.278,0.071,0.446,0.354,0.375,0.632
			C555.694,576.651,555.483,576.807,555.251,576.807z"/>
	</g>
	<g>
		<path class="st0" d="M588.995,571.377c-0.287,0-0.52-0.233-0.52-0.52c0-3.071-8.177-6.358-20.35-6.358
			c-12.219,0-20.426,3.288-20.426,6.358c0,0.287-0.233,0.52-0.52,0.52s-0.52-0.233-0.52-0.52c0-4.148,9.429-7.398,21.466-7.398
			c11.994,0,21.389,3.249,21.389,7.398C589.515,571.145,589.282,571.377,588.995,571.377z"/>
	</g>
	<g>
		<path class="st0" d="M580.939,593.46c-0.287,0-0.52-0.233-0.52-0.52v-16.653c0-0.287,0.233-0.52,0.52-0.52
			c0.287,0,0.52,0.233,0.52,0.52v16.653C581.459,593.227,581.226,593.46,580.939,593.46z"/>
	</g>
	<g>
		<path class="st0" d="M555.312,593.46c-0.287,0-0.52-0.233-0.52-0.52v-16.653c0-0.287,0.233-0.52,0.52-0.52s0.52,0.233,0.52,0.52
			v16.653C555.832,593.227,555.599,593.46,555.312,593.46z"/>
	</g>
	<g>
		<path class="st0" d="M562.024,573.949h-3.742c-0.287,0-0.52-0.233-0.52-0.52s0.233-0.52,0.52-0.52h3.222v-2.703h-3.222
			c-0.287,0-0.52-0.233-0.52-0.52s0.233-0.52,0.52-0.52h3.742c0.287,0,0.52,0.233,0.52,0.52v3.742
			C562.544,573.716,562.311,573.949,562.024,573.949z"/>
	</g>
	<g>
		<path class="st0" d="M562.024,577.692h-3.742c-0.287,0-0.52-0.233-0.52-0.52s0.233-0.52,0.52-0.52h3.222v-2.703h-3.222
			c-0.287,0-0.52-0.233-0.52-0.52c0-0.287,0.233-0.52,0.52-0.52h3.742c0.287,0,0.52,0.233,0.52,0.52v3.742
			C562.544,577.459,562.311,577.692,562.024,577.692z"/>
	</g>
	<g>
		<path class="st0" d="M567.984,573.95h-3.742c-0.287,0-0.52-0.233-0.52-0.52v-3.742c0-0.287,0.233-0.52,0.52-0.52h3.742
			c0.287,0,0.52,0.233,0.52,0.52s-0.233,0.52-0.52,0.52h-3.222v2.703h3.222c0.287,0,0.52,0.233,0.52,0.52
			C568.503,573.717,568.271,573.95,567.984,573.95z"/>
	</g>
	<g>
		<path class="st0" d="M567.982,577.693h-3.743c-0.287,0-0.52-0.233-0.52-0.52v-3.743c0-0.287,0.233-0.52,0.52-0.52h3.743
			c0.287,0,0.52,0.233,0.52,0.52v3.743C568.502,577.46,568.269,577.693,567.982,577.693z M564.759,576.653h2.704v-2.704h-2.704
			V576.653z"/>
	</g>
	<g>
		<path class="st0" d="M573.939,577.692h-3.742c-0.287,0-0.52-0.233-0.52-0.52v-7.485c0-0.287,0.233-0.52,0.52-0.52h3.742
			c0.287,0,0.52,0.233,0.52,0.52v7.485C574.459,577.459,574.226,577.692,573.939,577.692z M570.716,576.652h2.703v-6.446h-2.703
			V576.652z"/>
	</g>
	<g>
		<path class="st0" d="M577.65,572.671c-0.966,0-1.752-0.786-1.752-1.752c0-0.966,0.786-1.752,1.752-1.752
			c0.965,0,1.751,0.786,1.752,1.752c0,0,0,0,0,0C579.402,571.885,578.616,572.671,577.65,572.671z M577.65,570.206
			c-0.393,0-0.713,0.32-0.713,0.712c0,0.393,0.32,0.712,0.713,0.712c0.393,0,0.712-0.319,0.712-0.712
			C578.362,570.526,578.043,570.206,577.65,570.206z"/>
	</g>
	<g>
		<path class="st0" d="M561.205,590.192c-0.197,0-0.378-0.112-0.465-0.288l-2.021-4.064c-0.128-0.257-0.023-0.569,0.234-0.697
			c0.257-0.129,0.569-0.024,0.697,0.234l1.555,3.128l1.555-3.128c0.128-0.258,0.439-0.363,0.697-0.234
			c0.257,0.128,0.362,0.44,0.234,0.697l-2.021,4.064C561.583,590.08,561.403,590.192,561.205,590.192z"/>
	</g>
	<g>
		<path class="st0" d="M572.465,590.192c-0.197,0-0.378-0.112-0.465-0.288l-2.021-4.064c-0.128-0.257-0.023-0.569,0.234-0.697
			c0.257-0.128,0.569-0.023,0.697,0.234l1.556,3.128l0.787-1.584c0.128-0.257,0.44-0.362,0.697-0.234
			c0.257,0.128,0.362,0.44,0.234,0.697l-1.253,2.52C572.842,590.08,572.662,590.192,572.465,590.192z"/>
	</g>
	<g>
		<path class="st0" d="M574.97,590.192c-0.197,0-0.378-0.112-0.465-0.288l-2.021-4.064c-0.128-0.257-0.023-0.569,0.234-0.697
			c0.257-0.128,0.569-0.023,0.697,0.234l1.556,3.128l1.556-3.128c0.128-0.257,0.44-0.362,0.697-0.234
			c0.257,0.128,0.362,0.44,0.234,0.697l-2.021,4.064C575.348,590.08,575.167,590.192,574.97,590.192z"/>
	</g>
	<g>
		<path class="st0" d="M564.894,590.192c-0.287,0-0.52-0.233-0.52-0.52v-4.064c0-0.287,0.233-0.52,0.52-0.52s0.52,0.233,0.52,0.52
			v4.064C565.413,589.959,565.181,590.192,564.894,590.192z"/>
	</g>
	<g>
		<path class="st0" d="M568.859,590.192h-2.255c-0.287,0-0.52-0.233-0.52-0.52v-4.064c0-0.287,0.233-0.52,0.52-0.52h2.255
			c0.287,0,0.52,0.233,0.52,0.52c0,0.287-0.233,0.52-0.52,0.52h-1.735v3.025h1.735c0.287,0,0.52,0.233,0.52,0.52
			C569.379,589.959,569.146,590.192,568.859,590.192z"/>
	</g>
	<g>
		<path class="st0" d="M568.224,588.159h-1.62c-0.287,0-0.52-0.233-0.52-0.52s0.233-0.52,0.52-0.52h1.62
			c0.287,0,0.52,0.233,0.52,0.52S568.511,588.159,568.224,588.159z"/>
	</g>
</g>
</svg>
