<?xml version="1.0" encoding="utf-8"?>
<!-- Generator: Adobe Illustrator 26.0.1, SVG Export Plug-In . SVG Version: 6.00 Build 0)  -->
<svg version="1.1" id="Layer_1" xmlns="http://www.w3.org/2000/svg" xmlns:xlink="http://www.w3.org/1999/xlink" x="0px" y="0px"
	 width="56.829px" height="36px" viewBox="0 0 56.829 36" style="enable-background:new 0 0 56.829 36;" xml:space="preserve">
<style type="text/css">
	.st0{fill:#666666;}
</style>
<g>
	<path class="st0" d="M56.823,21.615c-0.275-0.711-0.789-1.145-1.618-1.368c-0.434-0.118-0.859-0.256-1.311-0.404l-0.979-0.322
		v-2.809c0-0.529,0.002-1.061,0.003-1.593c0.002-1.065,0.004-2.136-0.003-3.205c-0.01-1.276-0.817-2.075-2.107-2.086h-5.212
		c-0.158,0-0.231,0-0.305,0.011c-0.331,0.037-0.544,0.252-0.555,0.561c-0.013,0.324,0.211,0.592,0.525,0.638
		c0.088,0.018,0.174,0.014,0.261,0.015l1.422-0.002c1.217,0,2.433,0,3.661,0.01c0.209,0,0.401,0.049,0.581,0.098l0.035,0.011
		c0.061,0.018,0.118,0.034,0.174,0.042l0.196,0.044v1.94H45.31c-1.604,0.011-2.749,1.033-2.917,2.604
		c-0.073,0.69-0.08,1.388-0.02,2.079c0.157,1.684,1.275,2.696,2.989,2.706l1.075,0.011c1.095,0.01,2.225,0.019,3.341-0.02
		c1.767-0.062,3.211,0.153,4.549,0.705c0.122,0.04,0.244,0.081,0.373,0.123c0.119,0.03,0.238,0.07,0.354,0.109
		c0.088,0.033,0.181,0.087,0.269,0.141l0.275,0.157v1.787l-0.236,0.015c-0.094,0-0.199,0-0.286,0.01
		c-0.766,0.02-1.058,0.08-1.07,0.635c-0.012,0.526,0.249,0.599,0.952,0.659c0.155,0.01,0.303,0.019,0.45,0.049l0.219,0.037
		l-0.007,0.22c0,0.104,0,0.219,0.01,0.323c0.028,0.319,0.062,0.714-0.243,1.086l-0.072,0.094h-3.288l-0.075-0.14
		c-1.354-2.545-3.389-3.836-6.071-3.836c-2.653,0-4.679,1.287-6.021,3.825l-0.073,0.14h-2.702l-0.043-0.36
		c-0.009-0.07-0.017-0.14-0.017-0.21v-3.032c-0.011-3.007-0.008-5.51,0.011-7.879c0.02-1.902,1.531-3.686,3.437-4.061
		c0.355-0.062,0.7-0.081,0.992-0.09c0.185-0.01,0.359-0.02,0.54-0.041c0.342-0.022,0.611-0.3,0.599-0.62
		c-0.013-0.32-0.263-0.571-0.581-0.582c-0.892-0.055-1.674,0.039-2.389,0.279c-1.891,0.62-3.903,2.602-3.852,5.493
		c0.011,0.273,0.011,0.545,0.011,0.838v0.691h-0.814c-0.126,0-0.251-0.002-0.373-0.003c-0.243-0.002-0.476-0.006-0.704,0.003
		c-1.065,0.021-1.659,0.618-1.668,1.681v3.915c0,0.128-0.01,0.256-0.018,0.385l-0.019,0.47h-6.002v-1.673l0.599-0.052
		c0.145-0.01,0.281-0.017,0.419-0.003c0.575,0.05,0.964-0.157,1.361-0.755c1.607-2.449,3.258-4.929,4.856-7.326
		c0.589-0.884,1.178-1.768,1.766-2.652l1.773-2.656c0.046-0.065,0.09-0.128,0.136-0.191s0.092-0.127,0.135-0.19l0.204-0.265h0.304
		c0.117-0.01,0.222-0.01,0.329,0c0.906,0.077,1.654-0.225,2.351-0.943c0.55-0.572,1.159-1.142,1.809-1.699
		c0.283-0.253,0.63-0.458,0.979-0.578c0.537-0.179,1.087-0.342,1.617-0.499l1.483-0.454c0.492-0.142,0.618-0.301,0.64-0.813
		c0.01-0.65,0.01-1.302,0-1.942c-0.021-0.702-0.211-0.887-0.921-0.897c-0.519,0-1.035,0-1.552,0.01c-0.831,0-1.663,0-2.483-0.01
		C41.98,0,41.964,0,41.948,0c-0.908,0-1.62,0.287-2.236,0.902c-0.439,0.449-0.931,0.918-1.508,1.438l-0.712,0.673H26.457
		l-0.084-0.002c-0.093-0.003-0.195-0.005-0.283,0.012c-0.366,0.048-0.596,0.31-0.574,0.651c0.013,0.322,0.243,0.538,0.598,0.561
		c0.124,0.011,0.239,0.011,0.363,0.011h0.123c0.921-0.019,1.869-0.011,2.778-0.02l0.515-0.002c2.026-0.012,4.121-0.022,6.184,0.052
		c1.485,0.068,2.486-0.336,3.316-1.333c0.441-0.522,1.045-1.236,1.775-1.523c0.513-0.199,1.067-0.186,1.695-0.155
		c0.109,0.005,0.219,0.008,0.326,0.01c0.111,0.003,0.219,0.005,0.328,0.01c0.425-0.01,0.849-0.01,1.273-0.01
		c0.001,0,0.002,0,0.003,0h0.854v1.288l-1.025,0.303c-0.809,0.248-1.489,0.458-2.175,0.682c-0.285,0.102-0.562,0.264-0.762,0.444
		c-0.7,0.619-1.375,1.254-2.065,1.943c-0.443,0.462-0.956,0.669-1.672,0.669C27.989,6.584,18.021,6.604,8.04,6.583
		c-0.528,0-0.864,0.152-1.2,0.541c-0.816,0.93-1.654,1.852-2.393,2.666l-0.862,0.955c-0.134,0.152-0.314,0.347-0.505,0.505
		c-0.359,0.286-0.763,0.338-1.163,0.15c-0.471-0.217-0.73-0.6-0.693-1.024c0.039-0.334,0.209-0.71,0.441-0.98
		c0.599-0.669,1.197-1.338,1.796-2.007l0.046-0.051c0.689-0.757,1.399-1.539,2.074-2.324C6.047,4.479,6.572,4.246,7.33,4.235
		c3.976,0.011,7.951,0.011,11.916,0.011h3.114c0.154,0,0.301,0,0.455-0.02c0.303-0.024,0.522-0.232,0.548-0.514
		c0.035-0.306-0.145-0.58-0.444-0.666c-0.15-0.032-0.33-0.044-0.508-0.032h-4.817c-3.499,0-7.008,0-10.517-0.011
		c-0.928,0-1.645,0.323-2.255,1.017c-0.557,0.628-1.127,1.26-1.693,1.876C2.36,6.751,1.667,7.522,0.978,8.31
		C0.732,8.593,0.542,8.906,0.341,9.237l-0.061,0.1C0.241,9.396,0.204,9.458,0.167,9.52c-0.05,0.083-0.098,0.164-0.15,0.238L0,9.784
		v1.096l0.13,0.333c0.452,1.061,1.407,1.625,2.557,1.51c0.54-0.065,1.038-0.328,1.566-0.826l0.207-0.185l1.19,1.445v10.427
		l-0.771,0.046c-1.774,0.145-3.031,0.948-3.842,2.454c-0.019,0.037-0.039,0.074-0.057,0.11c-0.026,0.051-0.052,0.102-0.087,0.159
		c-0.097,0.206-0.185,0.378-0.295,0.545c-0.178,0.258-0.205,0.535-0.078,0.732c0.131,0.236,0.416,0.388,0.752,0.366
		c1.014-0.052,2.044-0.041,2.954-0.03c0.17,0.004,0.341,0.005,0.512,0.006c0.342,0.002,0.695,0.005,1.049,0.024l0.459,0.017
		l-0.038,0.279c-0.297,2.504,0.631,4.241,1.463,5.257c1.14,1.398,2.792,2.275,4.531,2.408c1.622,0.129,3.1-0.261,4.366-1.174
		c2.136-1.551,3.078-3.727,2.799-6.473l-0.037-0.284H22.3l-0.008,0.641c0,0.245,0,0.48,0.01,0.715
		c0.031,0.774,0.362,1.292,0.986,1.538c0.747,0.29,1.556,0.212,2.464,0.086c0.285-0.038,0.421-0.33,0.41-0.603
		c-0.025-0.297-0.23-0.512-0.526-0.547c-0.239-0.021-0.477-0.031-0.709-0.031c-0.15,0-0.288,0-0.442-0.011
		c-0.155-0.011-0.301-0.019-0.453-0.04l-0.416-0.033v-1.726h9.872v1.8l-2.778,0.01c-0.733-0.011-1.309-0.005-1.822,0.02
		c-0.352,0.018-0.564,0.226-0.582,0.574c-0.011,0.433,0.301,0.619,0.579,0.645c0.078,0.023,0.171,0.028,0.25,0.014l1.197,0.011
		c0.903,0,1.806,0,2.719-0.011c1.058-0.01,1.721-0.689,1.731-1.772v-1.28h4.527l-0.029,0.276c-0.278,2.655,0.743,4.414,1.648,5.421
		c1.239,1.383,3.085,2.254,4.819,2.274C45.777,36,45.808,36,45.839,36c1.643,0,3.097-0.533,4.324-1.587
		c1.822-1.574,2.573-3.586,2.296-6.15l-0.029-0.286h0.286c0.215,0,0.429,0,0.621-0.01c0.542-0.013,0.929-0.007,1.299,0.019
		c1.079,0.077,1.768-0.332,2.187-1.276l0.008-5.06L56.823,21.615z M51.601,14.428v4.934h-4.129c-0.68,0-1.359,0-2.038-0.01
		c-1.169,0-1.798-0.619-1.818-1.787l-0.001-0.382c-0.002-0.373-0.004-0.758,0.011-1.137c0.03-0.936,0.619-1.578,1.465-1.598
		c0.983-0.019,1.958-0.026,2.845-0.026c0.581,0,1.124,0.003,1.605,0.006H51.601z M50.313,29.349c0,0.243,0.08,0.514,0.67,0.684
		l0.204,0.058l-0.022,0.212c-0.082,0.872-0.484,1.578-0.825,2.096l-0.124,0.189l-0.205-0.103c-0.502-0.247-0.766-0.237-1.009,0.031
		c-0.193,0.207-0.248,0.443,0.078,0.98l0.148,0.258l-2.491,1.052l-0.095-0.24c-0.219-0.545-0.354-0.783-0.717-0.783
		c-0.009-0.001-0.017-0.001-0.026-0.001c-0.351,0-0.527,0.257-0.699,0.674l-0.065,0.173l-0.188-0.015
		c-0.699-0.058-1.344-0.316-2.09-0.833l-0.192-0.14l0.109-0.197c0.294-0.527,0.209-0.77-0.009-0.972
		c-0.238-0.225-0.507-0.219-0.927,0.016l-0.182,0.101l-0.14-0.169c-0.522-0.635-0.746-1.387-0.913-2.039l-0.051-0.213l0.207-0.088
		c0.457-0.192,0.757-0.348,0.729-0.744c-0.013-0.339-0.222-0.523-0.771-0.68l-0.278-0.081l1.052-2.499l0.24,0.117
		c0.582,0.281,0.831,0.285,1.071,0.017c0.193-0.22,0.244-0.453-0.07-0.989l-0.146-0.248l2.474-1.062l0.101,0.232
		c0.239,0.589,0.386,0.85,0.775,0.791c0.333-0.013,0.512-0.217,0.659-0.751l0.082-0.279l2.489,1.024l-0.109,0.24
		c-0.263,0.566-0.271,0.825-0.029,1.067c0.251,0.238,0.495,0.225,1.047-0.045l0.239-0.122l1.061,2.532l-0.283,0.073
		C50.465,28.825,50.328,29.051,50.313,29.349z M35.749,24.935v1.779H18.908l-1.049-1.779H35.749z M13.825,20.568l7.689-12.713h6.055
		l-7.638,12.713H13.825z M15.954,33.513l0.131,0.249l-2.473,1.044l-0.094-0.238c-0.226-0.596-0.394-0.772-0.757-0.785
		c-0.346,0.014-0.513,0.201-0.69,0.77l-0.08,0.26L9.504,33.78l0.118-0.242c0.266-0.572,0.271-0.842,0.018-1.067
		c-0.237-0.221-0.499-0.22-0.935,0.004L8.522,32.57l-0.131-0.16c-0.527-0.646-0.746-1.366-0.902-2.046l-0.045-0.222l0.204-0.081
		c0.505-0.184,0.727-0.332,0.715-0.729c-0.027-0.35-0.21-0.508-0.781-0.676l-0.269-0.081l1.052-2.488l0.243,0.118
		c0.58,0.269,0.829,0.273,1.066,0.008c0.218-0.23,0.214-0.489-0.015-0.926l-0.102-0.191l0.168-0.131
		c0.569-0.451,1.258-0.743,2.104-0.892l0.224-0.036l0.059,0.228c0.128,0.47,0.31,0.658,0.657,0.671
		c0.32-0.012,0.519-0.134,0.721-0.771l0.081-0.268l2.463,1.034l-0.103,0.242c-0.263,0.616-0.264,0.858-0.008,1.076
		c0.237,0.22,0.51,0.218,0.945-0.016l0.199-0.103l0.131,0.175c0.488,0.681,0.768,1.372,0.855,2.115l0.029,0.218l-0.21,0.058
		c-0.483,0.128-0.661,0.309-0.661,0.664c0,0.301,0.125,0.522,0.754,0.694l0.285,0.073l-1.041,2.506l-0.252-0.118
		c-0.559-0.264-0.816-0.272-1.056-0.03C15.654,32.729,15.668,32.999,15.954,33.513z M8.539,16.667v6.934H6.973v-8.842L8.539,16.667z
		 M15.462,23.396v-1.484h9.456v1.645l-0.394,0.034c-0.114,0.019-0.23,0.029-0.349,0.029l-3.691,0.011c-1.308,0-2.615,0-3.924-0.011
		c-0.233,0-0.441-0.06-0.645-0.118L15.462,23.396z M13.89,22.82c-1.193-0.217-2.371-0.083-3.703,0.421l-0.344,0.123v-5.119
		l0.453,0.547c0.214,0.264,0.426,0.518,0.641,0.772c0.409,0.48,0.89,1.052,1.346,1.661c0.388,0.499,0.75,0.678,1.233,0.625
		c0.097-0.005,0.188,0.01,0.292,0.031l0.326,0.04l0.084,0.958L13.89,22.82z M9.338,15.679l4.692-7.813h6.035l-7.27,12.01
		L9.338,15.679z M5.261,10.731l2.591-2.876h4.738l-4.086,6.808L5.261,10.731z M6.363,24.925l0.065,0.003
		c0.263,0.009,0.529,0.017,0.811,0.017h0.438l-1.014,1.779H2.056l0.285-0.4c0.607-0.847,1.3-1.292,2.119-1.36
		C5.087,24.904,5.708,24.915,6.363,24.925z M21.38,20.579l7.628-12.723h6.878l-8.478,12.723H21.38z M35.749,18.454v5.136h-2.256
		v-5.136H35.749z"/>
	<path class="st0" d="M12.786,26.836h-0.01c-1.405,0-2.513,1.098-2.523,2.503c0,0.69,0.258,1.333,0.728,1.814
		c0.469,0.47,1.107,0.728,1.804,0.728c1.405,0,2.513-1.098,2.523-2.502c0-0.7-0.258-1.345-0.728-1.816
		C14.1,27.094,13.463,26.836,12.786,26.836z M14.077,29.349c0.009,0.679-0.586,1.29-1.271,1.31h-0.029
		c-0.676,0-1.262-0.574-1.28-1.254c-0.014-0.341,0.107-0.669,0.34-0.923c0.232-0.253,0.546-0.401,0.882-0.415
		c0.011,0,0.022,0,0.034,0c0.344,0,0.672,0.13,0.928,0.368C13.936,28.682,14.077,29.007,14.077,29.349z"/>
	<path class="st0" d="M45.91,26.836h-0.011c-0.682,0-1.326,0.269-1.814,0.759c-0.481,0.48-0.74,1.11-0.729,1.774
		c0.011,1.385,1.148,2.511,2.543,2.511c0.691,0,1.332-0.266,1.804-0.748c0.477-0.467,0.739-1.101,0.739-1.785
		C48.443,27.973,47.306,26.846,45.91,26.836z M47.19,29.379c-0.011,0.694-0.601,1.281-1.291,1.281c-0.69,0-1.26-0.575-1.27-1.3
		c0-0.717,0.53-1.271,1.234-1.291c0.021-0.001,0.042-0.001,0.062-0.001c0.326,0,0.643,0.135,0.879,0.38
		C47.053,28.686,47.19,29.017,47.19,29.379z"/>
</g>
</svg>
