<?xml version="1.0" encoding="utf-8"?>
<!-- Generator: Adobe Illustrator 26.0.1, SVG Export Plug-In . SVG Version: 6.00 Build 0)  -->
<svg version="1.1" id="Layer_1" xmlns="http://www.w3.org/2000/svg" xmlns:xlink="http://www.w3.org/1999/xlink" x="0px" y="0px"
	 width="43.592px" height="36px" viewBox="0 0 43.592 36" style="enable-background:new 0 0 43.592 36;" xml:space="preserve">
<style type="text/css">
	.st0{fill:#666666;}
</style>
<path class="st0" d="M0,5.924c0.116-0.464,0.201-0.939,0.353-1.392C1.186,2.034,3.593-0.01,6.916,0
	c9.915,0.031,19.83,0.01,29.746,0.016c0.466,0,0.937,0.03,1.397,0.103c3.063,0.492,5.401,3.14,5.514,6.239
	c0.024,0.666,0.015,1.333,0.01,2c-0.005,0.752-0.37,1.119-1.126,1.13c-0.695,0.01-1.39,0.002-2.085,0.002c-1.929,0-3.858,0-5.787,0
	c-0.151,0-0.303,0-0.537,0c0.194,0.23,0.339,0.394,0.476,0.566c0.993,1.243,1.477,2.665,1.483,4.251
	c0.005,1.376,0.001,2.752,0.001,4.129c0,0.154,0,0.308,0,0.521c0.843,0,1.66-0.018,2.476,0.007c0.507,0.016,1.025,0.04,1.515,0.158
	c2.072,0.498,3.553,2.342,3.578,4.473c0.027,2.227,0.016,4.455,0.005,6.682c-0.006,1.149-0.81,1.94-1.971,1.952
	c-1.261,0.013-2.523,0.003-3.779,0.003c-0.71,2.337-2.205,3.692-4.675,3.768c-1.746,0.053-3.92-1.034-4.651-3.741
	c-4.467,0-8.942,0-13.415,0c-0.722,2.327-2.229,3.745-4.719,3.723c-2.432-0.021-3.902-1.428-4.618-3.75c-0.668,0-1.358,0-2.049,0
	c-0.44,0-0.881-0.025-1.319,0.005c-1.183,0.079-2-0.387-2.385-1.536C0,22.441,0,14.182,0,5.924z M13.27,18.938
	c0-1.496-0.001-2.941,0-4.387c0.001-0.947,0.33-1.282,1.271-1.283c2.298-0.002,4.596-0.001,6.894,0c0.977,0,1.299,0.324,1.299,1.298
	c0,5.079,0,10.158,0,15.238c0,0.165,0,0.33,0,0.536c0.207,0,0.361,0,0.514,0c1.575,0,3.15-0.021,4.723,0.013
	c0.446,0.01,0.593-0.146,0.718-0.545c0.631-2.015,2.523-3.331,4.586-3.249c2.201,0.088,3.773,1.357,4.43,3.465
	c0.078,0.249,0.193,0.324,0.446,0.321c1.064-0.013,2.128-0.005,3.192-0.007c0.108,0,0.216-0.023,0.319-0.034
	c0.015-0.071,0.031-0.112,0.031-0.153c0.002-2.142,0.011-4.285-0.004-6.427c-0.005-0.65-0.2-1.253-0.616-1.775
	c-0.669-0.838-1.566-1.103-2.597-1.101c-3.532,0.009-7.064,0.004-10.596,0.002c-0.184,0-0.37,0-0.551-0.029
	c-0.714-0.112-1.029-0.941-0.574-1.505c0.246-0.306,0.591-0.362,0.956-0.362c1.972,0.001,3.944,0,5.915,0c0.15,0,0.301,0,0.447,0
	c0-1.784,0.086-3.517-0.022-5.237c-0.128-2.024-1.659-3.671-3.628-4.109C29.997,9.514,29.55,9.51,29.122,9.42
	c-0.422-0.088-0.7-0.488-0.689-0.906c0.012-0.436,0.335-0.817,0.772-0.887c0.195-0.031,0.395-0.033,0.593-0.033
	c3.773-0.002,7.547-0.001,11.32-0.001c0.18,0,0.36,0,0.558,0c0.051-0.898,0.024-1.727-0.264-2.529
	c-0.707-1.971-2.45-3.152-4.673-3.153c-9.958-0.002-19.916-0.001-29.874,0c-0.199,0-0.398-0.002-0.596,0.012
	c-2.544,0.186-4.778,2.473-4.32,5.67c0.174,0,0.355,0,0.536,0c6.284,0,12.568,0,18.852,0.001c0.212,0,0.427,0.002,0.636,0.036
	c0.42,0.068,0.728,0.433,0.752,0.858c0.024,0.421-0.247,0.823-0.659,0.928c-0.216,0.055-0.448,0.07-0.672,0.071
	C15.083,9.491,8.77,9.49,2.458,9.49c-0.178,0-0.357,0-0.539,0c0,3.187,0,6.313,0,9.448C5.706,18.938,9.461,18.938,13.27,18.938z
	 M20.825,30.316c0-5.067,0-10.082,0-15.119c-1.89,0-3.754,0-5.643,0c0,5.046,0,10.071,0,15.119
	C17.071,30.316,18.934,30.316,20.825,30.316z M1.903,30.339c1.16,0,2.277-0.02,3.393,0.011c0.388,0.011,0.526-0.12,0.632-0.479
	c0.79-2.664,3.815-4.05,6.347-2.921c0.327,0.146,0.637,0.33,0.963,0.501c0-2.213,0-4.386,0-6.566c-3.795,0-7.557,0-11.334,0
	C1.903,24.036,1.903,27.152,1.903,30.339z M10.422,34.113c1.559,0.001,2.852-1.291,2.843-2.843
	c-0.008-1.539-1.269-2.802-2.821-2.826c-1.542-0.024-2.856,1.272-2.864,2.825C7.573,32.823,8.861,34.113,10.422,34.113z
	 M33.15,34.113c1.56,0.006,2.851-1.275,2.853-2.832c0.002-1.548-1.305-2.849-2.852-2.838c-1.543,0.011-2.811,1.272-2.833,2.815
	C30.297,32.803,31.591,34.107,33.15,34.113z"/>
</svg>
