<?xml version="1.0" encoding="utf-8"?>
<!-- Generator: Adobe Illustrator 26.0.1, SVG Export Plug-In . SVG Version: 6.00 Build 0)  -->
<svg version="1.1" id="Layer_1" xmlns="http://www.w3.org/2000/svg" xmlns:xlink="http://www.w3.org/1999/xlink" x="0px" y="0px"
	 width="47.326px" height="36px" viewBox="0 0 47.326 36" style="enable-background:new 0 0 47.326 36;" xml:space="preserve">
<style type="text/css">
	.st0{fill:#666666;}
</style>
<path class="st0" d="M47.326,13.224c-0.371,0.824-0.745,1.646-1.111,2.471c-0.434,0.979-0.854,1.239-1.868,1.157
	c0,1.088-0.005,2.178,0.001,3.267c0.006,1-0.17,1.955-0.612,2.862c-0.065,0.134-0.028,0.39,0.063,0.517
	c3.352,4.698,0.96,11.087-4.655,12.307c-2.571,0.559-4.88-0.1-6.866-1.837c-0.418-0.365-0.471-0.757-0.178-1.083
	c0.293-0.325,0.669-0.303,1.094,0.064c3.876,3.348,9.688,1.372,10.673-3.627c0.677-3.435-1.771-6.958-5.217-7.505
	c-3.663-0.582-7.042,1.868-7.514,5.426c-0.128,0.966-0.041,1.901,0.219,2.83c0.155,0.553-0.003,0.923-0.438,1.039
	c-0.402,0.107-0.715-0.132-0.877-0.668c-0.406-1.341-0.453-2.693-0.134-4.058c0.021-0.088,0.031-0.179,0.053-0.31
	c-4.383,0-8.745,0-13.161,0c0.044,0.251,0.089,0.499,0.13,0.749c0.712,4.271-2.139,8.359-6.305,9.038
	c-4.38,0.714-8.43-2.113-9.106-6.437c-0.456-2.92,0.513-5.367,2.756-7.293c0.227-0.195,0.3-0.356,0.258-0.657
	c-0.086-0.622-0.106-1.253-0.158-1.941c-0.119-0.006-0.264-0.02-0.41-0.021c-0.801-0.002-1.602,0.005-2.403-0.003
	c-0.922-0.009-1.523-0.617-1.556-1.528c-0.066-1.816,0.368-3.477,1.497-4.926c0.271-0.348,0.662-0.416,0.972-0.196
	c0.336,0.239,0.382,0.615,0.12,1.016c-0.059,0.09-0.128,0.174-0.189,0.262c-0.82,1.188-1.121,2.506-0.995,3.966
	c0.98,0,1.943,0,2.956,0c0.012-0.192,0.029-0.384,0.034-0.577c0.039-1.73,1.161-2.842,2.896-2.848
	c2.095-0.008,4.189-0.009,6.284,0.001c1.636,0.007,2.752,1.069,2.859,2.706c0.075,1.137,0.142,2.274,0.205,3.412
	c0.121,2.154,1.799,3.817,3.963,3.858c1.847,0.035,3.697,0.032,5.544,0.001c2.185-0.036,3.872-1.711,3.983-3.886
	c0.057-1.122,0.126-2.244,0.199-3.366c0.108-1.659,1.228-2.721,2.891-2.725c2.849-0.007,5.699-0.027,8.547,0.017
	c0.659,0.01,1.319,0.233,1.968,0.403c0.336,0.088,0.647,0.271,1.035,0.441c0.402-0.916,0.794-1.808,1.201-2.734
	c-1.2-0.612-2.397-1.135-3.735-1.144c-3.111-0.02-6.222-0.033-9.333,0.002c-2.605,0.03-4.932,2.014-5.453,4.564
	c-0.018,0.09-0.04,0.18-0.061,0.27c-0.097,0.401-0.351,0.616-0.765,0.577c-0.385-0.036-0.656-0.377-0.562-0.803
	c0.14-0.626,0.356-1.235,0.554-1.848c0.056-0.174,0.158-0.333,0.259-0.54c-0.351-0.183-0.7-0.369-1.053-0.549
	c-0.822-0.419-1.651-0.826-2.467-1.255c-1.088-0.572-1.48-1.764-0.955-2.875c0.17-0.361,0.358-0.713,0.557-1.108
	c-0.568-0.551-1.246-0.858-2.018-0.872c-1.678-0.029-3.358-0.043-5.036,0.001c-1.604,0.042-3.031,1.478-3.077,3.014
	c0.566,0.032,1.135,0.035,1.697,0.103c2.904,0.348,5.239,2.356,6.026,5.189c0.092,0.331,0.223,0.443,0.561,0.431
	c0.723-0.025,1.448-0.015,2.171-0.004c0.507,0.008,0.802,0.284,0.789,0.703c-0.013,0.4-0.298,0.649-0.789,0.655
	c-0.909,0.01-1.817,0.007-2.726,0.002c-0.786-0.004-1.055-0.243-1.23-1.02c-0.499-2.215-1.842-3.681-3.992-4.378
	c-0.532-0.172-1.116-0.25-1.677-0.257c-2.156-0.029-4.313-0.041-6.468,0.005c-0.695,0.015-1.392,0.205-2.076,0.363
	c-0.5,0.115-0.862,0.025-1.011-0.352c-0.159-0.402,0.03-0.815,0.551-0.938c0.847-0.201,1.71-0.402,2.574-0.449
	c1.366-0.074,2.738-0.02,4.154-0.02c0.032-0.206,0.061-0.395,0.099-0.643c-0.209,0-0.375,0-0.54,0c-2.433,0-4.867,0-7.3-0.001
	c-0.154,0-0.351,0.052-0.453-0.023c-0.216-0.16-0.51-0.374-0.532-0.59C2.641,8.801,2.874,8.513,3.069,8.34
	C3.191,8.232,3.45,8.26,3.648,8.259c1.74-0.005,3.481-0.003,5.221-0.003c0.167,0,0.333,0,0.488,0
	C9.163,7.801,8.828,7.372,8.826,6.942C8.819,5.309,9.215,3.736,10.06,2.34c0.452-0.747,1.301-0.95,2.163-0.887
	c0.438,0.032,0.711-0.056,0.926-0.507c0.289-0.607,0.868-0.912,1.545-0.929c0.893-0.023,1.787-0.018,2.68-0.002
	c0.697,0.013,1.251,0.329,1.599,0.932c0.14,0.242,0.3,0.301,0.552,0.298c0.924-0.01,1.848-0.01,2.772-0.001
	c0.516,0.005,0.813,0.266,0.815,0.683c0.002,0.402-0.291,0.675-0.763,0.679c-0.939,0.008-1.879,0.009-2.818-0.002
	c-0.251-0.003-0.413,0.048-0.55,0.295c-0.35,0.63-0.928,0.941-1.637,0.945c-0.339,0.002-0.447,0.145-0.513,0.435
	c-0.115,0.506-0.261,1.005-0.405,1.553c1.33,0,2.607,0.024,3.883-0.006c1.44-0.034,2.69,0.388,3.751,1.376
	c0.72,0.671,1.582,0.962,2.572,0.95c1.663-0.022,3.327-0.011,4.99-0.003c0.682,0.003,1.304-0.172,1.885-0.525
	c1.397-0.847,2.734-0.688,3.913,0.433c0.133,0.126,0.375,0.192,0.567,0.193c2.711,0.012,5.421,0.007,8.132,0.011
	c0.198,0,0.404,0.004,0.594,0.054c0.344,0.09,0.51,0.352,0.482,0.694c-0.028,0.34-0.231,0.567-0.585,0.613
	C46.455,9.64,46.3,9.63,46.146,9.631c-2.464,0.001-4.928,0-7.393,0c-0.168,0-0.335,0-0.533,0c0,0.216,0,0.403,0,0.642
	c0.964,0,1.902-0.046,2.833,0.012c1.1,0.069,2.21,0.15,3.284,0.375c0.754,0.158,1.487,0.51,2.169,0.884
	c0.342,0.188,0.551,0.619,0.82,0.94C47.326,12.731,47.326,12.977,47.326,13.224z M9.213,34.613c3.565,0.011,6.481-2.894,6.474-6.45
	c-0.007-3.528-2.881-6.424-6.391-6.44c-3.59-0.017-6.499,2.843-6.514,6.402C2.767,31.7,5.643,34.601,9.213,34.613z M29.79,24.621
	c0.536,0.144,0.788-0.046,1.042-0.471c2.39-4.002,7.667-5.017,11.399-2.22c0.109,0.081,0.221,0.157,0.359,0.255
	c0.08-0.234,0.174-0.432,0.214-0.64c0.291-1.511,0.214-3.035,0.082-4.551c-0.076-0.876-0.188-0.939-1.068-0.942
	c-2.849-0.007-5.699-0.007-8.548,0c-1.008,0.003-1.512,0.518-1.565,1.536c-0.059,1.123-0.12,2.245-0.202,3.366
	c-0.096,1.303-0.583,2.444-1.483,3.4C29.949,24.428,29.885,24.51,29.79,24.621z M16.939,24.632c0.005-0.029,0.015-0.049,0.009-0.057
	c-0.067-0.083-0.133-0.167-0.205-0.245c-0.793-0.864-1.306-1.868-1.414-3.039c-0.116-1.256-0.181-2.516-0.257-3.775
	c-0.056-0.928-0.565-1.457-1.491-1.463c-2.124-0.012-4.247-0.012-6.371,0c-0.881,0.005-1.432,0.569-1.439,1.461
	c-0.007,1.015,0.016,2.031,0.03,3.047c0.002,0.163,0.029,0.326,0.048,0.53c0.177-0.069,0.317-0.123,0.456-0.178
	c3.596-1.439,7.709-0.052,9.649,3.293C16.219,24.66,16.504,24.74,16.939,24.632z M24.096,8.914c-0.171,0.338-0.32,0.606-0.445,0.885
	c-0.202,0.45-0.094,0.83,0.339,1.056c1.224,0.638,2.458,1.257,3.673,1.875c0.054-0.03,0.085-0.04,0.106-0.06
	c0.077-0.075,0.15-0.154,0.226-0.23c1.175-1.193,2.589-1.934,4.256-2.086c1.068-0.097,2.149-0.06,3.225-0.078
	c0.442-0.007,0.884-0.001,1.335-0.001c0.05-0.717-0.211-1.23-0.768-1.57c-0.557-0.34-1.139-0.352-1.697,0.012
	c-0.906,0.591-1.899,0.829-2.975,0.813c-1.322-0.02-2.645-0.018-3.968,0C26.273,9.543,25.155,9.524,24.096,8.914z M15.509,3.925
	c-0.079-0.033-0.107-0.052-0.135-0.055c-0.076-0.008-0.154-0.014-0.23-0.011c-0.817,0.032-1.518-0.183-2.005-0.899
	c-0.056-0.082-0.201-0.137-0.307-0.142c-0.322-0.016-0.647-0.019-0.968,0.006c-0.431,0.033-0.797,0.237-0.925,0.654
	c-0.287,0.939-0.559,1.886-0.768,2.845c-0.146,0.668,0.336,1.218,1.018,1.257c0.353,0.02,0.709,0.022,1.061-0.003
	c0.134-0.009,0.293-0.086,0.387-0.183c0.585-0.613,1.269-1.06,2.072-1.336c0.119-0.041,0.254-0.175,0.29-0.294
	C15.182,5.163,15.337,4.553,15.509,3.925z M16.07,1.388c-0.414,0-0.828,0-1.242,0c-0.339,0-0.569,0.15-0.593,0.502
	c-0.026,0.381,0.207,0.579,0.558,0.587c0.843,0.018,1.686,0.017,2.529,0c0.332-0.007,0.558-0.2,0.55-0.552
	c-0.009-0.374-0.243-0.539-0.606-0.537C16.867,1.389,16.469,1.388,16.07,1.388z"/>
<path class="st0" d="M33.634,28.179c-0.004-2.169,1.734-3.908,3.901-3.901c2.145,0.007,3.875,1.739,3.879,3.88
	c0.004,2.156-1.757,3.918-3.905,3.91C35.373,32.06,33.639,30.319,33.634,28.179z M40.037,28.154
	c-0.005-1.391-1.145-2.524-2.529-2.514c-1.391,0.01-2.508,1.145-2.501,2.541c0.007,1.399,1.131,2.514,2.529,2.508
	C38.928,30.684,40.042,29.555,40.037,28.154z"/>
<path class="st0" d="M5.346,28.161c0.004-2.167,1.756-3.904,3.918-3.883c2.144,0.021,3.87,1.761,3.866,3.898
	c-0.004,2.129-1.754,3.885-3.881,3.892C7.094,32.076,5.342,30.322,5.346,28.161z M11.751,28.158
	c-0.004-1.39-1.145-2.526-2.528-2.518c-1.391,0.009-2.517,1.146-2.51,2.537c0.007,1.395,1.135,2.517,2.53,2.512
	C10.633,30.686,11.755,29.553,11.751,28.158z"/>
<path class="st0" d="M37.506,28.956c-0.436-0.007-0.791-0.364-0.789-0.793c0.002-0.424,0.368-0.79,0.795-0.796
	c0.45-0.006,0.821,0.374,0.806,0.824C38.304,28.627,37.947,28.963,37.506,28.956z"/>
<path class="st0" d="M9.248,27.368c0.436,0.009,0.778,0.363,0.776,0.803c-0.002,0.462-0.366,0.805-0.833,0.785
	c-0.436-0.019-0.78-0.388-0.762-0.817C8.447,27.713,8.823,27.359,9.248,27.368z"/>
</svg>
