<?xml version="1.0" encoding="utf-8"?>
<!-- Generator: Adobe Illustrator 26.0.1, SVG Export Plug-In . SVG Version: 6.00 Build 0)  -->
<svg version="1.1" id="Layer_1" xmlns="http://www.w3.org/2000/svg" xmlns:xlink="http://www.w3.org/1999/xlink" x="0px" y="0px"
	 width="83.671px" height="36px" viewBox="0 0 83.671 36" style="enable-background:new 0 0 83.671 36;" xml:space="preserve">
<style type="text/css">
	.st0{fill:#666666;}
</style>
<g>
	<g>
		<path class="st0" d="M82.775,18.235c-0.257-0.422-0.401-0.926-0.411-1.389c-0.01-1.708-0.01-3.415-0.01-5.123V9.122
			c0-0.226,0-0.453-0.062-0.617c-1.039-2.983-2.222-5.061-3.816-6.727c-1.193-1.255-2.52-1.821-4.084-1.769
			C73.291,0.049,72.18,0.039,71.1,0.028c-0.483-0.01-0.967-0.01-1.44-0.01h-2.098v1.625h0.37c0.617,0.01,1.204,0.021,1.769-0.021
			c1.625-0.144,2.613,0.782,3.22,1.481c0.987,1.142,1.173,2.469,1.224,3.611c0.051,1.173-0.463,1.985-1.564,2.479
			c-2.232,0.988-4.557,1.214-7.149,1.389l-0.401,0.031l-3.045-8.99h1.79V0.018h-0.432c-2.068,0-4.135-0.01-6.203-0.01
			c-5.452-0.01-11.078-0.021-16.623,0.041C38.667,0.07,36.712,0.327,34.85,0.8c-5.308,1.337-10.235,4.279-15.049,8.99
			c-0.576,0.566-1.173,0.823-1.996,0.843c-4.228,0.103-7.91,0.761-11.264,1.985C4.228,13.462,1.841,14.512,0,16.415V26.65
			c0.051,0.082,0.093,0.154,0.123,0.237c0.607,1.708,1.78,2.53,3.59,2.541h1.286l2.376,5.03H1.389V36h75.616v-1.605h-4.639
			l2.335-4.968h1.337c0.813,0.01,1.646,0.01,2.489-0.01c2.489-0.072,4.588-1.841,4.989-4.217c0.154-0.926,0.154-1.872,0.144-2.88
			c0-0.36,0-0.72,0.01-1.07C83.69,20.251,83.402,19.274,82.775,18.235z M45.312,1.633h4.361c3.086,0,6.172,0.01,9.258-0.01h0.031
			c0.555,0,1.224,0.123,1.564,1.049c0.597,1.697,1.214,3.395,1.852,5.133l0.987,2.716H45.312V1.633z M36.424,2.775
			c1.882-0.988,3.971-1.317,6.779-1.08l0.473,0.041v7.972c0,0.093-0.021,0.185-0.041,0.298l-0.072,0.556H26.416l1.759-1.625
			c0.545-0.504,1.049-0.977,1.563-1.43C32.083,5.429,34.213,3.927,36.424,2.775z M5.287,27.761H3.158v-0.514
			c0.031-4.444,4.043-8.209,8.949-8.404c5.668-0.247,9.494,2.89,10.204,8.342l0.072,0.586l-2.222-0.01l-0.093-0.401
			c-0.494-2.294-1.708-4.022-3.58-5.133c-1.358-0.802-2.829-1.142-4.372-1.018c-2.654,0.226-5.822,1.965-6.748,6.151L5.287,27.761z
			 M12.724,34.426c-0.01,0-0.01,0-0.021,0c-3.168-0.01-5.771-2.592-5.791-5.76c-0.01-1.564,0.586-3.035,1.687-4.135
			c1.09-1.111,2.541-1.718,4.094-1.718h0.01c3.199,0,5.812,2.592,5.822,5.791c0,1.553-0.597,3.014-1.708,4.115
			C15.728,33.819,14.267,34.426,12.724,34.426z M18.094,34.385l2.345-4.968h6.275v-1.563h-2.561l-0.062-0.432
			c-0.782-4.783-2.777-7.705-6.306-9.196c-3.755-1.594-7.499-1.409-11.459,0.597l-1.018,0.514L1.636,24.16v-5.256h3.61l0.905-1.821
			c0.483-0.967,0.936-1.872,1.42-2.767c0.185-0.36,0.607-0.514,0.988-0.627c3.024-0.936,6.275-1.409,9.916-1.44
			c0.792-0.01,1.358-0.247,2.068-0.874c1.492-1.317,3.065-2.582,4.598-3.816c0.555-0.442,1.111-0.885,1.656-1.337
			c0.278-0.226,0.617-0.329,0.977-0.309l1.152,0.051l-1.924,1.924c-0.967,0.957-1.934,1.924-2.89,2.89
			c-0.154,0.154-0.473,0.535-0.247,0.813c0.154,0.206,0.483,0.36,0.792,0.504c0.123,0.062,0.237,0.113,0.35,0.175
			c-0.041-0.031,0-0.031,0.031-0.041c0.082,0,0.154-0.01,0.216-0.01h38.965c3.096-0.01,5.555-0.339,7.746-1.06
			c3.703-1.214,4.536-3.055,3.292-7.272c-0.051-0.195-0.144-0.381-0.226-0.576c-0.144-0.319-0.298-0.689-0.401-1.142l-0.257-1.183
			L75.4,1.623c0.165,0.103,0.339,0.195,0.504,0.288c0.411,0.226,0.833,0.453,1.193,0.792c1.708,1.625,2.633,3.703,3.518,5.863
			l0.288,0.71h-3.045c-0.309,0.01-0.73,0.062-0.926,0.309c-0.185,0.247-0.134,0.679-0.062,0.998c0.36,1.471,0.72,2.932,1.09,4.403
			c0.278,1.152,0.339,1.193,1.564,1.203c0.144,0,0.298,0.01,0.514,0.021l1.368,0.072l-0.638,0.782
			c-0.072,0.093-0.134,0.175-0.185,0.257c-0.144,0.195-0.267,0.37-0.483,0.504c-0.689,0.432-1.543,0.854-2.582,0.72
			c-0.247-0.031-0.504-0.021-0.792-0.01c-0.226,0.01-0.463,0.01-0.689,0.01c-1.687,0-3.467-0.082-5.287-0.761
			c-2.335-0.874-4.896-0.874-7.633-0.021c-4.043,1.276-6.46,4.207-7.365,8.959c-0.021,0.113-0.041,0.226-0.062,0.35l-0.113,0.71
			H35.776v1.636H59.26l2.335,4.968H18.094z M80.676,10.86v3.58l-1.121,0.185l-0.936-3.652L80.676,10.86z M71.069,32.739
			c-1.101,1.09-2.551,1.687-4.094,1.687h-0.051c-3.168-0.031-5.74-2.633-5.75-5.802c0-1.553,0.607-3.014,1.708-4.115
			c1.101-1.101,2.551-1.697,4.094-1.697c0.01,0,0.01,0,0.021,0c1.553,0,3.004,0.607,4.104,1.718c1.09,1.101,1.697,2.561,1.687,4.115
			C72.787,30.188,72.17,31.649,71.069,32.739z M74.422,27.761l-0.082-0.401c-0.504-2.294-1.718-4.022-3.59-5.133
			c-1.337-0.792-2.798-1.142-4.372-1.018c-3.323,0.257-5.781,2.51-6.748,6.182l-0.103,0.381h-2.098v-0.514
			c0.01-4.444,4.022-8.219,8.939-8.414c5.668-0.237,9.494,2.89,10.204,8.342l0.082,0.576H74.422z M82.045,24.232
			c-0.062,1.81-1.43,3.281-3.189,3.436l-0.483,0.051L78.3,27.236c-0.339-2.407-1.162-4.392-2.561-6.254l-0.627-0.823h1.039
			c0.329,0,0.638,0.01,0.936,0.021c0.627,0.021,1.173,0.041,1.677-0.041c0.483-0.093,0.967-0.309,1.492-0.525
			c0.257-0.113,0.525-0.226,0.792-0.329l0.556-0.216l0.134,0.576c0.031,0.123,0.062,0.247,0.103,0.37
			c0.093,0.339,0.185,0.679,0.195,1.049C82.075,22.082,82.086,23.152,82.045,24.232z"/>
	</g>
	<g>
		<rect x="80.769" y="34.467" class="st0" width="1.522" height="1.522"/>
	</g>
	<g>
		<rect x="39.747" y="14.635" class="st0" width="1.543" height="1.502"/>
	</g>
	<g>
		<rect x="59.569" y="14.635" class="st0" width="1.553" height="1.502"/>
	</g>
	<g>
		<rect x="30.479" y="27.853" class="st0" width="1.512" height="1.512"/>
	</g>
	<g>
		<path class="st0" d="M15.152,26.176c-0.648-0.648-1.512-1.008-2.428-1.008c0,0,0,0-0.01,0c-1.882,0-3.425,1.533-3.446,3.415
			c0,0.926,0.35,1.79,0.998,2.448c0.658,0.669,1.533,1.039,2.469,1.039c0,0,0,0,0.01,0c1.852,0,3.425-1.564,3.425-3.415
			C16.181,27.719,15.821,26.845,15.152,26.176z M14.555,28.614c0,0.967-0.771,1.79-1.759,1.831h-0.082
			c-0.957,0-1.769-0.751-1.821-1.728c-0.031-0.494,0.144-0.977,0.494-1.348c0.339-0.37,0.823-0.576,1.317-0.586h0.01
			c0.988,0,1.81,0.802,1.841,1.79V28.614z"/>
	</g>
	<g>
		<path class="st0" d="M69.403,26.166c-0.658-0.648-1.512-0.998-2.428-0.998h-0.031c-1.882,0.01-3.415,1.564-3.415,3.446
			c0,0.916,0.36,1.79,1.018,2.438c0.669,0.658,1.512,1.008,2.479,1.018c0.895-0.01,1.759-0.37,2.407-1.029
			c0.648-0.658,1.008-1.512,0.998-2.417C70.431,27.689,70.061,26.814,69.403,26.166z M68.24,29.941
			c-0.35,0.329-0.802,0.504-1.255,0.504h-0.103c-0.988-0.051-1.769-0.905-1.728-1.893c0.031-0.998,0.864-1.759,1.862-1.769
			c0.998,0.021,1.8,0.854,1.8,1.841C68.816,29.118,68.6,29.602,68.24,29.941z"/>
	</g>
</g>
</svg>
