<?xml version="1.0" encoding="utf-8"?>
<!-- Generator: Adobe Illustrator 26.0.1, SVG Export Plug-In . SVG Version: 6.00 Build 0)  -->
<svg version="1.1" id="Layer_1" xmlns="http://www.w3.org/2000/svg" xmlns:xlink="http://www.w3.org/1999/xlink" x="0px" y="0px"
	 width="52.391px" height="36px" viewBox="0 0 52.391 36" style="enable-background:new 0 0 52.391 36;" xml:space="preserve">
<style type="text/css">
	.st0{fill:#666666;}
</style>
<path class="st0" d="M0,3.676c0.041-0.145,0.085-0.29,0.123-0.437C0.596,1.402,2.175,0.11,4.076,0.01C4.297-0.002,4.519,0,4.74,0
	c12.122,0,24.243,0,36.365,0c2.615,0,4.209,1.103,5.142,3.547c1.925,5.041,3.864,10.076,5.767,15.125
	c0.223,0.591,0.34,1.254,0.352,1.887c0.041,2.301,0.019,4.604,0.015,6.906c-0.004,2.291-1.524,3.815-3.813,3.826
	c-1.057,0.005-2.114,0.011-3.171-0.006c-0.29-0.005-0.404,0.096-0.504,0.365c-0.986,2.66-3.395,4.359-6.139,4.351
	c-2.725-0.009-5.143-1.714-6.095-4.336c-0.123-0.339-0.299-0.378-0.598-0.377c-3.188,0.008-6.376,0.006-9.564,0.002
	c-0.202,0-0.414-0.004-0.604-0.063c-0.372-0.116-0.548-0.399-0.51-0.785c0.038-0.386,0.269-0.618,0.654-0.671
	c0.168-0.023,0.34-0.012,0.511-0.012c3.035-0.001,6.069,0,9.104,0c0.185,0,0.369,0,0.599,0c0.01-2.152,0.771-3.935,2.407-5.289
	c1.241-1.026,2.684-1.517,4.304-1.467c1.795,0.056,3.305,0.75,4.535,2.042c1.234,1.296,1.789,2.87,1.785,4.647
	c1.341,0,2.651,0.08,3.945-0.027c0.939-0.077,1.604-0.952,1.611-1.901c0.019-2.523,0.014-5.047-0.002-7.571
	c-0.002-0.297-0.102-0.605-0.21-0.887c-1.965-5.153-3.936-10.304-5.909-15.453c-0.59-1.541-1.716-2.315-3.372-2.315
	c-12.275-0.002-24.55-0.002-36.825,0c-1.869,0-2.984,1.123-2.984,2.996c-0.001,4.161,0,8.321,0,12.482c0,0.168,0,0.336,0,0.571
	c0.302,0,0.568-0.007,0.834,0.001c1.068,0.032,1.913,0.85,1.935,1.922c0.025,1.193,0.02,2.387,0.004,3.581
	c-0.015,1.143-0.813,1.942-1.964,1.999C2.093,25.1,1.84,25.089,1.563,25.089c0,0.891-0.083,1.731,0.019,2.548
	c0.17,1.373,1.473,2.285,2.834,2.056c0.013-2.056,0.748-3.816,2.336-5.165c1.198-1.018,2.597-1.535,4.179-1.531
	c1.835,0.004,3.394,0.674,4.667,1.978c1.274,1.304,1.865,2.902,1.843,4.782c0.534,0,1.022-0.006,1.51,0.002
	c0.527,0.008,0.86,0.29,0.88,0.726c0.021,0.45-0.332,0.786-0.868,0.803c-0.46,0.014-0.921,0.017-1.381-0.001
	c-0.274-0.011-0.411,0.061-0.518,0.346c-1.009,2.687-3.384,4.369-6.126,4.367c-2.744-0.001-5.116-1.694-6.142-4.361
	c-0.056-0.145-0.254-0.323-0.397-0.334c-2.545-0.179-3.62-1.005-4.36-3.386C0.028,27.887,0.013,27.856,0,27.825
	C0,19.775,0,11.726,0,3.676z M15.896,29.503c0.007-2.731-2.184-4.948-4.911-4.968c-2.772-0.02-5.036,2.223-5.019,4.973
	c0.017,2.713,2.241,4.942,4.948,4.956C13.645,34.479,15.889,32.246,15.896,29.503z M43.735,29.482
	c-0.011-2.754-2.233-4.958-4.987-4.946c-2.726,0.011-4.928,2.212-4.944,4.942c-0.016,2.719,2.24,4.985,4.966,4.987
	C41.501,34.466,43.746,32.213,43.735,29.482z M1.557,23.535c0.129,0.011,0.213,0.022,0.297,0.024
	c0.849,0.019,0.924-0.055,0.924-0.917c0-0.952-0.011-1.904,0.004-2.855c0.008-0.473-0.176-0.704-0.662-0.67
	c-0.18,0.013-0.362,0.002-0.564,0.002C1.557,20.613,1.557,22.051,1.557,23.535z"/>
<path class="st0" d="M35.305,10.156c0-1.415-0.004-2.83,0.001-4.245c0.006-1.676,1.073-2.737,2.756-2.743
	c1.108-0.004,2.216-0.004,3.324,0c0.928,0.004,1.454,0.367,1.795,1.23c0.163,0.411,0.335,0.82,0.475,1.239
	c0.164,0.488-0.022,0.892-0.45,1.048c-0.396,0.144-0.769-0.046-0.977-0.5c-0.035-0.077-0.063-0.158-0.094-0.237
	c-0.481-1.247-0.481-1.247-1.796-1.247c-0.784,0-1.568-0.007-2.352,0.003c-0.742,0.009-1.143,0.4-1.145,1.142
	c-0.007,2.898-0.008,5.796,0.001,8.695c0.002,0.716,0.403,1.109,1.116,1.111c2.233,0.007,4.466,0.007,6.699,0
	c0.713-0.002,1.012-0.448,0.756-1.124c-0.637-1.688-1.287-3.37-1.931-5.055c-0.043-0.111-0.086-0.222-0.123-0.336
	c-0.148-0.458,0.013-0.861,0.402-1.021c0.399-0.164,0.832-0.001,1.006,0.444c0.74,1.903,1.506,3.798,2.171,5.728
	c0.496,1.441-0.596,2.88-2.129,2.894c-2.301,0.022-4.602,0.015-6.903,0.004c-1.491-0.007-2.582-1.091-2.597-2.581
	C35.293,13.123,35.305,11.64,35.305,10.156z"/>
<path class="st0" d="M3.269,10.165c0-1.448-0.006-2.896,0.002-4.344c0.008-1.556,1.079-2.639,2.629-2.651
	c1.414-0.011,2.827-0.012,4.241,0c1.519,0.013,2.617,1.087,2.626,2.611c0.018,2.93,0.017,5.86,0.001,8.79
	c-0.009,1.55-1.106,2.61-2.664,2.618c-1.397,0.007-2.793,0.007-4.19,0c-1.562-0.008-2.635-1.075-2.643-2.629
	C3.263,13.095,3.269,11.63,3.269,10.165z M4.803,10.175c0,1.43-0.003,2.861,0.001,4.291c0.003,0.821,0.365,1.185,1.183,1.189
	c1.345,0.005,2.69,0.005,4.035,0c0.838-0.003,1.212-0.373,1.214-1.222c0.005-2.827,0.005-5.653,0-8.48
	c-0.001-0.872-0.379-1.246-1.247-1.249C8.678,4.7,7.367,4.7,6.056,4.704c-0.904,0.003-1.251,0.36-1.253,1.282
	C4.801,7.382,4.803,8.778,4.803,10.175z"/>
<path class="st0" d="M24.434,10.144c0-1.416-0.005-2.831,0.001-4.247c0.007-1.667,1.054-2.722,2.708-2.728
	c1.364-0.005,2.728-0.007,4.092,0c1.595,0.009,2.679,1.053,2.69,2.654c0.021,2.916,0.023,5.833-0.001,8.749
	c-0.013,1.575-1.096,2.61-2.665,2.617c-1.381,0.007-2.762,0.006-4.143,0c-1.629-0.007-2.673-1.056-2.68-2.697
	C24.429,13.043,24.434,11.594,24.434,10.144z M32.397,10.196c0-1.432,0.008-2.865-0.003-4.297c-0.007-0.815-0.392-1.191-1.198-1.194
	c-1.347-0.006-2.694-0.006-4.041,0c-0.815,0.004-1.183,0.373-1.184,1.195c-0.004,2.865-0.005,5.73,0.001,8.594
	c0.001,0.797,0.365,1.157,1.158,1.16c1.313,0.006,2.626,0.003,3.938,0.001c0.99-0.001,1.325-0.33,1.328-1.316
	C32.401,12.959,32.397,11.577,32.397,10.196z"/>
<path class="st0" d="M13.892,10.17c0-1.416-0.004-2.831,0.001-4.247c0.006-1.703,1.045-2.749,2.734-2.754
	c1.33-0.004,2.66-0.007,3.99,0.001c1.611,0.009,2.69,1.086,2.695,2.705c0.008,2.882,0.009,5.764-0.001,8.647
	c-0.006,1.591-1.085,2.661-2.67,2.669c-1.364,0.007-2.728,0.007-4.092,0c-1.595-0.008-2.644-1.061-2.654-2.671
	C13.885,13.069,13.892,11.619,13.892,10.17z M15.427,10.184c0,1.381-0.002,2.763,0.001,4.144c0.002,1.024,0.311,1.327,1.352,1.328
	c1.262,0.001,2.523,0.003,3.785-0.001c0.84-0.003,1.211-0.374,1.213-1.225c0.005-2.831,0.005-5.662,0-8.492
	c-0.001-0.866-0.381-1.231-1.264-1.234c-1.279-0.004-2.558-0.004-3.836,0c-0.892,0.003-1.246,0.35-1.249,1.234
	C15.423,7.353,15.427,8.769,15.427,10.184z"/>
<path class="st0" d="M49.641,21.81c-0.019,0.34,0.001,0.687-0.063,1.018c-0.21,1.097-1.146,1.848-2.256,1.843
	c-1.112-0.004-2.064-0.755-2.218-1.87c-0.091-0.665-0.09-1.367,0.011-2.03c0.17-1.124,1.249-1.912,2.358-1.832
	c1.178,0.085,2.101,1.03,2.147,2.206c0.009,0.221,0.001,0.443,0.001,0.665C49.627,21.81,49.634,21.81,49.641,21.81z M48.084,21.824
	c0.001,0,0.001,0,0.002,0c0-0.204,0.012-0.409-0.003-0.612c-0.032-0.437-0.286-0.702-0.711-0.728
	c-0.432-0.027-0.733,0.227-0.778,0.65c-0.049,0.453-0.05,0.921,0.005,1.374c0.052,0.422,0.353,0.655,0.795,0.621
	c0.416-0.032,0.642-0.288,0.685-0.692C48.102,22.234,48.084,22.028,48.084,21.824z"/>
<path class="st0" d="M38.284,19.854c-0.425,0-0.851,0.011-1.275-0.004c-0.448-0.016-0.76-0.312-0.784-0.712
	c-0.025-0.422,0.282-0.791,0.747-0.805c0.883-0.026,1.769-0.025,2.652-0.001c0.462,0.012,0.782,0.383,0.762,0.795
	c-0.021,0.423-0.339,0.711-0.826,0.725C39.135,19.864,38.709,19.855,38.284,19.854z"/>
<path class="st0" d="M10.933,32.954c-1.927-0.002-3.472-1.553-3.465-3.479c0.007-1.893,1.55-3.441,3.447-3.46
	c1.898-0.019,3.492,1.561,3.498,3.467C14.42,31.397,12.857,32.956,10.933,32.954z M10.879,31.419c1.088,0.023,1.979-0.822,2-1.895
	c0.02-1.06-0.871-1.968-1.936-1.973c-1.05-0.005-1.925,0.856-1.94,1.909C8.988,30.524,9.824,31.397,10.879,31.419z"/>
<path class="st0" d="M38.758,32.954c-1.923-0.005-3.469-1.566-3.458-3.489c0.011-1.887,1.57-3.44,3.461-3.45
	c1.904-0.01,3.486,1.569,3.486,3.478C42.247,31.41,40.685,32.959,38.758,32.954z M38.763,31.419
	c1.083,0.003,1.959-0.871,1.948-1.945c-0.01-1.048-0.884-1.917-1.932-1.923c-1.069-0.006-1.954,0.885-1.945,1.958
	C36.843,30.567,37.7,31.416,38.763,31.419z"/>
</svg>
