<?xml version="1.0" encoding="utf-8"?>
<!-- Generator: Adobe Illustrator 26.0.1, SVG Export Plug-In . SVG Version: 6.00 Build 0)  -->
<svg version="1.1" id="Layer_1" xmlns="http://www.w3.org/2000/svg" xmlns:xlink="http://www.w3.org/1999/xlink" x="0px" y="0px"
	 width="80.973px" height="36px" viewBox="0 0 80.973 36" style="enable-background:new 0 0 80.973 36;" xml:space="preserve">
<style type="text/css">
	.st0{fill:#666666;}
</style>
<g>
	<g>
		<path class="st0" d="M80.942,14.574c0-0.401-0.175-0.895-0.411-1.203c-1.059-1.368-2.149-2.715-3.229-4.063
			c-0.792-0.977-1.584-1.954-2.355-2.952c-0.339-0.411-0.689-0.586-1.234-0.586c-0.01,0-0.01,0-0.01,0
			c-2.623,0.01-5.245,0.01-7.868,0.01h-5.749c-0.977,0-1.121,0.154-1.131,1.193v3.528H57.77c-0.453,0-0.884-0.01-1.306,0
			c-0.679,0.01-0.885,0.216-0.885,0.854c-0.01,3.024-0.01,6.037,0,9.051c0,0.679,0.216,0.895,0.926,0.905
			c0.432,0.01,0.864,0.01,1.296,0.01h1.1v3.898H44.348v-2.612h7.457c1.121,0,1.244-0.123,1.244-1.234V1.276
			c0-1.172-0.093-1.265-1.296-1.265H11.159c-0.247,0-0.483,0-0.689,0.041C10.11,0.134,9.945,0.33,9.945,0.69
			c0,0.391,0.165,0.586,0.555,0.658c0.247,0.041,0.514,0.031,0.802,0.031h0.144l40.162,0.01v19.778H1.419V1.389h4.381
			c0.237,0,0.473,0,0.71-0.01C6.798,1.358,7.282,1.245,7.292,0.71c0-0.195-0.051-0.35-0.165-0.463
			C6.994,0.103,6.778,0.021,6.5,0.021c-0.854-0.01-1.707-0.01-2.551-0.01c-0.915,0.01-1.831,0.01-2.736-0.01
			C0.627-0.01,0.267,0.114,0,0.412v21.763c0.247,0.329,0.566,0.432,1.172,0.442c1.666-0.021,3.343-0.021,5.04-0.01H8.68v2.674H5.369
			c-1.399,0-2.797,0.01-4.186-0.01C0.617,25.229,0.267,25.384,0,25.702v4.824c0.216,0.339,0.535,0.494,1.059,0.463
			c1.131-0.021,2.273-0.021,3.404-0.021l1.676,0.01l0.185,0.391c0.041,0.072,0.082,0.154,0.103,0.257
			c0.381,2.067,2.18,4.32,5.225,4.371c2.479,0.072,4.34-1.43,5.307-4.258c0.123-0.36,0.525-0.689,0.884-0.74
			c0.226-0.021,0.453-0.031,0.669-0.031c0.134,0,0.278,0,0.411,0.01h0.771l0.298,1.008c0.648,2.376,2.715,3.991,5.132,4.011
			c2.417-0.01,4.566-1.594,5.184-3.939c0.072-0.298,0.226-0.72,0.617-0.946c0.381-0.216,0.833-0.134,1.214-0.021l0.37,0.103v0.967
			c0,0.432-0.01,0.864,0.01,1.306c0.01,0.617,0.226,0.833,0.823,0.843c2.746,0.01,5.492,0.01,8.238,0
			c0.607-0.01,0.812-0.216,0.833-0.843c0.01-0.422,0.01-0.854,0-1.296V31.03h2.252l0.175,0.504c0.051,0.123,0.093,0.247,0.134,0.381
			c0.669,2.458,2.695,4.062,5.163,4.083h0.041c2.448,0,4.515-1.615,5.153-4.021c0.195-0.72,0.597-1.008,1.316-1.008
			c2.602,0.021,4.731,0.021,6.706,0c0.648,0,1.275,0.113,1.543,1.142c0.339,1.388,1.193,2.468,2.54,3.209
			c0.35,0.195,0.812,0.247,1.049-0.175c0.267-0.463-0.093-0.812-0.329-0.977c-0.072-0.051-0.144-0.093-0.216-0.144
			c-0.134-0.082-0.278-0.175-0.401-0.278c-1.45-1.142-1.913-3.127-1.111-4.803c0.802-1.697,2.623-2.582,4.433-2.17
			c1.635,0.37,2.695,1.46,3.065,3.147c0.339,1.574-0.36,3.127-1.892,4.145c-0.802,0.545-0.555,0.936-0.453,1.1
			c0.237,0.37,0.648,0.391,1.203,0.051c1.255-0.761,2.057-1.862,2.407-3.26c0.165-0.699,0.535-0.987,1.255-0.987
			c0.905,0.021,1.81,0.021,2.725,0.01h0.699c0.967,0,1.1-0.144,1.1-1.111v-2.869C80.973,22.853,80.973,18.709,80.942,14.574z
			 M57.009,19.922v-7.991h1.892v7.991H57.009z M10.161,22.648h32.706v2.571H10.161V22.648z M7.097,27.883
			c-0.175,0.401-0.35,0.813-0.555,1.214c-0.154,0.309-0.576,0.494-0.884,0.494C4.998,29.6,4.35,29.6,3.692,29.6H1.399l-0.01-2.88
			h6.222L7.097,27.883z M11.694,34.619c-1.059,0-2.057-0.411-2.797-1.152c-0.751-0.761-1.162-1.759-1.162-2.839
			c0.01-1.07,0.422-2.067,1.183-2.828c0.751-0.741,1.759-1.183,2.798-1.142c2.16,0,3.97,1.841,3.97,3.991
			C15.684,32.84,13.895,34.619,11.694,34.619z M20.415,28.284c-0.165,0.483-0.381,1.142-1.234,1.286
			c-0.37,0.062-0.689,0.093-0.957,0.093c-1.162,0-1.46-0.617-2.129-2.283l-0.288-0.71h5.996l-1.018,0.905
			C20.601,27.739,20.518,27.986,20.415,28.284z M27.964,33.457c-0.751,0.751-1.748,1.162-2.808,1.162c0,0,0,0-0.01,0
			c-2.18,0-3.949-1.79-3.949-3.99c0-1.07,0.422-2.078,1.183-2.828c0.751-0.741,1.728-1.142,2.777-1.142c0.01,0,0.01,0,0.021,0
			c2.15,0,3.97,1.841,3.96,4.001C29.137,31.709,28.726,32.706,27.964,33.457z M40.985,32.902h-7.086V31.04h7.086V32.902z
			 M45.572,27.893c-0.175,0.391-0.329,0.771-0.535,1.142c-0.195,0.339-0.668,0.555-1.008,0.555c-2.016,0.01-4.032,0.01-6.058,0.01
			c-2.222,0-4.443,0-6.665-0.021c-0.463,0-0.884-0.401-1.049-0.669c-0.206-0.329-0.35-0.668-0.514-1.028
			c-0.062-0.144-0.123-0.288-0.195-0.442l-0.35-0.73h16.888L45.572,27.893z M52.967,33.457c-0.751,0.751-1.748,1.162-2.808,1.162
			c0,0,0,0-0.01,0c-2.18,0-3.96-1.79-3.949-3.98c0-1.07,0.422-2.077,1.172-2.828c0.751-0.751,1.748-1.142,2.798-1.152
			c2.191,0,3.97,1.79,3.96,3.991C54.129,31.709,53.718,32.706,52.967,33.457z M58.912,29.6h-1.1c-0.195,0.01-0.381,0.01-0.576,0.01
			c-0.36,0-0.72-0.01-1.08-0.031c-0.381-0.01-0.74-0.319-0.884-0.586c-0.185-0.35-0.339-0.699-0.514-1.08l-0.525-1.183h4.69
			L58.912,29.6z M78.309,12.857l0.638,0.977H68.734v-3.651h4.032c0.123,0,0.247,0,0.37,0.01c0.206,0.01,0.401,0.021,0.555-0.01
			C76.19,9.596,77.311,11.335,78.309,12.857z M79.553,24.005l-0.453,0.051c-1.522,0.175-1.512,0.453-1.512,0.771
			c0.01,0.319,0.021,0.607,1.481,0.71l0.473,0.041V29.6h-1.296c-0.771,0.01-1.553,0.01-2.335-0.041
			c-0.134,0-0.545-0.031-0.956-0.987c-0.741-1.718-2.273-2.911-4.093-3.219c-1.79-0.288-3.569,0.339-4.782,1.697
			c-0.391,0.432-0.74,0.998-1.039,1.676c-0.267,0.617-0.658,0.884-1.296,0.884h-0.072c-0.627-0.021-1.265-0.01-1.913-0.01h-1.368
			V7.231l0.689-0.051c0.185-0.01,0.381-0.021,0.576-0.021l1.512-0.01c3.229,0,6.469,0,9.699,0.021c0.329,0,0.627,0.103,0.895,0.206
			c0.103,0.031,0.206,0.072,0.298,0.103l0.463,0.134l-0.257,1.193h-4.546c-1.882,0-2.427,0.545-2.427,2.427v0.597
			c-0.01,0.483-0.01,0.977,0,1.46c0.041,1.265,0.72,1.934,1.975,1.934c2.088,0.01,4.176,0.01,6.263,0.01h4.021V24.005z"/>
	</g>
	<g>
		<path class="st0" d="M8.228,9.586v3.466c0,1.419,0,2.839-0.01,4.258c0,0.278-0.072,0.915-0.668,0.946
			c-0.185,0-0.339-0.051-0.453-0.154c-0.154-0.154-0.237-0.401-0.237-0.71c-0.01-1.43-0.01-2.849-0.01-4.278V5.38
			c0.01-0.977,0.391-0.987,0.648-0.987h0.041c0.185,0,0.329,0.041,0.432,0.144C8.135,4.69,8.218,4.999,8.218,5.39
			C8.228,6.789,8.228,8.187,8.228,9.586z"/>
	</g>
	<g>
		<path class="st0" d="M30.999,5.328c0.01,3.98,0.01,7.96,0,11.93c0,0.452-0.113,0.987-0.669,0.998
			c-0.195,0-0.329-0.051-0.442-0.165c-0.165-0.154-0.257-0.442-0.257-0.802V5.359c0-0.967,0.494-0.967,0.679-0.967h0.01
			c0.195,0,0.35,0.041,0.453,0.144C30.916,4.69,30.999,4.968,30.999,5.328z"/>
	</g>
	<g>
		<path class="st0" d="M46.199,5.297c0.01,4.001,0.01,8.002,0,12.013c0,0.339-0.093,0.617-0.257,0.782
			c-0.113,0.113-0.267,0.154-0.442,0.154c-0.545-0.01-0.668-0.514-0.668-0.926V5.308c0-0.36,0.082-0.627,0.237-0.771
			c0.103-0.103,0.247-0.144,0.442-0.144c0,0,0.01,0,0.021,0C45.696,4.392,46.199,4.403,46.199,5.297z"/>
	</g>
	<g>
		<path class="st0" d="M15.797,5.359c0.01,1.378,0,2.756,0,4.134v3.631c0,1.388,0.01,2.777,0,4.165c0,0.36-0.093,0.648-0.247,0.812
			c-0.113,0.103-0.247,0.134-0.432,0.154c-0.597-0.01-0.689-0.627-0.689-0.987c-0.01-3.98-0.01-7.96,0-11.93
			c0-0.37,0.082-0.648,0.237-0.792c0.103-0.103,0.257-0.154,0.453-0.154h0.01C15.345,4.392,15.797,4.392,15.797,5.359z"/>
	</g>
	<g>
		<path class="st0" d="M23.419,9.38v7.683c0,0.165,0,0.329-0.021,0.494c-0.051,0.422-0.309,0.73-0.699,0.689
			c-0.37-0.01-0.617-0.288-0.638-0.71c-0.021-0.607-0.021-1.214-0.021-1.82v-3.867c0.01-2.15,0.01-4.309,0-6.459
			c0-0.699,0.154-0.874,0.473-0.977c0.072-0.021,0.165-0.041,0.247-0.041c0.113,0,0.226,0.021,0.329,0.103
			c0.195,0.144,0.319,0.442,0.319,0.833C23.429,6.665,23.419,8.023,23.419,9.38z"/>
	</g>
	<g>
		<path class="st0" d="M38.589,11.283l0.01,1.81c0.01,1.43,0.01,2.849-0.01,4.268c0,0.381-0.154,0.72-0.391,0.843
			c-0.144,0.082-0.309,0.072-0.483-0.031c-0.216-0.134-0.453-0.514-0.453-0.689c-0.051-4.34-0.041-8.701-0.021-12.393
			c0-0.165,0.041-0.391,0.185-0.535c0.144-0.134,0.339-0.165,0.483-0.165c0.01,0,0.01,0,0.021,0c0.432,0,0.648,0.247,0.658,0.74
			c0.01,1.45,0.01,2.911,0.01,4.371L38.589,11.283z"/>
	</g>
	<g>
		<path class="st0" d="M70.708,30.629c0,0.473-0.267,0.802-0.679,0.812c-0.226-0.021-0.35-0.062-0.473-0.175
			c-0.134-0.134-0.216-0.35-0.216-0.607c-0.01-0.237,0.051-0.792,0.658-0.802c0.185,0,0.36,0.062,0.483,0.185
			C70.626,30.176,70.698,30.382,70.708,30.629z"/>
	</g>
	<g>
		<path class="st0" d="M50.848,30.66c0,0.247-0.082,0.463-0.226,0.607c-0.123,0.113-0.288,0.154-0.473,0.175
			c-0.504-0.021-0.669-0.432-0.669-0.812c0-0.257,0.082-0.463,0.216-0.597c0.123-0.113,0.278-0.175,0.463-0.175
			c0.01,0,0.01,0,0.021,0C50.601,29.868,50.859,30.187,50.848,30.66z"/>
	</g>
	<g>
		<path class="st0" d="M12.393,30.649c0,0.473-0.278,0.782-0.689,0.782h-0.01c-0.422,0-0.669-0.298-0.669-0.792
			c0-0.267,0.072-0.483,0.206-0.617c0.113-0.103,0.267-0.165,0.463-0.165c0.01,0,0.01,0,0.01,0
			C12.126,29.868,12.404,30.176,12.393,30.649z"/>
	</g>
	<g>
		<path class="st0" d="M25.856,30.639c0,0.463-0.278,0.792-0.689,0.802c-0.175,0-0.339-0.062-0.463-0.175
			c-0.134-0.134-0.216-0.35-0.216-0.607c0-0.298,0.082-0.792,0.669-0.802c0.226-0.01,0.36,0.062,0.483,0.185
			C25.774,30.176,25.856,30.392,25.856,30.639z"/>
	</g>
</g>
</svg>
