<?xml version="1.0" encoding="utf-8"?>
<!-- Generator: Adobe Illustrator 26.0.1, SVG Export Plug-In . SVG Version: 6.00 Build 0)  -->
<svg version="1.1" id="Layer_1" xmlns="http://www.w3.org/2000/svg" xmlns:xlink="http://www.w3.org/1999/xlink" x="0px" y="0px"
	 width="42.609px" height="36px" viewBox="0 0 42.609 36" style="enable-background:new 0 0 42.609 36;" xml:space="preserve">
<style type="text/css">
	.st0{fill:#666666;}
</style>
<g>
	<path class="st0" d="M0,19.414c0.235-0.718,0.575-1.375,1.313-1.674c0.426-0.172,0.899-0.229,1.438-0.358
		c0-0.38-0.039-0.849,0.016-1.307c0.029-0.245,0.163-0.552,0.352-0.686c0.365-0.258,0.853,0.057,0.875,0.536
		c0.023,0.497,0.005,0.996,0.005,1.527c0.298,0,0.565,0,0.895,0c0-0.161,0-0.322,0-0.483c0-3.565,0-7.129,0-10.694
		c0-0.829,0.159-0.985,1.005-0.985c3.592,0,7.185,0,10.777,0c1.273,0,1.765,0.372,2.125,1.599
		c1.613,5.486,3.226,10.972,4.839,16.458c0.038,0.13,0.083,0.258,0.127,0.392c0.616-0.401,0.715-0.654,0.523-1.307
		c-1.555-5.286-3.11-10.573-4.666-15.859c-0.446-1.517-1.295-2.147-2.891-2.147c-3.856,0-7.712,0-11.568,0
		c-0.889,0-1.164,0.277-1.164,1.172c-0.001,2.358,0,4.716-0.001,7.074c0,0.152,0.01,0.309-0.02,0.456
		c-0.06,0.287-0.247,0.461-0.546,0.486c-0.296,0.025-0.522-0.104-0.618-0.384c-0.057-0.165-0.064-0.353-0.065-0.531
		C2.75,10.312,2.75,7.927,2.751,5.541c0.001-1.529,0.837-2.37,2.364-2.371c3.912-0.002,7.823-0.003,11.735,0
		c2.008,0.002,3.386,1.042,3.953,2.971c1.559,5.3,3.121,10.598,4.666,15.902c0.11,0.379,0.266,0.493,0.655,0.472
		c0.704-0.039,1.412-0.011,2.188-0.011c0-0.192,0-0.365,0-0.538c0-6.963,0-13.926,0-20.889c0-0.153-0.009-0.307,0.008-0.457
		C28.366,0.217,28.609-0.01,28.965,0c0.358,0.011,0.59,0.246,0.595,0.66c0.012,0.943,0.005,1.886,0.006,2.83
		c0,0.427,0,0.855,0,1.344c0.197,0,0.357,0,0.517,0c3.107,0,6.214,0,9.321,0c0.993,0,1.308,0.321,1.31,1.327
		c0,0.388,0.006,0.777-0.002,1.165c-0.009,0.458-0.249,0.733-0.621,0.73c-0.368-0.002-0.614-0.279-0.627-0.735
		c-0.011-0.388-0.002-0.776-0.002-1.199c-0.826,0-1.636,0-2.516,0c0,0.113,0,0.244,0,0.375c0,0.763,0.005,1.526-0.001,2.289
		c-0.006,0.744-0.326,1.073-1.059,1.079c-0.915,0.008-1.831,0.009-2.746,0c-0.721-0.007-1.024-0.319-1.029-1.053
		c-0.006-0.886-0.001-1.771-0.001-2.691c-0.851,0-1.672,0-2.518,0c0,3.178,0,6.347,0,9.548c3.283,0,6.548,0,9.87,0
		c0-0.148,0-0.296,0-0.443c0-1.512-0.001-3.024,0.002-4.536c0-0.151,0.003-0.307,0.037-0.453c0.077-0.327,0.297-0.5,0.634-0.477
		c0.335,0.023,0.529,0.222,0.569,0.554c0.018,0.151,0.012,0.305,0.012,0.457c0,5.091,0,10.181,0,15.272c0,0.163,0,0.326,0,0.535
		c0.372,0,0.7-0.002,1.029,0c0.557,0.004,0.861,0.224,0.866,0.625c0.005,0.401-0.297,0.626-0.852,0.626
		c-3.884,0.001-7.768,0.001-11.651,0.001c-0.164,0-0.327,0-0.477,0c-0.146,0.347,0.004,0.541,0.209,0.762
		c1.259,1.35,1.644,2.926,0.951,4.644c-0.686,1.698-2.001,2.663-3.858,2.759c-2.193,0.113-4.105-1.455-4.463-3.603
		c-0.02-0.122-0.054-0.242-0.09-0.398c-0.145,0-0.281,0-0.417,0c-2.996,0-5.992,0.006-8.988-0.009
		c-0.336-0.002-0.467,0.106-0.59,0.414c-0.893,2.24-2.55,3.502-4.967,3.581c-2.33,0.076-4.048-1.035-5.068-3.11
		c-0.288-0.586-0.49-0.948-1.23-0.931C0.535,31.952,0.215,31.421,0,30.9C0,27.071,0,23.242,0,19.414z M21.838,21.695
		c-0.019-0.072-0.052-0.202-0.089-0.329c-1.391-4.727-2.782-9.455-4.173-14.182c-0.177-0.6-0.223-0.638-0.831-0.638
		c-3.384-0.001-6.767-0.001-10.151,0c-0.136,0-0.271,0.011-0.41,0.017c0,3.654,0,7.275,0,10.93c1.075,0,2.114-0.022,3.152,0.004
		c2.451,0.061,4.583,1.906,4.984,4.33c0.097,0.583,0.075,1.186,0.101,1.781c0.03,0.704,0.396,1.317,0.99,1.36
		c0.985,0.072,1.979,0.02,3.021,0.02c-0.25-0.5-0.499-0.973-0.727-1.456c-0.272-0.576-0.126-1.144,0.372-1.512
		c0.11-0.081,0.225-0.156,0.363-0.251c-0.137-0.241-0.264-0.469-0.396-0.694c-0.131-0.222-0.267-0.44-0.403-0.664
		c-0.146,0.089-0.253,0.154-0.359,0.219c-0.118,0.072-0.234,0.148-0.355,0.217c-0.364,0.207-0.732,0.154-0.922-0.128
		c-0.212-0.316-0.128-0.682,0.25-0.923c0.853-0.544,1.712-1.077,2.577-1.601c0.362-0.219,0.725-0.137,0.913,0.168
		c0.185,0.301,0.087,0.655-0.259,0.893c-0.247,0.17-0.503,0.325-0.765,0.493c0.28,0.475,0.537,0.911,0.807,1.369
		c0.427-0.298,0.87-0.517,1.312-0.26C21.218,21.077,21.524,21.425,21.838,21.695z M12.764,30.715c0.069,0.01,0.11,0.021,0.15,0.021
		c3.093,0.001,6.186-0.003,9.279,0.01c0.297,0.001,0.323-0.162,0.391-0.368c0.493-1.488,1.486-2.463,2.993-2.916
		c0.909-0.273,1.805-0.193,2.709,0.087c0-1.266,0-2.507,0-3.775c-0.84,0-1.656-0.028-2.468,0.018
		c-0.228,0.013-0.487,0.2-0.657,0.378c-0.373,0.389-0.697,0.826-1.045,1.24c-0.483,0.576-1.107,0.88-1.853,0.884
		c-2.136,0.011-4.272,0.017-6.408-0.002c-1.138-0.01-2.042-0.506-2.45-1.591c-0.207-0.551-0.224-1.191-0.234-1.793
		c-0.04-2.422-1.765-4.162-4.187-4.17c-2.15-0.007-4.3-0.003-6.449-0.001c-0.851,0.001-1.285,0.427-1.285,1.269
		c-0.002,3.426,0.004,6.852-0.007,10.277c-0.001,0.4,0.127,0.537,0.509,0.422c0.025-3.668,3.047-5.722,5.645-5.639
		C9.967,25.149,12.713,27.187,12.764,30.715z M39.439,16.992c-0.844,0-1.653,0-2.494,0c0,0.918,0.006,1.804-0.002,2.689
		c-0.006,0.731-0.344,1.062-1.075,1.068c-0.458,0.004-0.916-0.004-1.373,0.002c-2.51,0.031-2.412,0.08-2.387-2.368
		c0.004-0.454,0.001-0.909,0.001-1.424c-0.733,0-1.422,0.018-2.11-0.007c-0.35-0.013-0.441,0.103-0.44,0.446
		c0.013,2.927,0.007,5.853,0.008,8.78c0,0.121,0.015,0.242,0.023,0.379c3.294,0,6.56,0,9.848,0
		C39.439,23.366,39.439,20.196,39.439,16.992z M7.244,34.749c2.27,0.017,4.226-1.873,4.238-4.096
		c0.013-2.379-1.852-4.311-4.181-4.33c-2.336-0.02-4.238,1.883-4.251,4.252C3.038,32.839,4.94,34.733,7.244,34.749z M26.738,34.75
		c1.712,0.007,3.133-1.414,3.12-3.12c-0.013-1.678-1.402-3.066-3.081-3.077c-1.704-0.012-3.137,1.385-3.138,3.06
		C23.637,33.348,25.015,34.742,26.738,34.75z M22.667,25.045c-0.799-1.071-1.513-2.029-2.245-3.011
		c-0.541,0.337-1.053,0.654-1.579,0.982c0.159,0.313,0.344,0.569,0.425,0.855c0.284,1.003,0.922,1.349,1.931,1.186
		C21.638,24.986,22.098,25.045,22.667,25.045z M35.672,6.11c-0.782,0-1.525,0-2.275,0c0,0.843,0,1.663,0,2.47
		c0.776,0,1.517,0,2.275,0C35.672,7.749,35.672,6.95,35.672,6.11z M35.673,16.982c-0.781,0-1.521,0-2.284,0c0,0.843,0,1.662,0,2.482
		c0.777,0,1.526,0,2.284,0C35.673,18.632,35.673,17.834,35.673,16.982z"/>
	<path class="st0" d="M7.28,27.723c1.562,0.011,2.815,1.286,2.8,2.849c-0.016,1.538-1.284,2.8-2.816,2.801
		c-1.538,0.002-2.843-1.306-2.833-2.839C4.441,28.983,5.729,27.713,7.28,27.723z M7.281,28.977c-0.877-0.007-1.597,0.7-1.595,1.568
		c0.001,0.844,0.709,1.558,1.559,1.572c0.864,0.014,1.585-0.704,1.584-1.578C8.828,29.677,8.141,28.984,7.281,28.977z"/>
	<path class="st0" d="M26.759,33.737c-1.15,0.005-2.097-0.926-2.107-2.072c-0.01-1.136,0.939-2.093,2.082-2.1
		c1.152-0.007,2.088,0.919,2.096,2.074C28.837,32.794,27.911,33.732,26.759,33.737z M27.568,31.659
		c0.003-0.466-0.378-0.848-0.836-0.839c-0.435,0.009-0.814,0.392-0.819,0.826c-0.005,0.451,0.394,0.844,0.848,0.837
		C27.206,32.476,27.565,32.11,27.568,31.659z"/>
</g>
</svg>
