<?xml version="1.0" encoding="utf-8"?>
<!-- Generator: Adobe Illustrator 26.0.1, SVG Export Plug-In . SVG Version: 6.00 Build 0)  -->
<svg version="1.1" id="Layer_1" xmlns="http://www.w3.org/2000/svg" xmlns:xlink="http://www.w3.org/1999/xlink" x="0px" y="0px"
	 width="36.984px" height="36px" viewBox="0 0 36.984 36" style="enable-background:new 0 0 36.984 36;" xml:space="preserve">
<style type="text/css">
	.st0{fill:#666666;}
</style>
<g>
	<path class="st0" d="M0,22.239c0.067-0.5,0.11-1.006,0.205-1.501c0.79-4.117,3.031-7.193,6.697-9.21
		c2.061-1.134,4.296-1.629,6.643-1.51c3.676,0.185,6.761,1.66,9.21,4.411c1.844,2.071,2.915,4.51,3.173,7.267
		c0.361,3.85-0.764,7.241-3.37,10.103c-2.016,2.214-4.538,3.54-7.491,4.038c-0.432,0.073-0.87,0.11-1.305,0.164
		c-0.507,0-1.016,0-1.523,0c-0.065-0.014-0.13-0.038-0.196-0.041c-1.595-0.105-3.125-0.486-4.557-1.191
		c-3.987-1.965-6.427-5.134-7.281-9.505c-0.097-0.494-0.138-1-0.205-1.5C0,23.255,0,22.746,0,22.239z M22.595,15.495
		c-0.709-0.708-1.388-1.384-2.088-2.083c-0.203,0.278-0.362,0.495-0.534,0.729c-0.238-0.172-0.462-0.334-0.698-0.506
		c0.172-0.24,0.331-0.463,0.531-0.744c-0.89-0.454-1.742-0.889-2.624-1.339c-0.113,0.333-0.201,0.591-0.294,0.862
		c-0.285-0.093-0.539-0.176-0.811-0.265c0.086-0.279,0.165-0.535,0.25-0.81c-0.945-0.27-1.889-0.424-2.894-0.454
		c0,0.286,0,0.559,0,0.829c-0.307,0-0.575,0-0.872,0c0-0.281,0-0.547,0-0.828c-0.997,0.034-1.941,0.18-2.885,0.458
		c0.083,0.277,0.162,0.539,0.243,0.812c-0.285,0.092-0.539,0.173-0.808,0.259c-0.097-0.282-0.187-0.541-0.278-0.805
		c-0.934,0.348-1.791,0.774-2.601,1.333c0.168,0.234,0.324,0.452,0.494,0.688c-0.235,0.171-0.458,0.333-0.694,0.504
		c-0.176-0.235-0.342-0.453-0.534-0.71c-0.501,0.485-0.986,0.944-1.457,1.417c-0.207,0.207-0.385,0.444-0.589,0.681
		c0.237,0.175,0.458,0.338,0.689,0.508c-0.18,0.247-0.341,0.468-0.507,0.696c-0.247-0.178-0.464-0.334-0.693-0.498
		c-0.552,0.833-1.002,1.684-1.327,2.611c0.28,0.096,0.532,0.182,0.8,0.274c-0.091,0.28-0.174,0.535-0.264,0.809
		c-0.279-0.085-0.54-0.164-0.814-0.247c-0.265,0.959-0.428,1.9-0.448,2.896c0.292,0,0.559,0,0.827,0c0,0.298,0,0.566,0,0.873
		c-0.285,0-0.558,0-0.896,0c0.157,0.988,0.306,1.927,0.46,2.899c0.337-0.102,0.598-0.182,0.873-0.266
		c0.091,0.282,0.173,0.538,0.261,0.809c-0.278,0.097-0.538,0.186-0.864,0.298c0.453,0.886,0.889,1.737,1.337,2.612
		c0.287-0.202,0.511-0.358,0.746-0.523c0.176,0.246,0.334,0.468,0.497,0.697c-0.24,0.179-0.455,0.338-0.722,0.538
		c0.704,0.702,1.383,1.38,2.083,2.079c0.206-0.278,0.369-0.499,0.539-0.729c0.247,0.18,0.468,0.341,0.697,0.507
		c-0.178,0.247-0.334,0.464-0.496,0.691c0.83,0.556,1.682,1.003,2.609,1.329c0.096-0.282,0.182-0.534,0.273-0.802
		c0.279,0.091,0.534,0.174,0.809,0.264c-0.085,0.279-0.163,0.54-0.245,0.811c0.957,0.27,1.898,0.428,2.895,0.45
		c0-0.292,0-0.559,0-0.829c0.298,0,0.567,0,0.874,0c0,0.285,0,0.558,0,0.835c1.001-0.043,1.945-0.18,2.881-0.463
		c-0.086-0.283-0.164-0.538-0.247-0.807c0.282-0.091,0.537-0.173,0.808-0.261c0.097,0.278,0.186,0.537,0.299,0.863
		c0.886-0.454,1.737-0.89,2.616-1.34c-0.203-0.286-0.362-0.509-0.527-0.743c0.247-0.177,0.47-0.337,0.699-0.5
		c0.179,0.24,0.339,0.456,0.517,0.695c0.397-0.366,0.787-0.705,1.151-1.069c0.315-0.315,0.6-0.661,0.915-1.01
		c-0.243-0.18-0.464-0.343-0.695-0.514c0.18-0.247,0.34-0.468,0.506-0.697c0.247,0.177,0.464,0.333,0.691,0.496
		c0.556-0.828,1.002-1.68,1.329-2.609c-0.28-0.095-0.533-0.18-0.802-0.271c0.091-0.278,0.174-0.534,0.263-0.809
		c0.278,0.084,0.539,0.162,0.812,0.244c0.27-0.956,0.428-1.897,0.45-2.893c-0.292,0-0.559,0-0.829,0c0-0.298,0-0.567,0-0.874
		c0.284,0,0.557,0,0.835,0c-0.042-1.001-0.181-1.946-0.462-2.881c-0.283,0.087-0.538,0.164-0.808,0.247
		c-0.091-0.282-0.174-0.536-0.262-0.808c0.278-0.097,0.536-0.186,0.804-0.278c-0.346-0.931-0.777-1.785-1.331-2.597
		c-0.234,0.166-0.452,0.322-0.691,0.492c-0.171-0.235-0.332-0.457-0.506-0.697C22.095,15.863,22.311,15.704,22.595,15.495z"/>
	<path class="st0" d="M22.535,22.999c-0.046,5.271-4.199,9.518-9.526,9.526c-5.306,0.007-9.54-4.224-9.534-9.533
		c0.007-5.324,4.252-9.518,9.526-9.515C18.293,13.478,22.483,17.705,22.535,22.999z M13.009,14.333
		c-4.735,0.03-8.646,3.758-8.667,8.646c-0.021,4.74,3.748,8.669,8.649,8.681c4.731,0.011,8.647-3.75,8.669-8.638
		C21.68,18.271,17.898,14.386,13.009,14.333z"/>
	<path class="st0" d="M12.997,15.637c4.05-0.002,7.366,3.312,7.366,7.364c0,4.056-3.307,7.363-7.363,7.364
		c-4.056,0.001-7.363-3.305-7.365-7.362C5.634,18.947,8.94,15.639,12.997,15.637z M7.93,18.952c0.05,0.046,0.086,0.081,0.124,0.115
		c0.661,0.568,1.327,1.13,1.981,1.705c0.426,0.375,0.582,0.855,0.401,1.398c-0.18,0.54-0.578,0.839-1.15,0.891
		c-0.581,0.053-1.163,0.097-1.744,0.146c-0.341,0.029-0.681,0.061-1.025,0.092c0.067,1.214,0.414,2.288,1.064,3.276
		c0.103-0.061,0.183-0.108,0.262-0.156c0.7-0.427,1.394-0.863,2.101-1.278c0.806-0.473,1.779-0.089,1.959,0.79
		c0.055,0.269,0.009,0.573-0.05,0.848c-0.177,0.823-0.383,1.641-0.582,2.478c1.161,0.323,2.296,0.326,3.446,0.002
		c-0.008-0.052-0.011-0.084-0.019-0.116c-0.199-0.847-0.41-1.692-0.593-2.541c-0.049-0.224-0.06-0.478-0.007-0.699
		c0.207-0.863,1.159-1.229,1.957-0.76c0.642,0.377,1.271,0.773,1.906,1.16c0.148,0.091,0.298,0.18,0.457,0.276
		c0.655-1.009,1.005-2.083,1.061-3.277c-0.148-0.016-0.281-0.032-0.413-0.043c-0.809-0.068-1.619-0.127-2.427-0.205
		c-0.556-0.054-0.985-0.456-1.108-1.001c-0.124-0.558,0.089-0.989,0.504-1.345c0.674-0.578,1.348-1.156,2.036-1.747
		c-0.748-0.931-1.668-1.599-2.789-2.028c-0.043,0.098-0.078,0.173-0.11,0.25c-0.306,0.733-0.602,1.469-0.922,2.196
		c-0.093,0.212-0.217,0.43-0.382,0.587c-0.667,0.636-1.701,0.389-2.087-0.492c-0.331-0.759-0.641-1.526-0.96-2.29
		c-0.034-0.082-0.074-0.162-0.115-0.25C9.585,17.364,8.669,18.03,7.93,18.952z M14.439,16.677c-0.97-0.227-1.912-0.229-2.869-0.001
		c0.021,0.061,0.034,0.109,0.052,0.155c0.31,0.748,0.622,1.497,0.931,2.246c0.082,0.199,0.2,0.361,0.438,0.365
		c0.251,0.004,0.371-0.164,0.457-0.373c0.242-0.586,0.485-1.17,0.728-1.755C14.264,17.106,14.349,16.897,14.439,16.677z
		 M17.862,27.287c-0.021-0.028-0.027-0.046-0.041-0.054c-0.713-0.436-1.427-0.871-2.14-1.309c-0.192-0.117-0.383-0.19-0.587-0.044
		c-0.207,0.148-0.195,0.358-0.144,0.574c0.128,0.542,0.258,1.084,0.388,1.625c0.07,0.291,0.142,0.582,0.214,0.875
		C16.331,28.662,17.203,28.03,17.862,27.287z M7.433,19.674c-0.5,0.863-0.811,1.75-0.89,2.748c0.932-0.08,1.832-0.146,2.729-0.245
		c0.124-0.014,0.297-0.172,0.326-0.294c0.032-0.134-0.028-0.353-0.13-0.445C8.811,20.845,8.131,20.274,7.433,19.674z M8.12,27.268
		c0.661,0.745,1.418,1.307,2.333,1.698c0.209-0.894,0.426-1.77,0.608-2.652c0.027-0.131-0.072-0.329-0.176-0.434
		c-0.145-0.148-0.344-0.092-0.514,0.013c-0.519,0.317-1.037,0.634-1.556,0.95C8.587,26.982,8.358,27.122,8.12,27.268z
		 M18.566,19.678c-0.673,0.576-1.326,1.136-1.98,1.697c-0.156,0.133-0.268,0.287-0.203,0.507c0.067,0.227,0.24,0.307,0.462,0.325
		c0.8,0.062,1.599,0.128,2.399,0.192c0.064,0.005,0.128,0.001,0.211,0.001C19.368,21.418,19.073,20.534,18.566,19.678z"/>
	<path class="st0" d="M13.003,21.273c0.95,0.002,1.727,0.78,1.726,1.731c-0.002,0.95-0.78,1.728-1.731,1.726
		c-0.951-0.002-1.727-0.78-1.726-1.731C11.274,22.047,12.052,21.271,13.003,21.273z M12.137,23.009
		c0.004,0.47,0.388,0.852,0.859,0.855c0.481,0.002,0.871-0.39,0.867-0.871c-0.004-0.47-0.388-0.852-0.859-0.855
		C12.523,22.136,12.133,22.528,12.137,23.009z"/>
</g>
<g>
	<path class="st0" d="M20.948,7.911c0.124-0.27,0.338-0.355,0.629-0.348c0.562,0.016,1.124,0.004,1.684,0.005
		c0.316,0,0.528,0.189,0.528,0.468s-0.212,0.468-0.528,0.468c-0.562,0-1.124-0.011-1.684,0.005
		c-0.292,0.007-0.504-0.078-0.629-0.348C20.948,8.077,20.948,7.994,20.948,7.911z"/>
	<path class="st0" d="M28.824,16.033c-0.27-0.124-0.355-0.338-0.348-0.629c0.014-0.562,0.004-1.124,0.005-1.684
		c0-0.316,0.191-0.528,0.468-0.528c0.277,0,0.468,0.212,0.468,0.528c0,0.562-0.011,1.124,0.005,1.684
		c0.007,0.29-0.078,0.504-0.348,0.629C28.99,16.033,28.907,16.033,28.824,16.033z"/>
	<path class="st0" d="M28.949,12.253c-2.329,0-4.22-1.893-4.219-4.22c0.002-2.329,1.896-4.219,4.226-4.215
		c2.324,0.004,4.208,1.889,4.212,4.213C33.17,10.36,31.279,12.253,28.949,12.253z"/>
	<path class="st0" d="M25.439,3.976c0.002,0.433-0.38,0.661-0.691,0.491c-0.053-0.03-0.103-0.071-0.147-0.115
		c-0.73-0.728-1.458-1.458-2.188-2.184c-0.125-0.125-0.2-0.267-0.168-0.447c0.064-0.353,0.46-0.509,0.748-0.292
		c0.034,0.025,0.064,0.055,0.092,0.085c0.721,0.721,1.446,1.44,2.161,2.167C25.346,3.777,25.4,3.915,25.439,3.976z"/>
	<path class="st0" d="M32.993,4.535c-0.262-0.023-0.412-0.103-0.491-0.283c-0.083-0.186-0.053-0.359,0.08-0.507
		c0.115-0.127,0.24-0.246,0.362-0.366c0.622-0.622,1.244-1.242,1.866-1.866c0.117-0.117,0.246-0.194,0.414-0.18
		c0.179,0.016,0.315,0.104,0.389,0.272c0.074,0.166,0.053,0.325-0.049,0.472c-0.03,0.042-0.067,0.08-0.104,0.115
		c-0.714,0.714-1.426,1.432-2.146,2.139C33.212,4.429,33.069,4.487,32.993,4.535z"/>
	<path class="st0" d="M32.997,11.544c0.055,0.03,0.182,0.065,0.265,0.148c0.756,0.746,1.508,1.497,2.255,2.25
		c0.193,0.194,0.186,0.477,0.007,0.661c-0.184,0.187-0.474,0.193-0.672-0.004c-0.753-0.748-1.504-1.499-2.253-2.252
		c-0.145-0.147-0.18-0.325-0.101-0.518C32.569,11.656,32.746,11.541,32.997,11.544z"/>
	<path class="st0" d="M25.439,12.085c-0.032,0.057-0.072,0.187-0.159,0.276c-0.739,0.749-1.483,1.492-2.229,2.232
		c-0.201,0.2-0.484,0.2-0.672,0.016c-0.193-0.189-0.191-0.475,0.016-0.682c0.742-0.746,1.486-1.488,2.23-2.23
		c0.15-0.15,0.33-0.193,0.53-0.11C25.328,11.656,25.443,11.832,25.439,12.085z"/>
	<path class="st0" d="M28.479,1.458c0-0.306-0.002-0.613,0-0.919c0.004-0.29,0.198-0.5,0.465-0.502
		c0.267-0.002,0.472,0.205,0.472,0.493c0.002,0.619,0.002,1.237,0,1.856c-0.002,0.288-0.205,0.497-0.472,0.495
		c-0.267-0.002-0.463-0.21-0.465-0.5C28.477,2.071,28.479,1.765,28.479,1.458z"/>
	<path class="st0" d="M35.526,7.566c0.302,0,0.603-0.002,0.905,0c0.304,0.002,0.514,0.191,0.518,0.465
		c0.002,0.274-0.209,0.472-0.509,0.472c-0.608,0.002-1.216,0.002-1.824,0c-0.3,0-0.511-0.2-0.509-0.472s0.214-0.463,0.516-0.465
		C34.923,7.566,35.225,7.566,35.526,7.566z"/>
	<path class="st0" d="M22.921,5.062C22.942,5.065,23,5.07,23.052,5.09c0.299,0.12,0.597,0.239,0.891,0.369
		c0.242,0.108,0.339,0.38,0.235,0.615c-0.103,0.228-0.359,0.336-0.601,0.242C23.281,6.201,22.99,6.08,22.7,5.954
		c-0.212-0.092-0.32-0.311-0.276-0.521C22.47,5.214,22.661,5.062,22.921,5.062z"/>
	<path class="st0" d="M22.901,11.01c-0.232,0.002-0.415-0.138-0.47-0.348c-0.053-0.203,0.039-0.437,0.235-0.527
		c0.311-0.141,0.629-0.272,0.949-0.392c0.212-0.08,0.451,0.032,0.553,0.233c0.103,0.201,0.06,0.477-0.143,0.578
		c-0.341,0.171-0.703,0.302-1.057,0.449C22.946,11.012,22.917,11.009,22.901,11.01z"/>
	<path class="st0" d="M34.965,11.009c-0.028-0.007-0.095-0.018-0.157-0.042c-0.274-0.111-0.548-0.223-0.82-0.339
		c-0.265-0.113-0.378-0.378-0.272-0.626c0.101-0.237,0.369-0.345,0.627-0.242c0.288,0.115,0.576,0.233,0.861,0.361
		c0.21,0.094,0.315,0.315,0.267,0.527C35.42,10.864,35.229,11.012,34.965,11.009z"/>
	<path class="st0" d="M25.973,1.992c-0.004-0.23,0.134-0.414,0.346-0.47c0.21-0.057,0.442,0.039,0.534,0.246
		c0.138,0.308,0.269,0.619,0.385,0.935c0.081,0.219-0.034,0.461-0.244,0.56c-0.205,0.097-0.474,0.046-0.576-0.157
		c-0.168-0.338-0.295-0.695-0.44-1.045C25.97,2.036,25.975,2.008,25.973,1.992z"/>
	<path class="st0" d="M31.924,2.008c-0.005,0.025-0.012,0.088-0.034,0.145c-0.115,0.288-0.232,0.578-0.355,0.862
		c-0.108,0.246-0.371,0.352-0.608,0.258c-0.235-0.094-0.353-0.361-0.256-0.608c0.117-0.299,0.239-0.597,0.371-0.891
		c0.094-0.209,0.32-0.311,0.528-0.258C31.779,1.569,31.922,1.753,31.924,2.008z"/>
	<path class="st0" d="M34.156,6.35c-0.224-0.002-0.41-0.145-0.461-0.345c-0.055-0.21,0.03-0.437,0.228-0.528
		c0.311-0.143,0.627-0.276,0.947-0.394C35.091,5,35.335,5.118,35.434,5.325c0.099,0.209,0.042,0.482-0.168,0.587
		c-0.334,0.164-0.686,0.292-1.03,0.433C34.207,6.353,34.174,6.348,34.156,6.35z"/>
	<path class="st0" d="M25.973,14.057c0.005-0.021,0.011-0.08,0.03-0.131c0.118-0.293,0.235-0.587,0.362-0.877
		c0.108-0.246,0.373-0.348,0.61-0.251c0.233,0.097,0.348,0.361,0.251,0.61c-0.115,0.295-0.237,0.587-0.364,0.877
		c-0.094,0.21-0.313,0.318-0.523,0.27C26.122,14.508,25.973,14.319,25.973,14.057z"/>
	<path class="st0" d="M31.924,14.08c0.002,0.23-0.136,0.414-0.348,0.47c-0.203,0.055-0.437-0.037-0.527-0.235
		c-0.141-0.311-0.272-0.627-0.392-0.947c-0.08-0.212,0.032-0.451,0.232-0.553c0.201-0.103,0.477-0.06,0.58,0.141
		c0.171,0.341,0.302,0.703,0.449,1.057C31.926,14.036,31.922,14.065,31.924,14.08z"/>
</g>
</svg>
