<?xml version="1.0" encoding="utf-8"?>
<!-- Generator: Adobe Illustrator 26.0.1, SVG Export Plug-In . SVG Version: 6.00 Build 0)  -->
<svg version="1.1" id="Layer_1" xmlns="http://www.w3.org/2000/svg" xmlns:xlink="http://www.w3.org/1999/xlink" x="0px" y="0px"
	 width="57.38px" height="36px" viewBox="0 0 57.38 36" style="enable-background:new 0 0 57.38 36;" xml:space="preserve">
<style type="text/css">
	.st0{fill:#666666;}
</style>
<path class="st0" d="M0,25.723c0.083-0.379,0.16-0.759,0.249-1.137c1.566-6.628,9.668-9.327,14.901-4.964
	c0.156,0.13,0.314,0.26,0.483,0.4c0.586-0.361,1.156-0.712,1.791-1.103c-0.765-0.552-1.487-1.075-2.211-1.595
	c-2.486-1.787-4.974-3.573-7.461-5.359c-0.061-0.044-0.123-0.085-0.182-0.131c-0.468-0.369-0.574-0.864-0.27-1.261
	c0.295-0.386,0.767-0.438,1.243-0.103c0.947,0.666,1.883,1.346,2.823,2.022c2.987,2.146,5.974,4.292,8.962,6.437
	c0.149,0.107,0.303,0.208,0.474,0.325c0.092-0.123,0.172-0.222,0.245-0.327c1.066-1.542,2.535-2.322,4.411-2.331
	c1.455-0.007,2.931,0.106,4.326-0.405c0.97-0.356,1.894-0.837,2.839-1.262c-0.014-0.064-0.028-0.128-0.042-0.192
	c-0.142-0.069-0.28-0.148-0.427-0.204c-2.525-0.966-5.049-1.934-7.579-2.887c-0.254-0.096-0.543-0.135-0.816-0.137
	c-1.905-0.012-3.811-0.018-5.716-0.001c-1.018,0.009-1.895-0.309-2.683-0.947c-1.799-1.458-3.604-2.908-5.423-4.341
	C9.724,6.052,9.411,5.933,9.141,5.927c-1.326-0.03-2.652-0.009-3.978-0.016C4.686,5.909,4.24,5.978,4.067,6.493
	C3.885,7.032,4.199,7.367,4.618,7.651c0.494,0.335,0.979,0.686,1.457,1.044C6.535,9.038,6.641,9.51,6.37,9.908
	c-0.286,0.42-0.782,0.483-1.278,0.14C4.508,9.644,3.928,9.236,3.363,8.806C2.5,8.15,2.143,7.111,2.415,6.123
	C2.7,5.087,3.518,4.316,4.624,4.271C6.377,4.2,8.135,4.227,9.89,4.257c0.263,0.004,0.554,0.208,0.779,0.386
	c1.887,1.498,3.768,3.003,5.636,4.524c0.547,0.446,1.133,0.671,1.846,0.662c1.774-0.023,3.549,0.005,5.323-0.022
	c0.235-0.003,0.545-0.139,0.688-0.319c3.252-4.084,8.967-4.793,13.103-1.607c0.101,0.078,0.205,0.153,0.373,0.278
	c0.102-0.912-0.095-1.707-0.435-2.467c-0.048-0.108-0.306-0.168-0.469-0.172C35.986,5.5,35.238,5.533,34.492,5.5
	c-0.698-0.031-1.124-0.658-0.785-1.185c0.152-0.236,0.514-0.414,0.807-0.463c0.492-0.082,1.004-0.038,1.507-0.049
	c0.012,0,0.024-0.026,0.074-0.085c-0.113-0.218-0.246-0.454-0.36-0.7c-0.61-1.31,0.233-2.847,1.659-2.951
	c4.021-0.294,7.848,0.367,11.376,2.413c1.548,0.898,2.908,2.026,4.096,3.361c0.786,0.883,1.055,1.975,1.118,3.102
	c0.048,0.851-0.01,1.718-0.115,2.566c-0.146,1.172-0.685,2.146-1.644,2.888c-0.693,0.537-1.353,1.121-1.99,1.724
	c-0.413,0.391-0.853,0.448-1.387,0.38c-2.135-0.271-4.161,0.112-6.076,1.091c-0.097,0.05-0.187,0.113-0.269,0.163
	c0.309,0.345,0.602,0.672,0.91,1.016c1.441-0.803,2.942-1.253,4.563-1.272c2.275-0.026,4.292,0.681,6.048,2.122
	c0.45,0.369,0.517,0.844,0.217,1.229c-0.304,0.392-0.807,0.415-1.29,0.058c-0.12-0.089-0.234-0.187-0.356-0.271
	c-2.309-1.597-4.772-1.892-7.389-0.87c-0.104,0.041-0.205,0.089-0.305,0.14c-0.029,0.015-0.046,0.05-0.118,0.132
	c0.684,0.649,1.356,1.315,2.067,1.936c0.126,0.11,0.42,0.058,0.631,0.034c2.652-0.296,4.891,1.357,5.365,3.971
	c0.489,2.691-1.504,5.222-4.347,5.522c-2.585,0.273-5.116-1.888-5.095-4.508c0.008-0.986-0.262-1.647-1.012-2.211
	c-0.4-0.301-0.736-0.685-1.153-1.081c-0.433,0.802-0.596,1.632-0.653,2.474c-0.268,3.972,2.541,7.486,6.411,8.049
	c3.955,0.575,7.609-1.928,8.513-5.847c0.43-1.863,0.14-3.633-0.765-5.307c-0.201-0.372-0.323-0.775,0.002-1.083
	c0.198-0.188,0.582-0.33,0.83-0.272c0.256,0.06,0.519,0.348,0.661,0.603c2.032,3.64,1.287,8.291-1.766,11.144
	c-2.806,2.623-6.868,3.266-10.303,1.632c-3.436-1.634-5.566-5.205-5.239-9.011c0.094-1.093,0.505-2.165,0.833-3.228
	c0.098-0.318,0.111-0.5-0.147-0.712c-0.301-0.248-0.572-0.53-0.893-0.832c-0.993,1.542-1.517,3.19-1.625,4.968
	c-0.133,2.185,0.373,4.219,1.488,6.106c0.501,0.847,0.14,1.473-0.852,1.478c-2.241,0.011-4.483,0.004-6.725,0.004
	c-0.222,0-0.443,0-0.741,0c0,0.415,0.006,0.782-0.001,1.149c-0.013,0.636-0.285,0.964-0.905,0.97
	c-2.055,0.019-4.109,0.017-6.164,0.001c-0.588-0.005-0.913-0.344-0.911-0.846c0.002-0.523,0.337-0.819,0.979-0.823
	c1.55-0.008,3.101-0.003,4.651-0.003c0.131,0,0.269,0.024,0.39-0.011c0.101-0.029,0.182-0.128,0.272-0.197
	c-0.095-0.08-0.189-0.227-0.285-0.229c-0.896-0.018-1.793,0.005-2.689-0.018c-0.688-0.017-1.395,0.006-2.06-0.142
	c-2.007-0.449-3.34-2.172-3.359-4.273c-0.018-1.905-0.004-3.811-0.005-5.716c0-0.142-0.013-0.284-0.024-0.504
	c-0.616,0.375-1.186,0.687-1.707,1.066c-0.13,0.095-0.174,0.423-0.134,0.62c0.949,4.733-1.905,9.402-6.572,10.727
	c-5.327,1.513-10.843-2.056-11.643-7.53C0.086,27.985,0.035,27.864,0,27.74C0,27.068,0,26.395,0,25.723z M38.972,5.504
	c0.055,0.204,0.08,0.292,0.102,0.381c0.701,2.881,0.178,5.477-1.978,7.577c-1.582,1.541-3.429,2.758-5.377,3.804
	c-0.407,0.218-0.859,0.361-1.3,0.507c-1.495,0.497-3.043,0.524-4.597,0.493c-2.452-0.05-3.952,1.406-3.954,3.835
	c-0.002,2.353-0.002,4.707,0,7.06c0.001,1.936,1.078,3.021,3.015,3.024c3.698,0.005,7.396,0.002,11.094,0
	c0.175,0,0.35-0.02,0.383-0.022c-0.315-1.419-0.778-2.78-0.9-4.172c-0.674-7.646,5.689-13.895,13.352-13.199
	c0.153,0.014,0.353-0.004,0.464-0.092c0.448-0.353,0.869-0.74,1.316-1.128c-3.181-1.763-3.031-5.976,0.088-7.521
	c-0.018-0.033-0.028-0.073-0.054-0.097c-3.683-3.381-8.098-4.521-12.977-4.216c-0.41,0.026-0.533,0.292-0.334,0.67
	c0.173,0.33,0.397,0.634,0.561,0.968c0.168,0.341,0.393,0.499,0.789,0.463c0.408-0.036,0.822-0.019,1.232-0.003
	c0.531,0.021,0.882,0.35,0.891,0.81c0.009,0.458-0.33,0.811-0.857,0.855C39.638,5.524,39.342,5.504,38.972,5.504z M16.657,25.377
	c-0.801,0.492-1.558,0.932-2.283,1.419c-0.181,0.121-0.332,0.38-0.376,0.599c-0.409,2.062-1.582,3.426-3.624,3.975
	c-1.81,0.487-3.78-0.232-4.927-1.747c-1.312-1.733-1.296-4.107,0.04-5.824c1.312-1.687,3.598-2.285,5.593-1.479
	c0.204,0.082,0.503,0.164,0.664,0.075c0.792-0.44,1.552-0.937,2.333-1.42c-2.385-2.293-6.627-2.384-9.434-0.235
	c-2.965,2.269-3.826,6.385-2.018,9.651c1.823,3.294,5.771,4.748,9.294,3.423C15.33,32.529,17.399,28.884,16.657,25.377z
	 M25.7,10.268c2.854,1.092,5.598,2.146,8.348,3.185c0.131,0.05,0.342,0.029,0.46-0.046c1.069-0.681,1.972-1.521,2.555-2.677
	c0.186-0.37,0.174-0.619-0.139-0.922c-1.324-1.281-2.888-2.049-4.72-2.195C29.643,7.409,27.5,8.292,25.7,10.268z M9.702,27.571
	c0.331-0.16,0.59-0.259,0.824-0.402c2.924-1.792,5.844-3.59,8.765-5.387c1.147-0.706,1.135-0.689,0.072-1.489
	c-0.338-0.255-0.568-0.256-0.924-0.035c-2.927,1.823-5.868,3.623-8.803,5.432c-0.173,0.107-0.419,0.204-0.48,0.363
	c-0.112,0.289-0.216,0.658-0.124,0.925C9.114,27.22,9.462,27.372,9.702,27.571z M39.674,19.979c0.158,0.104,0.247,0.145,0.315,0.209
	c2.464,2.34,4.925,4.682,7.389,7.022c0.12,0.114,0.265,0.292,0.395,0.289c0.327-0.008,0.761,0.003,0.947-0.191
	c0.187-0.194,0.17-0.628,0.157-0.954c-0.006-0.146-0.206-0.298-0.339-0.425c-2.406-2.292-4.814-4.582-7.224-6.87
	c-0.105-0.1-0.223-0.186-0.361-0.299C40.546,19.147,40.157,19.518,39.674,19.979z M9.603,23.722
	c-1.538-0.255-2.971,0.767-3.354,2.282c-0.392,1.552,0.477,3.138,2.006,3.66c1.342,0.458,2.98-0.11,3.476-1.242
	c-0.253,0.147-0.47,0.282-0.695,0.403c-1.262,0.677-2.752,0.273-3.459-0.934c-0.693-1.185-0.328-2.651,0.861-3.435
	C8.794,24.221,9.16,24,9.603,23.722z M51.981,7.476c-1.338,0.297-2.085,1.256-2.021,2.506c0.058,1.124,0.899,2.052,2.013,2.164
	C52.467,10.603,52.507,9.063,51.981,7.476z M45.205,27.475c0.165,1.325,1.59,2.418,3.007,2.365c1.586-0.06,2.906-1.31,3.006-2.844
	c0.105-1.605-0.941-2.996-2.475-3.249c0.385,0.386,0.748,0.751,1.112,1.115c1.043,1.045,1.1,2.591,0.134,3.615
	c-0.995,1.054-2.54,1.081-3.654,0.061C45.966,28.199,45.606,27.852,45.205,27.475z"/>
<path class="st0" d="M27.522,27.498c0.391,0,0.783-0.01,1.174,0.003c0.48,0.016,0.762,0.275,0.815,0.752
	c0.05,0.454-0.245,0.867-0.727,0.893c-0.854,0.045-1.714,0.044-2.569,0.006c-0.487-0.021-0.791-0.419-0.771-0.865
	c0.02-0.446,0.351-0.765,0.848-0.785C26.701,27.485,27.112,27.498,27.522,27.498z"/>
</svg>
