<?xml version="1.0" encoding="utf-8"?>
<!-- Generator: Adobe Illustrator 26.0.1, SVG Export Plug-In . SVG Version: 6.00 Build 0)  -->
<svg version="1.1" id="Layer_1" xmlns="http://www.w3.org/2000/svg" xmlns:xlink="http://www.w3.org/1999/xlink" x="0px" y="0px"
	 width="84.313px" height="36px" viewBox="0 0 84.313 36" style="enable-background:new 0 0 84.313 36;" xml:space="preserve">
<style type="text/css">
	.st0{fill:#666666;}
</style>
<g>
	<g>
		<path class="st0" d="M82.523,24.141l-0.391-0.093V12.97c0-2.16-0.833-3.003-2.983-3.003H56.542V7.642c0-1.275,0-2.53-0.01-3.775
			c-0.01-2.417-1.461-3.857-3.878-3.857h-8.146c-4.906,0-9.813,0-14.719-0.01h-0.01c-1.471,0-2.551,0.555-3.394,1.749
			c-0.658,0.936-1.327,1.872-2.006,2.798c-0.987,1.368-1.975,2.736-2.921,4.125c-0.658,0.967-1.378,1.358-2.53,1.327
			c-4.166-0.103-8.362,0.586-12.507,2.037c-2.746,0.967-3.549,2.098-3.549,5.05v7.056l-0.71,0.031
			c-0.154,0.01-0.267,0.021-0.381,0.031c-1.162,0.072-1.759,0.71-1.759,1.841c-0.01,0.339,0,0.679,0,1.018
			c0.01,0.782,0.021,1.563-0.021,2.335c-0.021,0.648,0.226,1.08,0.771,1.347c0.411,0.195,0.936,0.319,1.45,0.319
			c4.197,0.031,8.393,0.021,12.59,0.01c0.01,0,0.01,0,0.01,0c0.525,0,1.059,0.103,1.409,0.864C17.487,34.632,19.554,36,22.404,36
			h0.01c2.839,0,4.906-1.358,6.161-4.042c0.288-0.627,0.71-0.864,1.419-0.885c1.995,0.021,4.001,0.01,5.997,0
			c0.946,0,0.946-0.504,0.946-0.71c0-0.195-0.01-0.699-0.967-0.72c-0.391-0.021-0.782-0.01-1.162-0.01h-0.967l-0.555-3.939h24.182
			l-0.607,3.939H42.718c-0.339,0.01-0.627,0-0.864,0.072c-0.257,0.062-0.514,0.206-0.473,0.72c0.021,0.37,0.185,0.555,0.545,0.617
			c0.216,0.041,0.453,0.041,0.71,0.031h2.427c5.215,0.01,10.419,0.01,15.624,0c0.01,0,0.01,0,0.01,0
			c0.555,0,1.131,0.113,1.533,0.915c1.275,2.551,3.322,3.847,6.079,3.847c2.746,0,4.793-1.296,6.069-3.847
			c0.329-0.669,0.813-0.915,1.553-0.915c2.026,0.021,4.053,0.01,6.079,0c1.522,0,2.273-0.751,2.283-2.263
			c0-0.185-0.01-0.37-0.01-0.555c-0.01-0.381-0.01-0.771,0.01-1.152C84.426,25.375,83.902,24.48,82.523,24.141z M39.838,1.471
			h12.765c1.707,0,2.469,0.771,2.479,2.489c0.01,1.245,0,2.499,0,3.775v2.15h-15.11l-0.082-0.566
			c-0.031-0.123-0.051-0.247-0.051-0.36V1.471z M4.373,17.733l0.391-0.093c1.934-0.463,2.664,0.545,3.168,2.201l0.195,0.669H4.373
			V17.733z M11.377,26.928c-0.082,0.638-0.154,1.275-0.267,1.903c-0.082,0.432-0.627,0.782-1.018,0.782
			c-1.625,0.01-3.261,0.021-4.906,0.021H1.349v-3.929h10.183L11.377,26.928z M22.404,34.57h-0.041
			c-2.901-0.021-5.246-2.417-5.225-5.349c0.021-2.931,2.345-5.225,5.287-5.225h0.041c1.409,0.01,2.736,0.576,3.734,1.584
			c0.987,1.008,1.533,2.345,1.512,3.744C27.68,32.225,25.304,34.57,22.404,34.57z M29.233,29.582l-0.041-0.463
			c-0.216-2.427-1.214-4.207-3.045-5.451c-1.317-0.885-2.798-1.255-4.423-1.101c-3.281,0.298-5.667,2.87-6.079,6.531l-0.051,0.453
			H12.55l0.031-0.545c0.195-3.425,1.687-6.058,4.433-7.838c3.415-2.201,7.056-2.253,10.543-0.154
			c2.849,1.707,4.433,4.413,4.711,8.013l0.041,0.555H29.233z M57.138,24.213h-0.01c-7.869-0.021-15.737-0.021-23.606,0
			c-0.01,0-0.01,0-0.01,0c-0.72,0-1.173-0.247-1.563-0.843c-2.119-3.312-5.678-5.287-9.535-5.287h-0.01
			c-3.847,0-7.395,1.954-9.504,5.235c-0.411,0.638-0.864,0.895-1.635,0.895c-1.522-0.031-3.045-0.021-4.598-0.021H4.352v-2.181
			h1.275c0.751,0,1.491,0,2.232-0.01c0.802,0,1.399-0.247,1.677-0.679c0.288-0.442,0.257-1.09-0.072-1.831L9.32,19.183
			c-0.093-0.206-0.195-0.411-0.278-0.617c-0.73-1.759-2.026-2.592-4.001-2.541l-0.669,0.01l0.165-0.648
			c0.309-1.234,1.347-1.615,1.913-1.821c3.96-1.44,8.126-2.181,12.425-2.16h5.421c0.298,0,0.525,0,0.73-0.041
			c0.401-0.093,0.566-0.309,0.545-0.741c-0.021-0.391-0.195-0.586-0.566-0.627c-0.329-0.031-0.658-0.021-1.049-0.01
			c-0.206,0-0.432,0.01-0.679,0.01H22.29l2.561-3.621c0.895-1.265,1.831-2.582,2.808-3.826c0.381-0.504,1.152-1.018,1.882-1.039
			c1.985-0.062,4.001-0.051,5.955-0.041l1.903,0.01c0.113,0,0.226,0.01,0.36,0.031l0.586,0.082v8.373h-3.25
			c-1.522,0-3.045,0-4.577,0.021c-0.432,0-0.73,0.278-0.741,0.679c-0.01,0.391,0.278,0.679,0.741,0.72
			c0.175,0.021,0.35,0.021,0.525,0.021H57.57l-0.01,6.819c0,0.37,0,0.741,0.01,1.121c0.031,0.473,0.278,0.761,0.679,0.782
			c0.401,0,0.72-0.298,0.741-0.771c0.031-0.658,0.021-1.317,0.021-1.985v-5.894l0.833-0.041c0.226-0.021,0.432-0.031,0.638-0.031
			h18.525c1.419,0,1.666,0.257,1.677,1.687v2.715l-0.391,0.093c-1.101,0.278-1.934,0.926-2.345,1.841
			c-0.432,0.926-0.381,1.995,0.134,3.024c0.329,0.658,0.679,0.926,2.191,1.347l0.37,0.103v1.81L80.23,24.11
			c-0.864,0.185-1.779,0.195-2.541-0.967c-2.098-3.168-5.595-5.061-9.37-5.061h-0.062c-3.826,0.021-7.354,1.965-9.442,5.194
			C58.393,23.945,57.899,24.213,57.138,24.213z M68.278,34.406h-0.103c-1.389-0.031-2.695-0.607-3.672-1.625
			c-0.987-1.029-1.502-2.376-1.471-3.806c0.031-1.419,0.607-2.726,1.615-3.682c1.029-0.977,2.376-1.481,3.878-1.461
			c1.368,0.041,2.664,0.627,3.631,1.656c0.977,1.039,1.491,2.366,1.45,3.754C73.523,32.112,71.137,34.406,68.278,34.406z
			 M78.039,29.592h-2.911l-0.031-0.483c-0.165-2.438-1.121-4.238-2.921-5.513c-1.275-0.895-2.695-1.286-4.32-1.214
			c-3.374,0.165-5.462,2.376-6.387,6.778l-0.082,0.411h-2.849l-0.01-0.514c-0.031-2.427,1.008-4.865,2.859-6.675
			c1.954-1.903,4.587-2.921,7.251-2.839c3.446,0.134,5.657,1.79,6.902,3.147c1.666,1.821,2.633,4.279,2.53,6.408L78.039,29.592z
			 M82.781,29.582h-3.034l-0.586-3.909h3.621V29.582z"/>
	</g>
	<g>
		<path class="st0" d="M36.68,15.007c-0.051,0.617-0.411,0.699-0.669,0.71c-1.296,0.041-2.427,0.041-3.456-0.01
			c-0.514-0.021-0.617-0.391-0.617-0.699c0.01-0.432,0.226-0.648,0.679-0.679c0.216-0.01,0.432-0.01,0.658-0.01h1.553
			c0.381-0.01,0.761-0.01,1.131,0.01c0.237,0.01,0.442,0.113,0.576,0.267C36.608,14.678,36.69,14.811,36.68,15.007z"/>
	</g>
	<g>
		<path class="st0" d="M53.045,15.017c0.021,0.206-0.062,0.35-0.134,0.432c-0.123,0.154-0.329,0.257-0.555,0.267
			c-0.391,0.031-0.771,0.021-1.162,0.021h-0.031l-0.514-0.021c-0.185,0-0.37,0.01-0.545,0.01c-0.391,0.01-0.782,0.021-1.162-0.01
			c-0.432-0.041-0.638-0.267-0.627-0.71c0.01-0.432,0.226-0.658,0.648-0.679c1.07-0.031,2.17-0.031,3.394,0
			C52.643,14.338,52.983,14.421,53.045,15.017z"/>
	</g>
	<g>
		<path class="st0" d="M69.461,29.129c-0.01,0.319-0.134,0.607-0.35,0.813c-0.216,0.216-0.514,0.319-0.843,0.319
			c-0.627-0.021-1.121-0.514-1.131-1.142c0-0.298,0.123-0.597,0.35-0.823c0.226-0.226,0.525-0.36,0.823-0.36
			c0.319,0.031,0.597,0.123,0.813,0.35C69.337,28.502,69.461,28.81,69.461,29.129z"/>
	</g>
	<g>
		<path class="st0" d="M23.555,29.273c0,0.319-0.113,0.617-0.329,0.833c-0.216,0.206-0.504,0.319-0.833,0.319
			c-0.319,0-0.617-0.134-0.833-0.36c-0.216-0.226-0.329-0.514-0.319-0.813c0.01-0.617,0.545-1.142,1.152-1.152
			c0.01,0,0.021,0,0.021,0c0.298,0,0.576,0.113,0.792,0.329C23.432,28.646,23.555,28.954,23.555,29.273z"/>
	</g>
</g>
</svg>
