<?xml version="1.0" encoding="utf-8"?>
<!-- Generator: Adobe Illustrator 26.0.1, SVG Export Plug-In . SVG Version: 6.00 Build 0)  -->
<svg version="1.1" id="Layer_1" xmlns="http://www.w3.org/2000/svg" xmlns:xlink="http://www.w3.org/1999/xlink" x="0px" y="0px"
	 width="174px" height="32px" viewBox="0 0 174 32" style="enable-background:new 0 0 174 32;" xml:space="preserve">
<style type="text/css">
	.st0{fill:url(#SVGID_1_);}
	.st1{fill:#010101;}
	.st2{fill:#F9A020;}
	.st3{fill:#EC2528;}
	.st4{fill:#F36B24;}
	.st5{fill:#0B78A9;}
</style>
<linearGradient id="SVGID_1_" gradientUnits="userSpaceOnUse" x1="0" y1="1482.35" x2="48" y2="1482.35" gradientTransform="matrix(1 0 0 1 0 -1467)">
	<stop  offset="0" style="stop-color:#26225B"/>
	<stop  offset="1" style="stop-color:#0751A0"/>
</linearGradient>
<path class="st0" d="M18.2,7.8l-6.3,15h-4l-3.1-12c-0.2-0.7-0.4-1-0.9-1.3C2.9,9,1.4,8.5,0,8.2l0.1-0.4h6.6c0.8,0,1.6,0.6,1.8,1.5
	l1.6,8.7l4-10.2C14.2,7.8,18.2,7.8,18.2,7.8z M34.3,17.9c0-4-5.5-4.2-5.4-5.9c0-0.5,0.5-1.1,1.6-1.3c0.6-0.1,2.1-0.1,3.8,0.7L35,8.2
	c-0.9-0.3-2.1-0.7-3.6-0.7c-3.8,0-6.5,2-6.6,5c0,2.2,1.9,3.4,3.4,4.1s2,1.2,2,1.9c0,1-1.2,1.4-2.3,1.5c-1.9,0-3.1-0.5-4-0.9
	l-0.7,3.3c0.9,0.4,2.6,0.8,4.3,0.8C31.6,23,34.3,21,34.3,17.9 M44.4,22.8H48l-3.1-15h-3.3c-0.7,0-1.4,0.4-1.7,1.1l-5.8,13.9h4.1
	l0.8-2.2h5L44.4,22.8L44.4,22.8z M40.1,17.4l2-5.6l1.2,5.6H40.1L40.1,17.4z M23.8,7.8l-3.2,15h-3.9l3.2-15
	C19.9,7.8,23.8,7.8,23.8,7.8z"/>
<g>
	<path class="st1" d="M80.8,27.8c-0.1-0.1-0.3-0.2-0.4-0.3s-0.3-0.1-0.5-0.1c-0.1,0-0.2,0-0.3,0s-0.2,0-0.3,0.1
		c-0.1,0-0.2,0.1-0.3,0.2c-0.1,0.1-0.2,0.2-0.2,0.3c-0.1-0.2-0.3-0.3-0.4-0.4c-0.2-0.1-0.4-0.2-0.6-0.2c-0.1,0-0.2,0-0.3,0
		s-0.2,0-0.3,0.1c-0.1,0-0.2,0.1-0.3,0.1c-0.1,0.1-0.1,0.1-0.2,0.2v-0.4H76v3.3h0.7V29c0-0.1,0-0.3,0.1-0.4c0-0.1,0.1-0.2,0.2-0.3
		c0.1-0.1,0.2-0.1,0.3-0.2c0.1,0,0.2-0.1,0.3-0.1c0.2,0,0.4,0.1,0.5,0.2s0.2,0.4,0.2,0.6v1.8H79V29c0-0.1,0-0.3,0.1-0.4
		c0-0.1,0.1-0.2,0.2-0.3c0.1-0.1,0.2-0.1,0.3-0.2c0.1,0,0.2-0.1,0.3-0.1c0.2,0,0.4,0.1,0.5,0.2s0.2,0.4,0.2,0.6v1.8h0.7v-2
		c0-0.2,0-0.4-0.1-0.5C81,28.1,80.9,27.9,80.8,27.8z M84.4,27.9c-0.1-0.1-0.3-0.3-0.4-0.3c-0.2-0.1-0.4-0.1-0.6-0.1s-0.4,0-0.6,0.1
		s-0.4,0.2-0.5,0.4c-0.1,0.2-0.3,0.3-0.3,0.5c-0.1,0.2-0.1,0.4-0.1,0.7c0,0.3,0,0.5,0.1,0.7s0.2,0.4,0.3,0.5
		c0.1,0.2,0.3,0.3,0.5,0.4s0.4,0.1,0.6,0.1s0.4,0,0.6-0.1s0.3-0.2,0.4-0.3v0.4h0.7v-3.3h-0.7V27.9L84.4,27.9z M84.4,29.6
		c0,0.1-0.1,0.2-0.2,0.3c-0.1,0.1-0.2,0.2-0.3,0.2c-0.1,0-0.3,0.1-0.4,0.1c-0.2,0-0.3,0-0.4-0.1s-0.2-0.1-0.3-0.2
		c-0.1-0.1-0.1-0.2-0.2-0.3c0-0.1-0.1-0.3-0.1-0.4s0-0.3,0.1-0.4s0.1-0.2,0.2-0.3c0.1-0.1,0.2-0.2,0.3-0.2c0.1-0.1,0.3-0.1,0.4-0.1
		s0.3,0,0.4,0.1c0.1,0,0.2,0.1,0.3,0.2c0.1,0.1,0.2,0.2,0.2,0.3s0.1,0.3,0.1,0.4S84.5,29.4,84.4,29.6z M88.4,29.2
		c-0.2-0.2-0.5-0.3-0.8-0.3h-0.3c-0.1,0-0.1,0-0.2,0s-0.1,0-0.2-0.1l-0.1-0.1v-0.1c0-0.1,0-0.2,0.2-0.3s0.3-0.1,0.5-0.1
		c0.1,0,0.2,0,0.3,0c0.1,0,0.2,0,0.3,0.1c0.1,0,0.2,0.1,0.2,0.1c0.1,0,0.1,0.1,0.2,0.1l0.3-0.6c-0.2-0.1-0.4-0.2-0.6-0.3
		c-0.2-0.1-0.5-0.1-0.7-0.1s-0.4,0-0.6,0.1c-0.2,0-0.3,0.1-0.4,0.2s-0.2,0.2-0.3,0.3C86,28.2,86,28.3,86,28.5c0,0.3,0.1,0.5,0.3,0.6
		c0.2,0.2,0.5,0.3,0.8,0.3h0.3c0.2,0,0.3,0.1,0.4,0.1c0.1,0.1,0.1,0.1,0.1,0.2s-0.1,0.2-0.2,0.3c-0.1,0.1-0.3,0.1-0.6,0.1
		c-0.1,0-0.3,0-0.4,0s-0.2,0-0.3-0.1c-0.1,0-0.2-0.1-0.2-0.1s-0.1-0.1-0.2-0.1l-0.3,0.5c0.1,0.1,0.2,0.2,0.4,0.2
		c0.1,0,0.3,0.1,0.4,0.1s0.2,0,0.3,0.1c0.1,0,0.2,0,0.3,0c0.2,0,0.4,0,0.6-0.1c0.2,0,0.3-0.1,0.5-0.2c0.1-0.1,0.2-0.2,0.3-0.3
		c0.1-0.1,0.1-0.3,0.1-0.4C88.7,29.5,88.6,29.3,88.4,29.2L88.4,29.2z M95.1,27.9c-0.1-0.2-0.3-0.3-0.5-0.3c-0.2-0.1-0.4-0.1-0.6-0.1
		s-0.5,0-0.7,0.1s-0.4,0.2-0.5,0.3c-0.1,0.2-0.3,0.3-0.3,0.5c-0.1,0.2-0.1,0.4-0.1,0.7c0,0.3,0,0.5,0.1,0.7s0.2,0.4,0.3,0.5
		c0.1,0.2,0.3,0.3,0.5,0.3c0.2,0.1,0.4,0.1,0.7,0.1c0.3,0,0.5,0,0.7-0.1s0.4-0.2,0.6-0.4L95,29.9c-0.1,0.1-0.3,0.2-0.5,0.3
		c-0.2,0.1-0.3,0.1-0.5,0.1c-0.1,0-0.2,0-0.3,0c-0.1,0-0.2-0.1-0.3-0.1c-0.1-0.1-0.2-0.2-0.2-0.3c-0.1-0.1-0.1-0.2-0.1-0.4h2.4v-0.1
		v-0.1c0-0.3,0-0.5-0.1-0.7C95.3,28.2,95.2,28.1,95.1,27.9L95.1,27.9z M93.1,28.9c0-0.1,0-0.2,0.1-0.3c0-0.1,0.1-0.2,0.2-0.3
		c0.1-0.1,0.2-0.1,0.3-0.2c0.1,0,0.2-0.1,0.3-0.1c0.2,0,0.4,0.1,0.6,0.2c0.1,0.1,0.2,0.3,0.3,0.6L93.1,28.9L93.1,28.9z M104.5,27.9
		c-0.1-0.1-0.3-0.3-0.4-0.3c-0.2-0.1-0.4-0.1-0.6-0.1s-0.4,0-0.6,0.1s-0.4,0.2-0.5,0.4c-0.1,0.2-0.3,0.3-0.3,0.5
		c-0.1,0.2-0.1,0.4-0.1,0.7c0,0.3,0,0.5,0.1,0.7s0.2,0.4,0.3,0.5c0.1,0.2,0.3,0.3,0.5,0.4s0.4,0.1,0.6,0.1s0.4,0,0.6-0.1
		s0.3-0.2,0.4-0.3v0.4h0.7v-3.3h-0.7V27.9L104.5,27.9z M104.5,29.6c0,0.1-0.1,0.2-0.2,0.3c-0.1,0.1-0.2,0.2-0.3,0.2
		c-0.1,0-0.3,0.1-0.4,0.1c-0.2,0-0.3,0-0.4-0.1c-0.1,0-0.2-0.1-0.3-0.2c-0.1-0.1-0.1-0.2-0.2-0.3c0-0.1-0.1-0.3-0.1-0.4
		s0-0.3,0.1-0.4s0.1-0.2,0.2-0.3c0.1-0.1,0.2-0.2,0.3-0.2c0.1-0.1,0.3-0.1,0.4-0.1s0.3,0,0.4,0.1c0.1,0,0.2,0.1,0.3,0.2
		c0.1,0.1,0.2,0.2,0.2,0.3s0.1,0.3,0.1,0.4S104.6,29.4,104.5,29.6z M91.5,30.1c-0.1,0-0.2,0.1-0.3,0.1c-0.1,0-0.1,0-0.2,0
		s-0.1-0.1-0.2-0.1s-0.1-0.1-0.1-0.2s0-0.2,0-0.3v-1.4h1.1v-0.6h-1.1v-1H90v1h-0.7v0.6h0.6v1.4c0,0.4,0.1,0.8,0.3,1
		c0.2,0.2,0.5,0.3,0.9,0.3c0.2,0,0.4,0,0.6-0.1c0.1,0,0.2-0.1,0.3-0.1L91.7,30C91.6,30.1,91.6,30.1,91.5,30.1L91.5,30.1z M97.9,27.4
		c-0.2,0-0.4,0-0.5,0.1s-0.3,0.3-0.4,0.4v-0.4h-0.6v3.3H97V29c0-0.1,0-0.3,0.1-0.4c0-0.1,0.1-0.2,0.2-0.3c0.1-0.1,0.2-0.1,0.3-0.2
		c0.1,0,0.2-0.1,0.3-0.1c0.1,0,0.2,0,0.3,0h0.1l0.2-0.7h-0.2C98.1,27.5,98,27.4,97.9,27.4z M107.8,27.4c-0.2,0-0.4,0-0.5,0.1
		s-0.3,0.3-0.4,0.4v-0.4h-0.6v3.3h0.6V29c0-0.1,0-0.3,0.1-0.4c0-0.1,0.1-0.2,0.2-0.3c0.1-0.1,0.2-0.1,0.3-0.2c0.1,0,0.2-0.1,0.3-0.1
		c0.1,0,0.2,0,0.3,0h0.1l0.2-0.7h-0.2C108,27.5,107.9,27.4,107.8,27.4z M111.1,26.2v1.7c-0.1-0.1-0.3-0.3-0.4-0.3
		c-0.2-0.1-0.4-0.1-0.6-0.1s-0.4,0-0.6,0.1s-0.4,0.2-0.5,0.4c-0.1,0.2-0.3,0.3-0.3,0.5c-0.1,0.2-0.1,0.4-0.1,0.7
		c0,0.3,0,0.5,0.1,0.7s0.2,0.4,0.3,0.5c0.1,0.2,0.3,0.3,0.5,0.4s0.4,0.1,0.6,0.1s0.4,0,0.6-0.1s0.3-0.2,0.4-0.3v0.4h0.7v-4.6
		L111.1,26.2L111.1,26.2z M111.1,29.6c0,0.1-0.1,0.2-0.2,0.3c-0.1,0.1-0.2,0.2-0.3,0.2c-0.1,0-0.3,0.1-0.4,0.1c-0.2,0-0.3,0-0.4-0.1
		s-0.2-0.1-0.3-0.2c-0.1-0.1-0.1-0.2-0.2-0.3c0-0.1-0.1-0.3-0.1-0.4s0-0.3,0.1-0.4s0.1-0.2,0.2-0.3c0.1-0.1,0.2-0.2,0.3-0.2
		c0.1-0.1,0.3-0.1,0.4-0.1s0.3,0,0.4,0.1c0.1,0,0.2,0.1,0.3,0.2c0.1,0.1,0.2,0.2,0.2,0.3s0.1,0.3,0.1,0.4S111.1,29.4,111.1,29.6z
		 M99.6,28.4c0.1-0.1,0.2-0.2,0.3-0.2c0.1,0,0.3-0.1,0.4-0.1s0.3,0,0.4,0.1c0.1,0,0.3,0.1,0.3,0.2l0.3-0.6c-0.1-0.1-0.3-0.2-0.4-0.3
		c-0.2-0.1-0.4-0.1-0.7-0.1s-0.5,0-0.7,0.1s-0.4,0.2-0.6,0.4s-0.3,0.3-0.4,0.5s-0.1,0.4-0.1,0.7c0,0.3,0,0.5,0.1,0.7
		s0.2,0.4,0.4,0.5c0.2,0.2,0.3,0.3,0.6,0.4c0.2,0.1,0.4,0.1,0.7,0.1c0.3,0,0.5,0,0.7-0.1s0.3-0.1,0.4-0.3l-0.3-0.6
		c-0.1,0.1-0.2,0.2-0.3,0.2c-0.1,0-0.3,0.1-0.4,0.1s-0.3,0-0.4-0.1c-0.1,0-0.2-0.1-0.3-0.2c-0.1-0.1-0.2-0.2-0.2-0.3
		c0-0.1-0.1-0.3-0.1-0.4s0-0.3,0.1-0.4C99.4,28.6,99.5,28.5,99.6,28.4z M113.3,30.3L113.3,30.3c0.1,0,0.2,0,0.2,0.1
		c0,0,0,0.1,0.1,0.1v0.1v0.1c0,0,0,0.1-0.1,0.1c0,0-0.1,0-0.1,0.1h-0.1h-0.1c0,0-0.1,0-0.1-0.1c0,0,0-0.1-0.1-0.1v-0.1v-0.1
		c0,0,0-0.1,0.1-0.1C113.1,30.4,113.2,30.4,113.3,30.3C113.2,30.3,113.3,30.3,113.3,30.3z M113.3,30.9
		C113.3,30.9,113.4,30.9,113.3,30.9c0.1,0,0.1,0,0.2-0.1c0,0,0,0,0-0.1v-0.1v-0.1c0,0,0,0,0-0.1c0,0,0,0-0.1,0h-0.1h-0.1
		c0,0,0,0-0.1,0c0,0,0,0,0,0.1s0,0.1,0,0.1v0.1c0,0,0,0,0,0.1C113.2,30.8,113.2,30.9,113.3,30.9L113.3,30.9z M113.3,30.5
		C113.4,30.5,113.4,30.5,113.3,30.5c0.1,0,0.1,0.1,0.1,0.1s0,0,0,0.1c0,0,0,0-0.1,0l0.1,0.1h-0.1l-0.1-0.1l0,0v0.1h-0.1v-0.3
		L113.3,30.5L113.3,30.5z M113.3,30.6L113.3,30.6L113.3,30.6L113.3,30.6C113.4,30.6,113.4,30.6,113.3,30.6L113.3,30.6L113.3,30.6
		L113.3,30.6z"/>
	<path class="st2" d="M101.5,0c-2.9,0-5.5,1-7.6,2.6c2.8,2.3,4.7,5.7,4.7,9.6s-1.8,7.4-4.7,9.6c2.1,1.7,4.7,2.6,7.6,2.6
		c6.8,0,12.3-5.5,12.3-12.3S108.3,0,101.5,0z"/>
	<path class="st2" d="M93.9,2.6C97,4.9,99,8.4,99,12.3s-2,7.4-5.1,9.7V2.6z"/>
	<path class="st3" d="M89.2,12.3c0-3.9,1.8-7.4,4.7-9.6C91.8,1,89.1,0,86.3,0C79.5,0,74,5.5,74,12.3s5.5,12.3,12.3,12.3
		c2.9,0,5.5-1,7.6-2.6C91,19.7,89.2,16.2,89.2,12.3z"/>
	<path class="st3" d="M93.9,2.6c-3.1,2.3-5.1,5.7-5.1,9.7c0,3.9,2,7.4,5.1,9.7V2.6z"/>
	<path class="st4" d="M89.2,12.3c0,3.9,1.8,7.4,4.7,9.6c2.8-2.3,4.7-5.7,4.7-9.6s-1.8-7.4-4.7-9.6C91,4.9,89.2,8.4,89.2,12.3z"/>
	<path class="st2" d="M113,18.9v-0.4h-0.1v-0.1h0.4v0.1H113V18.9L113,18.9z M113.7,18.9v-0.3V18.9h-0.2l-0.1-0.3v0.3h-0.1v-0.5h0.2
		l0.1,0.3l0.1-0.3h0.2L113.7,18.9L113.7,18.9z"/>
</g>
<path class="st5" d="M140.9,31.7h-0.1c0-0.1,0-0.1,0-0.2c0,0,0-0.1-0.1-0.1h-0.2v0.2h-0.1V31h0.2c0.1,0,0.2,0,0.2,0.1s0,0.1-0.1,0.1
	l0.1,0.1L140.9,31.7C140.8,31.7,140.8,31.7,140.9,31.7L140.9,31.7L140.9,31.7z M140.8,31.3C140.8,31.2,140.7,31.2,140.8,31.3
	l-0.3-0.1v0.2L140.8,31.3C140.7,31.4,140.8,31.4,140.8,31.3 M141.2,31.4c0-0.3-0.3-0.6-0.6-0.6s-0.6,0.3-0.6,0.6
	c0,0.3,0.3,0.6,0.6,0.6C141,32,141.2,31.8,141.2,31.4 M141.1,31.4c0,0.3-0.2,0.5-0.5,0.5s-0.5-0.2-0.5-0.5s0.2-0.5,0.5-0.5
	C140.9,30.9,141.1,31.2,141.1,31.4 M174,20.7c0,0.8-0.5,1.2-1.4,1.2h-1.7v-0.8h1.7c0.2,0,0.3,0,0.3-0.1c0.1-0.1,0.1-0.1,0.1-0.2
	s-0.1-0.2-0.1-0.3c-0.1-0.1-0.2-0.1-0.3-0.1c-0.8,0-1.9,0-1.9-1.2c0-0.5,0.3-1.1,1.3-1.1h1.8V19h-1.6c-0.2,0-0.3,0-0.3,0.1
	c-0.1,0.1-0.1,0.2-0.1,0.3c0,0.1,0.1,0.2,0.2,0.3c0.1,0,0.2,0.1,0.3,0.1h0.5c0.5,0,0.8,0.1,1,0.3C173.9,20.1,174,20.4,174,20.7
	 M170.2,19.9c-0.2-0.2-0.5-0.3-1-0.3h-0.5c-0.1,0-0.2,0-0.3-0.1c-0.1,0-0.2-0.1-0.2-0.3c0-0.1,0-0.2,0.1-0.3
	c0.1-0.1,0.2-0.1,0.3-0.1h1.6V18h-1.8c-1,0-1.3,0.6-1.3,1.1c0,1.2,1,1.1,1.9,1.2c0.2,0,0.3,0,0.3,0.1c0.1,0,0.1,0.2,0.1,0.3
	c0,0.1-0.1,0.2-0.1,0.2c-0.1,0.1-0.2,0.1-0.3,0.1h-1.7v0.8h1.7c0.9,0,1.4-0.4,1.4-1.2C170.5,20.4,170.4,20.1,170.2,19.9 M166.8,21.1
	h-2.1v-0.8h2.1v-0.8h-2.1V19h2.1v-0.8h-3v3.7h3V21.1L166.8,21.1z M162.9,18.4c-0.3-0.2-0.6-0.2-1.1-0.2h-2v3.7h0.9v-1.4h1
	c0.3,0,0.5,0,0.6,0.2c0.2,0.2,0.2,0.5,0.2,0.8v0.4h0.9v-0.7c0-0.3,0-0.5-0.1-0.7c-0.1-0.1-0.2-0.3-0.5-0.3c0.3-0.1,0.6-0.4,0.6-1
	C163.3,18.8,163.2,18.5,162.9,18.4 M157.8,18.2H155l-1.2,1.2l-1.1-1.2h-3.6v3.7h3.5l1.1-1.2l1.1,1.2h1.7v-1.3h1.1
	c0.8,0,1.5-0.2,1.5-1.3C159.3,18.4,158.5,18.2,157.8,18.2 M162.2,19.7c-0.1,0.1-0.3,0.1-0.4,0.1h-1.1V19h1.1c0.2,0,0.3,0,0.4,0.1
	s0.2,0.2,0.2,0.3C162.3,19.5,162.3,19.6,162.2,19.7 M157.8,19.9h-1.2V19h1.2c0.3,0,0.5,0.1,0.5,0.4
	C158.3,19.7,158.1,19.9,157.8,19.9 M154.4,20l1.4-1.5v3L154.4,20L154.4,20z M152.2,21.1H150v-0.8h2v-0.8h-2V19h2.2l1,1.1L152.2,21.1
	L152.2,21.1z M171.5,15.5h-1.3l-1.7-2.8v2.8h-1.8l-0.3-0.8h-1.9l-0.3,0.8h-1c-0.4,0-1-0.1-1.3-0.4c-0.3-0.3-0.5-0.8-0.5-1.4
	c0-0.6,0.1-1.1,0.5-1.5c0.3-0.3,0.8-0.4,1.4-0.4h0.8v0.8h-0.8c-0.3,0-0.5,0.1-0.7,0.2c-0.2,0.2-0.2,0.5-0.2,0.9s0.1,0.7,0.2,0.9
	c0.1,0.1,0.4,0.2,0.6,0.2h0.4l1.3-2.9h1.3l1.5,3.5v-3.5h1.4l1.6,2.6v-2.6h0.9L171.5,15.5L171.5,15.5z M160.9,11.7H160v3.7h0.9V11.7z
	 M159,11.9c-0.3-0.2-0.6-0.2-1.1-0.2h-2v3.7h0.9V14h1c0.3,0,0.5,0,0.7,0.2s0.1,0.5,0.1,0.7v0.5h0.9v-0.7c0-0.3,0-0.5-0.2-0.7
	c-0.1-0.1-0.2-0.2-0.4-0.3c0.3-0.1,0.6-0.4,0.6-1C159.5,12.3,159.3,12.1,159,11.9 M155.3,14.7h-2.1v-0.8h2.1v-0.8h-2.1v-0.7h2.1
	v-0.8h-3v3.7h3V14.7z M151.6,11.7h-1.5l-1.1,2.5l-1.2-2.5h-1.4v3.5l-1.5-3.5h-1.3l-1.6,3.7h1l0.3-0.8h1.9l0.3,0.8h1.8v-2.9l1.3,2.9
	h0.8l1.3-2.9v2.9h0.9V11.7z M166.1,13.8l-0.6-1.5l-0.6,1.5H166.1L166.1,13.8z M158.3,13.3c-0.1,0.1-0.3,0.1-0.4,0.1h-1.1v-0.8h1.1
	c0.2,0,0.3,0,0.4,0.1c0.1,0.1,0.2,0.2,0.2,0.3C158.5,13.1,158.5,13.2,158.3,13.3 M143.6,13.8l0.6-1.5l0.6,1.5
	C144.9,13.8,143.6,13.8,143.6,13.8z M173.8,0H142v13.5l1.1-2.5h2.3l0.3,0.6V11h2.7l0.6,1.3l0.6-1.3h8.7c0.4,0,0.8,0.1,1,0.3V11h2.4
	v0.3c0.4-0.2,0.9-0.3,1.5-0.3h3.4l0.3,0.6V11h2.5l0.4,0.6V11h2.5v5.2h-2.5l-0.5-0.8v0.8h-3.1l-0.3-0.9h-0.8l-0.3,0.9h-1.6
	c-0.6,0-1.1-0.2-1.4-0.3v0.3h-3.9V15c0-0.2,0-0.2-0.1-0.2h-0.1v1.4h-7.5v-0.7l-0.3,0.7h-1.6l-0.3-0.6v0.6h-3l-0.3-0.9h-0.8l-0.3,0.9
	H142V32h31.8v-9.6c-0.3,0.2-0.8,0.2-1.3,0.2h-2.3v-0.3c-0.3,0.2-0.8,0.3-1.2,0.3h-7.3v-1.2c0-0.2,0-0.2-0.2-0.2h-0.1v1.4H159v-1.4
	c-0.4,0.2-0.8,0.2-1.3,0.2h-0.3v1.2h-2.9l-0.7-0.8l-0.8,0.8h-4.7v-5.2h4.8l0.7,0.8l0.8-0.8h3.2c0.4,0,1,0.1,1.3,0.3v-0.3h2.9
	c0.3,0,0.8,0.1,1.2,0.3v-0.3h4.3v0.3c0.3-0.2,0.7-0.3,1.1-0.3h2.4v0.3c0.3-0.2,0.6-0.3,1.1-0.3h1.6L173.8,0L173.8,0z"/>
</svg>
