<?xml version="1.0" encoding="utf-8"?>
<!-- Generator: Adobe Illustrator 26.0.1, SVG Export Plug-In . SVG Version: 6.00 Build 0)  -->
<svg version="1.1" id="Layer_1" xmlns="http://www.w3.org/2000/svg" xmlns:xlink="http://www.w3.org/1999/xlink" x="0px" y="0px"
	 width="465.371px" height="411.703px" viewBox="0 0 465.371 411.703" style="enable-background:new 0 0 465.371 411.703;"
	 xml:space="preserve">
<style type="text/css">
	.st0{fill:#FAFAFA;}
	.st1{fill:#E0E0E0;}
	.st2{fill:#EBEBEB;}
	.st3{fill:#F5F5F5;}
	.st4{fill:#E94141;}
	.st5{fill:#263238;}
	.st6{fill:#455A64;}
	.st7{fill:#FFBE9D;}
	.st8{fill:#EB996E;}
	.st9{opacity:0.3;}
	.st10{fill:#FFFFFF;}
</style>
<g id="freepik--background-complete--inject-146">
	<rect x="24.521" y="57.673" class="st0" width="173.59" height="155.3"/>
	<path class="st1" d="M198.111,212.973c0,0,0-1,0-2.88s0-4.69,0-8.32c0-7.29-0.06-17.95-0.1-31.52
		c-0.05-27.14-0.12-65.91-0.2-112.58l0.39,0.39l-173.66,0.07l0,0l0.46-0.46c0,56.5,0,109.67,0,155.3l-0.41-0.4l125.55,0.2
		l35.42,0.11h9.37h2.42h0.83c0,0-0.26,0-0.79,0h-2.37l-9.29,0.05l-35.32,0.11l-125.82,0.2h-0.41v-0.41c0-45.63,0-98.8-0.05-155.3
		v-0.46h0.48l173.57,0.07h0.4v0.39c-0.08,46.77-0.15,85.63-0.2,112.82c0,13.54-0.08,24.17-0.1,31.44c0,3.6,0,6.36,0,8.25
		S198.111,212.973,198.111,212.973z"/>
	<path class="st1" d="M91.081,85.263c0,0.26-9.14,0.47-20.4,0.47s-20.41-0.21-20.41-0.47s9.1-0.43,20.41-0.43
		S91.081,85.013,91.081,85.263z"/>
	<path class="st1" d="M164.631,96.933c0,0.25-25.1,0.46-56,0.46s-56.07-0.21-56.07-0.46s25.1-0.47,56.07-0.47
		S164.631,96.673,164.631,96.933z"/>
	<rect x="50.571" y="116.683" class="st1" width="7.31" height="7.31"/>
	<rect x="68.571" y="116.683" class="st1" width="7.31" height="7.31"/>
	<rect x="86.901" y="116.353" class="st1" width="7.31" height="7.31"/>
	<rect x="104.571" y="116.683" class="st1" width="7.31" height="7.31"/>
	<rect x="122.581" y="116.683" class="st1" width="7.31" height="7.31"/>
	<rect x="140.581" y="116.683" class="st1" width="7.31" height="7.31"/>
	<rect x="158.581" y="116.683" class="st2" width="7.31" height="7.31"/>
	<rect x="50.571" y="132.233" class="st2" width="7.31" height="7.31"/>
	<rect x="68.571" y="132.233" class="st1" width="7.31" height="7.31"/>
	<rect x="86.571" y="132.233" class="st2" width="7.31" height="7.31"/>
	<rect x="104.571" y="132.233" class="st1" width="7.31" height="7.31"/>
	<rect x="122.581" y="132.233" class="st1" width="7.31" height="7.31"/>
	<rect x="140.911" y="131.893" class="st1" width="7.31" height="7.31"/>
	<rect x="158.581" y="132.233" class="st1" width="7.31" height="7.31"/>
	<rect x="50.571" y="147.773" class="st1" width="7.31" height="7.31"/>
	<rect x="68.901" y="147.443" class="st1" width="7.31" height="7.31"/>
	<rect x="86.571" y="147.773" class="st1" width="7.31" height="7.31"/>
	<rect x="104.571" y="147.773" class="st2" width="7.31" height="7.31"/>
	<rect x="122.581" y="147.773" class="st1" width="7.31" height="7.31"/>
	<rect x="140.581" y="147.773" class="st1" width="7.31" height="7.31"/>
	<rect x="158.581" y="147.773" class="st1" width="7.31" height="7.31"/>
	<rect x="50.571" y="163.323" class="st1" width="7.31" height="7.31"/>
	<rect x="68.571" y="163.323" class="st1" width="7.31" height="7.31"/>
	<rect x="86.571" y="163.323" class="st1" width="7.31" height="7.31"/>
	<rect x="104.911" y="162.993" class="st1" width="7.31" height="7.31"/>
	<rect x="122.581" y="163.323" class="st1" width="7.31" height="7.31"/>
	<rect x="140.581" y="163.323" class="st2" width="7.31" height="7.31"/>
	<rect x="158.581" y="163.323" class="st1" width="7.31" height="7.31"/>
	<rect x="50.571" y="178.873" class="st1" width="7.31" height="7.31"/>
	<rect x="68.571" y="178.873" class="st2" width="7.31" height="7.31"/>
	<rect x="86.571" y="178.873" class="st1" width="7.31" height="7.31"/>
	<rect x="104.571" y="178.873" class="st1" width="7.31" height="7.31"/>
	<rect x="122.581" y="178.873" class="st1" width="7.31" height="7.31"/>
	<rect x="140.911" y="178.543" class="st1" width="7.31" height="7.31"/>
	<rect x="158.581" y="178.873" class="st1" width="7.31" height="7.31"/>
	<rect x="383.127" y="20.729" transform="matrix(1 -0.0054 0.0054 1 -0.2566 2.1038)" class="st1" width="11.16" height="55.51"/>
	<rect x="286.412" y="20.924" transform="matrix(1 -0.0054 0.0054 1 -0.1917 1.6283)" class="st2" width="28.89" height="30.64"/>
	<rect x="315.17" y="20.759" transform="matrix(1 -0.0054 0.0054 1 -0.1904 1.7839)" class="st3" width="28.89" height="30.64"/>
	<path class="st1" d="M286.371,29.483c19.2,0.16,38.413,0.07,57.64-0.27c0.168-0.031,0.28-0.192,0.25-0.36
		c-0.023-0.127-0.122-0.226-0.25-0.25c-19.19-0.11-38.44,0-57.63,0.35c-0.146,0.029-0.242,0.17-0.213,0.317
		c0.021,0.108,0.105,0.192,0.213,0.213L286.371,29.483z"/>
	<rect x="268.4" y="51.117" transform="matrix(1 -0.0054 0.0054 1 -0.3398 1.5951)" class="st2" width="52.49" height="24.97"/>
	<rect x="320.637" y="50.835" transform="matrix(1 -0.0054 0.0054 1 -0.3375 1.8777)" class="st3" width="52.49" height="24.97"/>
	<path class="st1" d="M268.371,58.223c34.87,0.4,69.86,0,104.72-0.52c0.168-0.031,0.28-0.192,0.25-0.36
		c-0.023-0.127-0.122-0.226-0.25-0.25c-34.87-0.18-69.86-0.16-104.72,0.6c-0.146,0.029-0.242,0.17-0.213,0.317
		C268.179,58.118,268.264,58.202,268.371,58.223z"/>
	<rect x="248.731" y="76.253" class="st1" width="203.35" height="8.95"/>
	<rect x="282.021" y="80.553" class="st1" width="8.25" height="30.53"/>
	<rect x="405.251" y="80.553" class="st1" width="8.26" height="30.53"/>
	<rect x="394.071" y="0.03" transform="matrix(1 -0.0054 0.0054 1 -0.2008 2.1629)" class="st2" width="11.16" height="76.34"/>
	
		<rect x="405.645" y="12.276" transform="matrix(0.9999 -0.01 0.01 0.9999 -0.4114 4.1451)" class="st3" width="17.331" height="61.873"/>
	<path class="st1" d="M422.371,26.153c-2.88,0.296-5.777,0.396-8.67,0.3c-2.89,0.096-5.783-0.004-8.66-0.3c0-0.17,3.88-0.3,8.66-0.3
		S422.371,25.983,422.371,26.153z"/>
	<path class="st1" d="M422.371,23.553c-2.88,0.296-5.777,0.396-8.67,0.3c-2.89,0.096-5.783-0.004-8.66-0.3c0-0.17,3.88-0.3,8.66-0.3
		S422.371,23.383,422.371,23.553z"/>
	<path class="st1" d="M422.371,66.833c-5.77,0.4-11.56,0.4-17.33,0c0-0.17,3.88-0.3,8.66-0.3S422.371,66.623,422.371,66.833z"/>
	<path class="st1" d="M422.371,64.193c-5.77,0.4-11.56,0.4-17.33,0c0-0.17,3.88-0.3,8.66-0.3S422.371,64.023,422.371,64.193z"/>
	<path class="st1" d="M413.941,58.523c-0.16,0-0.3-6.24-0.3-13.94s0.14-13.94,0.3-13.94s0.3,6.24,0.3,13.94
		S414.111,58.523,413.941,58.523z"/>
	<rect x="422.521" y="29.423" class="st2" width="18.87" height="46.7"/>
	<path class="st1" d="M402.481,13.053c0,1.773-1.437,3.21-3.21,3.21c-1.773,0-3.21-1.437-3.21-3.21c0-1.773,1.437-3.21,3.21-3.21
		c0.003,0,0.007,0,0.01,0C401.05,9.848,402.481,11.284,402.481,13.053z"/>
	<rect x="398.281" y="21.873" class="st1" width="1.98" height="45.42"/>
</g>
<g id="freepik--Plant--inject-146">
	<path class="st4" d="M57.631,311.663c5.24-2.7,11.4-3.05,17.21-2.09c3.12,0.52,6.37,1.45,8.5,3.8s2.52,6.47,0.08,8.48
		c-1.45,1.2-3.47,1.38-5.35,1.36c-4.55-0.05-9.6-0.85-13.23,1.88c-2.08,1.57-3.46,4.16-5.93,4.93s-5.17-0.68-6.45-2.87
		c-1.183-2.278-1.444-4.924-0.73-7.39C52.325,316.29,54.508,313.293,57.631,311.663z"/>
	<path class="st4" d="M45.641,288.523c3.2,4.57,9.42,3.05,12.31,0.27s4.1-6.84,5.21-10.69c2.53-8.81,5.09-18,3.2-27
		c-0.451-2.718-1.645-5.259-3.45-7.34c-1.857-2.093-4.688-3.038-7.43-2.48c-3.14,0.83-5.08,3.9-6.49,6.83
		c-4.153,8.625-6.33,18.067-6.37,27.64c0,4.45,0.51,9.12,3,12.8"/>
	<path class="st4" d="M36.851,295.083c3.48-4.13,4.14-10.14,2.59-15.31s-5-9.56-9.06-13.15c-4.737-4.214-10.25-7.464-16.23-9.57
		c-2.314-0.938-4.806-1.362-7.3-1.24c-2.529,0.144-4.824,1.529-6.13,3.7c-1.71,3.26-0.07,7.21,1.7,10.44
		c3.122,5.681,6.687,11.108,10.66,16.23c3.2,4.12,6.86,8.18,11.73,10s9.93,1.65,12.56-1.69"/>
	<path class="st5" d="M45.431,357.463c0.166-0.678,0.263-1.372,0.29-2.07c0.14-1.52,0.33-3.41,0.55-5.67
		c0.279-2.793,0.703-5.57,1.27-8.32c0.74-3.344,1.744-6.624,3-9.81c1.241-3.18,2.924-6.17,5-8.88c1.694-2.204,3.861-4.002,6.34-5.26
		c1.689-0.821,3.499-1.368,5.36-1.62c0.698-0.028,1.392-0.129,2.07-0.3c-0.698-0.078-1.402-0.078-2.1,0
		c-1.927,0.146-3.813,0.634-5.57,1.44c-2.605,1.233-4.891,3.05-6.68,5.31c-2.166,2.748-3.915,5.801-5.19,9.06
		c-1.289,3.24-2.292,6.586-3,10c-0.538,2.782-0.909,5.594-1.11,8.42c-0.18,2.41-0.24,4.36-0.28,5.71
		C45.326,356.136,45.343,356.803,45.431,357.463z"/>
	<path class="st5" d="M45.821,353.103c0.038-0.332,0.038-0.668,0-1v-2.76c0-2.39,0-5.85,0.12-10.12c0.21-8.55,1-17.75,2.37-30.72
		c1.34-12.19,3.15-26.39,5.06-35.61c0.4-2.1,0.82-4,1.2-5.64s0.69-3.09,1-4.25s0.48-2,0.65-2.67c0.099-0.325,0.156-0.661,0.17-1
		c-0.153,0.283-0.268,0.586-0.34,0.9c-0.21,0.69-0.47,1.57-0.8,2.64s-0.72,2.56-1.13,4.22s-0.89,3.53-1.34,5.62
		c-2.355,10.898-4.131,21.914-5.32,33c-1.42,13-2.06,24.83-2.12,33.39c0,4.29,0,7.76,0.15,10.15c0.07,1.12,0.13,2,0.17,2.75
		C45.665,352.375,45.718,352.745,45.821,353.103z"/>
	<path class="st5" d="M45.871,330.283c0.076-0.958,0.076-1.922,0-2.88c-0.163-2.613-0.457-5.216-0.88-7.8
		c-0.627-3.832-1.472-7.624-2.53-11.36c-1.248-4.586-2.846-9.069-4.78-13.41c-3.31-8.032-8.054-15.395-14-21.73
		c-1.03-1.083-2.126-2.101-3.28-3.05c-0.51-0.42-0.95-0.85-1.41-1.18l-1.27-0.88c-0.74-0.591-1.526-1.123-2.35-1.59
		c-0.14,0.18,3.43,2.29,7.94,7.08c5.727,6.393,10.322,13.714,13.59,21.65c1.885,4.33,3.482,8.779,4.78,13.32
		c1.24,4.18,2.07,8,2.69,11.25s0.94,5.89,1.15,7.73C45.571,328.39,45.688,329.342,45.871,330.283z"/>
	<polygon class="st5" points="23.821,370.543 26.101,401.873 66.351,401.873 68.641,370.543 	"/>
	<rect x="19.931" y="358.193" class="st5" width="53.51" height="12.35"/>
	<polygon class="st6" points="19.931,400.673 19.931,404.093 22.441,404.093 72.561,404.093 72.561,400.673 	"/>
	<polygon class="st6" points="24.911,410.123 22.441,404.093 70.641,404.093 67.761,410.123 	"/>
	<path class="st1" d="M67.891,380.833c-0.05,0.102-0.114,0.196-0.19,0.28c-0.16,0.22-0.35,0.48-0.6,0.8l-2.34,3l-0.11,0.14
		l-0.1-0.14l-5.76-8h0.33l-5.67,8l-0.18,0.25l-0.2-0.23l-6.72-8h0.39c-0.12,0.14-0.25,0.3-0.37,0.46l-6,7.54l-0.2,0.25l-0.18-0.26
		l-5.68-8h0.33c-2.79,3.19-5.17,5.89-7,8l-0.12,0.14l-0.09-0.16c-0.93-1.54-1.66-2.78-2.19-3.67c-0.23-0.4-0.42-0.72-0.56-1
		c-0.076-0.108-0.137-0.225-0.18-0.35c0,0,0.09,0.1,0.24,0.31l0.62,0.94l2.3,3.61h-0.22l6.87-8.06l0.18-0.2l0.15,0.22l5.73,8h-0.4
		l6-7.55l0.37-0.46l0.2-0.24l0.19,0.23c2.36,2.81,4.62,5.52,6.71,8h-0.38l5.73-8l0.17-0.23l0.16,0.23l5.64,8.06h-0.2l2.44-2.91
		l0.65-0.76C67.805,380.866,67.885,380.786,67.891,380.833z"/>
	<path class="st6" d="M69.201,370.333c0,0.14-10.09,0.25-22.52,0.25s-22.53-0.11-22.53-0.25s10.08-0.25,22.53-0.25
		S69.201,370.193,69.201,370.333z"/>
	<path class="st5" d="M71.231,404.433c0,0.14-11,0.25-24.48,0.25s-24.48-0.11-24.48-0.25s11-0.25,24.48-0.25
		S71.231,404.293,71.231,404.433z"/>
</g>
<g id="freepik--Chair--inject-146">
	<path class="st6" d="M346.471,277.943h93.53c8.356,0,15.13,6.774,15.13,15.13l0,0v117.62l0,0h-123.76l0,0v-117.62
		C331.371,284.729,338.127,277.959,346.471,277.943z"/>
	<path class="st5" d="M444.711,278.623c0.15,0,0.26,29.55,0.26,66s-0.11,66-0.26,66s-0.26-29.55-0.26-66
		S444.571,278.623,444.711,278.623z"/>
</g>
<g id="freepik--Character--inject-146">
	<path class="st5" d="M383.731,133.833c11.382,16.295,17.908,35.484,18.82,55.34c0.58,13.3-1.21,27.47,5.1,39.19
		c9.06,16.82,28.65,16.25,34.65,34.38c2.61,7.89-2.2,25.24-3.5,33.45c-1.47,9.32,4.23,17.15,2.76,26.48
		c-1.35,8.55-7.75,14.65-15.43,18.63c-6.84,3.54-13.16,3.64-20.27,0.69c-13.56-5.61-24.84-11.53-34.49-22.57
		c-13.56-15.5-17.66-37-20-57.43c-5.106-45.181-4.074-90.846,3.07-135.75"/>
	<path class="st6" d="M412.721,343.903c0.141-0.046,0.285-0.082,0.43-0.11c0.29-0.07,0.73-0.14,1.29-0.31
		c4.218-1.147,7.999-3.525,10.86-6.83c1.077-1.26,1.898-2.717,2.42-4.29c0.499-1.79,0.784-3.633,0.85-5.49
		c0.073-4.283-0.364-8.56-1.3-12.74c-0.87-4.54-2-9.38-2.34-14.63c-0.165-2.68,0.026-5.37,0.57-8c0.627-2.732,1.476-5.407,2.54-8
		c1.089-2.66,2.044-5.374,2.86-8.13c0.848-2.818,1.086-5.783,0.7-8.7c-0.466-2.902-1.577-5.663-3.25-8.08
		c-1.636-2.352-3.538-4.506-5.67-6.42c-4.13-3.86-8.6-7-12.42-10.62c-6.815-6.306-12.314-13.899-16.18-22.34
		c-1.498-3.232-2.742-6.575-3.72-10c-0.48-1.49-0.76-2.93-1.1-4.23s-0.49-2.52-0.71-3.6c-0.31-2.19-0.55-3.88-0.61-5
		c0-0.56-0.08-1-0.1-1.32s0-0.45,0-0.45s0,0.15,0.07,0.45s0.09,0.75,0.16,1.31c0.09,1.15,0.36,2.84,0.7,5
		c0.23,1.08,0.48,2.28,0.75,3.59s0.64,2.71,1.14,4.2c1.004,3.391,2.264,6.7,3.77,9.9c3.893,8.365,9.387,15.886,16.17,22.14
		c3.8,3.54,8.28,6.71,12.45,10.59c2.16,1.942,4.09,4.127,5.75,6.51c1.717,2.482,2.855,5.319,3.33,8.3
		c0.399,2.987,0.157,6.024-0.71,8.91c-0.78,2.84-1.87,5.53-2.88,8.17c-1.055,2.562-1.905,5.203-2.54,7.9
		c-0.54,2.593-0.732,5.246-0.57,7.89c0.27,5.18,1.43,10,2.29,14.57c0.92,4.216,1.337,8.526,1.24,12.84
		c-0.084,1.888-0.386,3.761-0.9,5.58c-0.556,1.601-1.407,3.083-2.51,4.37c-1.764,2.046-3.911,3.728-6.32,4.95
		c-1.501,0.797-3.097,1.402-4.75,1.8C413.904,343.734,413.315,343.841,412.721,343.903z"/>
	<path class="st4" d="M226.531,379.633l48-22.79c0,0,18.69-90.75,22.23-97.56c3.54-6.81,18.3-12.7,18.3-12.7l-2.47,122.88
		l-4.4,28.37l-67.68,6.41L226.531,379.633z"/>
	<path class="st7" d="M185.581,401.133c-0.27,0-1.6,0.82-0.49,2.93s9.25,9.08,11.64,6.65s-1.26-5.39-1.26-5.39L185.581,401.133z"/>
	<path class="st7" d="M195.811,405.413c0,0,9.82,1.24,13.59,2.68c4.11,1.56,9.11,0.49,12.47-1.78c1.909-1.271,3.691-2.725,5.32-4.34
		l12.52-0.2c3.67-4.298,4.613-10.293,2.44-15.51c-0.67-1.78-1.637-3.433-2.86-4.89c-1.49-1.61-3.84-2.91-7.9-3.61l-14.87,3.21
		c0,0-23-1.65-27.14,0.29c0,0-5.15,3.05-6.74,4.33c-0.6,0.49-2.43,6.35,1.32,9.4c0,0-3.26,2.59-1.49,4.92l0.84,1
		c0,0-2.19,2.84-1.06,4.08s11,7,14.51,5.64s0.61-4.65-0.95-5.25"/>
	<path class="st8" d="M186.431,389.923c0.415,0.122,0.822,0.269,1.22,0.44c0.77,0.29,1.9,0.71,3.32,1.16
		c0.7,0.23,1.48,0.46,2.33,0.68s1.76,0.41,2.71,0.72c1.033,0.283,1.968,0.847,2.7,1.63c0.822,0.883,1.098,2.144,0.72,3.29
		c-0.235,0.567-0.664,1.031-1.21,1.31c-0.514,0.252-1.07,0.408-1.64,0.46c-1.046,0.062-2.096,0.005-3.13-0.17
		c-1.731-0.28-3.432-0.722-5.08-1.32c-1.41-0.5-2.52-1-3.29-1.3c-0.408-0.147-0.8-0.335-1.17-0.56
		c0.418,0.111,0.829,0.248,1.23,0.41c0.78,0.28,1.91,0.71,3.32,1.17c1.628,0.553,3.301,0.964,5,1.23c0.992,0.156,1.998,0.202,3,0.14
		c0.518-0.046,1.024-0.189,1.49-0.42c0.453-0.237,0.807-0.627,1-1.1c0.329-0.989,0.108-2.078-0.58-2.86
		c-0.681-0.729-1.549-1.259-2.51-1.53c-0.92-0.31-1.84-0.51-2.68-0.75s-1.63-0.49-2.33-0.73c-1.42-0.49-2.53-1-3.29-1.29
		C187.167,390.366,186.788,390.161,186.431,389.923z"/>
	<path class="st8" d="M187.311,382.833c0.414,0.116,0.818,0.263,1.21,0.44c0.78,0.3,1.9,0.73,3.3,1.19s3.09,1,5,1.43
		c1.048,0.164,2.044,0.568,2.91,1.18c0.459,0.382,0.762,0.919,0.85,1.51c0.088,0.595,0.001,1.203-0.25,1.75
		c-0.514,1.054-1.446,1.845-2.57,2.18c-1.009,0.328-2.082,0.414-3.13,0.25c-1.706-0.341-3.379-0.83-5-1.46l-3.31-1.16
		c-0.41-0.129-0.811-0.286-1.2-0.47c0.425,0.071,0.843,0.178,1.25,0.32l3.35,1c1.63,0.58,3.301,1.035,5,1.36
		c0.99,0.142,2,0.053,2.95-0.26c1.022-0.313,1.866-1.038,2.33-2c0.486-0.934,0.285-2.077-0.49-2.79
		c-0.818-0.571-1.755-0.95-2.74-1.11c-1.91-0.48-3.6-1-5-1.52s-2.5-1-3.26-1.32C188.098,383.212,187.697,383.038,187.311,382.833z"
		/>
	<path class="st8" d="M192.041,384.833c-0.205-0.653-0.355-1.322-0.45-2c-0.226-0.65-0.39-1.319-0.49-2
		c0.477,0.52,0.787,1.172,0.89,1.87C192.242,383.388,192.259,384.137,192.041,384.833z"/>
	<path class="st7" d="M226.671,385.153l-8.75-3.32c0,0-24.29-11.34-24.7-10.72s-1.73,0.54-1.44,3.5s14.44,8.94,14.89,10
		s-0.3,6.22,4.93,9.93s9,3.8,9,3.8"/>
	<path class="st8" d="M220.601,398.253h-0.23l-0.6-0.06c-0.77-0.122-1.529-0.306-2.27-0.55c-2.727-0.929-5.247-2.379-7.42-4.27
		c-1.472-1.379-2.513-3.153-3-5.11c-0.251-1.076-0.425-2.169-0.52-3.27c-0.017-0.126-0.047-0.25-0.09-0.37
		c-0.057-0.097-0.136-0.179-0.23-0.24c-0.228-0.166-0.465-0.319-0.71-0.46c-0.49-0.29-1-0.57-1.54-0.85
		c-2.1-1.13-4.35-2.26-6.61-3.56c-1.159-0.653-2.283-1.364-3.37-2.13c-0.563-0.395-1.091-0.837-1.58-1.32
		c-0.26-0.249-0.485-0.531-0.67-0.84c-0.099-0.17-0.167-0.356-0.2-0.55c-0.02-0.179-0.02-0.361,0-0.54
		c-0.08-0.724,0.048-1.456,0.37-2.11c0.199-0.309,0.461-0.571,0.77-0.77c0.126-0.081,0.24-0.179,0.34-0.29c0,0,0,0,0.08-0.09
		c0.049-0.037,0.109-0.055,0.17-0.05c0.056-0.006,0.114-0.006,0.17,0l0.27,0.07c1.31,0.4,2.52,0.93,3.73,1.43c2.4,1,4.69,2,6.87,3
		c4.37,2,8.27,3.78,11.55,5.32c0.82,0.37,1.59,0.76,2.33,1.08l2.14,0.84l3.43,1.36l2.16,0.87l0.55,0.24c0.13,0,0.19,0.08,0.19,0.09
		s-0.07,0-0.2-0.06l-0.57-0.19l-2.19-0.81l-3.46-1.23l-2.16-0.81c-0.76-0.31-1.53-0.69-2.35-1.06l-11.58-5.23c-2.19-1-4.48-2-6.88-3
		c-1.2-0.49-2.42-1-3.68-1.41l-0.22-0.05h-0.08l0,0c0,0,0-0.06,0-0.1l0,0c0.28,0.18,0.07,0.06,0.13,0.1l0,0
		c-0.119,0.148-0.261,0.276-0.42,0.38c-0.267,0.163-0.492,0.386-0.66,0.65c-0.282,0.588-0.392,1.242-0.32,1.89
		c-0.006,0.313,0.066,0.622,0.21,0.9c0.167,0.278,0.369,0.533,0.6,0.76c0.473,0.466,0.985,0.891,1.53,1.27
		c1.08,0.78,2.21,1.46,3.33,2.11c2.25,1.3,4.48,2.44,6.59,3.57c0.53,0.29,1,0.57,1.55,0.88c0.258,0.147,0.508,0.307,0.75,0.48
		c0.146,0.098,0.263,0.232,0.34,0.39c0.051,0.146,0.084,0.297,0.1,0.45c0.095,1.089,0.259,2.171,0.49,3.24
		c0.457,1.905,1.45,3.64,2.86,5c2.131,1.885,4.597,3.354,7.27,4.33c0.728,0.257,1.473,0.46,2.23,0.61c0.26,0.06,0.46,0.08,0.6,0.1
		L220.601,398.253z"/>
	<path class="st8" d="M193.811,399.393c0.323,0.039,0.637,0.13,0.93,0.27c0.822,0.33,1.593,0.774,2.29,1.32
		c0.486,0.38,0.929,0.813,1.32,1.29c0.497,0.544,0.753,1.265,0.71,2c-0.163,0.844-0.791,1.522-1.62,1.75
		c-0.836,0.229-1.721,0.201-2.54-0.08c-2.781-0.823-5.48-1.905-8.06-3.23c-0.777-0.405-1.532-0.853-2.26-1.34
		c-0.28-0.16-0.539-0.355-0.77-0.58c0.298,0.117,0.582,0.265,0.85,0.44c0.54,0.31,1.32,0.74,2.31,1.22
		c2.584,1.235,5.259,2.271,8,3.1c0.747,0.259,1.555,0.29,2.32,0.09c0.686-0.181,1.214-0.728,1.37-1.42
		c0.044-0.649-0.171-1.29-0.6-1.78c-0.367-0.466-0.783-0.892-1.24-1.27C195.897,400.455,194.886,399.857,193.811,399.393z"/>
	<g class="st9">
		<path d="M307.851,397.833c-7.86-26.51-14.79-60.65-22.65-87.16c-2.88,24.47,0.72,56.78,5.22,81c0.53,2.84,0.77,5.62,3,7.49
			L307.851,397.833"/>
	</g>
	<path class="st5" d="M294.981,379.633c-0.11,0-0.44-1.73-1.51-4.38c-0.629-1.545-1.382-3.036-2.25-4.46
		c-1.084-1.728-2.323-3.355-3.7-4.86c-1.398-1.489-2.931-2.845-4.58-4.05c-1.352-0.978-2.784-1.841-4.28-2.58
		c-2.56-1.26-4.28-1.72-4.25-1.82c0.417,0.049,0.826,0.146,1.22,0.29c0.474,0.12,0.938,0.273,1.39,0.46
		c0.613,0.214,1.214,0.461,1.8,0.74c1.54,0.705,3.013,1.549,4.4,2.52c1.692,1.205,3.263,2.571,4.69,4.08
		c1.398,1.543,2.644,3.217,3.72,5c0.864,1.456,1.597,2.985,2.19,4.57c0.27,0.67,0.43,1.3,0.6,1.85
		c0.154,0.467,0.274,0.945,0.36,1.43C294.887,378.819,294.954,379.224,294.981,379.633z"/>
	<path class="st4" d="M309.961,245.343c0,0-25.13,56.15-25.13,66.49s18.83,81.93,18.83,81.93c-0.18,2.85-0.91,17.12-0.91,17.12
		l105.59,0.37l0,0l1.61-22.7l-8.24-21.63l8.23-61.15c0,0,5.54-35.5,6-45.43c0.62-12.42-41.46-26.82-40.31-28.54l-7.26-9.76
		l-41.61,33.79l-8.23-23.76l-9.86,9.31L309.961,245.343z"/>
	<path class="st4" d="M379.111,260.283c-11.43,19.33-32.34,54.55-32.34,54.55l-37.48,42.74c0,0-2.45,21.71,2.45,28.37
		s13.31,11.21,13.31,11.21s9.89,0,22.46-10.51s47.24-53.94,47.24-53.94l11.91-14.37c0,0,14.2-34.88,11.55-52.63
		c-1-6.85-3.94-9.69-7.82-12.83C400.621,245.003,385.501,249.473,379.111,260.283z"/>
	<path class="st5" d="M411.071,306.233c-0.05,0.137-0.111,0.271-0.18,0.4c-0.13,0.28-0.32,0.65-0.55,1.14c-0.5,1-1.26,2.45-2.3,4.29
		c-2.07,3.69-5.29,8.9-9.49,15.19c-2.11,3.14-4.46,6.55-7.05,10.17s-5.53,7.35-7.95,11.71s-4.62,9.12-7.27,13.88
		c-2.722,4.932-5.914,9.59-9.53,13.91c-3.617,4.338-7.872,8.101-12.62,11.16c-4.449,2.839-9.419,4.763-14.62,5.66
		c-4.707,0.835-9.54,0.63-14.16-0.6c-2.091-0.565-4.105-1.381-6-2.43c-1.763-0.93-3.42-2.05-4.94-3.34
		c-1.394-1.155-2.643-2.475-3.72-3.93c-0.97-1.293-1.795-2.688-2.46-4.16c-1.028-2.368-1.702-4.875-2-7.44
		c-0.172-1.617-0.229-3.245-0.17-4.87c0-0.54,0.06-1,0.08-1.27c-0.01-0.143-0.01-0.287,0-0.43c0.011,0.143,0.011,0.287,0,0.43
		c0,0.31,0,0.73,0,1.27c-0.019,1.617,0.068,3.234,0.26,4.84c0.336,2.537,1.036,5.013,2.08,7.35c0.672,1.444,1.497,2.812,2.46,4.08
		c1.072,1.429,2.314,2.722,3.7,3.85c1.506,1.264,3.146,2.361,4.89,3.27c1.869,1.023,3.853,1.818,5.91,2.37
		c4.572,1.194,9.349,1.378,14,0.54c5.131-0.9,10.033-2.81,14.42-5.62c4.705-3.037,8.923-6.769,12.51-11.07
		c3.595-4.29,6.766-8.919,9.47-13.82c2.65-4.73,4.79-9.53,7.3-13.87c2.451-4.053,5.122-7.969,8-11.73c2.6-3.6,5-7,7.09-10.12
		c4.24-6.25,7.5-11.43,9.62-15.08c1.07-1.83,1.86-3.26,2.38-4.24l0.61-1.12C410.904,306.471,410.981,306.347,411.071,306.233z"/>
	<path class="st5" d="M307.371,355.663c0,0.07-0.53,0.4-1.22,1.17c-1.89,2.006-2.171,5.042-0.68,7.36c0.53,0.88,1,1.31,1,1.37
		s-0.63-0.28-1.29-1.16c-1.785-2.415-1.471-5.786,0.73-7.83C306.299,356.134,306.806,355.817,307.371,355.663z"/>
	<path class="st5" d="M314.301,367.003c0.201,0.027,0.399,0.074,0.59,0.14l0.7,0.19l1,0.18c2.077,0.274,4.19,0.076,6.18-0.58
		c2.961-0.991,5.685-2.585,8-4.68c2.752-2.641,5.246-5.537,7.45-8.65c2.239-3.138,4.818-6.019,7.69-8.59
		c1.36-1.14,2.69-2.15,3.8-3.24c1.057-0.97,1.908-2.143,2.5-3.45c0.807-1.939,0.593-4.152-0.57-5.9
		c-0.483-0.592-1.105-1.056-1.81-1.35c0.198,0.037,0.393,0.094,0.58,0.17c0.539,0.241,1.015,0.604,1.39,1.06
		c1.288,1.789,1.574,4.111,0.76,6.16c-0.596,1.365-1.46,2.596-2.54,3.62c-1.13,1.12-2.47,2.16-3.8,3.3
		c-2.825,2.568-5.366,5.431-7.58,8.54c-2.23,3.14-4.762,6.053-7.56,8.7c-2.364,2.107-5.144,3.695-8.16,4.66
		c-2.047,0.641-4.216,0.788-6.33,0.43l-1-0.23c-0.28-0.08-0.51-0.18-0.69-0.24C314.693,367.187,314.491,367.107,314.301,367.003z"/>
	<path class="st5" d="M384.201,254.343c-0.126,0.209-0.267,0.41-0.42,0.6c-0.33,0.42-0.75,1-1.28,1.67
		c-1.14,1.42-2.71,3.54-4.63,6.18c-4.894,6.936-9.346,14.174-13.33,21.67c-4.72,8.76-8.62,16.89-11.61,22.69
		c-1.48,2.91-2.7,5.25-3.59,6.85l-0.97,1.83c-0.109,0.219-0.24,0.427-0.39,0.62c0.075-0.232,0.172-0.456,0.29-0.67l0.94-1.89
		l3.43-6.91c2.9-5.85,6.76-14,11.48-22.78c3.988-7.52,8.499-14.751,13.5-21.64c2-2.61,3.57-4.71,4.76-6.09l1.36-1.61
		C383.875,254.673,384.03,254.499,384.201,254.343z"/>
	<g class="st9">
		<path d="M306.171,365.273c4.87,2.64,10.23,2.36,15.67,1.3c5.492-1.098,10.438-4.058,14-8.38c-0.823,4.814-3.078,9.267-6.47,12.78
			c-3.46,3.39-8.48,5.35-13.24,4.48s-9.58-5.35-10-10.18"/>
	</g>
	<g class="st9">
		<path d="M352.271,336.413c3.091,4.766,4.17,10.561,3,16.12c4.13-6.32,5.1-14.32,4-21.79s-4.15-14.52-7.53-21.27
			c0,0-3.72,6.3-3.76,7c-0.18,3.64,1.16,10.48,1.86,14.05c1.897,1.821,2.75,4.475,2.27,7.06"/>
	</g>
	<g class="st9">
		<path d="M322.691,391.433c9.94,7.75,24.69,8.11,35.56,1.75c10.47-6.13,16.92-17.17,22.9-27.72c9.27-16.34,20.57-36.55,27.19-54.13
			c0,0-18.55,25.31-24.14,36.22c-3.727,7.375-7.957,14.486-12.66,21.28c-10.822,15.568-28.951,24.401-47.88,23.33"/>
	</g>
	<path class="st5" d="M302.751,410.833c-0.016-0.103-0.016-0.207,0-0.31c0-0.24,0-0.54,0-0.91c0-0.85,0.07-2,0.13-3.47
		c0.14-3,0.33-7.3,0.57-12.43v0.12c-1.79-6-3.89-13.28-6.07-21.14c-2.88-10.42-5.31-19.9-6.95-26.79c-0.81-3.44-1.45-6.24-1.85-8.18
		c-0.19-0.93-0.34-1.68-0.45-2.23c-0.059-0.26-0.103-0.524-0.13-0.79c0.101,0.245,0.178,0.5,0.23,0.76l0.55,2.22
		c0.49,2,1.17,4.74,2,8.13c1.73,6.87,4.22,16.33,7.1,26.74c2.17,7.86,4.24,15.14,6,21.15v0.07c-0.31,5.13-0.57,9.4-0.76,12.44
		c-0.1,1.45-0.18,2.61-0.24,3.46c0,0.36-0.06,0.66-0.08,0.9C302.796,410.661,302.779,410.749,302.751,410.833z"/>
	<path class="st5" d="M408.371,252.293c0,0.08-1.08-0.3-2.81-0.73c-2.256-0.569-4.565-0.904-6.89-1
		c-2.326-0.064-4.652,0.117-6.94,0.54c-1.76,0.33-2.83,0.63-2.85,0.55c0.222-0.143,0.465-0.251,0.72-0.32
		c0.673-0.232,1.357-0.429,2.05-0.59c2.293-0.535,4.646-0.77,7-0.7c2.372,0.071,4.724,0.448,7,1.12c0.681,0.198,1.349,0.439,2,0.72
		C408.151,252.133,408.371,252.253,408.371,252.293z"/>
	<path class="st5" d="M374.941,233.833c-0.072,0.182-0.163,0.356-0.27,0.52l-0.85,1.43c-0.75,1.24-1.86,3-3.27,5.19
		c-2.83,4.33-6.88,10.24-11.67,16.52c-3.85,5.07-7.58,9.62-10.63,13.18l-0.22,0.25l-0.13-0.3c-1.46-3.18-2.66-5.82-3.53-7.73
		c-0.39-0.88-0.7-1.6-0.95-2.15c-0.123-0.246-0.22-0.504-0.29-0.77c0.161,0.226,0.298,0.467,0.41,0.72c0.27,0.54,0.61,1.24,1.05,2.1
		c0.91,1.89,2.17,4.5,3.68,7.66l-0.34-0.05c3-3.6,6.69-8.16,10.54-13.22c4.78-6.28,8.86-12.14,11.77-16.42l3.41-5.09l0.93-1.38
		C374.681,234.124,374.802,233.97,374.941,233.833z"/>
	<path class="st5" d="M399.251,395.103c-0.15,0,0.31-5.21,1-11.6s1.4-11.55,1.54-11.53s-0.32,5.2-1,11.59
		S399.371,395.113,399.251,395.103z"/>
	<path class="st5" d="M326.871,393.733c0.568,2.881,0.966,5.792,1.19,8.72c0.405,2.907,0.629,5.836,0.67,8.77
		c-0.562-2.882-0.96-5.793-1.19-8.72C327.149,399.595,326.925,396.667,326.871,393.733z"/>
	<path class="st10" d="M380.281,279.523c-0.168-0.687-0.861-1.107-1.547-0.94c-0.139,0.034-0.272,0.091-0.393,0.17l-0.07,0.06
		c-0.499,0.445-0.542,1.21-0.097,1.708c0.445,0.499,1.21,0.542,1.708,0.097c0.308-0.275,0.455-0.688,0.389-1.096H380.281z"/>
	<path class="st10" d="M369.851,254.103c-0.168-0.687-0.861-1.107-1.547-0.94c-0.139,0.034-0.272,0.091-0.393,0.17l-0.06,0.06
		c-0.499,0.445-0.542,1.21-0.097,1.708c0.445,0.499,1.21,0.542,1.708,0.097C369.771,254.924,369.917,254.511,369.851,254.103z"/>
	<path class="st10" d="M345.921,274.573c-0.168-0.687-0.861-1.107-1.547-0.94c-0.139,0.034-0.272,0.091-0.393,0.17h-0.06
		c-0.499,0.444-0.544,1.209-0.1,1.708s1.209,0.544,1.708,0.1c0.307-0.273,0.454-0.683,0.392-1.088V274.573z"/>
	<path class="st10" d="M320.051,264.293c-0.162-0.682-0.847-1.104-1.529-0.942c-0.143,0.034-0.278,0.092-0.401,0.172l-0.07,0.06
		c-0.499,0.445-0.542,1.21-0.097,1.708c0.445,0.499,1.21,0.542,1.708,0.097C319.971,265.114,320.117,264.701,320.051,264.293z"/>
	<path class="st10" d="M315.481,254.163c-0.168-0.687-0.861-1.107-1.547-0.94c-0.139,0.034-0.272,0.091-0.393,0.17l-0.07,0.06
		c-0.509,0.441-0.565,1.212-0.124,1.721c0.441,0.509,1.212,0.565,1.721,0.124c0.325-0.281,0.477-0.712,0.403-1.135H315.481z"/>
	<path class="st10" d="M317.471,242.463c-0.168-0.687-0.861-1.107-1.547-0.94c-0.139,0.034-0.272,0.091-0.393,0.17l-0.07,0.05
		c-0.499,0.444-0.544,1.209-0.1,1.708s1.209,0.544,1.708,0.1c0.307-0.273,0.454-0.683,0.392-1.088H317.471z"/>
	<path class="st10" d="M303.141,258.563c-0.168-0.687-0.861-1.107-1.547-0.94c-0.139,0.034-0.272,0.091-0.393,0.17l-0.07,0.05
		c-0.499,0.444-0.544,1.209-0.1,1.708s1.209,0.544,1.708,0.1c0.307-0.273,0.454-0.683,0.392-1.088H303.141z"/>
	<path class="st10" d="M336.371,263.203c-0.162-0.682-0.847-1.104-1.529-0.942c-0.143,0.034-0.278,0.092-0.401,0.172l-0.07,0.06
		c-0.499,0.445-0.542,1.21-0.097,1.708c0.445,0.499,1.21,0.542,1.708,0.097C336.291,264.024,336.437,263.611,336.371,263.203z"/>
	<path class="st10" d="M308.231,284.073c-0.168-0.687-0.861-1.107-1.547-0.94c-0.139,0.034-0.272,0.091-0.393,0.17h-0.07
		c-0.499,0.444-0.544,1.209-0.1,1.708s1.209,0.544,1.708,0.1c0.307-0.273,0.454-0.683,0.392-1.088L308.231,284.073z"/>
	<path class="st10" d="M282.511,344.093c-0.168-0.687-0.861-1.107-1.547-0.94c-0.139,0.034-0.272,0.091-0.393,0.17l-0.06,0.05
		c-0.499,0.444-0.544,1.209-0.1,1.708s1.209,0.544,1.708,0.1C282.426,344.908,282.574,344.499,282.511,344.093z"/>
	<path class="st10" d="M291.691,309.473c-0.168-0.687-0.861-1.107-1.547-0.94c-0.139,0.034-0.272,0.091-0.393,0.17l-0.07,0.06
		c-0.499,0.445-0.542,1.21-0.097,1.708c0.445,0.499,1.21,0.542,1.708,0.097c0.308-0.275,0.455-0.688,0.389-1.096H291.691z"/>
	<path class="st10" d="M359.371,248.693c-0.168-0.687-0.861-1.107-1.547-0.94c-0.139,0.034-0.272,0.091-0.393,0.17l-0.07,0.05
		c-0.499,0.444-0.544,1.209-0.1,1.708s1.209,0.544,1.708,0.1c0.307-0.273,0.454-0.683,0.392-1.088H359.371z"/>
	<path class="st10" d="M391.611,317.613c-0.168-0.687-0.861-1.107-1.547-0.94c-0.139,0.034-0.272,0.091-0.393,0.17l-0.07,0.06
		c-0.509,0.441-0.565,1.212-0.124,1.721c0.441,0.509,1.212,0.565,1.721,0.124c0.325-0.281,0.477-0.712,0.403-1.135H391.611z"/>
	<path class="st10" d="M404.181,258.303c-0.162-0.682-0.847-1.104-1.529-0.942c-0.143,0.034-0.278,0.092-0.401,0.172l-0.07,0.05
		c-0.499,0.444-0.544,1.209-0.1,1.708s1.209,0.544,1.708,0.1C404.096,259.118,404.244,258.709,404.181,258.303z"/>
	<path class="st10" d="M399.251,297.143c-0.168-0.687-0.861-1.107-1.547-0.94c-0.139,0.034-0.272,0.091-0.393,0.17l-0.07,0.06
		c-0.509,0.441-0.565,1.212-0.124,1.721c0.441,0.509,1.212,0.565,1.721,0.124c0.325-0.281,0.477-0.712,0.403-1.135H399.251z"/>
	<path class="st10" d="M371.041,325.193c-0.168-0.687-0.861-1.107-1.547-0.94c-0.139,0.034-0.272,0.091-0.393,0.17l-0.07,0.06
		c-0.499,0.445-0.542,1.21-0.097,1.708c0.445,0.499,1.21,0.542,1.708,0.097c0.308-0.275,0.455-0.688,0.389-1.096H371.041z"/>
	<path class="st10" d="M372.231,301.833c-0.168-0.687-0.861-1.107-1.547-0.94c-0.139,0.034-0.272,0.091-0.393,0.17l-0.07,0.06
		c-0.509,0.441-0.565,1.212-0.124,1.721c0.441,0.509,1.212,0.565,1.721,0.124c0.325-0.281,0.477-0.712,0.403-1.135H372.231z"/>
	<path class="st10" d="M389.241,258.503c-0.162-0.682-0.847-1.104-1.529-0.942c-0.143,0.034-0.278,0.092-0.401,0.172l-0.07,0.06
		c-0.499,0.445-0.542,1.21-0.097,1.708c0.445,0.499,1.21,0.542,1.708,0.097C389.161,259.324,389.307,258.911,389.241,258.503z"/>
	<path class="st10" d="M366.371,235.883c-0.162-0.682-0.847-1.104-1.529-0.942c-0.143,0.034-0.278,0.092-0.401,0.172l-0.07,0.05
		c-0.499,0.444-0.544,1.209-0.1,1.708s1.209,0.544,1.708,0.1C366.286,236.698,366.434,236.289,366.371,235.883z"/>
	<path class="st10" d="M365.501,272.353c-0.159-0.683-0.841-1.108-1.525-0.949c-0.148,0.034-0.289,0.095-0.415,0.179l-0.06,0.05
		c-0.499,0.444-0.544,1.209-0.1,1.708s1.209,0.544,1.708,0.1C365.416,273.168,365.564,272.759,365.501,272.353z"/>
	<path class="st10" d="M336.261,383.603c-0.174-0.679-0.866-1.089-1.545-0.915c-0.121,0.031-0.237,0.08-0.345,0.145l-0.07,0.05
		c-0.499,0.444-0.544,1.209-0.1,1.708s1.209,0.544,1.708,0.1c0.307-0.273,0.454-0.683,0.392-1.088H336.261z"/>
	<path class="st10" d="M302.711,365.303c-0.168-0.687-0.861-1.107-1.547-0.94c-0.139,0.034-0.272,0.091-0.393,0.17l-0.07,0.06
		c-0.499,0.445-0.542,1.21-0.097,1.708c0.445,0.499,1.21,0.542,1.708,0.097c0.308-0.275,0.455-0.688,0.389-1.096H302.711z"/>
	<path class="st10" d="M275.581,374.273c-0.168-0.687-0.861-1.107-1.547-0.94c-0.139,0.034-0.272,0.091-0.393,0.17l-0.06,0.05
		c-0.499,0.444-0.544,1.209-0.1,1.708s1.209,0.544,1.708,0.1C275.496,375.088,275.644,374.679,275.581,374.273z"/>
	<path class="st10" d="M272.681,389.723c-0.168-0.687-0.861-1.107-1.547-0.94c-0.139,0.034-0.272,0.091-0.393,0.17l-0.07,0.05
		c-0.499,0.444-0.544,1.209-0.1,1.708s1.209,0.544,1.708,0.1c0.307-0.273,0.454-0.683,0.392-1.088H272.681z"/>
	<path class="st10" d="M298.111,394.893c-0.168-0.687-0.861-1.107-1.547-0.94c-0.139,0.034-0.272,0.091-0.393,0.17l-0.06,0.06
		c-0.499,0.445-0.542,1.21-0.097,1.708c0.445,0.499,1.21,0.542,1.708,0.097C298.031,395.714,298.177,395.301,298.111,394.893z"/>
	<path class="st10" d="M289.611,360.293c-0.168-0.687-0.861-1.107-1.547-0.94c-0.139,0.034-0.272,0.091-0.393,0.17l-0.07,0.06
		c-0.509,0.441-0.565,1.212-0.124,1.721c0.441,0.509,1.212,0.565,1.721,0.124c0.325-0.281,0.477-0.712,0.403-1.135H289.611z"/>
	<path class="st10" d="M320.811,369.093c-0.159-0.683-0.841-1.108-1.525-0.949c-0.148,0.034-0.289,0.095-0.415,0.179l-0.06,0.05
		c-0.499,0.444-0.544,1.209-0.1,1.708s1.209,0.544,1.708,0.1C320.726,369.908,320.874,369.499,320.811,369.093z"/>
	<path class="st10" d="M394.981,360.243c-0.153-0.679-0.827-1.105-1.506-0.952c-0.151,0.034-0.295,0.096-0.424,0.182l-0.07,0.05
		c-0.499,0.444-0.544,1.209-0.1,1.708s1.209,0.544,1.708,0.1C394.896,361.058,395.044,360.649,394.981,360.243z"/>
	<path class="st10" d="M349.091,404.213c-0.168-0.687-0.861-1.107-1.547-0.94c-0.139,0.034-0.272,0.091-0.393,0.17l-0.07,0.06
		c-0.499,0.445-0.542,1.21-0.097,1.708c0.445,0.499,1.21,0.542,1.708,0.097c0.308-0.275,0.455-0.688,0.389-1.096H349.091z"/>
	<path class="st10" d="M368.661,379.733c-0.162-0.682-0.847-1.104-1.529-0.942c-0.143,0.034-0.278,0.092-0.401,0.172l-0.07,0.06
		c-0.499,0.445-0.542,1.21-0.097,1.708c0.445,0.499,1.21,0.542,1.708,0.097C368.581,380.554,368.727,380.141,368.661,379.733z"/>
	<path class="st10" d="M380.291,399.643c-0.155-0.69-0.839-1.124-1.529-0.969c-0.138,0.031-0.27,0.085-0.391,0.159l-0.06,0.06
		c-0.499,0.445-0.542,1.21-0.097,1.708c0.445,0.499,1.21,0.542,1.708,0.097c0.308-0.275,0.455-0.688,0.389-1.096L380.291,399.643z"
		/>
	<path class="st10" d="M347.941,295.383c-0.168-0.687-0.861-1.107-1.547-0.94c-0.139,0.034-0.272,0.091-0.393,0.17l-0.07,0.06
		c-0.499,0.445-0.542,1.21-0.097,1.708c0.445,0.499,1.21,0.542,1.708,0.097c0.308-0.275,0.455-0.688,0.389-1.096H347.941z"/>
	<path class="st10" d="M374.271,346.213c-0.168-0.687-0.861-1.107-1.547-0.94c-0.139,0.034-0.272,0.091-0.393,0.17l-0.07,0.05
		c-0.499,0.444-0.544,1.209-0.1,1.708s1.209,0.544,1.708,0.1c0.307-0.273,0.454-0.683,0.392-1.088H374.271z"/>
	<path class="st10" d="M365.731,365.463c-0.168-0.687-0.861-1.107-1.547-0.94c-0.139,0.034-0.272,0.091-0.393,0.17l-0.07,0.05
		c-0.499,0.444-0.544,1.209-0.1,1.708s1.209,0.544,1.708,0.1c0.307-0.273,0.454-0.683,0.392-1.088H365.731z"/>
	<path class="st10" d="M393.801,380.923c-0.168-0.687-0.861-1.107-1.547-0.94c-0.139,0.034-0.272,0.091-0.393,0.17l-0.07,0.06
		c-0.499,0.445-0.542,1.21-0.097,1.708c0.445,0.499,1.21,0.542,1.708,0.097c0.308-0.275,0.455-0.688,0.389-1.096H393.801z"/>
	<path class="st10" d="M316.991,403.253c-0.159-0.683-0.841-1.108-1.525-0.949c-0.148,0.034-0.289,0.095-0.415,0.179l-0.07,0.05
		c-0.499,0.444-0.544,1.209-0.1,1.708s1.209,0.544,1.708,0.1c0.307-0.273,0.454-0.683,0.392-1.088H316.991z"/>
	<path class="st10" d="M252.991,397.403c-0.168-0.687-0.861-1.107-1.547-0.94c-0.139,0.034-0.272,0.091-0.393,0.17l-0.07,0.06
		c-0.509,0.441-0.565,1.212-0.124,1.721c0.441,0.509,1.212,0.565,1.721,0.124c0.325-0.281,0.477-0.712,0.403-1.135H252.991z"/>
	<path class="st10" d="M309.371,386.893c-0.168-0.687-0.861-1.107-1.547-0.94c-0.139,0.034-0.272,0.091-0.393,0.17l-0.07,0.06
		c-0.509,0.441-0.565,1.212-0.124,1.721c0.441,0.509,1.212,0.565,1.721,0.124c0.325-0.281,0.477-0.712,0.403-1.135H309.371z"/>
	<path class="st10" d="M255.371,375.463c-0.159-0.683-0.841-1.108-1.525-0.949c-0.148,0.034-0.289,0.095-0.415,0.179l-0.06,0.05
		c-0.499,0.444-0.544,1.209-0.1,1.708s1.209,0.544,1.708,0.1C255.286,376.278,255.434,375.869,255.371,375.463z"/>
	<path class="st10" d="M345.571,339.163c-0.168-0.687-0.861-1.107-1.547-0.94c-0.139,0.034-0.272,0.091-0.393,0.17l-0.07,0.05
		c-0.499,0.444-0.544,1.209-0.1,1.708s1.209,0.544,1.708,0.1c0.307-0.273,0.454-0.683,0.392-1.088H345.571z"/>
	<path class="st10" d="M326.691,284.073c-0.168-0.687-0.861-1.107-1.547-0.94c-0.139,0.034-0.272,0.091-0.393,0.17h-0.07
		c-0.499,0.444-0.544,1.209-0.1,1.708s1.209,0.544,1.708,0.1c0.307-0.273,0.454-0.683,0.392-1.088L326.691,284.073z"/>
	<path class="st10" d="M321.971,331.833c-0.168-0.687-0.861-1.107-1.547-0.94c-0.139,0.034-0.272,0.091-0.393,0.17l-0.06,0.06
		c-0.499,0.445-0.542,1.21-0.097,1.708c0.445,0.499,1.21,0.542,1.708,0.097C321.891,332.654,322.037,332.241,321.971,331.833z"/>
	<path class="st10" d="M314.291,316.263c-0.168-0.687-0.861-1.107-1.547-0.94c-0.139,0.034-0.272,0.091-0.393,0.17h-0.06
		c-0.499,0.444-0.544,1.209-0.1,1.708s1.209,0.544,1.708,0.1c0.307-0.273,0.454-0.683,0.392-1.088V316.263z"/>
	<path class="st10" d="M348.261,365.243c-0.168-0.687-0.861-1.107-1.547-0.94c-0.139,0.034-0.272,0.091-0.393,0.17l-0.07,0.06
		c-0.509,0.441-0.565,1.212-0.124,1.721c0.441,0.509,1.212,0.565,1.721,0.124c0.325-0.281,0.477-0.712,0.403-1.135H348.261z"/>
	<path class="st10" d="M324.311,355.633c-0.144-0.686-0.818-1.126-1.504-0.981c-0.155,0.033-0.303,0.094-0.436,0.181l-0.07,0.06
		c-0.499,0.445-0.542,1.21-0.097,1.708c0.445,0.499,1.21,0.542,1.708,0.097c0.308-0.275,0.455-0.688,0.389-1.096L324.311,355.633z"
		/>
	<path class="st10" d="M334.561,302.883c-0.162-0.682-0.847-1.104-1.529-0.942c-0.143,0.034-0.278,0.092-0.401,0.172l-0.07,0.05
		c-0.499,0.444-0.544,1.209-0.1,1.708s1.209,0.544,1.708,0.1C334.476,303.698,334.624,303.289,334.561,302.883z"/>
	<path class="st10" d="M298.111,340.233c-0.168-0.687-0.861-1.107-1.547-0.94c-0.139,0.034-0.272,0.091-0.393,0.17l-0.06,0.06
		c-0.499,0.445-0.542,1.21-0.097,1.708c0.445,0.499,1.21,0.542,1.708,0.097C298.031,341.054,298.177,340.641,298.111,340.233z"/>
	<path class="st10" d="M354.371,323.093c-0.168-0.687-0.861-1.107-1.547-0.94c-0.139,0.034-0.272,0.091-0.393,0.17l-0.07,0.05
		c-0.499,0.444-0.544,1.209-0.1,1.708s1.209,0.544,1.708,0.1c0.307-0.273,0.454-0.683,0.392-1.088H354.371z"/>
	<path class="st10" d="M406.561,278.333c-0.168-0.687-0.861-1.107-1.547-0.94c-0.139,0.034-0.272,0.091-0.393,0.17l-0.07,0.06
		c-0.499,0.445-0.542,1.21-0.097,1.708c0.445,0.499,1.21,0.542,1.708,0.097c0.308-0.275,0.455-0.688,0.389-1.096H406.561z"/>
	<path class="st10" d="M385.371,244.443c-0.168-0.687-0.861-1.107-1.547-0.94c-0.139,0.034-0.272,0.091-0.393,0.17l-0.07,0.06
		c-0.499,0.445-0.542,1.21-0.097,1.708c0.445,0.499,1.21,0.542,1.708,0.097c0.308-0.275,0.455-0.688,0.389-1.096H385.371z"/>
	<path class="st10" d="M344.311,248.693c-0.168-0.687-0.861-1.107-1.547-0.94c-0.139,0.034-0.272,0.091-0.393,0.17l-0.07,0.05
		c-0.499,0.444-0.544,1.209-0.1,1.708s1.209,0.544,1.708,0.1c0.307-0.273,0.454-0.683,0.392-1.088H344.311z"/>
	<path class="st5" d="M302.421,127.043c-7.87,5-11,15.51-9.52,21.72c0.76,3.13,2.18,6.28,1.56,9.43c-0.53,2.73-2.5,4.92-4,7.28
		c-6.395,10.279-3.245,23.796,7.034,30.191c6.132,3.815,13.75,4.364,20.366,1.469"/>
	<path class="st5" d="M297.761,168.033c-19.16-42.14,26.42-63.31,51.28-56.29c23.37,6.6,33.34,18.23,37.19,33.86
		s3.66,32.58-2.47,47.47c-3,7.34-8.46,14.8-16.35,15.72"/>
	<path class="st7" d="M320.211,270.943c-0.33-20.14-0.57-47.79-0.57-47.68s-17.27-2.87-20.9-25.43
		c-1.78-11.23-1.21-29.64-0.27-44.69c0.86-13.55,9.83-30.17,23.33-28.74l42.15,10.65c4.103,0.431,7.19,3.936,7.1,8.06l0,0
		l-2.74,87.17"/>
	<path class="st5" d="M306.011,166.913c-0.034,1.559,1.182,2.86,2.74,2.93c1.512,0.141,2.853-0.97,2.994-2.482
		c0.002-0.026,0.004-0.052,0.006-0.078c0.029-1.559-1.183-2.859-2.74-2.94c-1.518-0.136-2.859,0.985-2.995,2.503
		C306.015,166.868,306.013,166.891,306.011,166.913z"/>
	<path class="st5" d="M335.931,166.913c-0.029,1.555,1.186,2.85,2.74,2.92c1.512,0.141,2.853-0.97,2.994-2.482
		c0.002-0.026,0.004-0.052,0.006-0.078c0.034-1.559-1.182-2.86-2.74-2.93c-1.512-0.141-2.852,0.971-2.993,2.483
		C335.935,166.855,335.933,166.884,335.931,166.913z"/>
	<path class="st5" d="M302.891,161.653c0.35,0.39,2.6-1.16,5.71-1s5.34,1.74,5.7,1.37c0.17-0.16-0.18-0.85-1.15-1.61
		c-1.314-0.982-2.9-1.531-4.54-1.57c-1.62-0.057-3.217,0.402-4.56,1.31C303.071,160.833,302.721,161.473,302.891,161.653z"/>
	<path class="st5" d="M332.471,162.393c0.36,0.38,2.55-1.26,5.66-1.26s5.41,1.54,5.74,1.16c0.17-0.17-0.2-0.85-1.2-1.57
		c-1.351-0.933-2.958-1.423-4.6-1.4c-1.62,0-3.197,0.519-4.5,1.48C332.611,161.543,332.291,162.223,332.471,162.393z"/>
	<path class="st5" d="M321.791,186.393c0-0.18-1.92-0.51-5.06-0.92c-0.8-0.08-1.55-0.24-1.68-0.78
		c-0.071-0.823,0.114-1.647,0.53-2.36c0.74-1.92,1.53-3.94,2.35-6.06c3.27-8.62,5.63-15.72,5.28-15.85s-3.28,6.76-6.54,15.39
		l-2.26,6.1c-0.501,0.959-0.646,2.064-0.41,3.12c0.235,0.567,0.718,0.995,1.31,1.16c0.439,0.124,0.894,0.188,1.35,0.19
		C319.821,186.553,321.781,186.563,321.791,186.393z"/>
	<path class="st8" d="M319.641,223.263c10.632,0.162,21.1-2.628,30.24-8.06c0,0-7.64,15.7-30.24,13.59V223.263z"/>
	<path class="st5" d="M331.701,157.963c0.3,0.85,3.42,0.44,7.07,0.89s6.61,1.43,7.1,0.67c0.22-0.36-0.3-1.16-1.49-2
		c-3.226-2.035-7.208-2.474-10.8-1.19C332.241,156.893,331.561,157.563,331.701,157.963z"/>
	<path class="st5" d="M303.611,153.833c0.55,0.71,2.7,0,5.28-0.06s4.77,0.48,5.27-0.26c0.22-0.36-0.12-1.07-1.08-1.74
		c-1.275-0.823-2.774-1.229-4.29-1.16c-1.516,0.03-2.986,0.525-4.21,1.42C303.671,152.743,303.371,153.473,303.611,153.833z"/>
	<path class="st7" d="M367.181,172.833c0.33-0.16,12.09-5.36,12.23,8.16s-13.47,10.87-13.5,10.48S367.181,172.833,367.181,172.833z"
		/>
	<path class="st8" d="M369.991,186.293c0.06,0,0.24,0.16,0.64,0.34c0.565,0.225,1.195,0.225,1.76,0c1.42-0.54,2.6-2.82,2.64-5.26
		c0.03-1.158-0.206-2.308-0.69-3.36c-0.263-0.857-0.933-1.527-1.79-1.79c-0.559-0.144-1.141,0.134-1.38,0.66
		c-0.18,0.38-0.09,0.65-0.16,0.67s-0.3-0.22-0.19-0.78c0.071-0.335,0.254-0.635,0.52-0.85c0.368-0.288,0.836-0.417,1.3-0.36
		c1.13,0.212,2.069,0.996,2.48,2.07c0.589,1.164,0.884,2.455,0.86,3.76c-0.06,2.72-1.43,5.29-3.38,5.87
		c-0.733,0.221-1.527,0.1-2.16-0.33C370.021,186.623,369.951,186.313,369.991,186.293z"/>
	<path class="st5" d="M317.301,117.713c-7.52,3.89-10.62,19.27-7.51,27.15s11.5,11.72,19.77,13.53s16.38,2,24.54-0.24
		c0.56,5.48,3.85,11.11,9.17,12.56c7.05,1.91,14.15-4.54,15.72-11.67s-0.79-14.47-3.11-21.4"/>
	<path class="st5" d="M376.951,166.763c0,0-0.34,0.4-1.05,1c-0.993,0.84-2.031,1.625-3.11,2.35c-1.613,1.113-3.387,1.973-5.26,2.55
		c-2.339,0.738-4.854,0.699-7.17-0.11c-2.28-0.918-4.19-2.568-5.43-4.69c-1.005-1.695-1.667-3.57-1.95-5.52
		c-0.197-1.297-0.268-2.61-0.21-3.92c-0.022-0.479,0.036-0.959,0.17-1.42c0.15,0,0,2.05,0.58,5.24c0.343,1.854,1.021,3.629,2,5.24
		c1.188,1.955,2.972,3.476,5.09,4.34c2.167,0.749,4.514,0.798,6.71,0.14c1.816-0.525,3.55-1.303,5.15-2.31
		C375.251,167.913,376.871,166.653,376.951,166.763z"/>
	<path class="st8" d="M322.711,195.073c0.398,1.172,0.964,2.28,1.68,3.29c0.728,1.023,1.861,1.683,3.11,1.81
		c1.34-0.009,2.586-0.689,3.32-1.81c0.697-1.132,1.019-2.455,0.92-3.78c-0.05-1.19-0.6-2.61-1.78-2.75
		c-0.496-0.018-0.989,0.093-1.43,0.32l-6.22,2.52"/>
	<path class="st5" d="M325.191,200.183c0-0.19,1.4,0.36,3.32-0.41c1.089-0.42,1.983-1.229,2.51-2.27
		c0.603-1.284,0.632-2.763,0.08-4.07c-0.144-0.33-0.325-0.642-0.54-0.93c-0.25-0.26-0.21-0.25-0.47-0.21s-0.67,0.26-1,0.39l-1,0.42
		c-1.33,0.54-2.54,1-3.55,1.39c-2,0.76-3.33,1.16-3.39,1s1.12-0.8,3.08-1.74c1-0.47,2.15-1,3.46-1.61l1-0.45
		c0.37-0.15,0.64-0.31,1.14-0.47c0.299-0.099,0.621-0.099,0.92,0c0.273,0.117,0.511,0.303,0.69,0.54
		c1.363,1.772,1.563,4.178,0.51,6.15c-0.67,1.238-1.808,2.156-3.16,2.55c-0.869,0.286-1.801,0.324-2.69,0.11
		C325.461,200.463,325.171,200.253,325.191,200.183z"/>
	<path class="st6" d="M382.371,163.563c-1.38-0.1-12.55,1.35-11.67,22.1c0.82,19.39,14.42,15.12,18.76,7.82
		C393.541,186.573,395.921,164.513,382.371,163.563z"/>
	<path class="st6" d="M389.241,166.013c-0.031-0.178-0.048-0.359-0.05-0.54c0-0.41,0-0.93-0.06-1.59c0-1.43-0.1-3.43-0.17-5.91
		c-0.1-5.09-0.24-12.18-0.41-20.35l0.25,0.24h-5.75l0.26-0.26c0,1.54,0.08,3.17,0.13,4.83c0.19,7.78,0.37,15,0.52,21.11v0.18h-0.17
		c-2.361,0.544-4.458,1.895-5.93,3.82c-1.115,1.492-1.921,3.192-2.37,5c-0.3,1.165-0.504,2.352-0.61,3.55
		c0,0.41-0.05,0.73-0.06,0.94s0,0.33,0,0.33c-0.013-0.11-0.013-0.22,0-0.33c0-0.21,0-0.53,0-0.95c0.049-1.213,0.216-2.419,0.5-3.6
		c0.417-1.861,1.21-3.617,2.33-5.16c1.509-2.004,3.67-3.418,6.11-4l-0.17,0.22c-0.17-6.07-0.38-13.32-0.6-21.11
		c-0.05-1.65-0.09-3.28-0.13-4.83v-0.27h6.27v0.25c0.09,8.18,0.17,15.26,0.23,20.36c0,2.48,0,4.48,0,5.91c0,0.66,0,1.18,0,1.58
		C389.348,165.631,389.308,165.826,389.241,166.013z"/>
	<path class="st6" d="M382.371,137.613c0,0-5.84-13.66-19.75-20.41c-5.32-2.65-10.909-4.722-16.67-6.18c0,0,8.12-1.92,21.25,3.92
		c6,2.66,12,6.11,16,11.3c2.52,3.29,5.68,9.72,5.67,11.37H382.371z"/>
	<path class="st10" d="M346.371,303.083c0,0,0.08-0.1,0.25-0.27s0.43-0.43,0.75-0.78c0.96-1.015,1.861-2.083,2.7-3.2
		c1.335-1.787,2.554-3.657,3.65-5.6c1.3-2.27,2.66-4.95,4.13-7.94c2.95-6,6.36-13.22,9.9-21.52c1.76-4.15,3.56-8.56,5.36-13.21
		l1.34-3.52c0.422-1.232,0.961-2.421,1.61-3.55c0.692-1.171,1.696-2.126,2.9-2.76c0.613-0.337,1.301-0.512,2-0.51
		c0.382,0.026,0.749,0.158,1.06,0.38c0.295,0.239,0.526,0.549,0.67,0.9v0.07v0.08c-0.085,0.476-0.269,0.929-0.54,1.33
		c-0.302,0.417-0.747,0.709-1.25,0.82c-0.961,0.133-1.939-0.046-2.79-0.51c-1.839-0.858-2.858-2.858-2.47-4.85
		c0.204-0.995,0.789-1.871,1.63-2.44c0.83-0.579,1.83-0.864,2.84-0.81c1.063,0.007,2.05,0.553,2.62,1.45
		c0.289,0.516,0.25,1.153-0.1,1.63c-0.33,0.418-0.77,0.737-1.27,0.92c-1.722,0.654-3.669,0.102-4.79-1.36
		c-0.532-0.726-0.764-1.628-0.65-2.52c0.088-0.87,0.436-1.692,1-2.36c0.573-0.674,1.374-1.116,2.25-1.24
		c0.897-0.117,1.797,0.194,2.43,0.84c0.32,0.344,0.492,0.8,0.48,1.27c-0.011,0.473-0.222,0.92-0.58,1.23
		c-0.662,0.595-1.568,0.841-2.44,0.66c-0.842-0.22-1.55-0.787-1.95-1.56c-0.388-0.717-0.635-1.501-0.73-2.31
		c-0.282-1.572-0.098-3.192,0.53-4.66c0.35-0.749,0.957-1.348,1.71-1.69c0.77-0.285,1.621-0.256,2.37,0.08
		c0.8,0.289,1.369,1.005,1.47,1.85c0.041,0.868-0.467,1.668-1.27,2c-0.722,0.37-1.578,0.37-2.3,0
		c-0.677-0.391-1.186-1.018-1.43-1.76c-0.226-0.704-0.271-1.454-0.13-2.18c0.078-0.708,0.232-1.405,0.46-2.08
		c0.226-0.694,0.646-1.308,1.21-1.77c0.554-0.445,1.199-0.762,1.89-0.93c0.359-0.103,0.741-0.103,1.1,0
		c0.345,0.119,0.656,0.318,0.91,0.58c0.255,0.25,0.455,0.55,0.59,0.88c0.145,0.356,0.145,0.754,0,1.11
		c-0.33,0.674-1.043,1.072-1.79,1c-0.677-0.01-1.334-0.23-1.88-0.63c-1.036-0.764-1.75-1.887-2-3.15
		c-0.262-1.247-0.066-2.545,0.55-3.66c0.271-0.535,0.657-1.003,1.13-1.37c0.467-0.354,1.012-0.591,1.59-0.69
		c0.577-0.117,1.178-0.033,1.7,0.24c0.525,0.285,0.871,0.815,0.92,1.41c-0.006,1.135-0.78,2.122-1.88,2.4
		c-1.024,0.218-2.081-0.171-2.72-1c-0.601-0.723-0.951-1.621-1-2.56c0.087-1.635,0.424-3.247,1-4.78c0.41-1.44,0.78-2.76,1.12-3.94
		c0.67-2.35,1.19-4.18,1.56-5.44c0.17-0.61,0.31-1.08,0.41-1.41s0.16-0.48,0.16-0.48s0,0.17-0.11,0.49s-0.21,0.82-0.36,1.43
		c-0.34,1.27-0.84,3.11-1.47,5.46l-1.07,3.95c-0.34,1.45-1,3-0.93,4.7c0.073,0.879,0.423,1.713,1,2.38
		c0.564,0.732,1.494,1.081,2.4,0.9c0.922-0.237,1.579-1.049,1.62-2c-0.042-0.477-0.32-0.901-0.74-1.13
		c-0.452-0.224-0.966-0.291-1.46-0.19c-0.524,0.09-1.018,0.306-1.44,0.63c-0.419,0.34-0.76,0.766-1,1.25
		c-0.496,1.026-0.626,2.19-0.37,3.3c0.24,1.161,0.903,2.191,1.86,2.89c0.479,0.344,1.05,0.536,1.64,0.55
		c0.567,0.068,1.117-0.223,1.38-0.73c0.126-0.566-0.08-1.155-0.53-1.52c-0.206-0.208-0.455-0.369-0.73-0.47
		c-0.285-0.075-0.585-0.075-0.87,0c-1.281,0.278-2.327,1.197-2.77,2.43c-0.218,0.648-0.362,1.319-0.43,2
		c-0.135,0.666-0.094,1.355,0.12,2c0.199,0.63,0.627,1.162,1.2,1.49c0.589,0.294,1.281,0.294,1.87,0c0.612-0.238,1.011-0.833,1-1.49
		c-0.091-0.659-0.542-1.211-1.17-1.43c-0.634-0.277-1.349-0.302-2-0.07c-0.639,0.298-1.152,0.811-1.45,1.45
		c-0.574,1.381-0.737,2.898-0.47,4.37c0.088,0.746,0.315,1.468,0.67,2.13c0.33,0.643,0.914,1.118,1.61,1.31
		c0.713,0.153,1.456-0.044,2-0.53c0.513-0.454,0.561-1.238,0.107-1.75c-0.012-0.013-0.024-0.027-0.037-0.04
		c-0.527-0.521-1.266-0.769-2-0.67c-0.752,0.11-1.436,0.495-1.92,1.08c-1.079,1.159-1.228,2.905-0.36,4.23
		c0.986,1.264,2.678,1.742,4.18,1.18c0.392-0.161,0.736-0.419,1-0.75c0.23-0.317,0.253-0.739,0.06-1.08
		c-0.488-0.732-1.31-1.171-2.19-1.17c-1.825-0.142-3.486,1.054-3.93,2.83c-0.335,1.717,0.527,3.445,2.1,4.21
		c0.743,0.422,1.603,0.591,2.45,0.48c0.78-0.243,1.335-0.935,1.4-1.75v0.15c-0.198-0.565-0.713-0.958-1.31-1
		c-0.62-0.003-1.23,0.156-1.77,0.46c-1.127,0.59-2.066,1.483-2.71,2.58c-0.634,1.096-1.16,2.252-1.57,3.45l-1.36,3.53
		c-1.8,4.64-3.62,9-5.4,13.2c-3.56,8.3-7,15.54-10,21.5c-1.49,3-2.87,5.65-4.2,7.92c-1.121,1.936-2.367,3.797-3.73,5.57
		C349.057,300.442,347.784,301.836,346.371,303.083z"/>
	<path class="st6" d="M394.461,153.833c-0.122-1.271-0.428-2.518-0.91-3.7c-1.453-3.181-4.001-5.733-7.18-7.19
		c-2.183-0.986-4.529-1.559-6.92-1.69c-2.752-0.142-5.511,0.067-8.21,0.62c-5.73,1.06-11.75,3.53-18.49,4.55
		c-3.286,0.435-6.614,0.435-9.9,0c-3.05-0.459-6.037-1.271-8.9-2.42c-4.861-1.958-9.281-4.868-13-8.56
		c-2.503-2.469-4.62-5.3-6.28-8.4c-0.28-0.472-0.528-0.964-0.74-1.47l-0.48-1.11c-0.12-0.27-0.21-0.5-0.29-0.68
		c-0.038-0.076-0.065-0.156-0.08-0.24c0.053,0.067,0.096,0.141,0.13,0.22l0.33,0.66l0.53,1.08c0.228,0.5,0.489,0.984,0.78,1.45
		c1.715,3.034,3.857,5.805,6.36,8.23c5.904,5.782,13.492,9.54,21.67,10.73c3.239,0.43,6.521,0.43,9.76,0
		c6.65-1,12.68-3.46,18.48-4.5c2.737-0.547,5.533-0.742,8.32-0.58c2.442,0.148,4.833,0.755,7.05,1.79
		c3.233,1.514,5.798,4.161,7.21,7.44c0.351,0.892,0.583,1.827,0.69,2.78v0.74C394.427,153.662,394.451,153.747,394.461,153.833z"/>
	<path class="st6" d="M379.371,132.283c-0.237,0.058-0.477,0.098-0.72,0.12c-0.47,0.07-1.17,0.17-2.06,0.33
		c-1.78,0.29-4.33,0.86-7.47,1.64c-3.673,0.99-7.413,1.715-11.19,2.17c-4.642,0.475-9.324,0.371-13.94-0.31
		c-4.617-0.67-9.139-1.885-13.47-3.62c-3.551-1.406-6.951-3.164-10.15-5.25c-1.34-0.91-2.54-1.75-3.56-2.55s-1.88-1.49-2.54-2.11
		l-1.52-1.43c-0.34-0.33-0.52-0.51-0.5-0.53c0.204,0.132,0.394,0.283,0.57,0.45l1.58,1.35c0.68,0.6,1.59,1.24,2.59,2
		s2.24,1.59,3.58,2.47c7.129,4.497,15.12,7.45,23.46,8.67c4.579,0.671,9.223,0.785,13.83,0.34c3.755-0.408,7.477-1.077,11.14-2
		c3.15-0.73,5.73-1.25,7.53-1.49c0.9-0.12,1.6-0.19,2.08-0.22C378.863,132.277,379.118,132.267,379.371,132.283z"/>
	<path class="st5" d="M380.851,199.283c-0.134-0.026-0.265-0.066-0.39-0.12c-0.348-0.147-0.683-0.324-1-0.53
		c-1.209-0.795-2.213-1.864-2.93-3.12c-1.026-1.879-1.639-3.955-1.8-6.09c-0.23-2.582-0.23-5.178,0-7.76
		c0.216-2.581,0.645-5.139,1.28-7.65c0.454-2.074,1.205-4.071,2.23-5.93c0.738-1.261,1.766-2.327,3-3.11
		c0.315-0.207,0.65-0.382,1-0.52c0.25-0.09,0.39-0.13,0.39-0.11s-0.51,0.23-1.32,0.8c-1.13,0.827-2.065,1.892-2.74,3.12
		c-0.962,1.851-1.662,3.826-2.08,5.87c-0.607,2.491-1.022,5.025-1.24,7.58c-0.21,2.549-0.21,5.111,0,7.66
		c0.128,2.092,0.686,4.134,1.64,6c0.66,1.237,1.59,2.31,2.72,3.14C380.371,199.043,380.881,199.233,380.851,199.283z"/>
	<path class="st6" d="M325.611,198.207l10.264-2.014c1.545-0.303,3.042,0.703,3.345,2.248l0.075,0.383
		c0.303,1.545-0.703,3.042-2.248,3.345l-10.264,2.014c-1.545,0.303-3.042-0.703-3.345-2.248l-0.075-0.383
		C323.06,200.008,324.066,198.51,325.611,198.207z"/>
	<path class="st6" d="M337.841,197.713l47.45-14.88c1.173-0.367,2.422,0.28,2.8,1.45l0,0c0.376,1.185-0.28,2.449-1.465,2.825
		c-0.028,0.009-0.057,0.017-0.085,0.025l-48.52,13.1L337.841,197.713z"/>
	<path class="st5" d="M372.911,191.173c0.508-0.224,1.033-0.408,1.57-0.55l4.34-1.32c1.82-0.56,4.06-1.16,6.42-1.93
		c0.583-0.217,1.112-0.558,1.55-1c0.432-0.44,0.673-1.033,0.67-1.65c-0.005-0.622-0.408-1.17-1-1.36
		c-0.659-0.168-1.352-0.147-2,0.06l-14.23,4.58l-4.33,1.34c-0.496,0.204-1.008,0.368-1.53,0.49c0.5-0.243,1.018-0.447,1.55-0.61
		l4.28-1.5c3.63-1.23,8.61-2.94,14.21-4.73c0.745-0.216,1.535-0.216,2.28,0c0.778,0.281,1.303,1.013,1.32,1.84
		c0.001,0.749-0.294,1.467-0.82,2c-0.526,0.462-1.148,0.803-1.82,1c-2.45,0.77-4.64,1.31-6.49,1.83l-4.34,1.17
		C374.01,190.997,373.464,191.111,372.911,191.173z"/>
	<path class="st5" d="M295.371,154.833c1.62,5.7-4.17,10.59-6.21,16.16c-2,5.38-0.3,11.41,2.13,16.61s5.63,10.12,6.87,15.71
		c3.07,13.8-9.41,28.67-7,42.6c0.86,5.08,2.91,10.38,4.68,15.21c1.71,4.555,1.71,9.575,0,14.13c-2.7,8-7.28,11.75-10.5,19.53
		c-1.65,4-1.52,8.44-1.44,12.74s0.06,8.8-1.86,12.66s-6.3,6.84-10.46,5.72c4.615,5.171,12.127,6.602,18.32,3.49
		c5.47-2.92,8.53-8.84,11.15-14.46c12.68-27.21,19.39-29.51,19-59.53c0-1.93-0.38-32-0.38-32c-2.628-0.705-5.148-1.765-7.49-3.15
		c-14.16-9.78-14.68-27.2-14.57-40.71"/>
	<path class="st7" d="M323.671,245.913v11.33c0,0-8.71,44.45-11.33,69.14s-3.05,31.21-3.05,31.21s6.25,9.75,19.32-6.81
		s15.4-19.17,20.63-19.46c0,0-6.39-69.43-6.1-72c0.324-1.823,1.124-3.527,2.32-4.94L323.671,245.913z"/>
	<path class="st7" d="M340.811,220.353c0,0-14.23,18.88-15.39,21.48s-1.75,4.06-1.75,4.06l21.79,8.43l21.21-23.24l7.84-20.63
		l-2.33-24.4c0,0-4.64-0.29-5.51,3.78c-0.533,2.577-0.732,5.212-0.59,7.84l-6.5-5.23l-10.49-3.19c0,0-2.47,4.06,1.6,6.1
		s5.23,2,5.23,2l3.66,6.39l-1.6,7.16l-7.42-7c-1.483-1.4-3.753-1.543-5.4-0.34l-4.8,3.48l-4.49-2l-8.71,7.79l-3.49,3.19
		c0,0,2.33,4.36,7,2.33l4.65-2L340.811,220.353z"/>
	<path class="st8" d="M323.671,249.743c-0.013-0.203-0.013-0.407,0-0.61c0-0.4,0.05-1,0.14-1.77c0.117-0.962,0.301-1.914,0.55-2.85
		c0.311-1.292,0.824-2.528,1.52-3.66c3.26-5,8.39-12,14.79-20.61v0.26l-5.52-4.06h0.19l-2.87,1.27
		c-0.985,0.48-2.009,0.878-3.06,1.19c-1.144,0.274-2.348,0.136-3.4-0.39c-1.07-0.55-1.959-1.398-2.56-2.44l-0.08-0.14l0.13-0.12
		c3.74-3.52,7.91-7.07,12.19-10.87l0.13-0.11l0.14,0.08l3.87,2.29h-0.25l4.52-3c0.79-0.51,1.5-1,2.35-1.52
		c0.944-0.469,2.07-0.372,2.92,0.25l8.81,7.45l-0.41,0.14c0.48-2.15,1-4.48,1.52-6.83v0.18l-3.66-6.39l0.23,0.13
		c-0.622-0.085-1.23-0.249-1.81-0.49c-0.57-0.21-1.14-0.45-1.71-0.7s-1.13-0.53-1.69-0.8c-0.29-0.14-0.57-0.33-0.85-0.49
		c-0.274-0.195-0.528-0.416-0.76-0.66c-0.679-0.719-1.039-1.682-1-2.67c0.032-0.956,0.296-1.889,0.77-2.72l0.1-0.17l0.2,0.06
		l10.48,3.2h0.05l0,0l6.5,5.23l-0.41,0.22c-0.14-2.59,0.045-5.186,0.55-7.73c0.215-1.327,0.986-2.498,2.12-3.22
		c1.118-0.66,2.403-0.983,3.7-0.93h0.27v0.22c0.82,8.67,1.59,16.85,2.3,24.4l0,0v0.05c-2.9,7.6-5.54,14.5-7.88,20.61l0,0l0,0
		l-16.42,18.12l-4.46,4.83c-0.51,0.53-0.9,0.95-1.17,1.24l-0.41,0.41c0,0,0.12-0.16,0.37-0.45l1.13-1.27l4.4-4.89l16.34-18v0.05
		l7.8-20.64v0.1c-0.73-7.55-1.51-15.72-2.35-24.4l0.23,0.23c-1.193-0.049-2.374,0.25-3.4,0.86c-1.019,0.648-1.709,1.706-1.89,2.9
		c-0.501,2.497-0.683,5.047-0.54,7.59v0.58l-0.45-0.36l-6.6-5.26h0.09l-10.48-3.19l0.29-0.12c-0.422,0.754-0.658,1.597-0.69,2.46
		c-0.037,0.854,0.273,1.688,0.86,2.31c0.207,0.211,0.431,0.405,0.67,0.58c0.27,0.15,0.51,0.31,0.79,0.45
		c0.56,0.27,1.11,0.55,1.67,0.79c1.053,0.514,2.165,0.9,3.31,1.15h0.16l0.06,0.1l3.66,6.39l0.05,0.09v0.1
		c-0.53,2.35-1,4.68-1.53,6.83l-0.09,0.42l-0.33-0.28l-8.78-7.43c-0.695-0.518-1.622-0.603-2.4-0.22c-0.74,0.44-1.54,1-2.3,1.49
		l-4.53,3l-0.12,0.08l-0.13-0.07l-3.87-2.3h0.28c-4.28,3.78-8.46,7.33-12.21,10.83l0.05-0.26c0.552,0.965,1.372,1.75,2.36,2.26
		c0.963,0.49,2.07,0.618,3.12,0.36c1.03-0.301,2.033-0.686,3-1.15l2.87-1.26h0.11l0.09,0.06l5.51,4.08l0.15,0.11l-0.11,0.15
		c-6.43,8.61-11.61,15.55-14.91,20.5c-0.695,1.112-1.217,2.322-1.55,3.59c-0.255,0.927-0.452,1.869-0.59,2.82
		c-0.11,0.77-0.16,1.37-0.19,1.76S323.671,249.743,323.671,249.743z"/>
	<path class="st8" d="M350.631,224.723c-0.1,0,0.28-1.54,0.44-4c0.105-1.434-0.128-2.873-0.68-4.2
		c-0.834-1.555-2.023-2.891-3.47-3.9c-2.584-1.981-5.278-3.814-8.07-5.49l-2.55-1.5c-0.328-0.162-0.636-0.36-0.92-0.59
		c0.352,0.086,0.689,0.224,1,0.41c0.64,0.29,1.55,0.75,2.65,1.36c2.862,1.597,5.603,3.401,8.2,5.4
		c1.513,1.055,2.742,2.467,3.58,4.11c0.574,1.398,0.788,2.918,0.62,4.42c-0.085,0.991-0.249,1.975-0.49,2.94
		C350.887,224.042,350.783,224.392,350.631,224.723z"/>
	<path class="st8" d="M365.881,215.663c0.064-0.881,0.188-1.756,0.37-2.62c0.312-2.085,0.462-4.192,0.45-6.3
		c-0.027-2.114-0.214-4.224-0.56-6.31c-0.193-0.857-0.33-1.725-0.41-2.6c0.368,0.806,0.626,1.656,0.77,2.53
		c0.923,4.196,0.96,8.539,0.11,12.75C366.482,213.992,366.237,214.849,365.881,215.663z"/>
</g>
<g id="freepik--speech-bubble--inject-146">
	<path class="st10" d="M268.771,141.563l-10.4-18.37c14.249-23.143,7.038-53.456-16.105-67.704
		c-23.143-14.249-53.456-7.038-67.704,16.105s-7.038,53.456,16.105,67.704c17.443,10.739,39.714,9.55,55.914-2.985l0,0
		L268.771,141.563z"/>
	<path class="st5" d="M268.771,141.563l-22.26-5.1h-0.19l0.12-0.16l0,0l0.18,0.18c-3.118,2.421-6.512,4.465-10.11,6.09
		c-4.284,1.917-8.82,3.21-13.47,3.84c-2.577,0.359-5.18,0.489-7.78,0.39c-1.33-0.07-2.7-0.11-4.07-0.22l-4.15-0.63
		c-12.369-2.448-23.338-9.523-30.67-19.78c-4.093-5.667-6.924-12.146-8.3-19c-1.42-7.237-1.222-14.699,0.58-21.85
		c1.854-7.475,5.464-14.4,10.53-20.2l2-2.21c0.66-0.74,1.45-1.35,2.16-2c0.709-0.704,1.453-1.372,2.23-2l2.36-1.76
		c0.776-0.576,1.592-1.097,2.44-1.56l2.49-1.51l2.61-1.25c0.849-0.449,1.728-0.84,2.63-1.17c6.988-2.76,14.505-3.919,22-3.39
		c7.091,0.497,13.987,2.545,20.2,6c11.168,6.215,19.518,16.488,23.32,28.69c1.527,5.193,2.249,10.589,2.14,16
		c-0.13,4.688-0.939,9.333-2.4,13.79c-1.221,3.708-2.876,7.26-4.93,10.58v-0.13l10.31,18.43c-0.44-0.77-3.78-6.56-10.53-18.31v-0.06
		v-0.06c2.021-3.313,3.649-6.85,4.85-10.54c1.426-4.436,2.21-9.052,2.33-13.71c0.087-5.363-0.645-10.708-2.17-15.85
		c-3.797-12.081-12.088-22.244-23.16-28.39c-6.156-3.4-12.983-5.411-20-5.89c-7.424-0.523-14.871,0.629-21.79,3.37
		c-0.892,0.327-1.761,0.714-2.6,1.16l-2.58,1.25l-2.47,1.5c-0.844,0.469-1.65,1.004-2.41,1.6l-2.34,1.74
		c-0.79,0.56-1.46,1.29-2.2,1.92s-1.48,1.28-2.14,2l-2,2.18c-5.012,5.745-8.584,12.6-10.42,20c-1.785,7.079-1.986,14.464-0.59,21.63
		c1.363,6.776,4.159,13.182,8.2,18.79c7.28,10.142,18.137,17.144,30.38,19.59l4.11,0.63c1.36,0.12,2.72,0.15,4,0.23
		c2.579,0.104,5.162-0.016,7.72-0.36c8.549-1.132,16.647-4.506,23.47-9.78l0.78-0.6l-0.6,0.79l0,0l-0.08-0.21L268.771,141.563z"/>
	<path class="st5" d="M205.841,97.463c0,2.209-1.791,4-4,4s-4-1.791-4-4s1.791-4,4-4S205.841,95.254,205.841,97.463z"/>
	<path class="st5" d="M221.801,97.463c0,2.209-1.791,4-4,4s-4-1.791-4-4s1.791-4,4-4S221.801,95.254,221.801,97.463z"/>
	<path class="st5" d="M237.731,95.463c1.11,1.91,0.461,4.358-1.45,5.468c-1.91,1.11-4.358,0.461-5.468-1.45s-0.461-4.358,1.45-5.468
		c0.006-0.003,0.012-0.007,0.018-0.01C234.19,92.907,236.626,93.56,237.731,95.463z"/>
</g>
<g id="freepik--Table--inject-146">
	<path class="st5" d="M465.371,410.973c0,0.15-101.66,0.26-227,0.26s-227-0.11-227-0.26s101.63-0.26,227.05-0.26
		S465.371,410.833,465.371,410.973z"/>
</g>
<g id="freepik--Device--inject-146">
	<path class="st6" d="M336.921,411.223c4.761-7.245,12.728-11.744,21.39-12.08c14.61-0.5,21.91,12.08,21.91,12.08H336.921z"/>
	<path class="st5" d="M364.921,410.833c-0.193-0.716-0.337-1.444-0.43-2.18c-0.785-3.469-2.854-6.513-5.79-8.52
		c-0.647-0.362-1.271-0.763-1.87-1.2c0.755,0.116,1.475,0.396,2.11,0.82c3.228,1.884,5.433,5.125,6,8.82
		C365.098,409.319,365.091,410.09,364.921,410.833z"/>
	<path class="st6" d="M327.881,410.693v-0.1c-0.049-3.061-2.548-5.516-5.61-5.51h-124.34c-3.098,0-5.61,2.512-5.61,5.61
		L327.881,410.693L327.881,410.693z"/>
	<path class="st5" d="M89.841,192.833c0,2.62,2,158.78,2,158.78l116,27.91h9.53l-6.1-218h-8.72L89.841,192.833z"/>
	<path class="st5" d="M114.371,345.123l-35.95,65.88h32.86c-5.88-0.58,52,0,52,0l-52-13.79l16.27-36.95l-1.39-15.14L114.371,345.123
		z"/>
	<polygon class="st5" points="115.171,357.283 111.281,234.483 146.601,231.103 150.951,362.213 138.341,362.853 	"/>
	<path class="st6" d="M155.891,367.073c0,0,0-0.19,0-0.57s0-0.95,0-1.68c0-1.5,0-3.69,0-6.52c0-5.71-0.05-14-0.08-24.43
		c0-20.87-0.05-50.24-0.09-84.3l0.25,0.25h-41.75l0.26-0.26v5.66c0,33.22,0,64.13-0.05,89.89l0,0v0.05
		c-10.82,19.83-19.79,36.29-26.07,47.79c-3.14,5.74-5.61,10.24-7.3,13.32c-0.84,1.52-1.49,2.68-1.93,3.49s-0.69,1.18-0.69,1.18
		s0.21-0.42,0.63-1.21s1.06-2,1.87-3.53c1.67-3.09,4.1-7.61,7.2-13.37l25.9-47.88v0.11c0-25.76,0-56.67,0-89.89v-5.92h42.18v0.25
		c0,34.06-0.07,63.43-0.09,84.3c0,10.42-0.06,18.72-0.08,24.43c0,2.83,0,5,0,6.52c0,0.73,0,1.29,0,1.68
		S155.891,367.073,155.891,367.073z"/>
	<path class="st6" d="M127.551,360.263c0.13,0.05-4.87,11.62-11.17,25.82s-11.52,25.68-11.65,25.62s4.87-11.62,11.17-25.83
		S127.421,360.203,127.551,360.263z"/>
	<path class="st6" d="M207.791,379.563c0,0,0-0.19,0-0.56s0-0.94,0-1.65c0-1.47-0.05-3.6-0.08-6.34c0-5.5-0.17-13.46-0.36-23.3
		c-0.37-19.68-1.26-46.85-2.35-76.86s-1.92-57.21-2.2-76.89c-0.15-9.84-0.22-17.81-0.19-23.31c0-2.74,0-4.87,0-6.34
		c0-0.71,0-1.25,0-1.65s0-0.56,0-0.56s0,0.19,0,0.56s0,0.94,0,1.65c0,1.47,0,3.6,0.08,6.34c0,5.5,0.16,13.46,0.36,23.3
		c0.43,19.68,1.32,46.88,2.41,76.88s1.92,57.19,2.2,76.87c0.15,9.84,0.21,17.81,0.19,23.31c0,2.74,0,4.87,0,6.34
		c0,0.71,0,1.26,0,1.65S207.791,379.563,207.791,379.563z"/>
	<path class="st6" d="M149.561,248.663c0.15,0,0.26,26.12,0.26,58.33s-0.11,58.33-0.26,58.33s-0.26-26.11-0.26-58.33
		S149.421,248.663,149.561,248.663z"/>
	<path class="st6" d="M87.071,400.723c-0.189-0.216-0.357-0.451-0.5-0.7c-0.17-0.24-0.36-0.53-0.58-0.86
		c-0.265-0.392-0.505-0.799-0.72-1.22c-1.466-2.646-2.534-5.493-3.17-8.45c-0.922-4.395-1.132-8.909-0.62-13.37
		c0.626-5.462,2.09-10.794,4.34-15.81c1.191-2.59,2.713-5.013,4.53-7.21c0.414-0.545,0.858-1.065,1.33-1.56
		c0.46-0.5,0.9-1,1.36-1.48c1-0.91,1.87-1.84,2.86-2.63c1.824-1.552,3.767-2.96,5.81-4.21c1-0.54,1.91-1.11,2.85-1.56
		s1.83-0.93,2.73-1.25c2.779-1.191,5.716-1.972,8.72-2.32c0.812-0.111,1.631-0.161,2.45-0.15c0.286-0.024,0.574-0.024,0.86,0
		c-0.281,0.048-0.565,0.078-0.85,0.09c-0.814,0.037-1.625,0.121-2.43,0.25c-2.969,0.422-5.866,1.25-8.61,2.46
		c-0.89,0.33-1.75,0.83-2.69,1.26s-1.84,1-2.81,1.58c-2.012,1.254-3.924,2.662-5.72,4.21c-1,0.78-1.87,1.71-2.82,2.61
		c-0.45,0.47-0.89,1-1.34,1.46c-0.46,0.494-0.894,1.011-1.3,1.55c-1.788,2.167-3.287,4.557-4.46,7.11
		c-2.229,4.963-3.689,10.237-4.33,15.64c-0.531,4.412-0.362,8.88,0.5,13.24c0.604,2.936,1.614,5.773,3,8.43
		c0.199,0.428,0.426,0.842,0.68,1.24l0.53,0.89C86.822,400.207,86.955,400.461,87.071,400.723z"/>
</g>
</svg>
