<?xml version="1.0" encoding="utf-8"?>
<!-- Generator: Adobe Illustrator 26.0.1, SVG Export Plug-In . SVG Version: 6.00 Build 0)  -->
<svg version="1.1" id="Layer_1" xmlns="http://www.w3.org/2000/svg" xmlns:xlink="http://www.w3.org/1999/xlink" x="0px" y="0px"
	 width="104px" height="104px" viewBox="0 0 104 104" style="enable-background:new 0 0 104 104;" xml:space="preserve">
<style type="text/css">
	.st0{fill:#FCCD16;}
	.st1{fill:#FFFFFF;}
</style>
<g>
	<ellipse transform="matrix(0.9732 -0.2298 0.2298 0.9732 -10.5561 13.3383)" class="st0" cx="52" cy="52" rx="51" ry="51"/>
	<path class="st1" d="M52,2c27.614,0,50,22.386,50,50s-22.386,50-50,50S2,79.614,2,52S24.386,2,52,2 M52,0C23.327,0,0,23.327,0,52
		c0,28.673,23.327,52,52,52c28.673,0,52-23.327,52-52C104,23.327,80.673,0,52,0L52,0z"/>
</g>
<g>
	<path class="st1" d="M74.844,67.984c0.416,0,0.752-0.336,0.752-0.752V35.966c0-0.196-0.08-0.392-0.22-0.532l-7.214-7.214
		C68.022,28.08,67.826,28,67.63,28H37.968c-1.298,0-2.354,1.056-2.354,2.354v0.852H29.15c-0.656,0-0.996,0.82-0.532,1.282
		L34.5,38.37l-5.882,5.884c-0.464,0.464-0.124,1.282,0.532,1.282h6.464v28.108c0,1.3,1.056,2.356,2.354,2.356h35.274
		c1.298,0,2.354-1.056,2.354-2.354V70.44c0-0.416-0.336-0.752-0.752-0.752s-0.752,0.336-0.752,0.752v3.206
		c0,0.47-0.382,0.852-0.852,0.852H37.968c-0.47,0-0.852-0.382-0.852-0.852v-28.11h4.86c0.416,0,0.752-0.336,0.752-0.752
		s-0.336-0.75-0.752-0.75H30.964l5.13-5.13c0.294-0.294,0.294-0.77,0-1.062l-5.13-5.132h32.708v11.324H45.184
		c-0.416,0-0.752,0.336-0.752,0.752s0.336,0.752,0.752,0.752h19.24c0.416,0,0.752-0.336,0.752-0.752V31.958
		c0-0.416-0.336-0.752-0.752-0.752H37.116v-0.852c0-0.47,0.382-0.852,0.852-0.852h28.91v4.86c0,1.298,1.056,2.354,2.354,2.354h4.86
		V67.23C74.094,67.646,74.43,67.984,74.844,67.984z M69.234,35.214c-0.47,0-0.852-0.382-0.852-0.852v-3.796l4.648,4.65h-3.796
		V35.214z"/>
	<path class="st1" d="M42.828,49.594v20.844c0,0.856,0.696,1.554,1.554,1.554h22.446c0.856,0,1.554-0.696,1.554-1.554V49.594
		c0-0.856-0.696-1.554-1.554-1.554H44.382C43.524,48.042,42.828,48.738,42.828,49.594z M44.332,49.594c0-0.028,0.022-0.05,0.05-0.05
		h22.446c0.028,0,0.05,0.022,0.05,0.05v20.844c0,0.028-0.022,0.05-0.05,0.05H44.382c-0.028,0-0.05-0.022-0.05-0.05L44.332,49.594
		L44.332,49.594z"/>
	<path class="st1" d="M56.406,68.784h8.016c0.416,0,0.752-0.336,0.752-0.752v-9.62c0-0.416-0.336-0.752-0.752-0.752h-8.016
		c-0.416,0-0.752,0.336-0.752,0.752v9.62C55.654,68.448,55.992,68.784,56.406,68.784z M57.158,59.164h6.514v8.116h-6.514
		C57.158,67.28,57.158,59.164,57.158,59.164z"/>
	<path class="st1" d="M56.406,52.752h8.818c0.416,0,0.752-0.336,0.752-0.752s-0.336-0.752-0.752-0.752h-8.818
		c-0.416,0-0.752,0.336-0.752,0.752C55.654,52.414,55.992,52.752,56.406,52.752z"/>
	<path class="st1" d="M56.406,55.958h8.818c0.416,0,0.752-0.336,0.752-0.752s-0.336-0.752-0.752-0.752h-8.818
		c-0.416,0-0.752,0.336-0.752,0.752C55.654,55.622,55.992,55.958,56.406,55.958z"/>
	<path class="st1" d="M45.984,52.752H54c0.416,0,0.752-0.336,0.752-0.752S54.416,51.248,54,51.248h-8.016
		c-0.416,0-0.752,0.336-0.752,0.752C45.234,52.414,45.57,52.752,45.984,52.752z"/>
	<path class="st1" d="M45.984,55.958H54c0.416,0,0.752-0.336,0.752-0.752S54.416,54.454,54,54.454h-8.016
		c-0.416,0-0.752,0.336-0.752,0.752C45.234,55.622,45.57,55.958,45.984,55.958z"/>
	<path class="st1" d="M45.984,59.164H54c0.416,0,0.752-0.336,0.752-0.752S54.416,57.66,54,57.66h-8.016
		c-0.416,0-0.752,0.336-0.752,0.752C45.234,58.828,45.57,59.164,45.984,59.164z"/>
	<path class="st1" d="M45.984,62.372H54c0.416,0,0.752-0.336,0.752-0.752S54.416,60.868,54,60.868h-8.016
		c-0.416,0-0.752,0.336-0.752,0.752C45.234,62.036,45.57,62.372,45.984,62.372z"/>
	<path class="st1" d="M45.984,65.578H54c0.416,0,0.752-0.336,0.752-0.752S54.416,64.074,54,64.074h-8.016
		c-0.416,0-0.752,0.336-0.752,0.752C45.234,65.242,45.57,65.578,45.984,65.578z"/>
	<path class="st1" d="M45.984,68.784H54c0.416,0,0.752-0.336,0.752-0.752S54.416,67.28,54,67.28h-8.016
		c-0.416,0-0.752,0.336-0.752,0.752C45.234,68.448,45.57,68.784,45.984,68.784z"/>
</g>
</svg>
