<?xml version="1.0" encoding="utf-8"?>
<!-- Generator: Adobe Illustrator 26.0.1, SVG Export Plug-In . SVG Version: 6.00 Build 0)  -->
<svg version="1.1" id="Layer_1" xmlns="http://www.w3.org/2000/svg" xmlns:xlink="http://www.w3.org/1999/xlink" x="0px" y="0px"
	 width="48px" height="48px" viewBox="0 0 48 48" style="enable-background:new 0 0 48 48;" xml:space="preserve">
<style type="text/css">
	.st0{fill:#FCCD10;}
</style>
<g>
	<g>
		<g>
			<path class="st0" d="M41.8,25.5h-2.3v-4.6h-3.6l-4.6-3.1h-4.9v-4.6h6.2v-1.5H13.9v1.5h6.2v4.6h-4.9l-5.4,4.6H5.4v4.6H1.5v-7H0
				v19.4h1.5v-6.2h3.9v6.2h4.4l5.4,3.1H24V41h-8.3l-4.9-2.8V23.6l4.9-4.2h15l4.1,2.7v2.7h1.5v-2.3h1.5V41h-1.5v1.5h3.1v-3.9h2.3v1.5
				H48v-17h-6.2V25.5z M5.4,31.7H1.5v-3.1h3.9V31.7z M9.3,37.9H7V24h2.3C9.3,24,9.3,37.9,9.3,37.9z M24.8,17.8h-3.1v-4.6h3.1V17.8z
				 M41.8,37.2h-2.3V27.1h2.3V37.2z M43.4,24.8h3.1v13.9h-3.1V24.8z"/>
			<path class="st0" d="M31.3,28.6h-5.8l3.9-5.4H22l-4.6,9.3h4.9l-2.1,7.3L31.3,28.6z M19.8,31l3.1-6.2h3.4l-3.9,5.4h5.1l-4.3,4.3
				l1-3.5L19.8,31L19.8,31z"/>
			<rect x="6.2" y="4.6" class="st0" width="4.6" height="1.5"/>
			<rect y="4.6" class="st0" width="4.6" height="1.5"/>
			<rect x="4.6" y="6.2" class="st0" width="1.5" height="4.6"/>
			<rect x="4.6" class="st0" width="1.5" height="4.6"/>
			<polygon class="st0" points="44.9,11.6 44.9,8.5 43.4,8.5 43.4,11.6 44.9,11.6 44.9,13.2 43.4,13.2 43.4,11.6 40.3,11.6 
				40.3,13.2 43.4,13.2 43.4,16.3 44.9,16.3 44.9,13.2 48,13.2 48,11.6 			"/>
			<rect x="31" y="41" class="st0" width="3.9" height="1.5"/>
			<polygon class="st0" points="29.4,41 31,41 31,37.2 29.4,37.2 29.4,41 25.5,41 25.5,42.6 29.4,42.6 29.4,46.5 31,46.5 31,42.6 
				29.4,42.6 			"/>
			<polygon class="st0" points="46.5,43.4 44.9,43.4 44.9,44.9 43.4,44.9 43.4,46.5 44.9,46.5 44.9,48 46.5,48 46.5,46.5 44.9,46.5 
				44.9,44.9 46.5,44.9 46.5,46.5 48,46.5 48,44.9 46.5,44.9 			"/>
		</g>
	</g>
</g>
</svg>
