<?xml version="1.0" encoding="utf-8"?>
<!-- Generator: Adobe Illustrator 26.0.1, SVG Export Plug-In . SVG Version: 6.00 Build 0)  -->
<svg version="1.1" id="Layer_1" xmlns="http://www.w3.org/2000/svg" xmlns:xlink="http://www.w3.org/1999/xlink" x="0px" y="0px"
	 width="20.001px" height="20px" viewBox="0 0 20.001 20" style="enable-background:new 0 0 20.001 20;" xml:space="preserve">
<style type="text/css">
	.st0{fill:#333333;}
</style>
<g>
	<g>
		<g>
			<path class="st0" d="M15.091,13.206c-0.13,0.13-0.13,0.341,0,0.471l0.707,0.707c0.065,0.065,0.15,0.098,0.236,0.098
				c0.085,0,0.17-0.032,0.236-0.098c0.13-0.13,0.13-0.341,0-0.471l-0.707-0.707C15.432,13.076,15.221,13.076,15.091,13.206z"/>
			<path class="st0" d="M8,1.333C4.324,1.333,1.333,4.324,1.333,8S4.324,14.667,8,14.667S14.667,11.677,14.667,8
				S11.677,1.333,8,1.333z M8,14.001c-3.308,0-6-2.692-6-6s2.692-6,6-6s6,2.692,6,6S11.309,14.001,8,14.001z"/>
			<path class="st0" d="M17.177,14.82c-0.062-0.062-0.147-0.098-0.236-0.098h0c-0.088,0-0.173,0.036-0.236,0.098l-0.94,0.945
				c-0.13,0.13-0.129,0.341,0.001,0.471c0.131,0.13,0.342,0.13,0.471-0.001l0.704-0.708l2.1,2.099
				c0.189,0.189,0.293,0.44,0.293,0.707s-0.104,0.518-0.293,0.707c-0.39,0.39-1.024,0.39-1.414,0l-3.95-3.95
				c-0.13-0.13-0.341-0.13-0.471,0c-0.13,0.13-0.13,0.341,0,0.471l3.95,3.95C17.481,19.838,17.907,20,18.334,20
				s0.854-0.162,1.179-0.487c0.315-0.315,0.488-0.733,0.488-1.179c0-0.445-0.174-0.864-0.488-1.178L17.177,14.82z"/>
			<path class="st0" d="M16.001,8c0-4.411-3.589-8-8-8S0,3.589,0,8s3.589,8,8,8S16.001,12.412,16.001,8z M8,15.334
				c-4.044,0-7.334-3.29-7.334-7.334S3.957,0.667,8,0.667S15.334,3.957,15.334,8S12.044,15.334,8,15.334z"/>
		</g>
	</g>
</g>
</svg>
