<?xml version="1.0" encoding="utf-8"?>
<!-- Generator: Adobe Illustrator 26.0.1, SVG Export Plug-In . SVG Version: 6.00 Build 0)  -->
<svg version="1.1" id="Layer_1" xmlns="http://www.w3.org/2000/svg" xmlns:xlink="http://www.w3.org/1999/xlink" x="0px" y="0px"
	 width="44.971px" height="36px" viewBox="0 0 44.971 36" style="enable-background:new 0 0 44.971 36;" xml:space="preserve">
<style type="text/css">
	.st0{fill:#666666;}
</style>
<path class="st0" d="M0,23.534c0.275-0.695,0.647-1.3,1.376-1.617c0.08-0.035,0.096-0.247,0.118-0.381
	c0.082-0.499,0.059-1.044,0.26-1.487c0.18-0.396,0.574-0.72,0.933-1.001C2.892,18.887,3.001,18.772,3,18.502
	c-0.012-1.844-0.008-3.689-0.006-5.534c0.002-1.542,0.906-2.449,2.455-2.463c0.42-0.004,0.84-0.001,1.282-0.001
	c0-2.016,0-3.973,0-6.01c-0.241,0-0.481,0.005-0.722-0.001C5.053,4.468,4.411,3.735,4.502,2.779C4.65,1.228,5.846,0.084,7.403,0.007
	C7.564-0.001,7.725,0,7.886,0c8.491,0,16.982-0.002,25.473,0.005c0.361,0,0.739,0.026,1.081,0.13
	c1.038,0.318,1.659,1.352,1.507,2.431c-0.152,1.085-1.025,1.882-2.119,1.922c-0.406,0.015-0.813,0.002-1.285,0.002
	c0.063,0.224,0.101,0.389,0.154,0.549c1.224,3.674,2.453,7.346,3.666,11.024c0.11,0.333,0.248,0.468,0.61,0.447
	c0.566-0.033,1.052,0.207,1.481,0.566c1.123,0.939,2.243,1.881,3.371,2.814c0.604,0.5,0.902,1.127,0.896,1.913
	c-0.01,1.42-0.013,2.84,0.01,4.26c0.003,0.196,0.124,0.451,0.275,0.575c1.835,1.503,2.466,3.973,1.547,6.147
	c-0.889,2.104-3.129,3.445-5.314,3.179c-2.467-0.299-4.324-2.039-4.697-4.407c-0.041-0.257-0.05-0.52-0.076-0.8
	c-7.237,0-14.448,0-21.703,0c-0.086,1.751-0.786,3.203-2.231,4.248c-0.957,0.692-2.04,1.02-3.216,0.974
	c-1.404-0.055-2.615-0.592-3.594-1.607c-0.966-1.001-1.44-2.217-1.478-3.616C1.044,30.656,0.331,29.999,0,28.892
	C0,27.106,0,25.32,0,23.534z M33.669,18.254c0.305-0.413,0.575-0.904,0.966-1.264c0.271-0.25,0.345-0.406,0.229-0.75
	c-1.269-3.767-2.526-7.538-3.771-11.312c-0.11-0.333-0.256-0.443-0.614-0.442c-6.25,0.013-12.501,0.009-18.751,0.009
	c-0.154,0-0.308,0-0.468,0c0,1.531,0,2.992,0,4.508c0.437,0,0.858-0.004,1.278,0.001c1.547,0.017,2.454,0.924,2.459,2.465
	c0.005,1.361-0.002,2.723,0.002,4.084c0.002,0.697,0.256,0.946,0.958,0.947c1.844,0.002,3.689-0.001,5.533,0.001
	c2.014,0.003,3.245,1.239,3.25,3.264c0.004,1.376-0.006,2.752,0.004,4.128c0.007,0.997,0.598,1.585,1.587,1.588
	c1.932,0.005,3.864,0.005,5.797,0c1.005-0.003,1.598-0.607,1.602-1.623c0.004-0.966,0.019-1.933-0.012-2.898
	c-0.007-0.231-0.118-0.514-0.279-0.677c-2.171-2.197-4.359-4.377-6.544-6.56c-0.09-0.09-0.19-0.17-0.328-0.293
	c-0.414,0.43-0.802,0.847-1.205,1.249c-0.404,0.403-0.825,0.433-1.156,0.104c-0.329-0.328-0.301-0.761,0.093-1.157
	c1.177-1.183,2.357-2.363,3.54-3.54c0.406-0.403,0.826-0.435,1.158-0.108c0.333,0.328,0.307,0.757-0.095,1.158
	c-0.402,0.4-0.823,0.782-1.208,1.146C29.748,14.336,31.742,16.329,33.669,18.254z M41.218,25.706c0-1.317-0.011-2.56,0.006-3.802
	c0.006-0.405-0.14-0.689-0.448-0.941c-0.941-0.767-1.893-1.525-2.79-2.342c-0.526-0.479-1.076-0.686-1.78-0.635
	c-0.723,0.052-0.977,0.263-0.978,0.985c-0.002,1.61,0.001,3.22-0.001,4.83c-0.003,1.935-1.247,3.178-3.188,3.179
	c-5.649,0.002-11.298-0.003-16.948,0.003c-1.785,0.002-3.152-0.742-4.118-2.237c-0.627-0.969-1.517-1.485-2.674-1.492
	c-1.976-0.012-3.951-0.009-5.927-0.003c-0.61,0.002-0.871,0.278-0.873,0.898c-0.004,1.39-0.007,2.781,0.005,4.171
	c0.002,0.196,0.025,0.451,0.146,0.572c0.169,0.168,0.43,0.276,0.669,0.323c0.074,0.014,0.238-0.24,0.301-0.396
	c0.811-2.008,2.743-3.315,4.897-3.301c2.169,0.014,4.085,1.32,4.858,3.344c0.115,0.3,0.254,0.384,0.562,0.384
	c7.127-0.009,14.255-0.009,21.382,0.001c0.309,0,0.42-0.108,0.525-0.379c0.595-1.538,1.691-2.572,3.247-3.107
	C39.1,25.416,40.13,25.428,41.218,25.706z M2.994,21.748c0.219,0,0.378,0,0.536,0c1.566,0,3.133-0.006,4.699,0.003
	c1.728,0.01,3.068,0.742,4.008,2.195c0.675,1.044,1.624,1.547,2.873,1.54c2.679-0.014,5.358-0.004,8.036-0.004
	c0.141,0,0.282,0,0.383,0c-0.101-0.535-0.231-1.029-0.278-1.531c-0.047-0.506-0.01-1.019-0.01-1.553
	c-0.174-0.036-0.314-0.07-0.455-0.094c-2.394-0.401-4.787-0.803-7.181-1.201c-1.731-0.287-3.454-0.705-5.196-0.818
	c-2.201-0.143-4.418-0.042-6.629-0.03c-0.505,0.003-0.762,0.301-0.783,0.813C2.987,21.272,2.994,21.477,2.994,21.748z M6.008,2.996
	c0.188,0,0.346,0,0.505,0c8.958,0,17.917,0,26.875,0c0.146,0,0.295,0.009,0.439-0.011c0.363-0.05,0.584-0.265,0.63-0.627
	c0.048-0.378-0.107-0.669-0.476-0.789C33.791,1.506,33.578,1.5,33.376,1.5C24.856,1.497,16.337,1.498,7.818,1.498
	c-0.102,0-0.205-0.002-0.307,0.003C6.657,1.544,6.118,2.057,6.008,2.996z M23.238,20.859c0-0.438,0.003-0.802-0.001-1.166
	c-0.012-1.118-0.593-1.694-1.715-1.696c-1.916-0.002-3.832,0.005-5.749-0.003c-1.068-0.004-1.949-0.671-2.199-1.674
	c-0.07-0.279-0.073-0.579-0.074-0.87c-0.007-1.346,0.001-2.691-0.006-4.037c-0.002-0.522-0.207-0.847-0.609-0.878
	c-0.532-0.04-1.07-0.01-1.623-0.01c0,2.793,0,5.552,0,8.337C15.235,19.526,19.193,20.185,23.238,20.859z M35.988,30.735
	c-0.002,2.066,1.662,3.744,3.724,3.755c2.045,0.01,3.75-1.678,3.763-3.727c0.014-2.071-1.688-3.781-3.756-3.774
	C37.655,26.996,35.99,28.668,35.988,30.735z M3.759,30.729c-0.005,2.067,1.653,3.745,3.716,3.761c2.045,0.016,3.753-1.67,3.767-3.72
	c0.014-2.078-1.675-3.782-3.747-3.781C5.434,26.991,3.763,28.663,3.759,30.729z M9.721,18.714c0-4.742,0-9.458,0-14.186
	c-0.499,0-0.971,0-1.439,0c0,4.751,0,9.468,0,14.186C8.777,18.714,9.24,18.714,9.721,18.714z M6.729,18.721c0-1.259,0-2.464,0-3.694
	c-0.745,0-1.467,0-2.207,0c0,1.24,0,2.457,0,3.694C5.264,18.721,5.976,18.721,6.729,18.721z M6.716,13.482c0-0.507,0-0.978,0-1.468
	c-0.532,0-1.028-0.015-1.523,0.005c-0.411,0.017-0.636,0.28-0.688,0.668c-0.033,0.254-0.006,0.515-0.006,0.794
	C5.257,13.482,5.967,13.482,6.716,13.482z"/>
<path class="st0" d="M37.488,30.743c-0.002-1.254,1.011-2.265,2.256-2.252c1.229,0.013,2.23,1.019,2.233,2.243
	c0.003,1.238-1.032,2.267-2.268,2.255C38.478,32.977,37.49,31.979,37.488,30.743z M39.74,30c-0.423-0.007-0.75,0.314-0.75,0.738
	c0,0.405,0.302,0.724,0.703,0.742c0.412,0.018,0.768-0.307,0.783-0.717C40.491,30.357,40.153,30.007,39.74,30z"/>
<path class="st0" d="M5.257,30.735c0.001-1.237,0.985-2.23,2.221-2.243c1.242-0.013,2.269,1.007,2.267,2.251
	c-0.002,1.241-1.039,2.265-2.275,2.246C6.236,32.97,5.256,31.971,5.257,30.735z M8.245,30.737c-0.001-0.411-0.343-0.743-0.761-0.737
	c-0.405,0.006-0.718,0.314-0.727,0.718c-0.01,0.421,0.313,0.758,0.73,0.762C7.899,31.485,8.245,31.145,8.245,30.737z"/>
</svg>
