<?xml version="1.0" encoding="utf-8"?>
<!-- Generator: Adobe Illustrator 26.0.1, SVG Export Plug-In . SVG Version: 6.00 Build 0)  -->
<svg version="1.1" id="Layer_1" xmlns="http://www.w3.org/2000/svg" xmlns:xlink="http://www.w3.org/1999/xlink" x="0px" y="0px"
	 width="35.99px" height="36px" viewBox="0 0 35.99 36" style="enable-background:new 0 0 35.99 36;" xml:space="preserve">
<style type="text/css">
	.st0{fill:#666666;}
</style>
<g>
	<path class="st0" d="M0,16.946c0.093-0.693,0.152-1.393,0.284-2.078c1.094-5.7,4.196-9.96,9.272-12.752
		c2.854-1.57,5.948-2.255,9.197-2.091c5.09,0.256,9.361,2.298,12.752,6.107c2.553,2.868,4.036,6.245,4.394,10.062
		c0.5,5.33-1.057,10.026-4.666,13.989c-2.792,3.066-6.283,4.901-10.372,5.591c-0.598,0.101-1.204,0.153-1.807,0.228
		c-0.703,0-1.406,0-2.109,0c-0.09-0.02-0.18-0.052-0.271-0.058c-2.209-0.145-4.328-0.672-6.309-1.649
		c-5.521-2.721-8.899-7.108-10.081-13.161C0.15,20.448,0.093,19.748,0,19.055C0,18.352,0,17.649,0,16.946z M31.284,7.608
		c-0.982-0.98-1.922-1.917-2.891-2.884c-0.282,0.385-0.501,0.685-0.74,1.01c-0.33-0.239-0.639-0.463-0.967-0.7
		c0.237-0.332,0.458-0.641,0.736-1.03c-1.232-0.628-2.412-1.23-3.634-1.853c-0.157,0.461-0.279,0.818-0.407,1.193
		c-0.395-0.129-0.746-0.244-1.124-0.367c0.119-0.386,0.228-0.74,0.346-1.121c-1.308-0.374-2.615-0.587-4.007-0.629
		c0,0.397,0,0.773,0,1.148c-0.425,0-0.795,0-1.207,0c0-0.389,0-0.758,0-1.147c-1.379,0.046-2.687,0.25-3.993,0.634
		c0.115,0.384,0.224,0.746,0.337,1.124c-0.395,0.127-0.747,0.239-1.118,0.359c-0.135-0.391-0.259-0.749-0.385-1.115
		c-1.293,0.482-2.48,1.072-3.601,1.845C8.862,4.398,9.078,4.7,9.313,5.027c-0.326,0.237-0.634,0.462-0.962,0.7
		c-0.244-0.325-0.473-0.628-0.74-0.984C6.918,5.415,6.246,6.051,5.594,6.705C5.308,6.992,5.062,7.319,4.78,7.648
		C5.108,7.89,5.413,8.115,5.733,8.351C5.484,8.693,5.261,8.999,5.032,9.314C4.689,9.068,4.389,8.852,4.073,8.625
		c-0.764,1.154-1.387,2.331-1.837,3.615c0.388,0.133,0.737,0.252,1.108,0.379c-0.126,0.388-0.241,0.74-0.366,1.121
		c-0.387-0.117-0.748-0.227-1.126-0.341c-0.367,1.328-0.593,2.631-0.619,4.01c0.404,0,0.773,0,1.146,0c0,0.413,0,0.784,0,1.209
		c-0.394,0-0.772,0-1.24,0c0.217,1.368,0.424,2.668,0.638,4.014c0.466-0.142,0.828-0.252,1.209-0.368
		c0.126,0.392,0.24,0.744,0.362,1.12c-0.386,0.133-0.745,0.257-1.197,0.413c0.627,1.226,1.231,2.405,1.85,3.616
		c0.398-0.279,0.708-0.496,1.033-0.724c0.243,0.34,0.463,0.649,0.688,0.965c-0.332,0.247-0.63,0.469-1,0.744
		c0.974,0.972,1.914,1.911,2.884,2.879c0.285-0.385,0.51-0.69,0.745-1.009c0.343,0.249,0.649,0.472,0.964,0.702
		c-0.246,0.342-0.462,0.643-0.687,0.957c1.149,0.77,2.329,1.389,3.613,1.84c0.133-0.389,0.252-0.739,0.378-1.11
		c0.387,0.126,0.739,0.241,1.121,0.366c-0.117,0.386-0.226,0.748-0.339,1.124c1.325,0.374,2.629,0.592,4.008,0.623
		c0-0.405,0-0.774,0-1.148c0.413,0,0.784,0,1.209,0c0,0.394,0,0.772,0,1.157c1.386-0.06,2.694-0.25,3.989-0.641
		c-0.12-0.392-0.228-0.745-0.341-1.117c0.391-0.126,0.744-0.24,1.119-0.361c0.134,0.385,0.258,0.743,0.415,1.194
		c1.226-0.628,2.406-1.232,3.621-1.855c-0.282-0.397-0.501-0.705-0.731-1.028c0.342-0.245,0.651-0.466,0.967-0.692
		c0.247,0.332,0.469,0.631,0.716,0.962c0.549-0.507,1.089-0.976,1.593-1.481c0.436-0.437,0.831-0.915,1.267-1.399
		c-0.337-0.249-0.643-0.475-0.962-0.711c0.248-0.341,0.471-0.648,0.701-0.964c0.342,0.245,0.643,0.461,0.957,0.686
		c0.77-1.147,1.388-2.327,1.84-3.612c-0.388-0.131-0.738-0.25-1.11-0.376c0.126-0.386,0.241-0.739,0.365-1.12
		c0.385,0.116,0.747,0.225,1.124,0.338c0.374-1.324,0.592-2.627,0.623-4.006c-0.404,0-0.773,0-1.148,0c0-0.413,0-0.784,0-1.21
		c0.393,0,0.772,0,1.157,0c-0.059-1.386-0.25-2.694-0.64-3.99c-0.392,0.12-0.745,0.228-1.117,0.342
		c-0.126-0.39-0.24-0.743-0.362-1.119c0.384-0.133,0.743-0.257,1.114-0.386c-0.478-1.289-1.076-2.471-1.842-3.596
		c-0.323,0.23-0.626,0.446-0.956,0.682c-0.236-0.325-0.46-0.633-0.7-0.964C30.593,8.117,30.892,7.897,31.284,7.608z"/>
	<path class="st0" d="M31.202,17.998c-0.064,7.298-5.814,13.179-13.189,13.189c-7.347,0.01-13.209-5.849-13.2-13.199
		C4.822,10.617,10.7,4.81,18.002,4.813C25.328,4.817,31.13,10.668,31.202,17.998z M18.011,5.999
		C11.455,6.04,6.04,11.202,6.011,17.97c-0.029,6.562,5.19,12.003,11.974,12.019c6.55,0.015,11.972-5.192,12.003-11.96
		C30.018,11.452,24.782,6.072,18.011,5.999z"/>
	<path class="st0" d="M17.996,7.804C23.604,7.801,28.196,12.39,28.196,18c0,5.616-4.578,10.195-10.195,10.196
		C12.386,28.198,7.806,23.62,7.804,18.003C7.801,12.388,12.379,7.808,17.996,7.804z M10.979,12.395
		c0.07,0.064,0.12,0.113,0.172,0.159c0.915,0.786,1.837,1.564,2.743,2.361c0.59,0.519,0.805,1.183,0.555,1.935
		c-0.248,0.748-0.801,1.162-1.592,1.234c-0.805,0.073-1.61,0.133-2.415,0.202c-0.471,0.04-0.943,0.085-1.418,0.127
		c0.093,1.681,0.574,3.168,1.474,4.536c0.143-0.085,0.253-0.149,0.363-0.216c0.969-0.591,1.931-1.196,2.909-1.77
		c1.116-0.655,2.462-0.123,2.712,1.094c0.076,0.372,0.012,0.793-0.07,1.174c-0.245,1.14-0.53,2.272-0.806,3.432
		c1.607,0.448,3.179,0.451,4.771,0.002c-0.012-0.072-0.016-0.116-0.026-0.16c-0.277-1.172-0.568-2.342-0.821-3.519
		c-0.067-0.311-0.083-0.662-0.01-0.968c0.286-1.194,1.604-1.701,2.71-1.053c0.888,0.521,1.76,1.07,2.639,1.606
		c0.206,0.125,0.412,0.249,0.633,0.382c0.907-1.397,1.392-2.883,1.469-4.538c-0.206-0.022-0.389-0.045-0.573-0.06
		c-1.12-0.094-2.241-0.175-3.36-0.284c-0.77-0.075-1.364-0.632-1.533-1.387c-0.173-0.772,0.123-1.37,0.699-1.863
		c0.934-0.8,1.866-1.601,2.819-2.419c-1.036-1.289-2.309-2.214-3.861-2.809c-0.06,0.136-0.108,0.24-0.152,0.345
		c-0.423,1.014-0.835,2.034-1.277,3.04c-0.129,0.294-0.301,0.596-0.529,0.813c-0.924,0.881-2.356,0.539-2.889-0.682
		c-0.459-1.05-0.887-2.113-1.329-3.171c-0.048-0.114-0.103-0.224-0.159-0.346C13.271,10.197,12.002,11.118,10.979,12.395z
		 M19.993,9.246c-1.344-0.314-2.647-0.317-3.972-0.001c0.028,0.085,0.046,0.151,0.072,0.214c0.429,1.037,0.861,2.073,1.29,3.109
		c0.114,0.276,0.278,0.499,0.606,0.504c0.347,0.005,0.514-0.228,0.633-0.516c0.334-0.81,0.672-1.62,1.008-2.429
		C19.749,9.838,19.868,9.549,19.993,9.246z M24.731,23.934c-0.028-0.038-0.038-0.064-0.056-0.075
		c-0.987-0.604-1.977-1.205-2.963-1.811c-0.265-0.163-0.53-0.263-0.813-0.06c-0.286,0.205-0.27,0.497-0.2,0.794
		c0.177,0.75,0.357,1.5,0.537,2.25c0.097,0.403,0.196,0.805,0.296,1.211C22.612,25.839,23.818,24.964,24.731,23.934z M10.291,13.395
		C9.598,14.591,9.169,15.817,9.06,17.2c1.29-0.11,2.537-0.202,3.779-0.339c0.171-0.019,0.411-0.239,0.451-0.406
		c0.044-0.185-0.039-0.489-0.18-0.616C12.199,15.015,11.258,14.226,10.291,13.395z M11.242,23.909
		c0.915,1.032,1.963,1.81,3.231,2.351c0.29-1.239,0.589-2.451,0.842-3.672c0.037-0.181-0.1-0.455-0.243-0.601
		c-0.202-0.205-0.476-0.127-0.712,0.017c-0.718,0.439-1.437,0.877-2.155,1.316C11.888,23.513,11.572,23.707,11.242,23.909z
		 M25.706,13.399c-0.931,0.798-1.836,1.574-2.741,2.35c-0.215,0.185-0.371,0.398-0.281,0.701c0.093,0.315,0.333,0.426,0.639,0.449
		c1.107,0.086,2.214,0.177,3.322,0.265c0.089,0.007,0.178,0.001,0.293,0.001C26.817,15.809,26.408,14.584,25.706,13.399z"/>
	<path class="st0" d="M18.003,15.608c1.316,0.002,2.391,1.08,2.389,2.396c-0.002,1.316-1.08,2.391-2.396,2.389
		c-1.317-0.002-2.391-1.08-2.389-2.396C15.609,16.681,16.687,15.606,18.003,15.608z M16.805,18.012
		c0.006,0.651,0.537,1.18,1.189,1.183c0.666,0.003,1.206-0.54,1.2-1.207c-0.006-0.651-0.537-1.18-1.189-1.183
		C17.339,16.803,16.799,17.346,16.805,18.012z"/>
</g>
</svg>
