<?xml version="1.0" encoding="utf-8"?>
<!-- Generator: Adobe Illustrator 26.0.1, SVG Export Plug-In . SVG Version: 6.00 Build 0)  -->
<svg version="1.1" id="Layer_1" xmlns="http://www.w3.org/2000/svg" xmlns:xlink="http://www.w3.org/1999/xlink" x="0px" y="0px"
	 width="54.857px" height="48px" viewBox="0 0 54.857 48" style="enable-background:new 0 0 54.857 48;" xml:space="preserve">
<style type="text/css">
	.st0{fill:#A8A8A8;}
</style>
<path class="st0" d="M49.714,24h-8.571v-6.857c0-3.782,3.075-6.857,6.857-6.857h0.857c1.425,0,2.571-1.146,2.571-2.571V2.571
	C51.429,1.146,50.282,0,48.857,0H48c-9.471,0-17.143,7.671-17.143,17.143v25.714C30.857,45.696,33.161,48,36,48h13.714
	c2.839,0,5.143-2.304,5.143-5.143V29.143C54.857,26.304,52.554,24,49.714,24z M18.857,24h-8.571v-6.857
	c0-3.782,3.075-6.857,6.857-6.857H18c1.425,0,2.571-1.146,2.571-2.571V2.571C20.571,1.146,19.425,0,18,0h-0.857
	C7.671,0,0,7.671,0,17.143v25.714C0,45.696,2.304,48,5.143,48h13.714C21.696,48,24,45.696,24,42.857V29.143
	C24,26.304,21.696,24,18.857,24z"/>
</svg>
