<?xml version="1.0" encoding="utf-8"?>
<!-- Generator: Adobe Illustrator 26.0.1, SVG Export Plug-In . SVG Version: 6.00 Build 0)  -->
<svg version="1.1" id="Layer_1" xmlns="http://www.w3.org/2000/svg" xmlns:xlink="http://www.w3.org/1999/xlink" x="0px" y="0px"
	 width="97.806px" height="36px" viewBox="0 0 97.806 36" style="enable-background:new 0 0 97.806 36;" xml:space="preserve">
<style type="text/css">
	.st0{fill:#666666;}
</style>
<g>
	<g>
		<path class="st0" d="M95.223,15.377c-1.234-0.792-2.345-1.399-3.394-1.862c-5.215-2.252-10.696-2.623-15.386-2.684
			c-0.71,0-1.43-0.165-2.047-0.453c-2.252-1.028-4.484-2.078-6.726-3.137c-3.816-1.779-7.755-3.62-11.653-5.369
			c-2.191-0.987-3.949-1.502-5.523-1.615c-2.499-0.185-5.081-0.144-7.58-0.103c-1.059,0.021-2.119,0.031-3.188,0.031h-0.514V0.021
			h-1.944c-1.923,0.01-3.847,0.01-5.76-0.021c-1.975-0.021-3.877,0.36-5.79,1.193c-5.04,2.191-9.246,4.001-13.206,5.677
			C12.13,7.025,11.739,7.2,11.359,7.365C8.901,8.445,6.35,9.556,3.367,9.381C2.627,9.34,1.804,9.71,1.146,10.358
			c-0.771,0.771-1.193,1.8-1.142,2.808c0.123,2.335,0.093,4.7,0.072,6.994c-0.01,0.998-0.031,1.995-0.031,2.983
			c0,2.294,1.101,3.62,3.353,4.063l1.131,0.226c1.049,0.206,2.139,0.422,3.209,0.586c0.967,0.144,1.481,0.617,1.779,1.625
			c1.039,3.497,3.353,5.574,6.85,6.171c3.476,0.607,6.325-0.566,8.475-3.456c0.555-0.751,1.142-1.059,2.047-1.059c0,0,0,0,0.01,0
			c15.654,0.021,31.297,0.021,46.951,0c0,0,0,0,0.01,0c0.915,0,1.512,0.309,2.057,1.059c1.543,2.17,3.949,3.487,6.603,3.631
			c2.52,0.134,4.896-0.854,6.531-2.695c1.337-1.502,2.612-2.078,4.71-2.026c1.07,0.031,2.078-0.339,2.808-1.049
			c0.771-0.751,1.203-1.82,1.224-3.024c0.021-2.355,0.01-4.7,0-7.045C97.773,18.061,96.909,16.457,95.223,15.377z M43.973,1.842
			c2.551,0.134,5.019,0.257,7.477,0.432c0.668,0.041,1.399,0.247,2.211,0.617c4.392,1.985,9.575,4.361,14.728,6.912l1.584,0.792
			L68.009,10.8c-0.175,0.031-0.35,0.051-0.535,0.051h-8.053c-3.569,0-7.127,0-10.696-0.01c-0.453-0.01-1.121-0.154-1.471-0.555
			c-1.728-1.964-3.425-3.949-5.122-5.934l-1.059-1.244c-0.082-0.103-0.123-0.195-0.185-0.329l-0.535-1.121L43.973,1.842z
			 M34.449,1.883c0.884,0,1.676-0.01,2.468,0.01c0.319,0.01,0.761,0.165,1.028,0.473c1.728,1.985,3.435,3.991,5.194,6.048
			l1.934,2.252l-0.977,0.103c-0.545,0.051-1.08,0.093-1.604,0.093c-1.574,0-3.044-0.381-4.237-1.934
			c-1.08-1.43-2.273-2.787-3.528-4.217c-0.566-0.638-1.142-1.296-1.728-1.975l-0.72-0.854H34.449z M87.746,32.08
			c-1.286,1.286-3.013,1.995-4.844,1.995h-0.01c-1.892-0.01-3.579-0.751-4.803-1.964c-1.214-1.224-1.954-2.911-1.964-4.803
			c0-1.831,0.71-3.559,2.016-4.865c1.286-1.286,2.983-1.954,4.803-1.975c3.723,0.021,6.767,3.065,6.788,6.798
			C89.731,29.076,89.031,30.794,87.746,32.08z M90.142,22.484c-1.769-2.468-4.392-3.888-7.189-3.888c-0.01,0-0.021,0-0.021,0
			c-2.818,0-5.461,1.419-7.261,3.888c-0.319,0.432-0.905,0.679-1.358,0.73c-0.432,0.051-0.874,0.041-1.286,0.041
			c-0.298-0.01-0.586-0.01-0.874,0c-0.37,0.021-0.998,0.165-0.998,0.936c0,0.71,0.545,0.895,0.998,0.915
			c0.339,0.01,0.679,0.01,1.029,0.01l1.059-0.01v4.248H26.488v-0.833c0-0.216,0.01-0.432-0.01-0.658l-0.031-0.607
			c-0.021-0.607-0.051-1.173-0.144-1.728c-0.031-0.195-0.134-0.771-1.008-0.699c-0.576,0.041-0.782,0.596-0.782,1.059
			c0,0.247,0.01,0.504,0.01,0.761c0.021,0.761,0.051,1.553-0.134,2.314c-0.422,1.779-1.512,3.26-3.085,4.196
			c-1.049,0.607-2.252,0.926-3.456,0.926c-0.627,0-1.265-0.082-1.872-0.257c-1.759-0.494-3.219-1.656-4.104-3.26
			c-0.884-1.615-1.09-3.456-0.566-5.204c0.525-1.779,1.718-3.229,3.343-4.083c1.635-0.864,3.507-1.028,5.276-0.463
			c1.604,0.525,1.779,0.021,1.892-0.319c0.113-0.339,0.051-0.525-0.01-0.638c-0.154-0.319-0.617-0.607-1.327-0.843
			c-2.232-0.72-4.608-0.504-6.706,0.607c-2.098,1.111-3.61,2.972-4.268,5.235c-0.062,0.226-0.123,0.453-0.195,0.71l-0.226,0.833
			L8.613,26.31c-0.514-0.103-1.028-0.195-1.543-0.298c-1.234-0.237-2.52-0.473-3.775-0.771c-0.956-0.226-1.553-1.018-1.563-2.088
			c-0.01-1.193,0-2.376,0-3.62v-2.17h1.049c0.36,0.01,0.72,0.01,1.07-0.01c0.566-0.021,0.946-0.37,0.967-0.874
			c0.021-0.514-0.35-0.905-0.884-0.967c-0.339-0.031-0.679-0.021-1.07-0.01c-0.195,0-0.401,0.01-0.607,0.01H1.742v-0.514
			c0-0.206-0.01-0.401-0.01-0.586c-0.01-0.432-0.021-0.843,0.021-1.255c0.123-1.183,0.946-1.995,1.964-1.923
			c3.281,0.216,6.058-1.059,8.999-2.407c0.884-0.411,1.81-0.833,2.736-1.203c2.551-1.028,5.112-2.139,7.58-3.219
			c1.224-0.535,2.448-1.059,3.682-1.594c2.695-1.142,2.962-1.08,4.824,1.09c0.627,0.741,1.245,1.45,1.851,2.16
			c1.183,1.358,2.407,2.767,3.559,4.186c1.389,1.707,3.127,2.499,5.461,2.499h0.041c10.429-0.041,22.771-0.072,35.278,0.01
			c5.451,0.041,9.822,0.884,13.761,2.664c0.237,0.103,0.473,0.216,0.689,0.329l0.926,0.453l-0.607,0.514
			c-0.144,0.123-0.309,0.237-0.463,0.35c-0.267,0.195-0.525,0.381-0.648,0.576c-0.195,0.329-0.103,0.617-0.031,0.761
			c0.154,0.288,0.483,0.483,0.864,0.494c0.689,0.041,1.389,0.031,2.108,0.021c0.329,0,0.668-0.01,1.008-0.01h0.514v4.33h-1.543
			c-1.039,0.01-2.098,0.01-3.158-0.021C90.81,23.204,90.492,22.967,90.142,22.484z M95.202,28.881
			c-0.473,0.442-1.131,0.576-1.851,0.576c-0.442,0-0.905-0.051-1.368-0.113l-0.442-0.062v-4.114h4.289l0.041,0.473
			C96.004,27.369,95.809,28.305,95.202,28.881z"/>
	</g>
	<g>
		<path class="st0" d="M66.126,23.317c-0.267-0.072-0.596-0.072-0.915-0.072h-1.533c-5.451-0.01-10.902-0.01-16.343,0.01h-0.01
			c-0.843,0-1.389-0.278-1.851-0.936c-0.73-1.049-1.533-2.088-2.304-3.096l-0.391-0.525c-0.823-1.07-1.913-1.625-3.26-1.646h-0.267
			c-0.905-0.021-1.82-0.031-2.746-0.031c-0.946,0-1.903,0.01-2.839,0.062c-0.401,0.021-0.977,0.319-1.121,0.586
			c-0.082,0.154,0.01,0.751,0.257,1.111c0.555,0.833,1.173,1.635,1.769,2.427c0.463,0.607,0.926,1.214,1.368,1.841
			c1.028,1.45,2.324,2.119,4.186,2.078c2.921-0.041,5.883-0.031,8.753-0.021c1.203,0,2.417,0.01,3.62,0.01h12.764
			c0.237,0,0.473,0,0.699-0.031c0.525-0.051,0.792-0.329,0.823-0.854C66.816,23.749,66.589,23.451,66.126,23.317z M42.718,23.08
			c-0.669,0.165-1.296,0.257-1.882,0.257c-2.16,0-3.754-1.183-4.844-3.589l-0.278-0.617l0.669-0.103
			c3.548-0.576,4.916,0.113,6.665,3.302l0.319,0.586L42.718,23.08z"/>
	</g>
	<g>
		<path class="st0" d="M20.296,27.256v0.041c0,0.669-0.257,1.286-0.72,1.748c-0.463,0.463-1.111,0.669-1.769,0.699
			c-1.337-0.01-2.438-1.101-2.458-2.427c-0.01-0.627,0.247-1.265,0.72-1.748c0.473-0.483,1.111-0.771,1.748-0.771
			c0.01,0,0.021,0,0.021,0c0.638,0,1.244,0.247,1.718,0.72C20.029,25.981,20.296,26.608,20.296,27.256z"/>
	</g>
	<g>
		<path class="st0" d="M85.401,27.246c0.021,0.648-0.237,1.265-0.699,1.748c-0.473,0.483-1.1,0.751-1.769,0.751
			c-0.658,0.031-1.296-0.247-1.769-0.71c-0.463-0.463-0.72-1.08-0.72-1.748c0-0.658,0.278-1.306,0.761-1.779
			c0.473-0.463,1.07-0.71,1.697-0.71h0.031C84.249,24.808,85.38,25.929,85.401,27.246z"/>
	</g>
</g>
</svg>
