<?xml version="1.0" encoding="utf-8"?>
<!-- Generator: Adobe Illustrator 26.0.1, SVG Export Plug-In . SVG Version: 6.00 Build 0)  -->
<svg version="1.1" id="Layer_1" xmlns="http://www.w3.org/2000/svg" xmlns:xlink="http://www.w3.org/1999/xlink" x="0px" y="0px"
	 width="54.837px" height="36px" viewBox="0 0 54.837 36" style="enable-background:new 0 0 54.837 36;" xml:space="preserve">
<style type="text/css">
	.st0{fill:#666666;}
</style>
<g>
	<path class="st0" d="M0,3.754c0.041-0.135,0.088-0.269,0.122-0.406C0.618,1.398,2.313,0.03,4.33,0.012
		c2.606-0.023,5.212-0.007,7.818-0.007c10.281,0,20.561-0.002,30.842,0.001c2.327,0.001,4.099,1.421,4.507,3.62
		c0.071,0.382,0.066,0.782,0.066,1.173c0.004,6.123,0.003,12.246,0.003,18.369c0,0.21,0,0.421,0,0.667c1.183,0,2.315,0,3.54,0
		c0-0.613,0-1.229,0-1.845c0-0.143-0.003-0.286,0.001-0.428c0.019-0.604,0.348-0.985,0.836-0.974
		c0.47,0.011,0.778,0.372,0.786,0.956c0.01,0.747,0.003,1.494,0.003,2.292c0.214,0.014,0.384,0.029,0.554,0.035
		c0.984,0.034,1.536,0.597,1.548,1.593c0.007,0.589,0.006,1.178,0,1.767c-0.009,1.052-0.564,1.624-1.618,1.63
		c-1.856,0.012-3.713,0.013-5.569-0.004c-0.373-0.003-0.638,0.06-0.824,0.423c-0.127,0.248-0.316,0.498-0.542,0.653
		c-0.491,0.337-0.58,0.777-0.558,1.331c0.038,0.962,0.018,1.928,0.008,2.891c-0.011,1.072-0.744,1.81-1.815,1.836
		c-0.428,0.01-0.857,0.007-1.285,0.001c-1.145-0.017-1.866-0.723-1.888-1.878c-0.018-0.926-0.004-1.853-0.004-2.841
		c-0.222-0.011-0.41-0.027-0.599-0.027c-1.41-0.002-2.82-0.004-4.23,0c-0.47,0.001-0.859-0.126-0.987-0.632
		c-0.14-0.558,0.256-0.987,0.936-0.995c1.142-0.014,2.285-0.005,3.427-0.005c0.193,0,0.386,0,0.648,0c0-0.245,0-0.436,0-0.626
		c0-5.498,0-10.996,0-16.495c0-1.277-0.585-1.868-1.86-1.87c-2.749-0.004-5.497-0.004-8.246,0c-1.285,0.002-1.865,0.585-1.866,1.864
		c-0.001,5.516,0,11.032,0,16.548c0,0.173,0,0.346,0,0.579c1.147,0,2.232-0.001,3.316,0.001c0.249,0.001,0.502-0.005,0.748,0.028
		c0.432,0.058,0.675,0.337,0.687,0.76c0.012,0.451-0.237,0.74-0.687,0.818c-0.191,0.033-0.391,0.024-0.587,0.024
		c-4.355,0.001-8.71,0.006-13.065-0.007c-0.429-0.001-0.632,0.073-0.754,0.561c-0.622,2.495-2.909,4.216-5.476,4.192
		c-2.529-0.024-4.772-1.789-5.369-4.268c-0.09-0.372-0.215-0.506-0.593-0.486c-0.552,0.03-1.106,0.013-1.659,0.007
		c-2.259-0.025-3.898-1.332-4.431-3.526C0.074,27.654,0.031,27.595,0,27.533c0-5.177,0-10.354,0-15.532
		c0.291-0.324,0.584-0.637,1.087-0.445c0.499,0.191,0.534,0.603,0.532,1.055c-0.007,2.124-0.003,4.249-0.003,6.373
		c0,0.19,0,0.38,0,0.575c8.28,0,16.494,0,24.73,0c0-2.435-0.003-4.826,0.001-7.218c0.003-1.988,1.332-3.328,3.32-3.334
		c2.856-0.008,5.712-0.008,8.568,0c1.985,0.005,3.312,1.347,3.316,3.34c0.004,2.214,0.001,4.427,0.001,6.641c0,0.19,0,0.38,0,0.576
		c1.498,0,2.932,0,4.354,0c0-4.703,0-9.369,0-14.032c-14.777,0-29.511,0-44.289,0c0,0.927-0.011,1.817,0.005,2.707
		c0.008,0.463-0.066,0.872-0.555,1.043C0.569,9.455,0.26,9.158,0,8.788C0,7.11,0,5.432,0,3.754z M26.326,21.268
		c-8.26,0-16.472,0-24.701,0c0,1.955-0.043,3.865,0.014,5.772c0.042,1.402,1.153,2.467,2.551,2.555
		c0.658,0.042,1.321-0.007,1.979,0.029c0.39,0.021,0.507-0.133,0.587-0.494c0.563-2.539,2.86-4.363,5.454-4.363
		c2.597,0.001,4.888,1.817,5.45,4.365c0.091,0.412,0.267,0.493,0.644,0.491c2.498-0.014,4.996-0.007,7.494-0.009
		c0.171,0,0.341-0.022,0.528-0.035C26.326,26.79,26.326,24.046,26.326,21.268z M1.738,3.85c14.696,0,29.389,0,44.098,0
		c0-0.09,0.015-0.164-0.003-0.228c-0.038-0.137-0.079-0.276-0.144-0.401c-0.573-1.115-1.503-1.599-2.742-1.599
		C30.174,1.627,17.402,1.625,4.629,1.625c-0.125,0-0.25-0.004-0.375,0.004C2.961,1.703,1.847,2.678,1.738,3.85z M41.579,29.614
		c0.543,0,1.041,0.01,1.539-0.002c1.701-0.039,2.822-1.181,2.829-2.889c0.007-1.675,0.002-3.349,0-5.024
		c0-0.152-0.022-0.304-0.034-0.45c-1.47,0-2.888,0-4.334,0C41.579,24.031,41.579,26.784,41.579,29.614z M16.185,30.386
		c0.001-2.203-1.778-3.991-3.972-3.994c-2.193-0.002-3.978,1.787-3.979,3.987c-0.001,2.2,1.782,3.993,3.972,3.995
		C14.399,34.376,16.184,32.587,16.185,30.386z M47.585,27.19c1.894,0,3.749,0,5.59,0c0-0.591,0-1.133,0-1.662
		c-1.884,0-3.726,0-5.59,0C47.585,26.094,47.585,26.623,47.585,27.19z M42.375,31.276c0,0.962-0.014,1.883,0.02,2.802
		c0.004,0.104,0.303,0.304,0.427,0.278c0.429-0.091,1.146,0.351,1.248-0.246c0.163-0.945,0.043-1.939,0.043-2.926
		C43.523,31.215,42.993,31.243,42.375,31.276z"/>
	<path class="st0" d="M13.572,7.055c2.07,0,4.14-0.004,6.209,0.001c1.796,0.004,2.813,1.029,2.815,2.826
		c0.002,1.82,0.004,3.641-0.001,5.461c-0.004,1.681-1.063,2.756-2.732,2.758c-4.211,0.005-8.422,0.005-12.633,0
		c-1.669-0.002-2.73-1.079-2.733-2.757c-0.003-1.856-0.004-3.712,0-5.568c0.004-1.655,1.045-2.711,2.704-2.719
		C9.326,7.047,11.449,7.055,13.572,7.055z M6.114,11.759c0,1.176-0.001,2.281,0,3.387c0.001,1.048,0.29,1.341,1.331,1.341
		c4.068,0.001,8.136,0.001,12.205,0c0.16,0,0.324,0.008,0.481-0.018c0.478-0.078,0.817-0.363,0.829-0.843
		c0.033-1.278,0.011-2.558,0.011-3.866C16.004,11.759,11.088,11.759,6.114,11.759z M6.143,10.058c4.961,0,9.885,0,14.806,0
		c0.079-1.03-0.242-1.38-1.228-1.38c-4.116-0.001-8.233-0.001-12.349,0C6.384,8.678,6.068,9.023,6.143,10.058z"/>
	<path class="st0" d="M14.885,30.387c-0.002,1.455-1.193,2.655-2.654,2.672c-1.471,0.018-2.699-1.203-2.698-2.681
		c0.001-1.484,1.212-2.674,2.707-2.659C13.708,27.733,14.887,28.923,14.885,30.387z M13.264,30.387
		c0.003-0.579-0.474-1.047-1.063-1.043c-0.566,0.003-1.026,0.446-1.046,1.006c-0.02,0.575,0.449,1.061,1.036,1.069
		C12.782,31.428,13.261,30.967,13.264,30.387z"/>
</g>
</svg>
