<?xml version="1.0" encoding="utf-8"?>
<!-- Generator: Adobe Illustrator 26.0.1, SVG Export Plug-In . SVG Version: 6.00 Build 0)  -->
<svg version="1.1" id="Layer_1" xmlns="http://www.w3.org/2000/svg" xmlns:xlink="http://www.w3.org/1999/xlink" x="0px" y="0px"
	 width="46.393px" height="36px" viewBox="0 0 46.393 36" style="enable-background:new 0 0 46.393 36;" xml:space="preserve">
<style type="text/css">
	.st0{fill:#666666;}
</style>
<g>
	<path class="st0" d="M0,19.996c0.272-0.924,0.95-1.539,1.694-2.049c0.879-0.603,1.821-1.114,2.75-1.64
		c0.201-0.114,0.336-0.188,0.335-0.453C4.77,12.049,4.773,8.243,4.771,4.438c0-0.087-0.023-0.174-0.041-0.299
		c-0.224,0-0.433,0.007-0.641-0.001C3.02,4.094,2.17,3.236,2.115,2.149c-0.051-1.018,0.711-1.945,1.74-2.105
		c0.193-0.03,0.39-0.042,0.586-0.042C7.098,0,9.756,0,12.414,0.002c0.15,0,0.304,0,0.45,0.031c0.358,0.076,0.554,0.311,0.542,0.675
		c-0.013,0.362-0.219,0.587-0.584,0.636c-0.164,0.022-0.331,0.016-0.497,0.016C9.756,1.36,7.189,1.36,4.622,1.36
		c-0.136,0-0.272-0.006-0.408,0.005C3.771,1.403,3.479,1.686,3.477,2.072C3.474,2.479,3.785,2.777,4.252,2.779
		C5.626,2.787,7,2.783,8.374,2.783c5.95,0,11.899,0,17.849,0c0.151,0,0.303,0.009,0.453-0.005c0.403-0.037,0.632-0.271,0.678-0.664
		c0.04-0.348-0.226-0.663-0.603-0.729c-0.162-0.028-0.331-0.024-0.496-0.024c-3.277-0.001-6.554-0.001-9.83-0.001
		c-0.151,0-0.302,0.003-0.453-0.007c-0.386-0.027-0.615-0.236-0.655-0.62c-0.038-0.366,0.211-0.652,0.606-0.715
		c0.118-0.019,0.241-0.016,0.361-0.016C19.666,0,23.049-0.001,26.431,0.002c1.082,0.001,1.855,0.501,2.167,1.385
		c0.461,1.303-0.461,2.677-1.847,2.753c-0.119,0.007-0.239,0.012-0.4,0.021c0.044,0.177,0.075,0.334,0.123,0.486
		c0.76,2.4,1.528,4.797,2.277,7.2c0.115,0.367,0.249,0.562,0.693,0.578c0.9,0.032,1.796,0.157,2.764,0.25c0-0.206,0-0.366,0-0.525
		c0-1.344,0-2.688,0-4.032c0.001-1.254,0.382-1.666,1.64-1.779c0.042-0.004,0.082-0.026,0.175-0.057c0-0.635-0.002-1.281,0-1.926
		c0.003-0.987,0.349-1.476,1.279-1.781c0.4-0.132,0.807-0.251,1.217-0.346c0.426-0.098,0.743,0.097,0.839,0.478
		c0.091,0.359-0.08,0.672-0.471,0.808c-0.37,0.128-0.747,0.238-1.126,0.336c-0.278,0.072-0.394,0.217-0.384,0.513
		c0.019,0.558-0.011,1.118,0.017,1.675c0.007,0.135,0.128,0.328,0.247,0.383c0.623,0.283,0.915,0.752,0.913,1.428
		c-0.004,1.555-0.001,3.111-0.001,4.666c0,0.177,0,0.354,0,0.559c0.786,0.077,1.522,0.124,2.25,0.224
		c2.928,0.401,5.14,1.784,6.159,4.676c0.226,0.641,0.303,1.357,0.322,2.042c0.045,1.614,0.006,3.231,0.023,4.847
		c0.003,0.256,0.07,0.54,0.195,0.763c1.912,3.426,0.64,7.735-2.839,9.576c-3.45,1.827-7.765,0.419-9.475-3.116
		c-0.185-0.382-0.388-0.48-0.78-0.474c-1.525,0.021-3.05,0.013-4.575,0.003c-0.427-0.003-0.709-0.287-0.712-0.662
		c-0.003-0.353,0.262-0.633,0.658-0.682c0.134-0.017,0.271-0.01,0.407-0.01c1.268-0.001,2.537,0,3.805,0c0.164,0,0.328,0,0.537,0
		c-0.027-0.594-0.053-1.154-0.08-1.737c-3.854,0-7.697,0-11.554,0c-0.103,0.565-0.202,1.11-0.312,1.711
		c0.163,0.009,0.318,0.024,0.473,0.024c1.193,0.002,2.386-0.019,3.578,0.017c0.265,0.008,0.605,0.149,0.769,0.347
		c0.301,0.362,0.011,0.911-0.467,0.982c-0.148,0.022-0.301,0.014-0.452,0.014c-2.461,0.001-4.923,0.008-7.384-0.008
		c-0.349-0.002-0.534,0.115-0.719,0.402c-2,3.103-5.7,4.582-9.337,3.751c-3.494-0.799-6.214-3.819-6.665-7.401
		c-0.245-1.944,0.109-3.593,1.257-5.753C0.774,22.347,0.287,21.715,0,20.902C0,20.6,0,20.298,0,19.996z M36.255,14.414
		c-2.417-0.225-4.768-0.444-7.165-0.667c0,1.252,0.002,2.457-0.001,3.662c-0.004,1.602-0.998,2.593-2.602,2.594
		c-2.476,0.002-4.952,0.001-7.429,0.001c-0.16,0-0.321,0-0.581,0c1.609,2.156,2.402,4.515,2.473,7.135c0.203,0,0.352,0,0.501,0
		c3.593,0,7.187-0.006,10.78,0.009c0.379,0.002,0.534-0.113,0.664-0.474c1.351-3.754,5.532-5.596,9.205-4.048
		c0.628,0.265,1.205,0.652,1.839,1.001c0-0.496,0-0.989,0-1.482c0-0.494,0-0.987,0-1.525c-0.214,0-0.376,0-0.539,0
		c-1.072,0-2.144,0.005-3.216-0.001c-2.318-0.012-3.92-1.62-3.93-3.94C36.253,15.939,36.255,15.201,36.255,14.414z M22.771,11.722
		c0.576,0.357,1.122,0.703,1.68,1.031c0.078,0.046,0.24,0.042,0.313-0.01c0.523-0.364,1.109-0.448,1.725-0.434
		c0.313,0.007,0.625,0.001,0.992,0.001c-0.874-2.755-1.73-5.451-2.584-8.141c-3.694,0-7.357,0-11.031,0c0,0.998,0,1.969,0,2.938
		c0.061,0.003,0.096,0.016,0.12,0.004c1.7-0.793,3.756,0.472,3.696,2.707c-0.075,2.776-0.018,5.556-0.018,8.335
		c0,0.158,0,0.316,0,0.453c2.089,0,4.104,0,6.184,0c0-1.515,0.002-2.992-0.005-4.469c0-0.074-0.056-0.177-0.118-0.216
		c-0.543-0.347-1.094-0.683-1.668-1.038c-0.19,0.301-0.348,0.574-0.527,0.832c-0.241,0.348-0.625,0.442-0.944,0.25
		c-0.32-0.193-0.425-0.587-0.206-0.951c0.574-0.958,1.159-1.908,1.757-2.851c0.226-0.357,0.624-0.435,0.944-0.231
		c0.322,0.204,0.405,0.575,0.196,0.954C23.125,11.16,22.952,11.423,22.771,11.722z M13.812,21.608
		c-1.222-0.995-2.535-1.554-4.025-1.694c-0.023,0.069-0.04,0.097-0.04,0.126c-0.005,0.302-0.002,0.604-0.012,0.905
		c-0.017,0.518-0.253,0.787-0.676,0.787c-0.421,0-0.663-0.273-0.679-0.786c-0.01-0.34-0.002-0.68-0.002-1.045
		c-1.554,0.173-2.866,0.709-4.006,1.66c0.023,0.039,0.029,0.055,0.039,0.065c0.211,0.216,0.422,0.431,0.632,0.647
		c0.37,0.382,0.415,0.772,0.125,1.072c-0.291,0.3-0.699,0.267-1.069-0.1c-0.231-0.23-0.446-0.476-0.69-0.739
		c-0.997,1.228-1.551,2.538-1.695,4.075c0.397,0,0.728-0.006,1.058,0.001c0.488,0.012,0.755,0.241,0.769,0.644
		c0.014,0.42-0.262,0.686-0.763,0.709c-0.342,0.015-0.685,0.003-1.067,0.003c0.165,1.549,0.705,2.861,1.696,4.045
		c0.279-0.293,0.509-0.554,0.76-0.792c0.33-0.314,0.727-0.316,1.003-0.028c0.264,0.275,0.261,0.66-0.038,0.971
		c-0.249,0.259-0.528,0.49-0.824,0.762c1.219,0.997,2.528,1.552,4.009,1.693c0.03-0.085,0.048-0.113,0.049-0.14
		c0.005-0.287,0.004-0.573,0.012-0.86c0.015-0.538,0.263-0.828,0.694-0.82c0.416,0.008,0.648,0.284,0.661,0.804
		c0.008,0.327,0.002,0.655,0.002,0.979c1.181,0.057,3.318-0.844,4.019-1.693c-0.239-0.223-0.49-0.441-0.722-0.678
		c-0.342-0.35-0.361-0.751-0.068-1.036c0.293-0.284,0.681-0.256,1.035,0.094c0.235,0.233,0.45,0.487,0.673,0.731
		c0.913-0.874,1.762-2.927,1.674-4.032c-0.325,0-0.654,0.01-0.983-0.002c-0.512-0.019-0.786-0.264-0.788-0.683
		c-0.002-0.426,0.267-0.66,0.785-0.671c0.339-0.007,0.678-0.001,1.015-0.001c-0.022-1.311-0.762-3.081-1.724-4.087
		c-0.107,0.148-0.204,0.301-0.32,0.438c-0.117,0.137-0.249,0.264-0.383,0.385c-0.33,0.3-0.739,0.306-1.007,0.023
		c-0.258-0.272-0.251-0.665,0.046-0.973C13.24,22.108,13.519,21.876,13.812,21.608z M6.158,4.155c0,3.869,0,7.697,0,11.567
		c2.12-0.509,4.204-0.458,6.283,0.123c0-3.931,0-7.804,0-11.69C10.342,4.155,8.276,4.155,6.158,4.155z M42.858,24.612
		c-0.813-0.614-1.684-1.02-2.711-1.106c-0.085,0.568,0.15,1.325-0.672,1.36c-0.942,0.04-0.631-0.82-0.754-1.372
		c-1.036,0.118-1.91,0.496-2.711,1.118c0.333,0.465,1.09,0.833,0.493,1.454c-0.647,0.672-1.032-0.133-1.496-0.458
		c-0.62,0.809-0.998,1.691-1.12,2.702c0.548,0.117,1.372-0.179,1.373,0.723c0.002,0.913-0.834,0.585-1.377,0.715
		c0.132,1.02,0.494,1.914,1.134,2.708c0.454-0.33,0.799-1.069,1.419-0.517c0.735,0.655-0.124,1.046-0.422,1.528
		c0.814,0.612,1.695,0.995,2.706,1.113c0.129-0.542-0.202-1.38,0.713-1.376c0.892,0.004,0.607,0.828,0.722,1.374
		c1.015-0.124,1.896-0.506,2.697-1.117c-0.291-0.454-1.083-0.795-0.517-1.437c0.645-0.731,1.046,0.126,1.534,0.424
		c0.601-0.829,1.012-1.69,1.091-2.719c-0.563-0.087-1.354,0.186-1.358-0.692c-0.004-0.904,0.822-0.608,1.37-0.734
		c-0.128-1.017-0.494-1.905-1.128-2.7c-0.827,0.756-1.151,0.874-1.474,0.494C41.778,25.402,42.528,25.082,42.858,24.612z
		 M17.279,30.258c0.541,0,1.008-0.014,1.473,0.005c0.286,0.012,0.42-0.07,0.496-0.37c0.367-1.44,0.457-2.895,0.201-4.354
		c-1.065-6.077-6.819-9.898-12.833-8.524c-1.88,0.43-3.509,1.348-4.891,2.695c-0.517,0.504-0.474,1.17,0.081,1.491
		c0.394,0.228,0.762,0.146,1.217-0.272c2.135-1.968,4.642-2.728,7.509-2.294c3.86,0.584,7.003,4.045,7.243,7.943
		C17.85,27.814,17.705,29.014,17.279,30.258z M37.615,14.579c0,0.763-0.01,1.498,0.002,2.234c0.022,1.4,1.032,2.417,2.435,2.443
		c0.859,0.016,1.719,0.003,2.578,0.004c0.402,0,0.804,0,1.205,0C43.799,16.732,40.821,14.49,37.615,14.579z M16.302,17.736
		c0-2.763,0.009-5.506-0.006-8.249c-0.004-0.718-0.561-1.247-1.232-1.248c-0.669-0.001-1.216,0.528-1.221,1.249
		c-0.016,2.201-0.01,4.402-0.002,6.603c0,0.116,0.06,0.287,0.148,0.338C14.738,16.869,15.499,17.286,16.302,17.736z M25.175,18.644
		c0.496,0,0.945,0.004,1.393-0.001c0.737-0.008,1.151-0.413,1.161-1.142c0.008-0.618,0.002-1.236,0.002-1.854
		c0-0.644,0-1.287,0-1.962c-0.605,0-1.161-0.03-1.712,0.009c-0.508,0.036-0.834,0.395-0.84,0.898
		C25.166,15.917,25.175,17.243,25.175,18.644z M33.568,7.723c0,1.648-0.003,3.241,0.008,4.835c0.001,0.087,0.107,0.24,0.178,0.249
		c0.468,0.059,0.941,0.087,1.399,0.124c0-1.777,0-3.484,0-5.208C34.621,7.723,34.13,7.723,33.568,7.723z"/>
	<path class="st0" d="M30.349,23.549c0-0.421-0.008-0.843,0.002-1.263c0.01-0.429,0.267-0.714,0.639-0.733
		c0.382-0.02,0.703,0.277,0.711,0.714c0.016,0.872,0.015,1.745,0,2.617c-0.007,0.418-0.303,0.707-0.669,0.714
		c-0.387,0.006-0.67-0.292-0.681-0.74C30.341,24.422,30.349,23.985,30.349,23.549z"/>
	<path class="st0" d="M23.099,23.545c0-0.421-0.008-0.843,0.002-1.263c0.011-0.427,0.271-0.712,0.643-0.729
		c0.382-0.017,0.699,0.281,0.707,0.719c0.015,0.872,0.016,1.745-0.001,2.617c-0.008,0.418-0.307,0.706-0.673,0.709
		c-0.386,0.004-0.666-0.295-0.676-0.744C23.091,24.417,23.099,23.981,23.099,23.545z"/>
	<path class="st0" d="M26.724,23.553c0-0.421-0.008-0.843,0.002-1.263c0.011-0.447,0.293-0.745,0.68-0.739
		c0.367,0.006,0.662,0.293,0.67,0.712c0.016,0.872,0.016,1.745,0,2.617c-0.008,0.437-0.33,0.736-0.71,0.716
		c-0.373-0.02-0.63-0.304-0.64-0.733C26.716,24.426,26.724,23.989,26.724,23.553z"/>
	<path class="st0" d="M9.049,31.226c-2.179-0.005-3.976-1.816-3.964-3.996c0.012-2.16,1.8-3.945,3.961-3.955
		c2.175-0.01,3.988,1.798,3.987,3.975C13.033,29.432,11.229,31.232,9.049,31.226z M9.071,29.867
		c1.431-0.007,2.619-1.211,2.603-2.639c-0.016-1.417-1.191-2.586-2.606-2.593c-1.428-0.007-2.626,1.188-2.624,2.619
		C6.446,28.687,7.638,29.873,9.071,29.867z"/>
	<path class="st0" d="M39.443,31.615c-1.44,0.007-2.591-1.139-2.59-2.58c0.001-1.435,1.166-2.601,2.59-2.593
		c1.402,0.008,2.563,1.164,2.581,2.57C42.041,30.435,40.879,31.608,39.443,31.615z M39.429,30.252
		c0.684,0.001,1.245-0.564,1.231-1.238c-0.013-0.657-0.571-1.207-1.226-1.21c-0.68-0.003-1.228,0.56-1.219,1.25
		C38.225,29.731,38.752,30.252,39.429,30.252z"/>
</g>
</svg>
