<?xml version="1.0" encoding="utf-8"?>
<!-- Generator: Adobe Illustrator 26.0.1, SVG Export Plug-In . SVG Version: 6.00 Build 0)  -->
<svg version="1.1" id="Layer_1" xmlns="http://www.w3.org/2000/svg" xmlns:xlink="http://www.w3.org/1999/xlink" x="0px" y="0px"
	 width="16.13px" height="20px" viewBox="0 0 16.13 20" style="enable-background:new 0 0 16.13 20;" xml:space="preserve">
<style type="text/css">
	.st0{fill:#666666;}
</style>
<g>
	<path class="st0" d="M16.13,0H4.06L0,4.06V20h16.13V0z M3.87,1.1v2.77H1.1L3.87,1.1z M15.48,19.35H0.65V4.52h3.87V0.65h10.96V19.35
		z"/>
	<rect x="1.29" y="5.161" class="st0" width="0.645" height="0.645"/>
	<rect x="2.581" y="5.161" class="st0" width="0.645" height="0.645"/>
	<rect x="1.29" y="6.452" class="st0" width="0.645" height="0.645"/>
</g>
<g>
	<path class="st0" d="M6.452,6.422v0.293c0,0.314,0.092,0.617,0.266,0.878l0.959,1.439l-1.935,2.903H3.519
		c-0.873,0-1.583,0.71-1.583,1.583v0.059c0,0.873,0.71,1.583,1.583,1.583c0.531,0,1.023-0.264,1.317-0.705l1.251-1.875h3.956
		l1.25,1.875c0.294,0.442,0.787,0.705,1.317,0.705c0.873,0,1.583-0.71,1.583-1.583v-0.059c0-0.873-0.71-1.583-1.583-1.583h-2.223
		L8.453,9.032l0.959-1.439c0.174-0.261,0.266-0.565,0.266-0.878V6.422c0-0.873-0.71-1.583-1.583-1.583H8.035
		C7.162,4.839,6.452,5.549,6.452,6.422z M4.3,14.098c-0.174,0.262-0.466,0.418-0.781,0.418c-0.517,0-0.938-0.421-0.938-0.938v-0.059
		c0-0.517,0.421-0.938,0.938-0.938h1.793L4.3,14.098z M12.611,12.581c0.517,0,0.938,0.421,0.938,0.938v0.059
		c0,0.517-0.421,0.938-0.938,0.938c-0.315,0-0.606-0.156-0.781-0.418l-1.012-1.518H12.611z M9.613,11.935H6.517l1.548-2.322
		L9.613,11.935z M7.097,6.422c0-0.517,0.421-0.938,0.938-0.938h0.059c0.517,0,0.938,0.421,0.938,0.938v0.293
		c0,0.186-0.055,0.366-0.157,0.52l-0.81,1.215l-0.81-1.215c-0.103-0.154-0.157-0.334-0.157-0.52L7.097,6.422L7.097,6.422z"/>
	<rect x="7.742" y="13.226" class="st0" width="0.645" height="0.645"/>
	<rect x="9.033" y="13.226" class="st0" width="0.645" height="0.645"/>
	<rect x="6.452" y="13.226" class="st0" width="0.645" height="0.645"/>
</g>
</svg>
