<?xml version="1.0" encoding="utf-8"?>
<!-- Generator: Adobe Illustrator 26.0.1, SVG Export Plug-In . SVG Version: 6.00 Build 0)  -->
<svg version="1.1" id="Layer_1" xmlns="http://www.w3.org/2000/svg" xmlns:xlink="http://www.w3.org/1999/xlink" x="0px" y="0px"
	 width="512px" height="443.733px" viewBox="0 0 512 443.733" style="enable-background:new 0 0 512 443.733;" xml:space="preserve"
	>
<style type="text/css">
	.st0{fill:#FFFFFF;}
</style>
<g>
	<g>
		<g>
			<path class="st0" d="M19.994,283c1.57,1.254,3.456,1.869,5.325,1.869c2.5,0,4.983-1.101,6.664-3.208
				c4.352-5.436,9.481-10.155,15.232-14.029c3.908-2.637,4.949-7.936,2.313-11.844c-2.628-3.908-7.927-4.941-11.844-2.313
				c-7.194,4.838-13.594,10.735-19.021,17.528C15.718,274.68,16.316,280.056,19.994,283z"/>
			<path class="st0" d="M128,426.667H8.533C3.823,426.667,0,430.49,0,435.2s3.823,8.533,8.533,8.533H128
				c4.71,0,8.533-3.823,8.533-8.533S132.71,426.667,128,426.667z"/>
			<path class="st0" d="M136.55,392.534h-17.067c-4.71,0-8.533,3.823-8.533,8.533s3.823,8.533,8.533,8.533h17.067
				c4.71,0,8.533-3.823,8.533-8.533S141.261,392.534,136.55,392.534z"/>
			<path class="st0" d="M205.056,332.783c4.71,0,8.533-3.823,8.533-8.533s-3.823-8.533-8.533-8.533h-0.085
				c-4.71,0-8.491,3.823-8.491,8.533S200.337,332.783,205.056,332.783z"/>
			<path class="st0" d="M136.55,238.934h-17.067c-4.71,0-8.533,3.823-8.533,8.533s3.823,8.533,8.533,8.533h17.067
				c4.71,0,8.533-3.823,8.533-8.533S141.261,238.934,136.55,238.934z"/>
			<path class="st0" d="M10.402,349.713c0.614,0,1.246-0.06,1.877-0.205c4.599-1.033,7.484-5.598,6.451-10.197
				c-1.101-4.915-1.664-9.975-1.664-15.044c0-5.12,0.563-10.223,1.69-15.181c1.041-4.599-1.843-9.173-6.443-10.214
				c-4.608-1.032-9.165,1.843-10.206,6.443C0.708,311.51,0,317.884,0,324.267c0,6.332,0.7,12.646,2.082,18.79
				C2.978,347.025,6.494,349.713,10.402,349.713z"/>
			<path class="st0" d="M170.684,238.934c-4.71,0-8.533,3.823-8.533,8.533s3.823,8.533,8.533,8.533h17.067
				c4.71,0,8.533-3.823,8.533-8.533s-3.823-8.533-8.533-8.533H170.684z"/>
			<path class="st0" d="M221.884,238.934c-4.71,0-8.533,3.823-8.533,8.533s3.823,8.533,8.533,8.533h17.067
				c4.71,0,8.533-3.823,8.533-8.533s-3.823-8.533-8.533-8.533H221.884z"/>
			<path class="st0" d="M68.514,257.844c0.623,0,1.246-0.068,1.877-0.205c4.855-1.092,9.882-1.638,14.942-1.638
				c4.71,0,8.533-3.823,8.533-8.533s-3.823-8.533-8.533-8.533c-6.306,0-12.587,0.691-18.671,2.048
				c-4.599,1.024-7.492,5.589-6.468,10.189C61.082,255.138,64.606,257.844,68.514,257.844z"/>
			<path class="st0" d="M93.867,221.867H256c4.71,0,8.533-3.823,8.533-8.533s-3.823-8.533-8.533-8.533l-153.6-0.017V51.2
				l8.491-0.009c0.017,0,0.026,0.009,0.043,0.009s0.026-0.009,0.043-0.009l93.15-0.094c0.239,0.102,0.649,0.563,0.674,0.102v59.733
				c0,4.71,3.823,8.533,8.533,8.533s8.533-3.823,8.533-8.533V51.2c0-8.772-8.294-17.067-17.067-17.067h-85.333v-25.6
				c0-4.71-3.823-8.533-8.533-8.533s-8.533,3.823-8.533,8.533v25.6c-9.25,0-17.067,7.817-17.067,17.067v162.133
				C85.333,218.044,89.156,221.867,93.867,221.867z"/>
			<path class="st0" d="M70.272,390.87c-4.565-1.016-9.165,1.852-10.197,6.451s1.852,9.165,6.451,10.197
				c6.153,1.382,12.476,2.082,18.807,2.082c4.71,0,8.533-3.823,8.533-8.533s-3.823-8.533-8.533-8.533
				C80.265,392.534,75.187,391.97,70.272,390.87z"/>
			<path class="st0" d="M85.606,315.717h-0.085c-4.71,0-8.491,3.823-8.491,8.533s3.866,8.533,8.576,8.533s8.533-3.823,8.533-8.533
				S90.317,315.717,85.606,315.717z"/>
			<path class="st0" d="M136.55,324.25c0-28.228-22.972-51.2-51.2-51.2c-28.237,0-51.2,22.972-51.2,51.2
				c0,28.237,22.963,51.2,51.2,51.2C113.579,375.45,136.55,352.487,136.55,324.25z M85.35,358.383
				c-18.825,0-34.133-15.309-34.133-34.133s15.309-34.133,34.133-34.133c18.816,0,34.133,15.309,34.133,34.133
				S104.166,358.383,85.35,358.383z"/>
			<path class="st0" d="M47.232,380.92c-5.7-3.849-10.786-8.525-15.095-13.884c-2.961-3.669-8.329-4.241-12.006-1.306
				c-3.669,2.961-4.25,8.329-1.297,12.006c5.393,6.69,11.733,12.518,18.85,17.331c1.468,0.99,3.123,1.459,4.77,1.459
				c2.739,0,5.427-1.314,7.083-3.763C52.164,388.856,51.14,383.557,47.232,380.92z"/>
			<path class="st0" d="M204.8,375.45c28.237,0,51.2-22.963,51.2-51.2c0-28.228-22.963-51.2-51.2-51.2s-51.2,22.972-51.2,51.2
				C153.6,352.487,176.563,375.45,204.8,375.45z M204.8,290.117c18.825,0,34.133,15.309,34.133,34.133s-15.309,34.133-34.133,34.133
				s-34.133-15.309-34.133-34.133S185.975,290.117,204.8,290.117z"/>
			<path class="st0" d="M290.15,238.934h-17.067c-4.71,0-8.533,3.823-8.533,8.533s3.823,8.533,8.533,8.533h17.067
				c4.71,0,8.533-3.823,8.533-8.533S294.861,238.934,290.15,238.934z"/>
			<path class="st0" d="M397.286,349.637c0.631,0.145,1.263,0.213,1.886,0.213c3.9,0,7.424-2.688,8.32-6.656
				c1.399-6.187,2.108-12.561,2.108-18.944c0-6.332-0.7-12.646-2.082-18.79c-1.033-4.599-5.598-7.501-10.197-6.451
				c-4.599,1.033-7.484,5.598-6.451,10.197c1.101,4.915,1.664,9.975,1.664,15.044c0,5.12-0.563,10.223-1.69,15.181
				C389.803,344.022,392.687,348.596,397.286,349.637z"/>
			<path class="st0" d="M332.8,426.667h-17.067c-4.71,0-8.533,3.823-8.533,8.533s3.823,8.533,8.533,8.533H332.8
				c4.71,0,8.533-3.823,8.533-8.533S337.51,426.667,332.8,426.667z"/>
			<path class="st0" d="M389.606,365.526c-3.669-2.944-9.054-2.355-11.998,1.331c-4.267,5.342-9.429,10.061-15.326,14.029
				c-3.908,2.637-4.941,7.936-2.313,11.844c1.647,2.449,4.343,3.772,7.091,3.772c1.63,0,3.294-0.469,4.753-1.459
				c7.339-4.941,13.764-10.837,19.123-17.527C393.882,373.837,393.284,368.461,389.606,365.526z"/>
			<path class="st0" d="M503.467,392.534h-13.244c-7.219-8.602-29.423-38.869-29.423-85.333c0-46.481,22.229-76.757,29.423-85.333
				h13.244c4.71,0,8.533-3.823,8.533-8.533s-3.823-8.533-8.533-8.533H486.4c-2.261,0-4.437,0.896-6.033,2.5
				c-1.425,1.425-33.348,34.133-36.335,91.366h-10.24l-15.795-86.861c-0.742-4.053-4.275-7.006-8.397-7.006H297.071
				c-1.306-5.675-3.507-14.208-6.886-27.358c-5.41-25.992-24.098-40.909-51.251-40.909H175.94l10.889-21.786
				c2.116-4.215,0.401-9.335-3.814-11.452c-4.215-2.108-9.344-0.393-11.452,3.823l-14.703,29.414H128
				c-4.71,0-8.533,3.823-8.533,8.533s3.823,8.533,8.533,8.533h110.933c13.158,0,29.841,4.745,34.637,27.708
				c3.669,14.293,7.757,30.438,8.346,33.161c0.12,0.905,0.384,1.801,0.802,2.637c1.434,2.918,4.395,4.762,7.646,4.762h112.111
				l15.795,86.861c0.734,4.053,4.275,7.006,8.397,7.006h17.365c2.987,57.233,34.91,89.941,36.335,91.366
				c1.596,1.604,3.772,2.5,6.033,2.5h17.067c4.71,0,8.533-3.823,8.533-8.533S508.177,392.534,503.467,392.534z"/>
			<path class="st0" d="M503.467,426.667H366.933c-4.71,0-8.533,3.823-8.533,8.533s3.823,8.533,8.533,8.533h136.533
				c4.71,0,8.533-3.823,8.533-8.533S508.177,426.667,503.467,426.667z"/>
			<path class="st0" d="M339.123,390.878c-4.881,1.092-9.916,1.638-14.959,1.638c-4.71,0-8.533,3.823-8.533,8.533
				s3.823,8.533,8.533,8.533c6.289,0,12.57-0.683,18.662-2.048c4.599-1.024,7.501-5.581,6.477-10.18
				C348.279,392.756,343.731,389.871,339.123,390.878z"/>
			<path class="st0" d="M371.814,253.449c-3.917-2.628-9.207-1.596-11.844,2.304c-2.637,3.908-1.604,9.207,2.295,11.844
				c5.854,3.951,10.965,8.619,15.206,13.884c1.69,2.091,4.156,3.183,6.647,3.183c1.877,0,3.772-0.614,5.35-1.886
				c3.669-2.953,4.25-8.329,1.289-11.998C385.451,264.184,379.076,258.356,371.814,253.449z"/>
			<path class="st0" d="M339.217,257.647c0.64,0.145,1.271,0.213,1.894,0.213c3.9,0,7.415-2.697,8.312-6.656
				c1.041-4.599-1.852-9.165-6.443-10.206c-6.135-1.382-12.467-2.082-18.816-2.082c-4.71,0-8.533,3.823-8.533,8.533
				s3.823,8.533,8.533,8.533C329.25,255.983,334.319,256.546,339.217,257.647z"/>
			<path class="st0" d="M264.533,426.667H179.2c-4.71,0-8.533,3.823-8.533,8.533s3.823,8.533,8.533,8.533h85.333
				c4.71,0,8.533-3.823,8.533-8.533S269.244,426.667,264.533,426.667z"/>
			<path class="st0" d="M221.884,392.534c-4.71,0-8.533,3.823-8.533,8.533s3.823,8.533,8.533,8.533h17.067
				c4.71,0,8.533-3.823,8.533-8.533s-3.823-8.533-8.533-8.533H221.884z"/>
			<path class="st0" d="M187.75,409.6c4.71,0,8.533-3.823,8.533-8.533s-3.823-8.533-8.533-8.533h-17.067
				c-4.71,0-8.533,3.823-8.533,8.533s3.823,8.533,8.533,8.533H187.75z"/>
			<path class="st0" d="M290.15,392.534h-17.067c-4.71,0-8.533,3.823-8.533,8.533s3.823,8.533,8.533,8.533h17.067
				c4.71,0,8.533-3.823,8.533-8.533S294.861,392.534,290.15,392.534z"/>
			<path class="st0" d="M273.067,324.25c0,28.237,22.963,51.2,51.2,51.2s51.2-22.963,51.2-51.2c0-28.228-22.963-51.2-51.2-51.2
				C296.03,273.05,273.067,296.022,273.067,324.25z M324.267,290.117c18.825,0,34.133,15.309,34.133,34.133
				s-15.309,34.133-34.133,34.133c-18.825,0-34.133-15.309-34.133-34.133S305.442,290.117,324.267,290.117z"/>
			<path class="st0" d="M324.523,332.783c4.719,0,8.533-3.823,8.533-8.533s-3.814-8.533-8.533-8.533h-0.085
				c-4.71,0-8.491,3.823-8.491,8.533S319.804,332.783,324.523,332.783z"/>
		</g>
	</g>
</g>
</svg>
