<?xml version="1.0" encoding="utf-8"?>
<!-- Generator: Adobe Illustrator 26.0.1, SVG Export Plug-In . SVG Version: 6.00 Build 0)  -->
<svg version="1.1" id="Layer_1" xmlns="http://www.w3.org/2000/svg" xmlns:xlink="http://www.w3.org/1999/xlink" x="0px" y="0px"
	 width="75.02px" height="18.2px" viewBox="0 0 75.02 18.2" style="enable-background:new 0 0 75.02 18.2;" xml:space="preserve">
<style type="text/css">
	.st0{fill:#209AD6;}
	.st1{fill:#253D81;}
	.st2{fill:#242E65;}
</style>
<g id="Layer_1_1_">
	<path class="st0" d="M57.72,4.1h-4.1c-0.3,0-0.5,0.2-0.6,0.5l-1.7,10.6c0,0.2,0.1,0.4,0.3,0.4h2.1c0.2,0,0.4-0.1,0.4-0.3l0.5-3
		c0-0.3,0.3-0.5,0.6-0.5h1.3c2.7,0,4.3-1.3,4.7-3.9c0.2-1.1,0-2-0.5-2.7C60.22,4.4,59.12,4.1,57.72,4.1L57.72,4.1z M58.22,7.9
		c-0.2,1.5-1.4,1.5-2.4,1.5h-0.6l0.4-2.8c0-0.2,0.2-0.3,0.3-0.3h0.3c0.7,0,1.4,0,1.8,0.4C58.22,7,58.32,7.4,58.22,7.9L58.22,7.9z"/>
	<path class="st1" d="M28.32,4.1h-4.1c-0.3,0-0.5,0.2-0.6,0.5l-1.6,10.5c0,0.2,0.1,0.4,0.3,0.4h2c0.3,0,0.5-0.2,0.6-0.5l0.4-2.9
		c0-0.3,0.3-0.5,0.6-0.5h1.3c2.7,0,4.3-1.3,4.7-3.9c0.2-1.1,0-2-0.5-2.7C30.82,4.4,29.72,4.1,28.32,4.1z M28.82,7.9
		c-0.2,1.5-1.4,1.5-2.4,1.5h-0.6l0.4-2.8c0-0.2,0.2-0.3,0.3-0.3h0.3c0.7,0,1.4,0,1.8,0.4C28.82,7,28.92,7.4,28.82,7.9L28.82,7.9z
		 M40.72,7.9h-2c-0.2,0-0.3,0.1-0.3,0.3l-0.1,0.6l-0.1-0.2c-0.4-0.6-1.4-0.8-2.3-0.8c-2.2,0-4,1.6-4.4,4c-0.2,1.1,0.1,2.3,0.7,3
		c0.6,0.7,1.5,1,2.5,1c1.8,0,2.7-1.1,2.7-1.1l-0.1,0.6c0,0.2,0.1,0.4,0.3,0.4h1.8c0.3,0,0.5-0.2,0.6-0.5l1.1-6.8
		C41.02,8.1,40.92,7.9,40.72,7.9z M37.92,11.7c-0.2,1.1-1.1,1.9-2.2,1.9c-0.6,0-1-0.2-1.3-0.5c-0.3-0.4-0.4-0.8-0.3-1.4
		c0.2-1.1,1.1-1.9,2.2-1.9c0.6,0,1,0.2,1.3,0.5C37.92,10.7,38.02,11.2,37.92,11.7z"/>
	<path class="st0" d="M70.12,7.9h-2c-0.2,0-0.3,0.1-0.3,0.3l-0.1,0.6l-0.1-0.2c-0.4-0.6-1.4-0.8-2.3-0.8c-2.2,0-4,1.6-4.4,4
		c-0.2,1.1,0.1,2.3,0.7,3c0.6,0.7,1.5,1,2.5,1c1.8,0,2.7-1.1,2.7-1.1l-0.1,0.6c0,0.2,0.1,0.4,0.3,0.4h1.8c0.3,0,0.5-0.2,0.6-0.5
		l1.1-6.8C70.42,8.1,70.32,7.9,70.12,7.9z M67.32,11.7c-0.2,1.1-1.1,1.9-2.2,1.9c-0.6,0-1-0.2-1.3-0.5c-0.3-0.3-0.4-0.8-0.3-1.4
		c0.2-1.1,1.1-1.9,2.2-1.9c0.6,0,1,0.2,1.3,0.5C67.32,10.7,67.42,11.2,67.32,11.7L67.32,11.7z"/>
	<path class="st1" d="M51.22,7.9h-2c-0.2,0-0.4,0.1-0.5,0.3l-2.7,4l-1.2-3.9c-0.1-0.2-0.3-0.4-0.6-0.4h-1.9c-0.2,0-0.4,0.2-0.3,0.5
		l2.2,6.4l-2.1,2.9c-0.2,0.2,0,0.5,0.3,0.5h2c0.2,0,0.4-0.1,0.5-0.2l6.6-9.5C51.62,8.2,51.52,7.9,51.22,7.9L51.22,7.9z"/>
	<path class="st0" d="M72.42,4.4l-1.7,10.8c0,0.2,0.1,0.4,0.3,0.4h1.7c0.3,0,0.5-0.2,0.6-0.5l1.7-10.6c0-0.2-0.1-0.4-0.3-0.4h-1.9
		C72.62,4.1,72.42,4.2,72.42,4.4L72.42,4.4z M13.92,4.6c0.2-1.4,0-2.4-0.8-3.2c-0.9-1-2.4-1.4-4.3-1.4h-5.7c-0.4,0-0.7,0.3-0.8,0.7
		l-2.3,14.9c-0.1,0.3,0.2,0.6,0.5,0.6h3.5l-0.2,1.5c0,0.3,0.2,0.5,0.4,0.5h2.9c0.4,0,0.6-0.3,0.7-0.6v-0.1l0.6-3.5v-0.2
		c0.1-0.4,0.4-0.6,0.7-0.6h0.4c2.9,0,5.1-1.1,5.7-4.5c0.3-1.4,0.1-2.6-0.6-3.4C14.52,5,14.22,4.8,13.92,4.6"/>
	<path class="st2" d="M13.92,4.6c0.2-1.4,0-2.4-0.8-3.2c-0.9-1-2.4-1.4-4.3-1.4h-5.7c-0.4,0-0.7,0.3-0.8,0.7l-2.3,14.9
		c-0.1,0.3,0.2,0.6,0.5,0.6h3.5l0.9-5.6v0.2c0.1-0.4,0.4-0.7,0.8-0.7h1.7c3.3,0,5.8-1.3,6.6-5.2L13.92,4.6"/>
	<path class="st1" d="M5.82,4.6c0-0.2,0.2-0.4,0.4-0.5c0.1,0,0.2-0.1,0.3-0.1h4.4c0.5,0,1,0,1.5,0.1c0.1,0,0.3,0,0.4,0.1
		c0.1,0,0.2,0.1,0.4,0.1l0.2,0.1c0.2,0.1,0.4,0.2,0.6,0.3c0.2-1.4,0-2.4-0.8-3.2c-0.9-1-2.4-1.4-4.3-1.4h-5.7
		c-0.4,0-0.7,0.3-0.8,0.7l-2.4,14.8c-0.1,0.3,0.2,0.6,0.5,0.6h3.5l0.9-5.6L5.82,4.6z"/>
</g>
</svg>
