<?xml version="1.0" encoding="utf-8"?>
<!-- Generator: Adobe Illustrator 26.0.1, SVG Export Plug-In . SVG Version: 6.00 Build 0)  -->
<svg version="1.1" id="Layer_1" xmlns="http://www.w3.org/2000/svg" xmlns:xlink="http://www.w3.org/1999/xlink" x="0px" y="0px"
	 width="48px" height="48px" viewBox="0 0 48 48" style="enable-background:new 0 0 48 48;" xml:space="preserve">
<style type="text/css">
	.st0{fill:#FCCD10;}
</style>
<g>
	<g>
		<g>
			<path class="st0" d="M46.7,25.6c0.8-0.8,1.3-2,1.3-3.2c0-1.2-0.5-2.4-1.3-3.2l-6.4-6.4L33,20.1l3.1,3.1L23.2,36.1L20.1,33
				l-7.3,7.3l6.4,6.4c0.8,0.8,2,1.3,3.2,1.3c1.2,0,2.4-0.5,3.2-1.3l1.8-1.8c2.3,2,5.1,3.1,8.2,3.1C42.4,48,48,42.4,48,35.6
				c0-3-1.1-5.9-3.1-8.2L46.7,25.6z M35.2,20.1l5.1-5.1l1.2,1.2l-5.1,5.1L35.2,20.1z M15,40.3l5.1-5.1l1.2,1.2l-5.1,5.1L15,40.3z
				 M26.3,43.8l-1.8,1.8c-0.6,0.6-1.3,0.9-2.1,0.9c-0.8,0-1.5-0.3-2.1-0.9l-3-3l5.1-5.1l0.8,0.8l15-15l-0.8-0.8l5.1-5.1l3,3
				c0.6,0.6,0.9,1.3,0.9,2.1c0,0.8-0.3,1.5-0.9,2.1l-1.8,1.8L26.3,43.8z M46.5,35.6c0,6-4.9,10.8-10.8,10.8c-2.6,0-5.1-0.9-7.1-2.6
				l15.3-15.3C45.5,30.5,46.5,33,46.5,35.6z"/>
			<path class="st0" d="M20.1,32.5v-2.9c1-0.3,1.9-0.7,2.8-1.2l2,2l5.5-5.5l-2-2c0.5-0.9,0.9-1.9,1.2-2.8h2.9v-7.7h-2.9
				c-0.3-1-0.7-1.9-1.2-2.8l2-2L25,2l-2,2c-0.9-0.5-1.9-0.9-2.8-1.2V0h-7.7v2.9c-1,0.3-1.9,0.7-2.8,1.2l-2-2L2,7.5l2,2
				c-0.5,0.9-0.9,1.9-1.2,2.8H0v7.7h2.9c0.3,1,0.7,1.9,1.2,2.8l-2,2l5.5,5.5l2-2c0.9,0.5,1.9,0.9,2.8,1.2v2.9H20.1z M9.8,26.8
				l-0.5-0.3l-1.8,1.8L4.2,25L6,23.2l-0.3-0.5c-0.7-1.1-1.2-2.3-1.5-3.5l-0.1-0.6H1.5v-4.6h2.5l0.1-0.6c0.3-1.2,0.8-2.4,1.5-3.5
				L6,9.3L4.2,7.5l3.3-3.3L9.3,6l0.5-0.3c1.1-0.7,2.3-1.2,3.5-1.5l0.6-0.1V1.5h4.6v2.5l0.6,0.1c1.2,0.3,2.4,0.8,3.5,1.5L23.2,6
				L25,4.2l3.3,3.3l-1.8,1.8l0.3,0.5c0.7,1.1,1.2,2.3,1.5,3.5l0.1,0.6H31v4.6h-2.5l-0.1,0.6c-0.3,1.2-0.8,2.4-1.5,3.5l-0.3,0.5
				l1.8,1.8L25,28.3l-1.8-1.8l-0.5,0.3c-1.1,0.7-2.3,1.2-3.5,1.5l-0.6,0.1V31h-4.6v-2.5l-0.6-0.1C12.1,28,10.9,27.5,9.8,26.8z"/>
			<path class="st0" d="M24.8,16.3c0-4.7-3.8-8.5-8.5-8.5s-8.5,3.8-8.5,8.5s3.8,8.5,8.5,8.5S24.8,21,24.8,16.3z M9.3,16.3
				c0-3.8,3.1-7,7-7s7,3.1,7,7s-3.1,7-7,7S9.3,20.1,9.3,16.3z"/>
			
				<rect x="22.5" y="31.4" transform="matrix(0.7071 -0.7071 0.7071 0.7071 -16.1899 25.9469)" class="st0" width="1.5" height="2.2"/>
			
				<rect x="31.7" y="22.1" transform="matrix(0.7071 -0.7071 0.7071 0.7071 -6.8997 29.7948)" class="st0" width="1.5" height="2.2"/>
		</g>
	</g>
</g>
</svg>
