<?xml version="1.0" encoding="utf-8"?>
<!-- Generator: Adobe Illustrator 26.0.1, SVG Export Plug-In . SVG Version: 6.00 Build 0)  -->
<svg version="1.1" id="Capa_1" xmlns="http://www.w3.org/2000/svg" xmlns:xlink="http://www.w3.org/1999/xlink" x="0px" y="0px"
	 width="48px" height="48px" viewBox="0 0 48 48" style="enable-background:new 0 0 48 48;" xml:space="preserve">
<style type="text/css">
	.st0{fill:#FCCD10;}
</style>
<path class="st0" d="M46.2,20.7H30.4c-0.6-1.2-1.5-2.1-2.7-2.8l2.9-8.2c0-0.1,0-0.2,0.1-0.2c0.5-2.3-0.1-4.7-1.6-6.5
	c-1.2-1.5-2.8-2.4-4.6-2.7C24.3,0,24.2,0,24,0c-0.1,0-0.2,0-0.2,0c-0.2,0-0.5,0-0.8,0h-0.6c-1,0-1.8,0.8-1.8,1.8v15.8
	c-1.2,0.6-2.1,1.5-2.8,2.7l-8.2-2.9c-0.1,0-0.2,0-0.2-0.1c-0.5-0.1-1.1-0.2-1.6-0.2c-3.9,0-7.2,2.9-7.7,6.7c0,0,0,0.1,0,0.1
	C0,24.3,0,24.6,0,25v0.6c0,1,0.8,1.8,1.8,1.8h15.8c0.6,1.2,1.5,2.1,2.7,2.8l-2.9,8.2c0,0.1,0,0.2-0.1,0.2c-0.5,2.3,0.1,4.7,1.6,6.5
	C20.4,47,22.6,48,25,48h0.6c1,0,1.8-0.8,1.8-1.8V30.4c1.2-0.6,2.1-1.5,2.8-2.7l8.2,2.9c0.1,0,0.2,0,0.2,0.1c0.5,0.1,1.1,0.2,1.6,0.2
	c4.3,0,7.8-3.5,7.8-7.8v-0.6C48,21.5,47.2,20.7,46.2,20.7z M22.2,17V1.8c0-0.1,0.1-0.3,0.3-0.3H23c0.1,0,0.2,0,0.2,0v10.9
	c0,0.4,0.3,0.8,0.8,0.8s0.8-0.3,0.8-0.8V1.8c1.2,0.3,2.3,1.1,3.1,2.1c1.2,1.5,1.7,3.4,1.3,5.3c0,0,0,0,0,0l-2.8,8.1
	c-0.4-0.1-0.8-0.2-1.3-0.3c0,0,0,0,0,0c-0.1,0-0.2,0-0.3,0c0,0,0,0-0.1,0c-0.1,0-0.2,0-0.3,0c0,0-0.1,0-0.1,0c-0.1,0-0.2,0-0.3,0
	c0,0,0,0,0,0c0,0,0,0,0,0c0,0,0,0,0,0c-0.1,0-0.2,0-0.3,0c0,0,0,0-0.1,0c-0.1,0-0.2,0-0.3,0c0,0,0,0,0,0
	C22.9,16.9,22.5,16.9,22.2,17z M17,25.8H1.8c-0.1,0-0.3-0.1-0.3-0.3V25c0-0.1,0-0.2,0-0.2h12.2c0.4,0,0.8-0.3,0.8-0.8
	c0-0.4-0.3-0.8-0.8-0.8H1.8c0.8-2.6,3.2-4.6,6-4.6c0.4,0,0.9,0,1.3,0.1c0,0,0,0,0,0l8.1,2.8c-0.1,0.4-0.2,0.8-0.3,1.3c0,0,0,0,0,0
	c0,0.1,0,0.2,0,0.3c0,0,0,0,0,0c0,0.1,0,0.2,0,0.3c0,0,0,0,0,0c0,0.1,0,0.2,0,0.4c0,0.1,0,0.2,0,0.4c0,0,0,0,0,0
	C16.8,24.9,16.9,25.4,17,25.8z M25.8,31v15.3c0,0.1-0.1,0.3-0.3,0.3H25c-1.9,0-3.7-0.8-4.9-2.3s-1.7-3.4-1.3-5.2c0,0,0,0,0,0
	l2.8-8.1c0.4,0.1,0.8,0.2,1.2,0.3c0,0,0,0,0.1,0c0.1,0,0.2,0,0.3,0c0,0,0,0,0,0v10.9c0,0.4,0.3,0.8,0.8,0.8s0.8-0.3,0.8-0.8V31.2
	c0,0,0,0,0,0c0.1,0,0.2,0,0.3,0c0,0,0,0,0,0c0.1,0,0.2,0,0.3-0.1c0,0,0,0,0,0C25.6,31,25.7,31,25.8,31z M26.2,29.2
	C26.2,29.3,26.2,29.3,26.2,29.2c-0.1,0-0.2,0.1-0.3,0.1c0,0,0,0,0,0c-0.1,0-0.2,0.1-0.2,0.1c0,0,0,0,0,0c-0.3,0.1-0.5,0.1-0.8,0.2
	c0,0,0,0,0,0c-0.1,0-0.2,0-0.3,0c-0.2,0-0.4,0-0.6,0c-0.1,0-0.2,0-0.3,0c0,0-0.1,0-0.1,0c-0.1,0-0.1,0-0.2,0c-0.1,0-0.1,0-0.2,0
	c0,0-0.1,0-0.1,0c-0.1,0-0.1,0-0.2,0c0,0-0.1,0-0.1,0c-0.1,0-0.1,0-0.2,0c0,0,0,0-0.1,0c-0.1,0-0.2,0-0.2-0.1c0,0,0,0,0,0
	c-2.3-0.7-4-2.9-4-5.4c0-0.1,0-0.1,0-0.2c0,0,0-0.1,0-0.1c0-0.1,0-0.1,0-0.2c0,0,0-0.1,0-0.1c0-0.1,0-0.2,0-0.2c0,0,0,0,0-0.1
	c0-0.1,0-0.2,0-0.2c0,0,0,0,0,0c0-0.1,0-0.2,0.1-0.2c0,0,0,0,0,0c0-0.1,0-0.2,0.1-0.3c0,0,0,0,0,0c0.7-2.3,2.9-4,5.4-4
	c0.1,0,0.2,0,0.3,0c0.1,0,0.1,0,0.2,0c0,0,0.1,0,0.1,0c0.1,0,0.1,0,0.2,0c0,0,0.1,0,0.1,0c0.1,0,0.1,0,0.2,0c0,0,0,0,0.1,0
	c0.1,0,0.2,0,0.2,0.1c0,0,0,0,0,0c0.1,0,0.2,0,0.2,0.1c0,0,0,0,0,0c1.6,0.5,2.9,1.7,3.5,3.2c0,0,0,0,0,0c0,0.1,0.1,0.1,0.1,0.2
	c0,0,0,0,0,0c0.2,0.4,0.3,0.9,0.3,1.3c0,0.2,0,0.4,0,0.6c0,0.1,0,0.2,0,0.3c0,0,0,0.1,0,0.1c0,0.1,0,0.1,0,0.2c0,0.1,0,0.1,0,0.2
	c0,0,0,0.1,0,0.1c0,0.1,0,0.1,0,0.2c0,0,0,0.1,0,0.1c0,0.1,0,0.1,0,0.2c0,0,0,0,0,0.1c0,0.1,0,0.2-0.1,0.2c0,0,0,0,0,0
	C28.9,27.3,27.7,28.6,26.2,29.2z M46.5,23c0,3.5-2.8,6.3-6.3,6.3c-0.4,0-0.9,0-1.3-0.1c0,0,0,0,0,0l-8.1-2.8
	c0.1-0.4,0.2-0.8,0.3-1.2c0,0,0,0,0-0.1c0-0.1,0-0.2,0-0.3c0,0,0,0,0,0h10.9c0.4,0,0.8-0.3,0.8-0.8c0-0.4-0.3-0.8-0.8-0.8H31.2
	c0,0,0,0,0,0c0-0.1,0-0.2,0-0.3c0,0,0,0,0,0c0-0.1,0-0.2-0.1-0.3c0,0,0,0,0,0c0-0.1-0.1-0.2-0.1-0.4h15.3c0.1,0,0.3,0.1,0.3,0.3V23z
	 M27.3,24c0,1.8-1.5,3.3-3.3,3.3c-1.8,0-3.3-1.5-3.3-3.3c0-1.8,1.5-3.3,3.3-3.3C25.8,20.7,27.3,22.2,27.3,24z"/>
</svg>
