<?xml version="1.0" encoding="utf-8"?>
<!-- Generator: Adobe Illustrator 26.0.1, SVG Export Plug-In . SVG Version: 6.00 Build 0)  -->
<svg version="1.1" id="Layer_1" xmlns="http://www.w3.org/2000/svg" xmlns:xlink="http://www.w3.org/1999/xlink" x="0px" y="0px"
	 width="104px" height="104px" viewBox="0 0 104 104" style="enable-background:new 0 0 104 104;" xml:space="preserve">
<style type="text/css">
	.st0{fill:#FCCD16;}
	.st1{fill:#FFFFFF;}
</style>
<g>
	<ellipse transform="matrix(0.9732 -0.2298 0.2298 0.9732 -10.5561 13.3383)" class="st0" cx="52" cy="52" rx="51" ry="51"/>
	<path class="st1" d="M52,2c27.614,0,50,22.386,50,50s-22.386,50-50,50S2,79.614,2,52S24.386,2,52,2 M52,0C23.327,0,0,23.327,0,52
		c0,28.673,23.327,52,52,52c28.673,0,52-23.327,52-52C104,23.327,80.673,0,52,0L52,0z"/>
</g>
<path class="st1" d="M43.176,34.806c0.01-0.352,0.042-1.426,0.858-1.734c0.806-0.304,1.586,0.476,1.736,0.636
	c0.252,0.27,0.238,0.696-0.032,0.95c-0.27,0.252-0.696,0.24-0.948-0.03c-0.066-0.068-0.152-0.138-0.23-0.194
	c-0.018,0.092-0.034,0.224-0.04,0.41c-0.048,1.622,1.218,2.116,1.23,2.12c0.244,0.09,0.412,0.314,0.434,0.574
	c0.372,4.426,3.854,5.858,5.482,5.858c1.628,0,5.11-1.432,5.482-5.858c0.022-0.258,0.19-0.482,0.434-0.574
	c0.126-0.05,1.276-0.552,1.23-2.118c-0.006-0.186-0.022-0.32-0.04-0.41c-0.078,0.054-0.164,0.126-0.228,0.194
	c-0.256,0.27-0.682,0.28-0.95,0.026c-0.27-0.254-0.284-0.676-0.03-0.948c0.15-0.16,0.936-0.938,1.736-0.636
	c0.816,0.308,0.848,1.382,0.858,1.734c0.056,1.91-1.082,2.85-1.708,3.222c-0.57,4.628-4.264,6.714-6.782,6.714
	s-6.216-2.088-6.786-6.714C44.258,37.656,43.12,36.716,43.176,34.806z M51.666,47.315c0,0,1.43-0.316,1.43-1.592h-1.43h-1.43
	C50.236,46.999,51.666,47.315,51.666,47.315z M51.628,59.871l2.794-2.27c-0.294-1.458-1.628-10.144-1.724-10.286
	c-0.554,0.38-1.032,0.43-1.032,0.43s-0.476-0.052-1.032-0.43c-0.096,0.142-1.432,8.828-1.724,10.286L51.628,59.871z M56.36,34.71
	c0.136,0,0.266,0.054,0.36,0.15c0.094,0.096,0.148,0.228,0.144,0.362c-0.008,0.466-0.088,2.034-0.776,2.592
	c-0.438,0.356-1.124,0.578-1.788,0.578c-0.634,0-1.168-0.202-1.502-0.566c-0.36-0.394-0.598-1.218-0.736-1.832h-0.796
	c-0.136,0.614-0.376,1.438-0.736,1.832c-0.334,0.366-0.866,0.566-1.502,0.566c-0.664,0-1.348-0.222-1.786-0.578
	c-0.688-0.558-0.768-2.124-0.776-2.592c-0.002-0.136,0.05-0.266,0.144-0.362c0.096-0.096,0.224-0.15,0.36-0.15h3.932
	c0.148,0,0.288,0.064,0.382,0.176c0.024,0.028,0.036,0.066,0.054,0.098h0.652c0.018-0.034,0.028-0.07,0.054-0.098
	c0.096-0.112,0.236-0.176,0.382-0.176C52.43,34.71,56.36,34.71,56.36,34.71z M50.296,35.718H47.51c0.062,0.59,0.2,1.176,0.372,1.314
	c0.466,0.378,1.596,0.454,1.908,0.114C49.974,36.942,50.168,36.3,50.296,35.718z M55.824,35.718h-2.786
	c0.128,0.582,0.322,1.224,0.508,1.428c0.31,0.342,1.442,0.266,1.908-0.114C55.618,36.896,55.76,36.31,55.824,35.718z M57.064,32.35
	c-0.028,0.37,0.25,0.692,0.62,0.72c0.016,0.002,0.034,0.002,0.05,0.002c0.35,0,0.644-0.27,0.67-0.622
	c0.16-2.158-1.274-3.118-1.336-3.158c-0.308-0.202-0.714-0.112-0.92,0.192c-0.206,0.306-0.122,0.722,0.18,0.93
	C56.362,30.438,57.164,31.01,57.064,32.35z M46.05,33.354c0.372,0,0.672-0.302,0.672-0.672c0-3.176,2.558-3.328,2.838-3.336h5.756
	c0.372,0,0.672-0.302,0.672-0.672c0-0.37-0.3-0.674-0.672-0.674H49.55c-1.442,0.02-4.172,1.022-4.172,4.68
	C45.378,33.052,45.68,33.354,46.05,33.354z M33.351,58.395c0.57,4.628,4.264,6.714,6.784,6.714c2.52,0,6.214-2.088,6.782-6.714
	c0.626-0.37,1.764-1.31,1.708-3.222c-0.01-0.352-0.042-1.426-0.858-1.734c-0.8-0.302-1.586,0.476-1.736,0.636
	c-0.252,0.27-0.238,0.694,0.03,0.948s0.694,0.242,0.95-0.026c0.064-0.068,0.15-0.14,0.228-0.194c0.018,0.092,0.034,0.224,0.04,0.41
	c0.046,1.566-1.106,2.068-1.23,2.118c-0.244,0.09-0.412,0.314-0.434,0.574c-0.372,4.426-3.854,5.858-5.482,5.858
	s-5.11-1.432-5.482-5.858c-0.022-0.258-0.19-0.482-0.434-0.574c-0.014-0.004-1.278-0.498-1.23-2.118
	c0.006-0.186,0.022-0.32,0.04-0.41c0.078,0.054,0.162,0.126,0.226,0.192c0.254,0.272,0.682,0.286,0.95,0.032
	c0.272-0.254,0.286-0.68,0.032-0.95c-0.148-0.16-0.93-0.94-1.736-0.636c-0.816,0.308-0.848,1.38-0.858,1.734
	C31.587,57.085,32.723,58.025,33.351,58.395z M38.683,66.092c0,1.276,1.406,1.592,1.406,1.592s1.406-0.316,1.406-1.592h-1.406
	H38.683z M37.989,65.806c-0.156-0.336-0.558-0.482-0.894-0.322l-1.462,0.686l-0.132-2.424c-0.02-0.372-0.338-0.654-0.708-0.634
	c-0.372,0.02-0.656,0.338-0.634,0.708l0.028,0.52c-1.728,0.656-7.768,3.482-7.768,10.986c0,0.37,0.3,0.672,0.672,0.672
	s0.672-0.302,0.672-0.672c0-6.27,4.638-8.812,6.5-9.58l0.082,1.492c0.012,0.224,0.134,0.426,0.326,0.54
	c0.106,0.064,0.226,0.096,0.346,0.096c0.098,0,0.196-0.02,0.286-0.064l2.364-1.11C38.003,66.544,38.147,66.144,37.989,65.806z
	 M41.552,46.395c0.18,0,0.362-0.072,0.494-0.216c1.178-1.274,2.63-2.226,4.204-2.756c0.352-0.118,0.542-0.5,0.422-0.852
	c-0.118-0.352-0.496-0.542-0.852-0.424c-1.786,0.604-3.434,1.68-4.762,3.118c-0.254,0.274-0.236,0.7,0.036,0.952
	C41.224,46.337,41.388,46.395,41.552,46.395z M32.313,73.294c-0.372,0-0.672,0.302-0.672,0.672v1.358c0,0.372,0.3,0.672,0.672,0.672
	c0.372,0,0.672-0.302,0.672-0.672v-1.358C32.985,73.596,32.685,73.294,32.313,73.294z M47.952,73.294
	c-0.372,0-0.672,0.302-0.672,0.672v1.358c0,0.372,0.3,0.672,0.672,0.672s0.672-0.302,0.672-0.672v-1.358
	C48.624,73.596,48.324,73.294,47.952,73.294z M46.002,64.342l0.028-0.52c0.02-0.37-0.264-0.688-0.634-0.708
	c-0.37-0.016-0.688,0.264-0.708,0.634l-0.132,2.424l-1.462-0.686c-0.338-0.158-0.738-0.012-0.894,0.322
	c-0.158,0.336-0.014,0.736,0.322,0.894l2.364,1.11c0.09,0.042,0.188,0.064,0.286,0.064c0.12,0,0.238-0.032,0.346-0.096
	c0.192-0.114,0.314-0.318,0.326-0.54l0.082-1.492c1.862,0.768,6.5,3.308,6.5,9.58c0,0.372,0.3,0.672,0.672,0.672
	s0.672-0.302,0.672-0.672C53.77,67.822,47.728,64.996,46.002,64.342z M34.071,53.003c0.034,0.006,0.068,0.008,0.1,0.008
	c0.326,0,0.614-0.238,0.664-0.572c0.102-0.676,0.37-1.292,0.776-1.784c0.236-0.286,0.198-0.71-0.09-0.948
	c-0.286-0.236-0.71-0.196-0.948,0.09c-0.562,0.68-0.932,1.524-1.072,2.44C33.451,52.605,33.705,52.947,34.071,53.003z
	 M36.605,50.047h5.502c0.276,0.006,2.704,0.154,2.704,3.168c0,0.372,0.3,0.672,0.672,0.672c0.372,0,0.672-0.302,0.672-0.672
	c0-3.528-2.634-4.494-4.036-4.514h-5.514c-0.372,0-0.672,0.302-0.672,0.672C35.933,49.743,36.233,50.047,36.605,50.047z
	 M37.139,48.185h5.436c0.14-0.002,3.428,0.014,3.816,3.346c0.04,0.342,0.33,0.594,0.668,0.594c0.026,0,0.052-0.002,0.078-0.004
	c0.37-0.044,0.632-0.378,0.59-0.746c-0.426-3.644-3.574-4.556-5.16-4.534h-5.428c-0.372,0-0.672,0.302-0.672,0.672
	C36.467,47.883,36.767,48.185,37.139,48.185z M55.47,67.436c-0.372,0-0.672,0.302-0.672,0.672v7.188c0,0.372,0.3,0.672,0.672,0.672
	s0.672-0.302,0.672-0.672v-7.188C56.144,67.738,55.842,67.436,55.47,67.436z M72.343,67.436c-0.372,0-0.672,0.302-0.672,0.672v7.188
	c0,0.372,0.3,0.672,0.672,0.672s0.672-0.302,0.672-0.672v-7.188C73.015,67.738,72.713,67.436,72.343,67.436z M63.944,39.6
	c0.002,0,0.002,0,0.002,0c3.542,0,6.634,2.702,7.288,6.254c0.112,0.004,0.226,0.02,0.342,0.064c0.816,0.308,0.848,1.38,0.858,1.734
	c0.056,1.91-1.082,2.85-1.708,3.222c-0.57,4.628-4.264,6.714-6.784,6.714c-2.518,0-6.214-2.088-6.784-6.714
	c-0.626-0.37-1.764-1.31-1.708-3.222c0.01-0.352,0.042-1.426,0.858-1.734c0.116-0.044,0.23-0.06,0.342-0.064
	C57.312,42.301,60.404,39.6,63.944,39.6z M57.926,46.433c0.054,0.05,0.098,0.094,0.124,0.12c0.254,0.272,0.238,0.696-0.032,0.952
	c-0.27,0.252-0.696,0.24-0.95-0.032c-0.064-0.066-0.15-0.138-0.226-0.192c-0.018,0.092-0.034,0.224-0.04,0.41
	c-0.048,1.622,1.216,2.114,1.23,2.118c0.244,0.09,0.412,0.314,0.434,0.574c0.372,4.426,3.854,5.858,5.482,5.858
	c1.628,0,5.11-1.432,5.482-5.858c0.022-0.258,0.19-0.482,0.434-0.574c0.126-0.05,1.276-0.552,1.23-2.118
	c-0.006-0.186-0.022-0.32-0.04-0.41c-0.078,0.054-0.164,0.126-0.228,0.194c-0.256,0.27-0.682,0.28-0.95,0.026
	c-0.27-0.254-0.284-0.678-0.03-0.948c0.024-0.026,0.068-0.07,0.124-0.12c-0.4-3.09-3.012-5.488-6.018-5.488c0,0,0,0-0.002,0l0,0
	C60.938,40.945,58.326,43.343,57.926,46.433z M59.524,50.517c-0.862-0.952-0.724-2.466-0.716-2.53
	c0.024-0.258,0.242-0.454,0.502-0.454h3.358h0.68h1.198h0.842h3.198c0.26,0,0.476,0.196,0.502,0.456
	c0.006,0.064,0.144,1.58-0.718,2.53c-0.444,0.49-1.052,0.738-1.808,0.738c-0.77,0-1.388-0.252-1.832-0.75
	c-0.166-0.186-0.284-0.394-0.382-0.608h-0.802c-0.098,0.214-0.216,0.422-0.382,0.608c-0.444,0.498-1.06,0.75-1.832,0.75
	C60.574,51.255,59.966,51.007,59.524,50.517z M64.062,48.887c-0.016-0.124-0.024-0.242-0.03-0.348H63.86
	c-0.004,0.106-0.014,0.224-0.03,0.348H64.062z M65.041,48.541c0.02,0.382,0.114,0.928,0.442,1.296c0.248,0.276,0.6,0.41,1.076,0.41
	c0.464,0,0.81-0.132,1.058-0.404c0.334-0.366,0.434-0.914,0.462-1.302h-2.694H65.041z M59.812,48.541
	c0.026,0.386,0.128,0.936,0.462,1.302c0.248,0.272,0.594,0.404,1.058,0.404c0.478,0,0.83-0.136,1.078-0.412
	c0.326-0.364,0.418-0.91,0.44-1.292h-0.182L59.812,48.541L59.812,48.541z M77.581,67.802v7.516c0,0.372-0.3,0.672-0.672,0.672
	s-0.672-0.302-0.672-0.672v-7.516c0-4.03-1.844-6.526-3.614-8.002c-3.042,3.168-5.96,4.778-8.678,4.778
	c-2.738,0-5.682-1.636-8.748-4.852c-1.884,1.554-3.144,3.76-3.48,6.264c-0.05,0.368-0.388,0.624-0.756,0.578
	c-0.368-0.05-0.626-0.388-0.578-0.756c0.572-4.258,3.486-7.764,7.608-9.146c0.262-0.088,0.548-0.006,0.726,0.202
	c0.026,0.032,2.716,3.156,5.228,3.156c2.508,0,5.12-3.118,5.146-3.15c0.172-0.208,0.452-0.294,0.712-0.216
	C69.879,56.685,77.581,59.101,77.581,67.802z M71.523,58.993c-0.71-0.456-1.334-0.744-1.714-0.898
	c-0.854,0.924-3.282,3.276-5.864,3.276c-2.586,0-5.072-2.366-5.938-3.28c-0.6,0.23-1.168,0.514-1.7,0.844
	c2.75,2.846,5.32,4.302,7.638,4.302C66.245,63.235,68.795,61.799,71.523,58.993z M38.285,71.926l3.932,1.872
	c-0.118-0.68-0.254-1.472-0.394-2.266l-3.18-1.634C38.531,70.53,38.407,71.23,38.285,71.926z M39.075,67.684
	c-0.02,0.03-0.088,0.352-0.178,0.832l2.632,1.354c-0.216-1.202-0.39-2.13-0.428-2.186c-0.544,0.38-1.014,0.43-1.014,0.43
	S39.621,68.062,39.075,67.684z M37.697,75.326h4.598l-4.248-2.024C37.895,74.176,37.767,74.926,37.697,75.326z M40.208,55.423v3.174
	h-0.826c-0.372,0-0.672,0.302-0.672,0.672c0,0.37,0.3,0.672,0.672,0.672h1.5c0.372,0,0.672-0.302,0.672-0.672v-3.846
	c0-0.372-0.3-0.672-0.672-0.672C40.51,54.749,40.208,55.051,40.208,55.423z"/>
</svg>
