<?xml version="1.0" encoding="utf-8"?>
<!-- Generator: Adobe Illustrator 26.0.1, SVG Export Plug-In . SVG Version: 6.00 Build 0)  -->
<svg version="1.1" id="Layer_1" xmlns="http://www.w3.org/2000/svg" xmlns:xlink="http://www.w3.org/1999/xlink" x="0px" y="0px"
	 width="104px" height="104px" viewBox="0 0 104 104" style="enable-background:new 0 0 104 104;" xml:space="preserve">
<style type="text/css">
	.st0{fill:#FCCD16;}
	.st1{fill:#FFFFFF;}
</style>
<g>
	<ellipse transform="matrix(0.9732 -0.2298 0.2298 0.9732 -10.5561 13.3383)" class="st0" cx="52" cy="52" rx="51" ry="51"/>
	<path class="st1" d="M52,2c27.614,0,50,22.386,50,50s-22.386,50-50,50S2,79.614,2,52S24.386,2,52,2 M52,0C23.327,0,0,23.327,0,52
		c0,28.673,23.327,52,52,52c28.673,0,52-23.327,52-52C104,23.327,80.673,0,52,0L52,0z"/>
</g>
<g>
	<g>
		<path class="st1" d="M51.502,51.811l-3.778-4.105c-0.543-0.603-0.518-1.522,0.055-2.095c0.616-0.557,1.536-0.532,2.109,0.042
			l1.346,1.455l3.495-4.821c0.501-0.668,1.414-0.816,2.082-0.344c0.32,0.23,0.537,0.587,0.598,0.982
			c0.06,0.395-0.035,0.784-0.268,1.097L51.502,51.811z M48.815,46.129c-0.14,0-0.282,0.051-0.398,0.155
			c-0.209,0.21-0.22,0.56-0.007,0.797l3.006,3.266l4.979-6.879c0.084-0.112,0.118-0.255,0.096-0.402
			c-0.023-0.15-0.102-0.283-0.218-0.367c-0.254-0.18-0.604-0.118-0.796,0.138l-4.155,5.732l-2.102-2.273
			C49.109,46.186,48.963,46.129,48.815,46.129z"/>
	</g>
	<g>
		<path class="st1" d="M58.902,76l-6.896-13.778l-6.908,13.777l-1.685-5.649l-5.882,1.667l6.098-12.145l-2.885,0.822
			c-0.818,0.222-1.66-0.004-2.261-0.607c-0.6-0.602-0.825-1.443-0.603-2.25l1.065-3.727l-3.754-0.955
			c-0.809-0.204-1.445-0.836-1.66-1.649c-0.217-0.822,0.017-1.662,0.629-2.25l2.741-2.687l-2.759-2.705
			c-0.613-0.588-0.848-1.434-0.625-2.26c0.222-0.82,0.846-1.426,1.669-1.624l3.747-0.964l-1.064-3.723
			c-0.223-0.817,0.004-1.66,0.607-2.26c0.602-0.6,1.44-0.827,2.251-0.604l3.729,1.065l0.966-3.757
			c0.193-0.802,0.824-1.44,1.645-1.656c0.819-0.216,1.682,0.026,2.248,0.633l2.693,2.768l2.69-2.777
			c0.563-0.604,1.397-0.843,2.224-0.625c0.826,0.215,1.463,0.853,1.662,1.664l0.965,3.75l3.723-1.064
			c0.824-0.222,1.668,0.006,2.265,0.607c0.598,0.601,0.822,1.443,0.599,2.25l-1.065,3.729l3.757,0.966
			c0.812,0.195,1.436,0.802,1.659,1.621c0.224,0.825-0.012,1.672-0.63,2.265l-2.753,2.7l2.746,2.692
			c0.61,0.585,0.844,1.43,0.622,2.253c-0.219,0.81-0.856,1.434-1.664,1.631l-3.749,0.964l1.064,3.723
			c0.222,0.823-0.008,1.666-0.611,2.265c-0.604,0.599-1.442,0.825-2.248,0.6l-2.889-0.823l6.098,12.145l-5.882-1.667L58.902,76z
			 M44.269,68.787l1.129,3.783l6.608-13.18l6.595,13.178l1.129-3.782l4.313,1.223l-6.1-12.148l5.661,1.612
			c0.353,0.098,0.734-0.006,1.011-0.279c0.276-0.274,0.382-0.658,0.282-1.026l-1.42-4.966l5.019-1.29
			c0.371-0.09,0.648-0.363,0.747-0.731c0.1-0.37-0.005-0.749-0.28-1.013l-3.674-3.602l3.682-3.61
			c0.283-0.272,0.389-0.653,0.289-1.023c-0.099-0.365-0.376-0.635-0.74-0.723l-5.027-1.293l1.421-4.975
			c0.099-0.358-0.004-0.74-0.277-1.014c-0.272-0.274-0.658-0.38-1.028-0.279l-4.966,1.418l-1.291-5.017
			c-0.09-0.37-0.371-0.646-0.752-0.746c-0.368-0.094-0.737,0.006-0.986,0.272l-3.607,3.723l-3.612-3.714
			c-0.26-0.278-0.633-0.379-1.007-0.282c-0.375,0.099-0.65,0.374-0.737,0.736l-1.293,5.027l-4.975-1.421
			c-0.356-0.1-0.738,0.006-1.013,0.28c-0.276,0.275-0.38,0.657-0.28,1.022l1.419,4.968l-5.017,1.291
			c-0.375,0.09-0.651,0.36-0.75,0.725c-0.1,0.37,0.006,0.751,0.284,1.018l3.687,3.615l-3.67,3.597
			c-0.279,0.268-0.384,0.646-0.286,1.015c0.099,0.373,0.378,0.652,0.746,0.745l5.02,1.277L39.1,58.178
			c-0.098,0.357,0.006,0.737,0.28,1.013c0.274,0.276,0.655,0.38,1.022,0.281l5.654-1.61l-6.1,12.148L44.269,68.787z M52.387,57.763
			c-6.167,0-11.184-5.017-11.184-11.184c0-6.174,5.017-11.196,11.184-11.196c6.166,0,11.183,5.017,11.183,11.184
			C63.57,52.741,58.553,57.763,52.387,57.763z M52.387,36.652c-5.467,0-9.916,4.454-9.916,9.928c0,5.467,4.448,9.916,9.916,9.916
			s9.915-4.454,9.915-9.928C62.302,41.1,57.854,36.652,52.387,36.652z"/>
	</g>
</g>
</svg>
