<?xml version="1.0" encoding="utf-8"?>
<!-- Generator: Adobe Illustrator 26.0.1, SVG Export Plug-In . SVG Version: 6.00 Build 0)  -->
<svg version="1.1" id="Layer_1" xmlns="http://www.w3.org/2000/svg" xmlns:xlink="http://www.w3.org/1999/xlink" x="0px" y="0px"
	 width="48px" height="48px" viewBox="0 0 48 48" style="enable-background:new 0 0 48 48;" xml:space="preserve">
<style type="text/css">
	.st0{fill:#FCCD10;}
</style>
<g>
	<g>
		<g>
			<path class="st0" d="M9.1,7c0.2,0,0.4-0.1,0.5-0.2c1.6-1.3,3.4-2.4,5.2-3.3c0.4-0.2,0.6-0.7,0.4-1.1s-0.7-0.6-1.1-0.4
				c-2,0.9-3.9,2.1-5.6,3.5C8.2,5.9,8.2,6.4,8.5,6.7C8.6,6.9,8.9,7,9.1,7z"/>
			<path class="st0" d="M5.3,11.6c0.2-0.4,0.1-0.9-0.2-1.1c-0.4-0.2-0.9-0.1-1.1,0.2c-1,1.5-1.9,3.3-2.6,5.3c-0.1,0.4,0.1,0.9,0.5,1
				c0.1,0,0.2,0,0.3,0c0.3,0,0.6-0.2,0.8-0.5C3.5,14.7,4.3,13,5.3,11.6z"/>
			<path class="st0" d="M2,19.7c0.1-0.4-0.2-0.9-0.6-0.9c-0.4-0.1-0.9,0.2-0.9,0.6c-0.7,3.4-0.6,7,0.3,10.4c0.1,0.4,0.4,0.6,0.8,0.6
				c0.1,0,0.1,0,0.2,0c0.4-0.1,0.7-0.5,0.6-1C1.5,26.3,1.4,22.9,2,19.7z"/>
			<path class="st0" d="M4.9,25.6c0,0.4,0.4,0.7,0.8,0.7c0,0,0,0,0.1,0c0.4,0,0.8-0.4,0.7-0.9c-0.3-3.1,0.3-6.2,1.6-8.9
				c0.2-0.4,0-0.9-0.4-1.1c-0.4-0.2-0.9,0-1.1,0.4C5.2,18.9,4.6,22.3,4.9,25.6z"/>
			<path class="st0" d="M30.1,2.5c3.1,0.9,6.1,2.5,8.5,4.6c0.2,0.1,0.3,0.2,0.5,0.2c0.2,0,0.4-0.1,0.6-0.3c0.3-0.3,0.3-0.8-0.1-1.1
				c-2.6-2.3-5.8-4-9.2-5c-0.4-0.1-0.9,0.1-1,0.5C29.5,1.9,29.7,2.3,30.1,2.5z"/>
			<path class="st0" d="M32.1,6.6c-0.4-0.2-0.9,0-1.1,0.4c-0.2,0.4,0,0.9,0.4,1.1c2.8,1.3,5.2,3.3,7,5.8c0.2,0.2,0.4,0.3,0.7,0.3
				c0.2,0,0.3,0,0.5-0.1c0.4-0.3,0.4-0.8,0.2-1.1C37.7,10.2,35.1,8,32.1,6.6z"/>
			<path class="st0" d="M40.1,29.6c-2.3-1.3-8.7-4.2-11.4-5.3c0-0.1,0-0.2,0-0.3c0-2.6-2.2-4.8-4.8-4.8c-0.2,0-0.4,0-0.5,0
				c-0.7-6-1-10.3-1-12c0-5.6,1.2-5.6,1.6-5.6s1.6,0,1.6,5.6c0,1.9-0.3,5.3-0.8,9.9c0,0.4,0.3,0.8,0.7,0.9c0.4,0,0.8-0.3,0.9-0.7
				c0.5-4.7,0.8-8.1,0.8-10.1C27.2,3.5,26.8,0,24,0c-2.8,0-3.2,3.5-3.2,7.2c0,2.3,0.6,7.9,1.1,12.5c-1.6,0.8-2.7,2.4-2.7,4.3
				c0,1.1,0.3,2,0.9,2.8c-2.9,2.1-7.9,5.8-9.9,6.9c-4.8,2.8-5.4,1.8-5.6,1.4c-0.2-0.4-0.8-1.4,4-4.2c1.6-1,4.7-2.4,9-4.3
				c0.4-0.2,0.6-0.6,0.4-1.1c-0.2-0.4-0.6-0.6-1.1-0.4c-4.3,1.9-7.4,3.4-9.1,4.4c-3.2,1.9-6,3.9-4.6,6.4c0.5,0.9,1.3,1.3,2.3,1.3
				c1.6,0,3.5-1,5.5-2.1c2.1-1.2,7.3-5.1,10.2-7.2c0.8,0.5,1.7,0.8,2.7,0.8c2,0,3.7-1.2,4.4-2.9c4.3,1.9,9.1,4.1,10.9,5.1
				c4.8,2.8,4.3,3.8,4,4.2c-0.2,0.4-0.8,1.4-5.6-1.4c-1.6-1-4.5-2.9-8.2-5.6c-0.4-0.3-0.9-0.2-1.1,0.2c-0.3,0.4-0.2,0.9,0.2,1.1
				c3.8,2.8,6.6,4.7,8.3,5.7c2,1.2,4,2.1,5.5,2.1c1,0,1.8-0.4,2.3-1.3C46.1,33.5,43.3,31.5,40.1,29.6z M24,27.2
				c-1.8,0-3.2-1.4-3.2-3.2c0-1.8,1.4-3.2,3.2-3.2c1.8,0,3.2,1.4,3.2,3.2C27.2,25.7,25.7,27.2,24,27.2z"/>
			<path class="st0" d="M47.6,19.8c-0.1-0.4-0.5-0.7-0.9-0.7c-0.4,0.1-0.7,0.5-0.6,0.9c0.4,2,0.4,4.1,0.2,6.2c0,0.4,0.3,0.8,0.7,0.9
				c0,0,0.1,0,0.1,0c0.4,0,0.8-0.3,0.8-0.7C48.1,24.2,48,22,47.6,19.8z"/>
			<path class="st0" d="M39.5,40.1c-2.3,2.3-5.2,4-8.3,5.1c-0.4,0.1-0.6,0.6-0.5,1c0.1,0.3,0.4,0.5,0.8,0.5c0.1,0,0.2,0,0.3,0
				c3.3-1.1,6.4-3,8.9-5.4c0.3-0.3,0.3-0.8,0-1.1C40.4,39.8,39.9,39.8,39.5,40.1z"/>
			<path class="st0" d="M42.2,8.4C41.9,8,41.4,8,41,8.3c-0.3,0.3-0.4,0.8-0.1,1.1c1.3,1.5,2.3,3,3.1,4.5c0.1,0.3,0.4,0.4,0.7,0.4
				c0.1,0,0.2,0,0.4-0.1c0.4-0.2,0.6-0.7,0.4-1.1C44.6,11.6,43.5,9.9,42.2,8.4z"/>
			<path class="st0" d="M25.6,43.1C25.6,43.1,25.7,43.1,25.6,43.1c3.4-0.3,6.6-1.5,9.4-3.4c0.4-0.3,0.4-0.8,0.2-1.1
				c-0.3-0.4-0.8-0.4-1.1-0.2c-2.5,1.8-5.5,2.8-8.5,3.1c-0.4,0-0.8,0.4-0.7,0.9C24.9,42.8,25.2,43.1,25.6,43.1z"/>
			<path class="st0" d="M16.3,45c-1.9-0.7-3.8-1.7-5.5-2.9c-0.4-0.3-0.9-0.2-1.1,0.2c-0.3,0.4-0.2,0.9,0.2,1.1
				c1.8,1.3,3.8,2.3,5.8,3.1c0.1,0,0.2,0,0.3,0c0.3,0,0.6-0.2,0.8-0.5C16.9,45.6,16.7,45.1,16.3,45z"/>
			<path class="st0" d="M28.1,46c-1.9,0.4-3.8,0.5-5.5,0.4c-0.4,0-0.8,0.3-0.8,0.8c0,0.4,0.3,0.8,0.8,0.8c0.4,0,0.8,0,1.2,0
				c1.5,0,3.1-0.2,4.7-0.5c0.4-0.1,0.7-0.5,0.6-0.9C29,46.2,28.5,45.9,28.1,46z"/>
		</g>
	</g>
</g>
</svg>
