<?xml version="1.0" standalone="no"?>
<!DOCTYPE svg PUBLIC "-//W3C//DTD SVG 20010904//EN"
 "http://www.w3.org/TR/2001/REC-SVG-20010904/DTD/svg10.dtd">
<svg version="1.0" xmlns="http://www.w3.org/2000/svg"
 width="500.000000pt" height="250.000000pt" viewBox="0 0 500.000000 250.000000"
 preserveAspectRatio="xMidYMid meet">
<rect width="100%" height="100%" fill="#ffffff" />
<g transform="translate(0.000000,250.000000) scale(0.100000,-0.100000)"
fill="#d72718" stroke="none">
<path d="M0 1250 l0 -1250 625 0 625 0 0 1250 0 1250 -625 0 -625 0 0 -1250z"/>
<path d="M3750 1250 l0 -1250 625 0 625 0 0 1250 0 1250 -625 0 -625 0 0
-1250z"/>
<path d="M2415 2119 c-44 -88 -88 -168 -98 -177 -17 -15 -21 -15 -50 2 -126
73 -155 87 -151 69 2 -10 27 -134 54 -277 52 -267 53 -286 11 -286 -10 0 -66
52 -125 115 -59 63 -111 115 -115 115 -5 0 -20 -29 -35 -64 -15 -36 -33 -67
-40 -69 -6 -3 -74 9 -149 25 -76 17 -140 28 -143 25 -3 -2 16 -70 42 -150 26
-79 44 -152 41 -160 -3 -9 -31 -29 -63 -45 l-56 -28 123 -100 c315 -255 364
-297 371 -308 4 -7 -7 -50 -23 -95 -17 -45 -29 -85 -26 -87 2 -3 105 13 228
35 230 41 251 41 264 2 3 -11 1 -93 -5 -183 -5 -89 -10 -189 -10 -220 l0 -58
40 0 40 0 0 58 c0 31 -5 131 -10 220 -6 90 -8 172 -5 183 12 38 34 38 264 -2
123 -22 226 -37 228 -35 3 3 -9 42 -26 87 -16 45 -27 88 -23 95 4 7 108 94
232 194 124 100 233 190 244 200 17 17 16 18 -38 43 -31 14 -59 34 -63 43 -3
9 15 82 41 161 26 80 45 147 42 150 -2 2 -66 -9 -142 -25 -76 -16 -144 -28
-150 -25 -7 2 -25 33 -40 69 -15 35 -30 64 -35 64 -4 0 -56 -52 -115 -115 -59
-63 -115 -115 -125 -115 -42 0 -41 19 11 286 27 143 52 267 54 277 4 18 -15 9
-155 -72 -25 -14 -29 -14 -46 1 -10 9 -54 89 -98 177 -44 89 -82 161 -85 161
-3 0 -41 -72 -85 -161z"/>
</g>
</svg>
